<svg width="32" height="32" viewBox="0 0 32 32" fill="none" xmlns="http://www.w3.org/2000/svg">
<path d="M27.0612 15.9391C27.201 16.0785 27.312 16.2441 27.3877 16.4264C27.4634 16.6087 27.5024 16.8042 27.5024 17.0016C27.5024 17.199 27.4634 17.3945 27.3877 17.5769C27.312 17.7592 27.201 17.9248 27.0612 18.0641L17.0612 28.0641C16.9218 28.204 16.7563 28.3149 16.5739 28.3906C16.3916 28.4663 16.1961 28.5053 15.9987 28.5053C15.8013 28.5053 15.6058 28.4663 15.4235 28.3906C15.2411 28.3149 15.0756 28.204 14.9362 28.0641L4.9362 18.0641C4.79667 17.9246 4.68599 17.759 4.61047 17.5766C4.53496 17.3943 4.49609 17.1989 4.49609 17.0016C4.49609 16.8043 4.53496 16.6089 4.61047 16.4266C4.68599 16.2443 4.79667 16.0787 4.9362 15.9391C5.07573 15.7996 5.24137 15.6889 5.42367 15.6134C5.60598 15.5379 5.80137 15.499 5.9987 15.499C6.19602 15.499 6.39141 15.5379 6.57372 15.6134C6.75602 15.6889 6.92167 15.7996 7.0612 15.9391L15.9999 24.8754L24.9387 15.9354C25.0782 15.7962 25.2439 15.6858 25.4261 15.6106C25.6083 15.5355 25.8036 15.497 26.0007 15.4973C26.1978 15.4977 26.393 15.5369 26.5749 15.6127C26.7569 15.6885 26.9221 15.7994 27.0612 15.9391ZM14.9362 18.0641C15.0756 18.204 15.2411 18.3149 15.4235 18.3906C15.6058 18.4663 15.8013 18.5053 15.9987 18.5053C16.1961 18.5053 16.3916 18.4663 16.5739 18.3906C16.7563 18.3149 16.9218 18.204 17.0612 18.0641L27.0612 8.06413C27.2007 7.9246 27.3114 7.75895 27.3869 7.57665C27.4624 7.39434 27.5013 7.19895 27.5013 7.00163C27.5013 6.8043 27.4624 6.60891 27.3869 6.4266C27.3114 6.2443 27.2007 6.07865 27.0612 5.93913C26.9217 5.7996 26.756 5.68891 26.5737 5.6134C26.3914 5.53789 26.196 5.49902 25.9987 5.49902C25.8014 5.49902 25.606 5.53789 25.4237 5.6134C25.2414 5.68891 25.0757 5.7996 24.9362 5.93913L15.9999 14.8754L7.0612 5.93913C6.7794 5.65733 6.39721 5.49902 5.9987 5.49902C5.60018 5.49902 5.21799 5.65733 4.9362 5.93913C4.6544 6.22092 4.49609 6.60311 4.49609 7.00163C4.49609 7.40014 4.6544 7.78233 4.9362 8.06413L14.9362 18.0641Z" fill="#878EA1"/>
</svg>
