<svg width="60" height="60" viewBox="0 0 60 60" fill="none" xmlns="http://www.w3.org/2000/svg">
<g clip-path="url(#clip0_61_6)">
<path d="M10.625 4.83609e-06H49.375C50.7707 -0.00134432 52.1529 0.279605 53.4426 0.826775C54.7322 1.37394 55.904 2.17659 56.8909 3.18878C57.8778 4.20097 58.6604 5.40283 59.1939 6.72558C59.7274 8.04832 60.0013 9.46599 60 10.8974V49.1026C60.0013 50.534 59.7274 51.9517 59.1939 53.2744C58.6604 54.5972 57.8778 55.799 56.8909 56.8112C55.904 57.8234 54.7322 58.6261 53.4426 59.1732C52.1529 59.7204 50.7707 60.0013 49.375 60H10.625C9.22934 60.0013 7.84711 59.7204 6.55744 59.1732C5.26776 58.6261 4.09595 57.8234 3.10906 56.8112C2.12218 55.799 1.3396 54.5972 0.806105 53.2744C0.272615 51.9517 -0.00131071 50.534 4.71519e-06 49.1026V10.8974C-0.00131071 9.46599 0.272615 8.04832 0.806105 6.72558C1.3396 5.40283 2.12218 4.20097 3.10906 3.18878C4.09595 2.17659 5.26776 1.37394 6.55744 0.826775C7.84711 0.279605 9.22934 -0.00134432 10.625 4.83609e-06Z" fill="#2965F1"/>
<path d="M15.8526 24.7343L16.4429 31.3223H31.1857V24.7343H15.8526ZM14.666 11.4L15.2649 17.9881H31.1857V11.4H14.666ZM31.1857 41.8442L31.1569 41.8518L23.8198 39.8707L23.3507 34.6165H16.7373L17.6602 44.9607L31.1554 48.7068L31.1857 48.6985V41.8442Z" fill="#EBEBEB"/>
<path d="M46.4761 24.7343L47.6653 11.4H31.1623V17.9881H40.4454L39.846 24.7343H31.1623V31.3224H39.2748L38.5099 39.8666L31.1621 41.8498V48.7037L44.668 44.9607L44.767 43.8476L46.3154 26.5034L46.4761 24.7343Z" fill="white"/>
</g>
<defs>
<clipPath id="clip0_61_6">
<rect width="60" height="60" fill="white"/>
</clipPath>
</defs>
</svg>
