<svg width="40" height="46" viewBox="0 0 40 46" fill="none" xmlns="http://www.w3.org/2000/svg">
<path d="M17.9837 19.4954C17.2963 19.8925 16.742 20.4845 16.391 21.1965C16.0399 21.9086 15.9079 22.7088 16.0117 23.4958C16.1154 24.2829 16.4502 25.0216 16.9737 25.6184C17.4973 26.2152 18.186 26.6433 18.9528 26.8487C19.7197 27.0541 20.5302 27.0275 21.282 26.7722C22.0337 26.5169 22.6928 26.0445 23.1761 25.4146C23.6593 24.7847 23.9449 24.0257 23.9967 23.2335C24.0486 22.4413 23.8644 21.6516 23.4674 20.9641C23.2038 20.5076 22.8528 20.1074 22.4346 19.7866C22.0163 19.4657 21.5389 19.2304 21.0297 19.094C20.5205 18.9576 19.9894 18.9229 19.4668 18.9917C18.9442 19.0606 18.4402 19.2318 17.9837 19.4954ZM35.9794 23.8504C35.7128 23.5491 35.4348 23.2472 35.1456 22.9446C35.3502 22.73 35.5481 22.5154 35.7394 22.3007C39.3485 18.2457 40.8722 14.1787 39.4605 11.7333C38.1068 9.38888 34.0808 8.69005 29.041 9.67081C28.5445 9.76812 28.0506 9.87776 27.5594 9.99973C27.4654 9.67581 27.3654 9.35356 27.2595 9.03297C25.5449 3.88022 22.7826 0.530029 19.9602 0.530029C17.2529 0.530029 14.6365 3.67027 12.9679 8.52809C12.804 9.00731 12.652 9.49019 12.512 9.97674C12.1835 9.89609 11.8539 9.82178 11.5233 9.75379C6.20557 8.66206 1.92561 9.38088 0.512954 11.8273C-0.837718 14.1737 0.574939 18.0078 3.94812 21.8789C4.28137 22.2621 4.62529 22.6367 4.97987 23.0026C4.56297 23.4315 4.16807 23.8614 3.80016 24.2873C0.507956 28.1033 -0.823721 31.8754 0.524952 34.2119C1.91761 36.6243 6.14059 37.4111 11.2803 36.4023C11.6969 36.3197 12.1111 36.2267 12.523 36.1234C12.6737 36.6499 12.8403 37.1721 13.0229 37.69C14.6845 42.4489 17.2859 45.4881 19.9842 45.4881C22.7696 45.4881 25.5629 42.2229 27.2545 37.2641C27.3884 36.8722 27.5144 36.4643 27.6344 36.0464C28.1676 36.1797 28.7031 36.2974 29.241 36.3993C34.1938 37.3361 38.1248 36.5993 39.4705 34.2618C40.8602 31.8474 39.4275 27.7974 35.9764 23.8564L35.9794 23.8504ZM2.17655 12.7841C3.04334 11.2784 6.54449 10.6906 11.1354 11.6333C11.4286 11.694 11.7286 11.7606 12.0352 11.8333C11.5869 13.8163 11.2706 15.8269 11.0884 17.8518C9.43165 19.0172 7.85206 20.2885 6.35954 21.6579C6.03095 21.318 5.71103 20.9697 5.39977 20.6132C2.50047 17.299 1.36275 14.1977 2.17655 12.7841ZM10.9124 25.6589C9.76471 24.7901 8.69797 23.8994 7.7302 23.0046C8.69797 22.1148 9.76471 21.228 10.9094 20.3612C10.8681 21.2443 10.8478 22.1278 10.8484 23.0116C10.8491 23.8954 10.8704 24.7778 10.9124 25.6589ZM10.9124 34.5158C8.96415 34.9489 6.95279 35.0197 4.97887 34.7247C4.43775 34.6826 3.91102 34.5299 3.43126 34.276C2.95149 34.0222 2.52888 33.6727 2.18955 33.2491C1.37175 31.8314 2.44049 28.8032 5.2558 25.539C5.60972 25.1297 5.9763 24.7298 6.35554 24.3393C7.84819 25.716 9.43026 26.9924 11.0914 28.1603C11.276 30.212 11.5959 32.2493 12.0492 34.2589C11.6732 34.3528 11.295 34.4375 10.9144 34.5128L10.9124 34.5158ZM26.8716 16.4462C26.1177 15.971 25.3546 15.5111 24.5821 15.0665C23.8216 14.6293 23.0525 14.208 22.2747 13.8028C23.6074 13.2419 24.918 12.7641 26.1827 12.3742C26.481 13.719 26.7113 15.0781 26.8726 16.4462H26.8716ZM14.7825 9.14794C16.2121 4.98695 18.3286 2.44956 19.9602 2.44956C21.6978 2.44956 23.9593 5.1879 25.4319 9.63682C25.5279 9.92675 25.6185 10.2183 25.7038 10.5116C23.7646 11.113 21.8672 11.8421 20.0242 12.6941C18.1888 11.8318 16.2973 11.0943 14.3626 10.4866C14.4919 10.0381 14.6322 9.5925 14.7835 9.14994L14.7825 9.14794ZM13.8827 12.3472C15.2022 12.7624 16.4998 13.2439 17.7708 13.7898C16.1965 14.6023 14.6635 15.4874 13.1719 16.4452C13.3498 15.0145 13.5898 13.6408 13.8837 12.3502L13.8827 12.3472ZM13.1719 29.566C13.9164 30.0425 14.6719 30.5018 15.4383 30.9437C16.2201 31.3935 17.0123 31.8248 17.8148 32.2373C16.5355 32.8029 15.2281 33.3024 13.8977 33.734C13.5978 32.4223 13.3548 31.0276 13.1729 29.569L13.1719 29.566ZM25.4349 36.6383C24.837 38.5421 23.8939 40.3196 22.6526 41.882C22.3457 42.3295 21.9503 42.7094 21.4909 42.9981C21.0314 43.2868 20.5176 43.4783 19.9812 43.5606C18.3446 43.5606 16.2551 41.1222 14.8345 37.0532C14.6672 36.572 14.5132 36.0864 14.3726 35.5965C16.3166 34.9694 18.2158 34.2111 20.0572 33.3271C21.9155 34.1848 23.8282 34.9195 25.7828 35.5265C25.6762 35.8998 25.5605 36.27 25.4359 36.6373L25.4349 36.6383ZM26.2487 33.662C24.969 33.2621 23.6403 32.7802 22.2877 32.2113C23.0502 31.8114 23.8166 31.3879 24.5871 30.9407C25.3809 30.4828 26.1541 30.0132 26.9066 29.532C26.7564 30.9194 26.5352 32.2982 26.2437 33.663L26.2487 33.662ZM27.2485 23.0026C27.2485 24.3676 27.2058 25.7316 27.1205 27.0946C26.0128 27.8444 24.8441 28.5762 23.6273 29.2781C22.4106 29.9799 21.2159 30.6197 20.0382 31.2016C18.7992 30.6077 17.5841 29.9679 16.3931 29.2821C15.2021 28.5962 14.0463 27.8701 12.9259 27.1036C12.8226 25.7412 12.7706 24.3749 12.77 23.0046C12.77 21.6382 12.821 20.2719 12.9229 18.9056C14.0297 18.1498 15.1904 17.4179 16.3901 16.7251C17.5898 16.0323 18.8105 15.3894 20.0192 14.8086C21.2429 15.4031 22.4446 16.0403 23.6243 16.7201C24.8041 17.3999 25.9644 18.1181 27.1055 18.8746C27.2035 20.2449 27.2525 21.6172 27.2525 22.9916L27.2485 23.0026ZM29.399 11.5554C33.7169 10.7156 36.9731 11.2804 37.7889 12.6931C38.6577 14.1977 37.412 17.5219 34.2968 21.0241C34.1248 21.2173 33.9462 21.4113 33.7609 21.6059C32.2426 20.2333 30.6326 18.9657 28.9421 17.8118C28.7713 15.8092 28.4667 13.8202 28.0303 11.8583C28.4968 11.7436 28.9531 11.6437 29.399 11.5584V11.5554ZM29.107 20.2862C30.2472 21.1186 31.3434 22.0096 32.3912 22.9556C31.3479 23.9171 30.255 24.8235 29.117 25.6709C29.1517 24.7811 29.1687 23.8907 29.168 22.9996C29.168 22.0945 29.1473 21.1897 29.106 20.2852L29.107 20.2862ZM37.8049 33.2971C36.9881 34.7157 33.8319 35.3076 29.5959 34.5058C29.1107 34.4145 28.6128 34.3055 28.1023 34.1789C28.528 32.1916 28.8189 30.1778 28.9731 28.1513C30.6592 26.9772 32.2626 25.6884 33.7719 24.2943C34.0385 24.5689 34.2901 24.8421 34.5267 25.1141C35.8775 26.583 36.9464 28.288 37.6799 30.1438C37.9145 30.6331 38.0463 31.1652 38.0671 31.7074C38.0879 32.2496 37.9973 32.7903 37.8009 33.2961L37.8049 33.2971Z" fill="white"/>
</svg>
