<svg width="42" height="43" viewBox="0 0 42 43" fill="none" xmlns="http://www.w3.org/2000/svg">
<path d="M16 32.631L14.333 39.298L12.111 41.52H29.889L27.667 39.298L26 32.631M1 23.742H41M5.444 32.631H36.556C37.1396 32.631 37.7175 32.5161 38.2566 32.2927C38.7958 32.0694 39.2857 31.7421 39.6984 31.3294C40.111 30.9167 40.4384 30.4268 40.6617 29.8877C40.8851 29.3485 41 28.7706 41 28.187V5.96402C41 5.38042 40.8851 4.80255 40.6617 4.26337C40.4384 3.7242 40.111 3.2343 39.6984 2.82164C39.2857 2.40897 38.7958 2.08163 38.2566 1.8583C37.7175 1.63497 37.1396 1.52002 36.556 1.52002H5.444C4.26538 1.52002 3.13503 1.98823 2.30162 2.82164C1.46821 3.65505 1 4.7854 1 5.96402V28.187C1 29.3656 1.46821 30.496 2.30162 31.3294C3.13503 32.1628 4.26538 32.631 5.444 32.631Z" stroke="white" stroke-width="2" stroke-linecap="round" stroke-linejoin="round"/>
</svg>
