<svg width="148" height="44" viewBox="0 0 148 44" fill="none" xmlns="http://www.w3.org/2000/svg">
<g clip-path="url(#clip0_97_817)">
<path d="M4.625 12H43.375C44.7707 11.9996 46.1529 12.0932 47.4426 12.2756C48.7322 12.458 49.9041 12.7255 50.8909 13.0629C51.8778 13.4003 52.6604 13.8009 53.1939 14.2419C53.7274 14.6828 54.0013 15.1553 54 15.6325V28.3675C54.0013 28.8447 53.7274 29.3172 53.1939 29.7581C52.6604 30.1991 51.8778 30.5997 50.8909 30.9371C49.9041 31.2745 48.7322 31.542 47.4426 31.7244C46.1529 31.9068 44.7707 32.0004 43.375 32H4.625C3.22934 32.0004 1.84711 31.9068 0.557437 31.7244C-0.732241 31.542 -1.90405 31.2745 -2.89094 30.9371C-3.87782 30.5997 -4.6604 30.1991 -5.19389 29.7581C-5.72738 29.3172 -6.00131 28.8447 -6 28.3675V15.6325C-6.00131 15.1553 -5.72738 14.6828 -5.19389 14.2419C-4.6604 13.8009 -3.87782 13.4003 -2.89094 13.0629C-1.90405 12.7255 -0.732241 12.458 0.557437 12.2756C1.84711 12.0932 3.22934 11.9996 4.625 12V12Z" fill="#F7DF1E"/>
<path d="M27.8583 27.6493C28.2612 28.3071 28.7853 28.7906 29.7123 28.7906C30.491 28.7906 30.9885 28.4014 30.9885 27.8636C30.9885 27.2191 30.4774 26.9909 29.6202 26.616L29.1504 26.4144C27.7942 25.8366 26.8933 25.1128 26.8933 23.5826C26.8933 22.1731 27.9672 21.1001 29.6456 21.1001C30.8406 21.1001 31.6996 21.516 32.3187 22.6049L30.8552 23.5445C30.5329 22.9668 30.1853 22.7391 29.6456 22.7391C29.0952 22.7391 28.7463 23.0883 28.7463 23.5445C28.7463 24.1083 29.0955 24.3366 29.9018 24.6858L30.3717 24.8871C31.9685 25.5718 32.8701 26.2699 32.8701 27.8395C32.8701 29.5315 31.5409 30.4585 29.7558 30.4585C28.0104 30.4585 26.8828 29.6267 26.331 28.5366L27.8583 27.6493ZM21.2193 27.8121C21.5145 28.336 21.7831 28.7788 22.4288 28.7788C23.0463 28.7788 23.4358 28.5372 23.4358 27.5979V21.2074H25.3152V27.6233C25.3152 29.5693 24.1742 30.455 22.5088 30.455C21.0041 30.455 20.1326 29.6763 19.6895 28.7383L21.2193 27.8121Z" fill="black"/>
</g>
<path d="M44.3031 29.22C43.4098 29.22 42.6298 29.06 41.9631 28.74C41.3098 28.4067 40.7498 27.9467 40.2831 27.36L42.3831 25.34C42.6231 25.6733 42.9031 25.9267 43.2231 26.1C43.5565 26.2733 43.9298 26.36 44.3431 26.36C44.7431 26.36 45.0898 26.28 45.3831 26.12C45.6765 25.9467 45.9098 25.7067 46.0831 25.4C46.2565 25.08 46.3431 24.6867 46.3431 24.22V14.88H49.5031V24.04C49.5031 25.0933 49.2898 26.0067 48.8631 26.78C48.4365 27.5533 47.8365 28.1533 47.0631 28.58C46.2898 29.0067 45.3698 29.22 44.3031 29.22ZM55.1355 29.2C54.2422 29.2 53.4422 28.98 52.7355 28.54C52.0422 28.1 51.4888 27.5 51.0755 26.74C50.6755 25.98 50.4755 25.1133 50.4755 24.14C50.4755 23.1667 50.6755 22.3 51.0755 21.54C51.4888 20.78 52.0422 20.18 52.7355 19.74C53.4422 19.3 54.2422 19.08 55.1355 19.08C55.7888 19.08 56.3755 19.2067 56.8955 19.46C57.4288 19.7133 57.8622 20.0667 58.1955 20.52C58.5288 20.96 58.7155 21.4667 58.7555 22.04V26.24C58.7155 26.8133 58.5288 27.3267 58.1955 27.78C57.8755 28.22 57.4488 28.5667 56.9155 28.82C56.3822 29.0733 55.7888 29.2 55.1355 29.2ZM55.7555 26.44C56.4088 26.44 56.9355 26.2267 57.3355 25.8C57.7355 25.36 57.9355 24.8067 57.9355 24.14C57.9355 23.6867 57.8422 23.2867 57.6555 22.94C57.4822 22.5933 57.2288 22.3267 56.8955 22.14C56.5755 21.94 56.2022 21.84 55.7755 21.84C55.3488 21.84 54.9688 21.94 54.6355 22.14C54.3155 22.3267 54.0555 22.5933 53.8555 22.94C53.6688 23.2867 53.5755 23.6867 53.5755 24.14C53.5755 24.58 53.6688 24.9733 53.8555 25.32C54.0422 25.6667 54.3022 25.94 54.6355 26.14C54.9688 26.34 55.3422 26.44 55.7555 26.44ZM57.8155 29V26.38L58.2755 24.02L57.8155 21.66V19.28H60.8155V29H57.8155ZM65.3779 29L61.2579 19.28H64.5579L67.3579 27.38H65.9179L68.7179 19.28H71.9579L67.8379 29H65.3779ZM76.1944 29.2C75.3011 29.2 74.5011 28.98 73.7944 28.54C73.1011 28.1 72.5478 27.5 72.1344 26.74C71.7344 25.98 71.5344 25.1133 71.5344 24.14C71.5344 23.1667 71.7344 22.3 72.1344 21.54C72.5478 20.78 73.1011 20.18 73.7944 19.74C74.5011 19.3 75.3011 19.08 76.1944 19.08C76.8478 19.08 77.4344 19.2067 77.9544 19.46C78.4878 19.7133 78.9211 20.0667 79.2544 20.52C79.5878 20.96 79.7744 21.4667 79.8144 22.04V26.24C79.7744 26.8133 79.5878 27.3267 79.2544 27.78C78.9344 28.22 78.5078 28.5667 77.9744 28.82C77.4411 29.0733 76.8478 29.2 76.1944 29.2ZM76.8144 26.44C77.4678 26.44 77.9944 26.2267 78.3944 25.8C78.7944 25.36 78.9944 24.8067 78.9944 24.14C78.9944 23.6867 78.9011 23.2867 78.7144 22.94C78.5411 22.5933 78.2878 22.3267 77.9544 22.14C77.6344 21.94 77.2611 21.84 76.8344 21.84C76.4078 21.84 76.0278 21.94 75.6944 22.14C75.3744 22.3267 75.1144 22.5933 74.9144 22.94C74.7278 23.2867 74.6344 23.6867 74.6344 24.14C74.6344 24.58 74.7278 24.9733 74.9144 25.32C75.1011 25.6667 75.3611 25.94 75.6944 26.14C76.0278 26.34 76.4011 26.44 76.8144 26.44ZM78.8744 29V26.38L79.3344 24.02L78.8744 21.66V19.28H81.8744V29H78.8744ZM87.8968 29.22C86.7368 29.22 85.7368 29.0333 84.8968 28.66C84.0701 28.2733 83.3101 27.6933 82.6168 26.92L84.6568 24.9C85.1101 25.42 85.6101 25.8267 86.1568 26.12C86.7168 26.4 87.3635 26.54 88.0968 26.54C88.7635 26.54 89.2768 26.42 89.6368 26.18C90.0101 25.94 90.1968 25.6067 90.1968 25.18C90.1968 24.7933 90.0768 24.48 89.8368 24.24C89.5968 24 89.2768 23.7933 88.8768 23.62C88.4901 23.4467 88.0568 23.28 87.5768 23.12C87.1101 22.96 86.6435 22.78 86.1768 22.58C85.7101 22.3667 85.2768 22.1067 84.8768 21.8C84.4901 21.48 84.1768 21.0867 83.9368 20.62C83.6968 20.14 83.5768 19.54 83.5768 18.82C83.5768 17.9533 83.7835 17.2067 84.1968 16.58C84.6235 15.9533 85.2101 15.48 85.9568 15.16C86.7035 14.8267 87.5635 14.66 88.5368 14.66C89.5235 14.66 90.4235 14.8333 91.2368 15.18C92.0635 15.5267 92.7435 16 93.2768 16.6L91.2368 18.62C90.8101 18.18 90.3768 17.8533 89.9368 17.64C89.5101 17.4267 89.0235 17.32 88.4768 17.32C87.9301 17.32 87.4968 17.4267 87.1768 17.64C86.8568 17.84 86.6968 18.1333 86.6968 18.52C86.6968 18.88 86.8168 19.1733 87.0568 19.4C87.2968 19.6133 87.6101 19.8 87.9968 19.96C88.3968 20.12 88.8301 20.28 89.2968 20.44C89.7768 20.6 90.2501 20.7867 90.7168 21C91.1835 21.2133 91.6101 21.4867 91.9968 21.82C92.3968 22.14 92.7168 22.5533 92.9568 23.06C93.1968 23.5533 93.3168 24.1667 93.3168 24.9C93.3168 26.2467 92.8368 27.3067 91.8768 28.08C90.9168 28.84 89.5901 29.22 87.8968 29.22ZM99.0262 29.22C98.0262 29.22 97.1195 29 96.3062 28.56C95.4928 28.12 94.8528 27.5133 94.3862 26.74C93.9195 25.9667 93.6862 25.1 93.6862 24.14C93.6862 23.1667 93.9195 22.3 94.3862 21.54C94.8662 20.7667 95.5128 20.16 96.3262 19.72C97.1395 19.28 98.0528 19.06 99.0662 19.06C99.8262 19.06 100.52 19.1933 101.146 19.46C101.786 19.7133 102.353 20.1 102.846 20.62L100.886 22.58C100.66 22.3267 100.393 22.14 100.086 22.02C99.7928 21.9 99.4528 21.84 99.0662 21.84C98.6262 21.84 98.2328 21.94 97.8862 22.14C97.5528 22.3267 97.2862 22.5933 97.0862 22.94C96.8995 23.2733 96.8062 23.6667 96.8062 24.12C96.8062 24.5733 96.8995 24.9733 97.0862 25.32C97.2862 25.6667 97.5595 25.94 97.9062 26.14C98.2528 26.34 98.6395 26.44 99.0662 26.44C99.4662 26.44 99.8195 26.3733 100.126 26.24C100.446 26.0933 100.72 25.8933 100.946 25.64L102.886 27.6C102.38 28.1333 101.806 28.54 101.166 28.82C100.526 29.0867 99.8128 29.22 99.0262 29.22ZM103.596 29V19.28H106.656V29H103.596ZM106.656 23.66L105.376 22.66C105.629 21.5267 106.056 20.6467 106.656 20.02C107.256 19.3933 108.089 19.08 109.156 19.08C109.623 19.08 110.029 19.1533 110.376 19.3C110.736 19.4333 111.049 19.6467 111.316 19.94L109.496 22.24C109.363 22.0933 109.196 21.98 108.996 21.9C108.796 21.82 108.569 21.78 108.316 21.78C107.809 21.78 107.403 21.94 107.096 22.26C106.803 22.5667 106.656 23.0333 106.656 23.66ZM111.479 29V19.28H114.539V29H111.479ZM113.019 17.94C112.539 17.94 112.139 17.78 111.819 17.46C111.512 17.1267 111.359 16.7267 111.359 16.26C111.359 15.78 111.512 15.38 111.819 15.06C112.139 14.74 112.539 14.58 113.019 14.58C113.499 14.58 113.892 14.74 114.199 15.06C114.506 15.38 114.659 15.78 114.659 16.26C114.659 16.7267 114.506 17.1267 114.199 17.46C113.892 17.78 113.499 17.94 113.019 17.94ZM121.642 29.2C120.988 29.2 120.388 29.0733 119.842 28.82C119.295 28.5667 118.848 28.22 118.502 27.78C118.155 27.3267 117.955 26.8133 117.902 26.24V22.14C117.955 21.5667 118.155 21.0467 118.502 20.58C118.848 20.1133 119.295 19.7467 119.842 19.48C120.388 19.2133 120.988 19.08 121.642 19.08C122.562 19.08 123.375 19.3 124.082 19.74C124.802 20.18 125.362 20.78 125.762 21.54C126.175 22.3 126.382 23.1667 126.382 24.14C126.382 25.1133 126.175 25.98 125.762 26.74C125.362 27.5 124.802 28.1 124.082 28.54C123.375 28.98 122.562 29.2 121.642 29.2ZM116.042 33.1V19.28H119.102V21.78L118.602 24.14L119.062 26.5V33.1H116.042ZM121.082 26.44C121.522 26.44 121.902 26.34 122.222 26.14C122.555 25.94 122.815 25.6667 123.002 25.32C123.188 24.9733 123.282 24.58 123.282 24.14C123.282 23.6867 123.188 23.2867 123.002 22.94C122.815 22.5933 122.555 22.3267 122.222 22.14C121.902 21.94 121.528 21.84 121.102 21.84C120.675 21.84 120.295 21.94 119.962 22.14C119.642 22.3267 119.388 22.5933 119.202 22.94C119.015 23.2867 118.922 23.6867 118.922 24.14C118.922 24.58 119.008 24.9733 119.182 25.32C119.368 25.6667 119.628 25.94 119.962 26.14C120.295 26.34 120.668 26.44 121.082 26.44ZM128.469 29V15.26H131.529V29H128.469ZM126.269 21.88V19.28H133.729V21.88H126.269Z" fill="white"/>
<defs>
<clipPath id="clip0_97_817">
<rect x="14" y="12" width="20" height="20" rx="4" fill="white"/>
</clipPath>
</defs>
</svg>
