<svg width="115" height="44" viewBox="0 0 115 44" fill="none" xmlns="http://www.w3.org/2000/svg">
<path d="M15.5417 12H28.4583C28.9236 11.9996 29.3843 12.0932 29.8142 12.2756C30.2441 12.458 30.6347 12.7255 30.9636 13.0629C31.2926 13.4003 31.5535 13.8009 31.7313 14.2419C31.9091 14.6828 32.0004 15.1553 32 15.6325V28.3675C32.0004 28.8447 31.9091 29.3172 31.7313 29.7581C31.5535 30.1991 31.2926 30.5997 30.9636 30.9371C30.6347 31.2745 30.2441 31.542 29.8142 31.7244C29.3843 31.9068 28.9236 32.0004 28.4583 32H15.5417C15.0764 32.0004 14.6157 31.9068 14.1858 31.7244C13.7559 31.542 13.3653 31.2745 13.0364 30.9371C12.7074 30.5997 12.4465 30.1991 12.2687 29.7581C12.0909 29.3172 11.9996 28.8447 12 28.3675V15.6325C11.9996 15.1553 12.0909 14.6828 12.2687 14.2419C12.4465 13.8009 12.7074 13.4003 13.0364 13.0629C13.3653 12.7255 13.7559 12.458 14.1858 12.2756C14.6157 12.0932 15.0764 11.9996 15.5417 12V12Z" fill="#000B1D"/>
<path d="M20.687 22.6909C20.7451 21.6538 21.253 20.7401 22.0192 20.0924C22.7705 19.4562 23.7818 19.0674 24.8853 19.0674C25.9877 19.0674 26.999 19.4562 27.7509 20.0924C28.5165 20.7401 29.0244 21.6538 29.083 22.6898C29.1412 23.7554 28.7129 24.7453 27.9615 25.4791C27.1953 26.2255 26.1056 26.6939 24.8853 26.6939C23.665 26.6939 22.5731 26.2255 21.8075 25.4791C21.0555 24.7453 20.6283 23.7554 20.687 22.6909V22.6909Z" fill="white"/>
<path d="M22.7293 22.7845C22.7591 22.2524 23.0197 21.7836 23.4128 21.4512C23.7984 21.1248 24.3173 20.9253 24.8835 20.9253C25.4491 20.9253 25.968 21.1248 26.3538 21.4512C26.7467 21.7836 27.0073 22.2524 27.0374 22.784C27.0672 23.3307 26.8474 23.8387 26.4619 24.2152C26.0688 24.5982 25.5096 24.8385 24.8835 24.8385C24.2573 24.8385 23.6971 24.5982 23.3042 24.2152C22.9184 23.8387 22.6992 23.3307 22.7293 22.7845V22.7845Z" fill="#265787"/>
<path d="M19.2989 23.8622C19.3025 24.0705 19.3689 24.4751 19.4685 24.7912C19.6779 25.4601 20.033 26.0789 20.5272 26.6242C21.0343 27.1848 21.6587 27.635 22.38 27.9547C23.1381 28.2904 23.9595 28.4615 24.8127 28.4601C25.6646 28.459 26.486 28.2845 27.2441 27.9462C27.9653 27.6235 28.5892 27.1713 29.0955 26.6104C29.5893 26.0628 29.9439 25.4429 30.1539 24.774C30.2594 24.436 30.3261 24.093 30.3528 23.7488C30.379 23.4097 30.368 23.0701 30.3199 22.7307C30.2259 22.0694 29.9971 21.4489 29.6448 20.8833C29.3226 20.3636 28.9072 19.9085 28.4133 19.5255L28.4145 19.5247L23.4305 15.6979C23.426 15.6945 23.4223 15.6909 23.4175 15.6878C23.0905 15.4368 22.5407 15.4376 22.181 15.6892C21.8174 15.9436 21.7758 16.3643 22.0994 16.6296L22.098 16.631L24.1768 18.3214L17.8409 18.3282H17.8324C17.3087 18.3287 16.8053 18.6723 16.7057 19.1065C16.6033 19.5489 16.959 19.9158 17.5035 19.9178L17.5026 19.9198L20.714 19.9136L14.9835 24.3122C14.9762 24.3176 14.9683 24.3232 14.9615 24.3285C14.4209 24.7425 14.2462 25.4308 14.5867 25.8664C14.9323 26.3093 15.667 26.3102 16.2132 25.8689L19.3408 23.3093C19.3408 23.3093 19.2952 23.6548 19.2989 23.8622V23.8622ZM27.3356 25.0194C26.6911 25.6759 25.7889 26.0482 24.8127 26.0502C23.8351 26.0518 22.9329 25.6829 22.2885 25.0275C21.9736 24.7081 21.7423 24.3406 21.5996 23.9492C21.4598 23.5645 21.4055 23.1562 21.4415 22.7442C21.4755 22.3415 21.5954 21.9574 21.7868 21.6099C21.9748 21.2683 22.2336 20.9596 22.5533 20.6984C23.1797 20.188 23.9772 19.9116 24.8113 19.9105C25.6463 19.9094 26.4432 20.1832 27.0702 20.692C27.3893 20.952 27.6479 21.2595 27.8359 21.6006C28.0281 21.9479 28.1471 22.3306 28.1826 22.7344C28.2181 23.1458 28.1637 23.5535 28.0239 23.9385C27.8809 24.3311 27.6504 24.6986 27.3356 25.0194V25.0194Z" fill="#EA7600"/>
<path d="M40.1325 29V26.56H43.4525C44.0659 26.56 44.5459 26.38 44.8925 26.02C45.2392 25.66 45.4125 25.22 45.4125 24.7C45.4125 24.34 45.3325 24.02 45.1725 23.74C45.0125 23.46 44.7859 23.24 44.4925 23.08C44.2125 22.92 43.8659 22.84 43.4525 22.84H40.1325V20.46H43.1925C43.7125 20.46 44.1325 20.3333 44.4525 20.08C44.7725 19.8133 44.9325 19.4133 44.9325 18.88C44.9325 18.36 44.7725 17.9733 44.4525 17.72C44.1325 17.4533 43.7125 17.32 43.1925 17.32H40.1325V14.88H43.7925C44.6992 14.88 45.4659 15.0467 46.0925 15.38C46.7325 15.7133 47.2192 16.16 47.5525 16.72C47.8859 17.28 48.0525 17.9 48.0525 18.58C48.0525 19.4467 47.7725 20.18 47.2125 20.78C46.6525 21.38 45.8259 21.7933 44.7325 22.02L44.8125 20.96C45.9992 21.1867 46.9125 21.6467 47.5525 22.34C48.2059 23.0333 48.5325 23.8867 48.5325 24.9C48.5325 25.6733 48.3392 26.3733 47.9525 27C47.5792 27.6133 47.0325 28.1 46.3125 28.46C45.6059 28.82 44.7525 29 43.7525 29H40.1325ZM37.7325 29V14.88H40.8325V29H37.7325ZM49.6129 29V14.48H52.6729V29H49.6129ZM58.9755 29.22C57.9222 29.22 56.9822 29.0067 56.1555 28.58C55.3422 28.14 54.7022 27.5333 54.2355 26.76C53.7689 25.9867 53.5355 25.1133 53.5355 24.14C53.5355 23.1667 53.7622 22.3 54.2155 21.54C54.6822 20.7667 55.3089 20.16 56.0955 19.72C56.8822 19.28 57.7689 19.06 58.7555 19.06C59.7155 19.06 60.5622 19.2667 61.2955 19.68C62.0289 20.0933 62.6022 20.6667 63.0155 21.4C63.4422 22.1333 63.6555 22.9733 63.6555 23.92C63.6555 24.0933 63.6422 24.28 63.6155 24.48C63.6022 24.6667 63.5689 24.8867 63.5155 25.14L55.1355 25.16V23.06L62.2155 23.04L60.8955 23.92C60.8822 23.36 60.7955 22.9 60.6355 22.54C60.4755 22.1667 60.2355 21.8867 59.9155 21.7C59.6089 21.5 59.2289 21.4 58.7755 21.4C58.2955 21.4 57.8755 21.5133 57.5155 21.74C57.1689 21.9533 56.8955 22.26 56.6955 22.66C56.5089 23.06 56.4155 23.5467 56.4155 24.12C56.4155 24.6933 56.5155 25.1867 56.7155 25.6C56.9289 26 57.2222 26.3133 57.5955 26.54C57.9822 26.7533 58.4355 26.86 58.9555 26.86C59.4355 26.86 59.8689 26.78 60.2555 26.62C60.6422 26.4467 60.9822 26.1933 61.2755 25.86L62.9555 27.54C62.4755 28.1 61.8955 28.52 61.2155 28.8C60.5355 29.08 59.7889 29.22 58.9755 29.22ZM70.9004 29V23.46C70.9004 22.9533 70.7404 22.5467 70.4204 22.24C70.1137 21.92 69.7204 21.76 69.2404 21.76C68.9071 21.76 68.6137 21.8333 68.3604 21.98C68.1071 22.1133 67.9071 22.3133 67.7604 22.58C67.6137 22.8333 67.5404 23.1267 67.5404 23.46L66.3604 22.88C66.3604 22.12 66.5271 21.4533 66.8604 20.88C67.1937 20.3067 67.6537 19.8667 68.2404 19.56C68.8404 19.24 69.5137 19.08 70.2604 19.08C70.9804 19.08 71.6137 19.2533 72.1604 19.6C72.7204 19.9333 73.1604 20.38 73.4804 20.94C73.8004 21.5 73.9604 22.1133 73.9604 22.78V29H70.9004ZM64.4804 29V19.28H67.5404V29H64.4804ZM79.4135 29.2C78.4935 29.2 77.6735 28.98 76.9535 28.54C76.2469 28.1 75.6869 27.5 75.2735 26.74C74.8735 25.98 74.6735 25.1133 74.6735 24.14C74.6735 23.1667 74.8735 22.3 75.2735 21.54C75.6869 20.78 76.2469 20.18 76.9535 19.74C77.6735 19.3 78.4935 19.08 79.4135 19.08C80.0802 19.08 80.6802 19.2067 81.2135 19.46C81.7602 19.7133 82.2069 20.0667 82.5535 20.52C82.9135 20.96 83.1135 21.4667 83.1535 22.04V26.14C83.1135 26.7133 82.9202 27.2333 82.5735 27.7C82.2269 28.1533 81.7802 28.52 81.2335 28.8C80.6869 29.0667 80.0802 29.2 79.4135 29.2ZM79.9535 26.44C80.3935 26.44 80.7735 26.3467 81.0935 26.16C81.4135 25.96 81.6669 25.6867 81.8535 25.34C82.0402 24.9933 82.1335 24.5933 82.1335 24.14C82.1335 23.6867 82.0402 23.2933 81.8535 22.96C81.6802 22.6133 81.4269 22.34 81.0935 22.14C80.7735 21.94 80.4002 21.84 79.9735 21.84C79.5469 21.84 79.1669 21.94 78.8335 22.14C78.5135 22.34 78.2535 22.6133 78.0535 22.96C77.8669 23.3067 77.7735 23.7 77.7735 24.14C77.7735 24.58 77.8669 24.9733 78.0535 25.32C78.2402 25.6667 78.5002 25.94 78.8335 26.14C79.1669 26.34 79.5402 26.44 79.9535 26.44ZM85.0135 29H82.0135V26.38L82.4735 24.02L81.9535 21.66V14.48H85.0135V29ZM91.3159 29.22C90.2626 29.22 89.3226 29.0067 88.4959 28.58C87.6826 28.14 87.0426 27.5333 86.5759 26.76C86.1092 25.9867 85.8759 25.1133 85.8759 24.14C85.8759 23.1667 86.1026 22.3 86.5559 21.54C87.0226 20.7667 87.6492 20.16 88.4359 19.72C89.2226 19.28 90.1092 19.06 91.0959 19.06C92.0559 19.06 92.9026 19.2667 93.6359 19.68C94.3692 20.0933 94.9426 20.6667 95.3559 21.4C95.7826 22.1333 95.9959 22.9733 95.9959 23.92C95.9959 24.0933 95.9826 24.28 95.9559 24.48C95.9426 24.6667 95.9092 24.8867 95.8559 25.14L87.4759 25.16V23.06L94.5559 23.04L93.2359 23.92C93.2226 23.36 93.1359 22.9 92.9759 22.54C92.8159 22.1667 92.5759 21.8867 92.2559 21.7C91.9492 21.5 91.5692 21.4 91.1159 21.4C90.6359 21.4 90.2159 21.5133 89.8559 21.74C89.5092 21.9533 89.2359 22.26 89.0359 22.66C88.8492 23.06 88.7559 23.5467 88.7559 24.12C88.7559 24.6933 88.8559 25.1867 89.0559 25.6C89.2692 26 89.5626 26.3133 89.9359 26.54C90.3226 26.7533 90.7759 26.86 91.2959 26.86C91.7759 26.86 92.2092 26.78 92.5959 26.62C92.9826 26.4467 93.3226 26.1933 93.6159 25.86L95.2959 27.54C94.8159 28.1 94.2359 28.52 93.5559 28.8C92.8759 29.08 92.1292 29.22 91.3159 29.22ZM96.8207 29V19.28H99.8807V29H96.8207ZM99.8807 23.66L98.6007 22.66C98.8541 21.5267 99.2807 20.6467 99.8807 20.02C100.481 19.3933 101.314 19.08 102.381 19.08C102.847 19.08 103.254 19.1533 103.601 19.3C103.961 19.4333 104.274 19.6467 104.541 19.94L102.721 22.24C102.587 22.0933 102.421 21.98 102.221 21.9C102.021 21.82 101.794 21.78 101.541 21.78C101.034 21.78 100.627 21.94 100.321 22.26C100.027 22.5667 99.8807 23.0333 99.8807 23.66Z" fill="white"/>
</svg>
