<svg width="119" height="44" viewBox="0 0 119 44" fill="none" xmlns="http://www.w3.org/2000/svg">
<rect x="10" y="12" width="20" height="20" rx="4" fill="white"/>
<path d="M20 18C18.1333 18 16.9667 18.8888 16.5 20.6665C17.2 19.7777 18.0167 19.4445 18.95 19.6665C19.4826 19.7932 19.8632 20.1614 20.2847 20.5687C20.9707 21.2319 21.7649 21.9999 23.5 21.9999C25.3667 21.9999 26.5333 21.111 27 19.3331C26.3 20.2219 25.4833 20.5553 24.55 20.3333C24.0177 20.2066 23.6371 19.8385 23.2156 19.4312C22.5293 18.7677 21.7348 18 20 18ZM16.5 21.9999C14.6333 21.9999 13.4667 22.8887 13 24.6666C13.7 23.7778 14.5167 23.4444 15.45 23.6667C15.9823 23.7936 16.3629 24.1615 16.7844 24.5685C17.4707 25.232 18.2652 26 20 26C21.8667 26 23.0333 25.1112 23.5 23.3332C22.8 24.2221 21.9833 24.5555 21.05 24.3332C20.5174 24.2065 20.1368 23.8384 19.7153 23.4313C19.0293 22.7678 18.2351 21.9999 16.5 21.9999Z" fill="#00ACC1"/>
<path d="M41.1651 29V15.08H44.3051V29H41.1651ZM36.7451 17.62V14.88H48.7251V17.62H36.7451ZM51.2822 29.2C50.3888 29.2 49.5888 28.98 48.8822 28.54C48.1888 28.1 47.6355 27.5 47.2222 26.74C46.8222 25.98 46.6222 25.1133 46.6222 24.14C46.6222 23.1667 46.8222 22.3 47.2222 21.54C47.6355 20.78 48.1888 20.18 48.8822 19.74C49.5888 19.3 50.3888 19.08 51.2822 19.08C51.9355 19.08 52.5222 19.2067 53.0422 19.46C53.5755 19.7133 54.0088 20.0667 54.3422 20.52C54.6755 20.96 54.8622 21.4667 54.9022 22.04V26.24C54.8622 26.8133 54.6755 27.3267 54.3422 27.78C54.0222 28.22 53.5955 28.5667 53.0622 28.82C52.5288 29.0733 51.9355 29.2 51.2822 29.2ZM51.9022 26.44C52.5555 26.44 53.0822 26.2267 53.4822 25.8C53.8822 25.36 54.0822 24.8067 54.0822 24.14C54.0822 23.6867 53.9888 23.2867 53.8022 22.94C53.6288 22.5933 53.3755 22.3267 53.0422 22.14C52.7222 21.94 52.3488 21.84 51.9222 21.84C51.4955 21.84 51.1155 21.94 50.7822 22.14C50.4622 22.3267 50.2022 22.5933 50.0022 22.94C49.8155 23.2867 49.7222 23.6867 49.7222 24.14C49.7222 24.58 49.8155 24.9733 50.0022 25.32C50.1888 25.6667 50.4488 25.94 50.7822 26.14C51.1155 26.34 51.4888 26.44 51.9022 26.44ZM53.9622 29V26.38L54.4222 24.02L53.9622 21.66V19.28H56.9622V29H53.9622ZM58.4645 29V19.28H61.5245V29H58.4645ZM60.0045 17.94C59.5245 17.94 59.1245 17.78 58.8045 17.46C58.4978 17.1267 58.3445 16.7267 58.3445 16.26C58.3445 15.78 58.4978 15.38 58.8045 15.06C59.1245 14.74 59.5245 14.58 60.0045 14.58C60.4845 14.58 60.8778 14.74 61.1845 15.06C61.4912 15.38 61.6445 15.78 61.6445 16.26C61.6445 16.7267 61.4912 17.1267 61.1845 17.46C60.8778 17.78 60.4845 17.94 60.0045 17.94ZM63.0272 29V14.48H66.0872V29H63.0272ZM69.9698 29L66.6098 19.28H69.6098L71.6898 26.34L70.8098 26.36L73.1098 19.28H75.5899L77.9099 26.36L77.0099 26.34L79.1099 19.28H82.1099L78.7499 29H76.2498L73.9898 22.28H74.7499L72.4498 29H69.9698ZM82.4846 29V19.28H85.5446V29H82.4846ZM84.0246 17.94C83.5446 17.94 83.1446 17.78 82.8246 17.46C82.5179 17.1267 82.3646 16.7267 82.3646 16.26C82.3646 15.78 82.5179 15.38 82.8246 15.06C83.1446 14.74 83.5446 14.58 84.0246 14.58C84.5046 14.58 84.8979 14.74 85.2046 15.06C85.5112 15.38 85.6646 15.78 85.6646 16.26C85.6646 16.7267 85.5112 17.1267 85.2046 17.46C84.8979 17.78 84.5046 17.94 84.0246 17.94ZM93.4672 29V23.46C93.4672 22.9533 93.3072 22.5467 92.9872 22.24C92.6806 21.92 92.2872 21.76 91.8072 21.76C91.4739 21.76 91.1806 21.8333 90.9272 21.98C90.6739 22.1133 90.4739 22.3133 90.3272 22.58C90.1806 22.8333 90.1072 23.1267 90.1072 23.46L88.9272 22.88C88.9272 22.12 89.0939 21.4533 89.4272 20.88C89.7606 20.3067 90.2206 19.8667 90.8072 19.56C91.4072 19.24 92.0806 19.08 92.8272 19.08C93.5472 19.08 94.1806 19.2533 94.7272 19.6C95.2872 19.9333 95.7272 20.38 96.0472 20.94C96.3672 21.5 96.5272 22.1133 96.5272 22.78V29H93.4672ZM87.0472 29V19.28H90.1072V29H87.0472ZM101.98 29.2C101.06 29.2 100.24 28.98 99.5204 28.54C98.8137 28.1 98.2537 27.5 97.8404 26.74C97.4404 25.98 97.2404 25.1133 97.2404 24.14C97.2404 23.1667 97.4404 22.3 97.8404 21.54C98.2537 20.78 98.8137 20.18 99.5204 19.74C100.24 19.3 101.06 19.08 101.98 19.08C102.647 19.08 103.247 19.2067 103.78 19.46C104.327 19.7133 104.774 20.0667 105.12 20.52C105.48 20.96 105.68 21.4667 105.72 22.04V26.14C105.68 26.7133 105.487 27.2333 105.14 27.7C104.794 28.1533 104.347 28.52 103.8 28.8C103.254 29.0667 102.647 29.2 101.98 29.2ZM102.52 26.44C102.96 26.44 103.34 26.3467 103.66 26.16C103.98 25.96 104.234 25.6867 104.42 25.34C104.607 24.9933 104.7 24.5933 104.7 24.14C104.7 23.6867 104.607 23.2933 104.42 22.96C104.247 22.6133 103.994 22.34 103.66 22.14C103.34 21.94 102.967 21.84 102.54 21.84C102.114 21.84 101.734 21.94 101.4 22.14C101.08 22.34 100.82 22.6133 100.62 22.96C100.434 23.3067 100.34 23.7 100.34 24.14C100.34 24.58 100.434 24.9733 100.62 25.32C100.807 25.6667 101.067 25.94 101.4 26.14C101.734 26.34 102.107 26.44 102.52 26.44ZM107.58 29H104.58V26.38L105.04 24.02L104.52 21.66V14.48H107.58V29Z" fill="white"/>
</svg>
