<svg width="74" height="44" viewBox="0 0 74 44" fill="none" xmlns="http://www.w3.org/2000/svg">
<path d="M13.8757 12H26.7923C27.2575 11.9996 27.7183 12.0932 28.1482 12.2756C28.5781 12.458 28.9687 12.7255 29.2976 13.0629C29.6266 13.4003 29.8875 13.8009 30.0653 14.2419C30.2431 14.6828 30.3344 15.1553 30.334 15.6325V28.3675C30.3344 28.8447 30.2431 29.3172 30.0653 29.7581C29.8875 30.1991 29.6266 30.5997 29.2976 30.9371C28.9687 31.2745 28.5781 31.542 28.1482 31.7244C27.7183 31.9068 27.2575 32.0004 26.7923 32H13.8757C13.4104 32.0004 12.9497 31.9068 12.5198 31.7244C12.0899 31.542 11.6993 31.2745 11.3703 30.9371C11.0414 30.5997 10.7805 30.1991 10.6027 29.7581C10.4249 29.3172 10.3335 28.8447 10.334 28.3675V15.6325C10.3335 15.1553 10.4249 14.6828 10.6027 14.2419C10.7805 13.8009 11.0414 13.4003 11.3703 13.0629C11.6993 12.7255 12.0899 12.458 12.5198 12.2756C12.9497 12.0932 13.4104 11.9996 13.8757 12V12Z" fill="#000B1D"/>
<path d="M27.6059 21.3319L21.0563 14.7829C20.6795 14.4057 20.0678 14.4057 19.6905 14.7829L18.3305 16.143L20.0556 17.8681C20.4566 17.7327 20.9162 17.8235 21.2358 18.1431C21.5569 18.4647 21.6471 18.9283 21.5083 19.3307L23.1709 20.9934C23.5732 20.8548 24.0372 20.9443 24.3584 21.2661C24.8075 21.715 24.8075 22.4425 24.3584 22.8915C23.9093 23.3407 23.1819 23.3407 22.7325 22.8915C22.3949 22.5536 22.3114 22.0575 22.4824 21.6414L20.9318 20.0908L20.9317 24.1713C21.0412 24.2255 21.1445 24.2978 21.2357 24.3887C21.6846 24.8376 21.6846 25.5649 21.2357 26.0145C20.7867 26.4634 20.0589 26.4634 19.6103 26.0145C19.1613 25.5649 19.1613 24.8376 19.6103 24.3887C19.7213 24.2779 19.8497 24.1941 19.9867 24.1379V20.0195C19.8496 19.9635 19.7214 19.8803 19.6102 19.7686C19.2702 19.4288 19.1883 18.9296 19.3627 18.512L17.6621 16.8111L13.1717 21.3016C12.7943 21.6791 12.7943 22.2909 13.1717 22.6681L19.7208 29.2171C20.0978 29.5943 20.7093 29.5943 21.0869 29.2171L27.6058 22.699C27.983 22.3216 27.983 21.7097 27.6058 21.3325" fill="#D43B1E"/>
<path d="M44.219 29.22C43.1924 29.22 42.2257 29.0333 41.319 28.66C40.4257 28.2867 39.6457 27.7733 38.979 27.12C38.3124 26.4533 37.7857 25.68 37.399 24.8C37.0257 23.9067 36.839 22.9467 36.839 21.92C36.839 20.8933 37.0324 19.94 37.419 19.06C37.8057 18.18 38.339 17.4133 39.019 16.76C39.7124 16.0933 40.519 15.58 41.439 15.22C42.359 14.8467 43.3457 14.66 44.399 14.66C45.6124 14.66 46.7124 14.88 47.699 15.32C48.699 15.76 49.5257 16.3667 50.1791 17.14L48.039 19.28C47.5857 18.6933 47.0524 18.2533 46.439 17.96C45.8257 17.6667 45.1324 17.52 44.359 17.52C43.5324 17.52 42.7924 17.7067 42.139 18.08C41.4857 18.44 40.9724 18.9533 40.599 19.62C40.239 20.2733 40.059 21.04 40.059 21.92C40.059 22.8 40.239 23.5733 40.599 24.24C40.959 24.9067 41.4524 25.4267 42.079 25.8C42.7057 26.1733 43.4257 26.36 44.239 26.36C45.0657 26.36 45.7657 26.2067 46.339 25.9C46.9257 25.58 47.3724 25.1267 47.679 24.54C47.999 23.94 48.159 23.2133 48.159 22.36L50.239 23.76L43.939 23.66V21H51.359V21.46C51.359 23.1533 51.0524 24.58 50.439 25.74C49.839 26.8867 48.999 27.7533 47.919 28.34C46.8524 28.9267 45.619 29.22 44.219 29.22ZM52.33 29V19.28H55.39V29H52.33ZM53.87 17.94C53.39 17.94 52.99 17.78 52.67 17.46C52.3633 17.1267 52.21 16.7267 52.21 16.26C52.21 15.78 52.3633 15.38 52.67 15.06C52.99 14.74 53.39 14.58 53.87 14.58C54.35 14.58 54.7433 14.74 55.05 15.06C55.3567 15.38 55.51 15.78 55.51 16.26C55.51 16.7267 55.3567 17.1267 55.05 17.46C54.7433 17.78 54.35 17.94 53.87 17.94ZM58.2727 29V15.26H61.3327V29H58.2727ZM56.0727 21.88V19.28H63.5327V21.88H56.0727Z" fill="white"/>
</svg>
