<svg width="128" height="44" viewBox="0 0 128 44" fill="none" xmlns="http://www.w3.org/2000/svg">
<path d="M28.5 12H15.5C13.567 12 12 13.567 12 15.5V28.5C12 30.433 13.567 32 15.5 32H28.5C30.433 32 32 30.433 32 28.5V15.5C32 13.567 30.433 12 28.5 12Z" fill="#2E0501"/>
<path d="M22.1669 24.2118H19.1575L18.4052 26.4955C18.3966 26.5651 18.349 26.5999 18.2625 26.5999H16.9006C16.8141 26.5999 16.7838 26.5564 16.8098 26.4694L19.5078 18.7179C19.5683 18.5874 19.6072 18.3438 19.6245 17.9871C19.6245 17.9349 19.6548 17.9088 19.7153 17.9088H21.5832C21.6264 17.9088 21.661 17.9306 21.6869 17.9741L24.6962 26.4825C24.7222 26.5608 24.6962 26.5999 24.6184 26.5999H23.0878C23.0273 26.5999 22.984 26.5695 22.9581 26.5086L22.1669 24.2118ZM19.4948 22.946H21.8296C21.795 22.8242 21.6134 22.2718 21.2848 21.2887C20.9649 20.2969 20.753 19.6183 20.6492 19.253H20.6363C20.5325 19.6966 20.152 20.9277 19.4948 22.946Z" fill="#F2A032"/>
<path d="M25.5016 26.4825V20.3491C25.5016 20.2795 25.5361 20.2447 25.6053 20.2447H27.0451C27.1143 20.2447 27.1489 20.2795 27.1489 20.3491V26.4955C27.1489 26.5651 27.1143 26.5999 27.0451 26.5999H25.6183C25.5405 26.5999 25.5016 26.5608 25.5016 26.4825ZM26.9673 18.9267C26.8116 19.0833 26.5998 19.1616 26.3317 19.1616C26.0636 19.1616 25.8518 19.0833 25.6961 18.9267C25.5405 18.7701 25.4626 18.557 25.4626 18.2873C25.4626 18.0263 25.5448 17.8131 25.7091 17.6478C25.8734 17.4826 26.0853 17.3999 26.3447 17.3999C26.6041 17.3999 26.8116 17.4826 26.9673 17.6478C27.123 17.8131 27.2008 18.0263 27.2008 18.2873C27.2008 18.557 27.123 18.7701 26.9673 18.9267Z" fill="#F2A032"/>
<path d="M37.6131 29V14.88H40.7531V29H37.6131ZM42.5403 29V14.48H45.6003V29H42.5403ZM51.423 29.22C50.5297 29.22 49.7363 29.04 49.043 28.68C48.363 28.3067 47.8297 27.8 47.443 27.16C47.0563 26.5067 46.863 25.76 46.863 24.92V19.28H49.923V24.88C49.923 25.2133 49.9763 25.5 50.083 25.74C50.203 25.98 50.3763 26.1667 50.603 26.3C50.8297 26.4333 51.103 26.5 51.423 26.5C51.8763 26.5 52.2363 26.36 52.503 26.08C52.7697 25.7867 52.903 25.3867 52.903 24.88V19.28H55.963V24.9C55.963 25.7533 55.7697 26.5067 55.383 27.16C54.9963 27.8 54.463 28.3067 53.783 28.68C53.103 29.04 52.3163 29.22 51.423 29.22ZM60.7721 29.24C60.1988 29.24 59.6321 29.1667 59.0721 29.02C58.5254 28.8733 58.0121 28.6667 57.5321 28.4C57.0654 28.12 56.6654 27.8 56.3321 27.44L58.0721 25.68C58.3921 26.0267 58.7721 26.3 59.2121 26.5C59.6521 26.6867 60.1321 26.78 60.6521 26.78C61.0121 26.78 61.2854 26.7267 61.4721 26.62C61.6721 26.5133 61.7721 26.3667 61.7721 26.18C61.7721 25.94 61.6521 25.76 61.4121 25.64C61.1854 25.5067 60.8921 25.3933 60.5321 25.3C60.1721 25.1933 59.7921 25.08 59.3921 24.96C58.9921 24.84 58.6121 24.6733 58.2521 24.46C57.8921 24.2467 57.5988 23.9533 57.3721 23.58C57.1454 23.1933 57.0321 22.7067 57.0321 22.12C57.0321 21.4933 57.1921 20.9533 57.5121 20.5C57.8321 20.0333 58.2854 19.6667 58.8721 19.4C59.4588 19.1333 60.1454 19 60.9321 19C61.7588 19 62.5188 19.1467 63.2121 19.44C63.9188 19.72 64.4921 20.14 64.9321 20.7L63.1921 22.46C62.8854 22.1 62.5388 21.8467 62.1521 21.7C61.7788 21.5533 61.4121 21.48 61.0521 21.48C60.7054 21.48 60.4454 21.5333 60.2721 21.64C60.0988 21.7333 60.0121 21.8733 60.0121 22.06C60.0121 22.26 60.1254 22.42 60.3521 22.54C60.5788 22.66 60.8721 22.7667 61.2321 22.86C61.5921 22.9533 61.9721 23.0667 62.3721 23.2C62.7721 23.3333 63.1521 23.5133 63.5121 23.74C63.8721 23.9667 64.1654 24.2733 64.3921 24.66C64.6188 25.0333 64.7321 25.5267 64.7321 26.14C64.7321 27.0867 64.3721 27.84 63.6521 28.4C62.9454 28.96 61.9854 29.24 60.7721 29.24ZM67.1201 29V15.26H70.1801V29H67.1201ZM64.9201 21.88V19.28H72.3801V21.88H64.9201ZM73.0762 29V19.28H76.1362V29H73.0762ZM76.1362 23.66L74.8562 22.66C75.1095 21.5267 75.5362 20.6467 76.1362 20.02C76.7362 19.3933 77.5695 19.08 78.6362 19.08C79.1028 19.08 79.5095 19.1533 79.8562 19.3C80.2162 19.4333 80.5295 19.6467 80.7962 19.94L78.9762 22.24C78.8428 22.0933 78.6762 21.98 78.4762 21.9C78.2762 21.82 78.0495 21.78 77.7962 21.78C77.2895 21.78 76.8828 21.94 76.5762 22.26C76.2828 22.5667 76.1362 23.0333 76.1362 23.66ZM84.7457 29.2C83.8524 29.2 83.0524 28.98 82.3457 28.54C81.6524 28.1 81.0991 27.5 80.6857 26.74C80.2857 25.98 80.0857 25.1133 80.0857 24.14C80.0857 23.1667 80.2857 22.3 80.6857 21.54C81.0991 20.78 81.6524 20.18 82.3457 19.74C83.0524 19.3 83.8524 19.08 84.7457 19.08C85.3991 19.08 85.9857 19.2067 86.5057 19.46C87.0391 19.7133 87.4724 20.0667 87.8057 20.52C88.1391 20.96 88.3257 21.4667 88.3657 22.04V26.24C88.3257 26.8133 88.1391 27.3267 87.8057 27.78C87.4857 28.22 87.0591 28.5667 86.5257 28.82C85.9924 29.0733 85.3991 29.2 84.7457 29.2ZM85.3657 26.44C86.0191 26.44 86.5457 26.2267 86.9457 25.8C87.3457 25.36 87.5457 24.8067 87.5457 24.14C87.5457 23.6867 87.4524 23.2867 87.2657 22.94C87.0924 22.5933 86.8391 22.3267 86.5057 22.14C86.1857 21.94 85.8124 21.84 85.3857 21.84C84.9591 21.84 84.5791 21.94 84.2457 22.14C83.9257 22.3267 83.6657 22.5933 83.4657 22.94C83.2791 23.2867 83.1857 23.6867 83.1857 24.14C83.1857 24.58 83.2791 24.9733 83.4657 25.32C83.6524 25.6667 83.9124 25.94 84.2457 26.14C84.5791 26.34 84.9524 26.44 85.3657 26.44ZM87.4257 29V26.38L87.8857 24.02L87.4257 21.66V19.28H90.4257V29H87.4257ZM93.3081 29V15.26H96.3681V29H93.3081ZM91.1081 21.88V19.28H98.5681V21.88H91.1081ZM103.749 29.22C102.749 29.22 101.842 29 101.029 28.56C100.229 28.1067 99.5955 27.4933 99.1289 26.72C98.6622 25.9467 98.4289 25.08 98.4289 24.12C98.4289 23.16 98.6622 22.3 99.1289 21.54C99.5955 20.78 100.229 20.18 101.029 19.74C101.829 19.2867 102.736 19.06 103.749 19.06C104.762 19.06 105.669 19.28 106.469 19.72C107.269 20.16 107.902 20.7667 108.369 21.54C108.836 22.3 109.069 23.16 109.069 24.12C109.069 25.08 108.836 25.9467 108.369 26.72C107.902 27.4933 107.269 28.1067 106.469 28.56C105.669 29 104.762 29.22 103.749 29.22ZM103.749 26.44C104.189 26.44 104.576 26.3467 104.909 26.16C105.242 25.96 105.496 25.6867 105.669 25.34C105.856 24.98 105.949 24.5733 105.949 24.12C105.949 23.6667 105.856 23.2733 105.669 22.94C105.482 22.5933 105.222 22.3267 104.889 22.14C104.569 21.94 104.189 21.84 103.749 21.84C103.322 21.84 102.942 21.94 102.609 22.14C102.276 22.3267 102.016 22.5933 101.829 22.94C101.642 23.2867 101.549 23.6867 101.549 24.14C101.549 24.58 101.642 24.98 101.829 25.34C102.016 25.6867 102.276 25.96 102.609 26.16C102.942 26.3467 103.322 26.44 103.749 26.44ZM109.94 29V19.28H113V29H109.94ZM113 23.66L111.72 22.66C111.973 21.5267 112.4 20.6467 113 20.02C113.6 19.3933 114.433 19.08 115.5 19.08C115.967 19.08 116.373 19.1533 116.72 19.3C117.08 19.4333 117.393 19.6467 117.66 19.94L115.84 22.24C115.707 22.0933 115.54 21.98 115.34 21.9C115.14 21.82 114.913 21.78 114.66 21.78C114.153 21.78 113.747 21.94 113.44 22.26C113.147 22.5667 113 23.0333 113 23.66Z" fill="white"/>
</svg>
