<svg width="82" height="44" viewBox="0 0 82 44" fill="none" xmlns="http://www.w3.org/2000/svg">
<g clip-path="url(#clip0_97_835)">
<path d="M13.5417 12H26.4583C26.9236 11.9996 27.3843 12.0932 27.8142 12.2756C28.2441 12.458 28.6347 12.7255 28.9636 13.0629C29.2926 13.4003 29.5535 13.8009 29.7313 14.2419C29.9091 14.6828 30.0004 15.1553 30 15.6325V28.3675C30.0004 28.8447 29.9091 29.3172 29.7313 29.7581C29.5535 30.1991 29.2926 30.5997 28.9636 30.9371C28.6347 31.2745 28.2441 31.542 27.8142 31.7244C27.3843 31.9068 26.9236 32.0004 26.4583 32H13.5417C13.0764 32.0004 12.6157 31.9068 12.1858 31.7244C11.7559 31.542 11.3653 31.2745 11.0364 30.9371C10.7074 30.5997 10.4465 30.1991 10.2687 29.7581C10.0909 29.3172 9.99956 28.8447 10 28.3675V15.6325C9.99956 15.1553 10.0909 14.6828 10.2687 14.2419C10.4465 13.8009 10.7074 13.4003 11.0364 13.0629C11.3653 12.7255 11.7559 12.458 12.1858 12.2756C12.6157 12.0932 13.0764 11.9996 13.5417 12V12Z" fill="#2965F1"/>
<path d="M15.2842 20.2446L15.481 22.4406H20.3952V20.2446H15.2842ZM14.8887 15.7998L15.0883 17.9958H20.3952V15.7998H14.8887V15.7998ZM20.3952 25.9479L20.3856 25.9504L17.9399 25.29L17.7836 23.5386H15.5791L15.8867 26.9867L20.3851 28.2354L20.3952 28.2326V25.9479Z" fill="#EBEBEB"/>
<path d="M25.4914 20.2446L25.8878 15.7998H20.3868V17.9958H23.4812L23.2813 20.2446H20.3868V22.4406H23.0909L22.836 25.2887L20.3867 25.9497V28.2344L24.8887 26.9867L24.9217 26.6157L25.4378 20.8343L25.4914 20.2446V20.2446Z" fill="white"/>
</g>
<path d="M44.4505 29.22C43.3971 29.22 42.4171 29.04 41.5105 28.68C40.6171 28.3067 39.8305 27.7867 39.1505 27.12C38.4838 26.4533 37.9638 25.68 37.5905 24.8C37.2171 23.9067 37.0305 22.9467 37.0305 21.92C37.0305 20.8933 37.2171 19.94 37.5905 19.06C37.9638 18.1667 38.4838 17.3933 39.1505 16.74C39.8171 16.0867 40.5971 15.58 41.4905 15.22C42.3971 14.8467 43.3771 14.66 44.4305 14.66C45.5505 14.66 46.5438 14.84 47.4105 15.2C48.2905 15.56 49.0571 16.0533 49.7105 16.68L47.6105 18.8C47.2371 18.4 46.7838 18.0867 46.2505 17.86C45.7305 17.6333 45.1238 17.52 44.4305 17.52C43.8171 17.52 43.2505 17.6267 42.7305 17.84C42.2238 18.04 41.7838 18.3333 41.4105 18.72C41.0505 19.1067 40.7638 19.5733 40.5505 20.12C40.3505 20.6667 40.2505 21.2667 40.2505 21.92C40.2505 22.5867 40.3505 23.1933 40.5505 23.74C40.7638 24.2867 41.0505 24.7533 41.4105 25.14C41.7838 25.5267 42.2238 25.8267 42.7305 26.04C43.2505 26.2533 43.8171 26.36 44.4305 26.36C45.1505 26.36 45.7771 26.2467 46.3105 26.02C46.8438 25.7933 47.3038 25.48 47.6905 25.08L49.8105 27.2C49.1305 27.8267 48.3505 28.32 47.4705 28.68C46.6038 29.04 45.5971 29.22 44.4505 29.22ZM54.893 29.22C53.733 29.22 52.733 29.0333 51.893 28.66C51.0663 28.2733 50.3063 27.6933 49.613 26.92L51.653 24.9C52.1063 25.42 52.6063 25.8267 53.153 26.12C53.713 26.4 54.3596 26.54 55.093 26.54C55.7596 26.54 56.273 26.42 56.633 26.18C57.0063 25.94 57.193 25.6067 57.193 25.18C57.193 24.7933 57.073 24.48 56.833 24.24C56.593 24 56.273 23.7933 55.873 23.62C55.4863 23.4467 55.053 23.28 54.573 23.12C54.1063 22.96 53.6396 22.78 53.173 22.58C52.7063 22.3667 52.273 22.1067 51.873 21.8C51.4863 21.48 51.173 21.0867 50.933 20.62C50.693 20.14 50.573 19.54 50.573 18.82C50.573 17.9533 50.7796 17.2067 51.193 16.58C51.6196 15.9533 52.2063 15.48 52.953 15.16C53.6996 14.8267 54.5596 14.66 55.533 14.66C56.5196 14.66 57.4196 14.8333 58.233 15.18C59.0596 15.5267 59.7396 16 60.273 16.6L58.233 18.62C57.8063 18.18 57.373 17.8533 56.933 17.64C56.5063 17.4267 56.0196 17.32 55.473 17.32C54.9263 17.32 54.493 17.4267 54.173 17.64C53.853 17.84 53.693 18.1333 53.693 18.52C53.693 18.88 53.813 19.1733 54.053 19.4C54.293 19.6133 54.6063 19.8 54.993 19.96C55.393 20.12 55.8263 20.28 56.293 20.44C56.773 20.6 57.2463 20.7867 57.713 21C58.1796 21.2133 58.6063 21.4867 58.993 21.82C59.393 22.14 59.713 22.5533 59.953 23.06C60.193 23.5533 60.313 24.1667 60.313 24.9C60.313 26.2467 59.833 27.3067 58.873 28.08C57.913 28.84 56.5863 29.22 54.893 29.22ZM65.5494 29.22C64.3894 29.22 63.3894 29.0333 62.5494 28.66C61.7227 28.2733 60.9627 27.6933 60.2694 26.92L62.3094 24.9C62.7627 25.42 63.2627 25.8267 63.8094 26.12C64.3694 26.4 65.0161 26.54 65.7494 26.54C66.4161 26.54 66.9294 26.42 67.2894 26.18C67.6627 25.94 67.8494 25.6067 67.8494 25.18C67.8494 24.7933 67.7294 24.48 67.4894 24.24C67.2494 24 66.9294 23.7933 66.5294 23.62C66.1427 23.4467 65.7094 23.28 65.2294 23.12C64.7627 22.96 64.2961 22.78 63.8294 22.58C63.3627 22.3667 62.9294 22.1067 62.5294 21.8C62.1427 21.48 61.8294 21.0867 61.5894 20.62C61.3494 20.14 61.2294 19.54 61.2294 18.82C61.2294 17.9533 61.4361 17.2067 61.8494 16.58C62.2761 15.9533 62.8627 15.48 63.6094 15.16C64.3561 14.8267 65.2161 14.66 66.1894 14.66C67.1761 14.66 68.0761 14.8333 68.8894 15.18C69.7161 15.5267 70.3961 16 70.9294 16.6L68.8894 18.62C68.4627 18.18 68.0294 17.8533 67.5894 17.64C67.1627 17.4267 66.6761 17.32 66.1294 17.32C65.5827 17.32 65.1494 17.4267 64.8294 17.64C64.5094 17.84 64.3494 18.1333 64.3494 18.52C64.3494 18.88 64.4694 19.1733 64.7094 19.4C64.9494 19.6133 65.2627 19.8 65.6494 19.96C66.0494 20.12 66.4827 20.28 66.9494 20.44C67.4294 20.6 67.9027 20.7867 68.3694 21C68.8361 21.2133 69.2627 21.4867 69.6494 21.82C70.0494 22.14 70.3694 22.5533 70.6094 23.06C70.8494 23.5533 70.9694 24.1667 70.9694 24.9C70.9694 26.2467 70.4894 27.3067 69.5294 28.08C68.5694 28.84 67.2427 29.22 65.5494 29.22Z" fill="white"/>
<defs>
<clipPath id="clip0_97_835">
<rect x="10" y="12" width="20" height="20" rx="4" fill="white"/>
</clipPath>
</defs>
</svg>
