<svg width="86" height="44" viewBox="0 0 86 44" fill="none" xmlns="http://www.w3.org/2000/svg">
<g clip-path="url(#clip0_97_848)">
<path d="M13.5417 12H26.4583C26.9236 11.9996 27.3843 12.0932 27.8142 12.2756C28.2441 12.458 28.6347 12.7255 28.9636 13.0629C29.2926 13.4003 29.5535 13.8009 29.7313 14.2419C29.9091 14.6828 30.0004 15.1553 30 15.6325V28.3675C30.0004 28.8447 29.9091 29.3172 29.7313 29.7581C29.5535 30.1991 29.2926 30.5997 28.9636 30.9371C28.6347 31.2745 28.2441 31.542 27.8142 31.7244C27.3843 31.9068 26.9236 32.0004 26.4583 32H13.5417C13.0764 32.0004 12.6157 31.9068 12.1858 31.7244C11.7559 31.542 11.3653 31.2745 11.0364 30.9371C10.7074 30.5997 10.4465 30.1991 10.2687 29.7581C10.0909 29.3172 9.99956 28.8447 10 28.3675V15.6325C9.99956 15.1553 10.0909 14.6828 10.2687 14.2419C10.4465 13.8009 10.7074 13.4003 11.0364 13.0629C11.3653 12.7255 11.7559 12.458 12.1858 12.2756C12.6157 12.0932 13.0764 11.9996 13.5417 12V12Z" fill="#000B1D"/>
<g clip-path="url(#clip1_97_848)">
<path d="M25.8699 22.9096C25.3399 22.9124 24.8793 23.0413 24.4936 23.2317C24.3521 22.9489 24.2106 22.6968 24.1856 22.5119C24.1579 22.2963 24.1246 22.1646 24.1579 21.907C24.1912 21.6493 24.341 21.2824 24.3383 21.2544C24.3355 21.2264 24.305 21.0947 23.9997 21.0919C23.6945 21.0891 23.4309 21.1508 23.4004 21.232C23.3699 21.3132 23.3116 21.4981 23.2728 21.6885C23.22 21.9686 22.6623 22.9685 22.3432 23.4922C22.2406 23.2877 22.1518 23.1085 22.1323 22.9657C22.1046 22.75 22.0713 22.6184 22.1046 22.3607C22.1379 22.103 22.2877 21.7361 22.285 21.7081C22.2822 21.6801 22.2517 21.5485 21.9464 21.5457C21.6412 21.5429 21.3776 21.6045 21.3471 21.6857C21.3166 21.7669 21.2833 21.9574 21.2194 22.1422C21.1556 22.3271 20.4148 23.9963 20.2205 24.4277C20.1207 24.6489 20.0346 24.8254 19.9736 24.9458C19.9736 24.9458 19.9708 24.9542 19.9625 24.9682C19.9098 25.0718 19.8793 25.1279 19.8793 25.1279C19.8793 25.1279 19.8793 25.1279 19.8793 25.1307C19.8376 25.2063 19.7932 25.2763 19.771 25.2763C19.7544 25.2763 19.7239 25.0746 19.7766 24.8002C19.8876 24.2204 20.1512 23.3186 20.1484 23.2877C20.1484 23.2709 20.1983 23.1141 19.9764 23.0329C19.7599 22.9517 19.6822 23.0861 19.6628 23.0861C19.6434 23.0861 19.6295 23.1337 19.6295 23.1337C19.6295 23.1337 19.8709 22.1198 19.1689 22.1198C18.7305 22.1198 18.1256 22.6044 17.8259 23.0413C17.6373 23.1449 17.2349 23.3662 16.8048 23.6042C16.6411 23.6967 16.4719 23.7891 16.3137 23.8759C16.3026 23.8647 16.2915 23.8507 16.2804 23.8395C15.4313 22.9236 13.8608 22.2767 13.9274 21.0471C13.9524 20.599 14.105 19.4227 16.9436 17.9943C19.2799 16.832 21.139 17.154 21.4609 17.8682C21.9215 18.8877 20.4647 20.7811 18.0507 21.0555C17.1295 21.1592 16.6467 20.8007 16.5246 20.6662C16.397 20.5262 16.3775 20.5178 16.3304 20.5458C16.2527 20.5878 16.3026 20.7138 16.3304 20.7867C16.4025 20.9771 16.6994 21.3132 17.2016 21.4784C17.6456 21.6241 18.725 21.7053 20.0319 21.1956C21.4941 20.6242 22.6373 19.0362 22.3016 17.7058C21.9659 16.3558 19.7461 15.9105 17.6456 16.6639C16.397 17.112 15.0429 17.8178 14.0689 18.7365C12.9119 19.8288 12.7287 20.7783 12.8037 21.176C13.0728 22.5876 15.0013 23.5062 15.7726 24.1868C15.7338 24.2092 15.6977 24.2288 15.6672 24.2456C15.2815 24.4389 13.8109 25.2147 13.4446 26.0353C13.0284 26.9652 13.5112 27.6317 13.8303 27.7214C14.8209 27.9986 15.8392 27.5001 16.3859 26.6767C16.9325 25.8533 16.8659 24.7834 16.6134 24.2932C16.6106 24.2876 16.6078 24.282 16.6023 24.2764C16.7022 24.2176 16.8048 24.156 16.9047 24.0972C17.1017 23.9795 17.296 23.8703 17.4625 23.7807C17.3681 24.0412 17.2987 24.352 17.2654 24.8002C17.2238 25.3267 17.4375 26.0101 17.7177 26.279C17.8426 26.3966 17.9897 26.3994 18.084 26.3994C18.4114 26.3994 18.5585 26.1249 18.7222 25.8C18.922 25.4023 19.1023 24.9402 19.1023 24.9402C19.1023 24.9402 18.8776 26.1893 19.488 26.1893C19.71 26.1893 19.9347 25.8981 20.0346 25.7496C20.0346 25.7524 20.0346 25.7524 20.0346 25.7524C20.0346 25.7524 20.0402 25.744 20.0513 25.7244C20.0735 25.688 20.0874 25.6656 20.0874 25.6656C20.0874 25.6656 20.0874 25.6628 20.0874 25.66C20.1761 25.5032 20.3759 25.1475 20.6728 24.5565C21.0557 23.7947 21.4248 22.8424 21.4248 22.8424C21.4248 22.8424 21.4581 23.0749 21.5718 23.4614C21.6384 23.6883 21.7772 23.9375 21.8882 24.1784C21.7994 24.3044 21.7439 24.3744 21.7439 24.3744C21.7439 24.3744 21.7439 24.3744 21.7467 24.3772C21.6745 24.4725 21.5968 24.5761 21.5108 24.6769C21.2084 25.041 20.8476 25.4583 20.7977 25.5788C20.7394 25.7216 20.7533 25.8252 20.8643 25.9093C20.9448 25.9709 21.089 25.9793 21.2361 25.9709C21.508 25.9513 21.6995 25.8841 21.7938 25.8421C21.9409 25.7888 22.1129 25.7076 22.2739 25.5872C22.5707 25.3659 22.7511 25.0494 22.7345 24.6321C22.7261 24.4025 22.6512 24.1728 22.5596 23.9571C22.5874 23.9179 22.6124 23.8787 22.6401 23.8395C23.109 23.1477 23.4725 22.3887 23.4725 22.3887C23.4725 22.3887 23.5058 22.6212 23.6196 23.0077C23.6751 23.2037 23.7889 23.4166 23.8887 23.6238C23.4476 23.9851 23.1756 24.4053 23.0785 24.6797C22.9037 25.1895 23.0397 25.4191 23.2977 25.4724C23.4143 25.4976 23.5808 25.4415 23.7028 25.3883C23.8582 25.3379 24.0414 25.2511 24.2162 25.1223C24.5131 24.901 24.7989 24.5929 24.7822 24.1756C24.7739 23.9851 24.7239 23.7975 24.6546 23.6154C25.0292 23.4586 25.512 23.3718 26.128 23.4446C27.4487 23.6014 27.7096 24.4333 27.6596 24.7834C27.6097 25.1335 27.3322 25.3239 27.2406 25.3827C27.1491 25.4415 27.1185 25.4611 27.1269 25.5032C27.138 25.5648 27.1824 25.562 27.2601 25.5508C27.3683 25.5312 27.9537 25.2679 27.9787 24.6237C28.0203 23.8003 27.2434 22.9012 25.8699 22.9096ZM15.6811 26.377C15.2427 26.8587 14.6322 27.0408 14.3686 26.8867C14.0856 26.7215 14.1966 26.0101 14.7349 25.5004C15.0623 25.1895 15.4841 24.901 15.7643 24.7245C15.8281 24.6853 15.9225 24.6293 16.0362 24.5593C16.0557 24.5481 16.0668 24.5425 16.0668 24.5425C16.089 24.5285 16.1112 24.5145 16.1334 24.5005C16.3304 25.2287 16.1417 25.8701 15.6811 26.377ZM18.872 24.1868C18.7194 24.5621 18.4003 25.5228 18.2061 25.4695C18.0396 25.4247 17.9369 24.6965 18.1728 23.9767C18.2921 23.6154 18.5446 23.1841 18.6917 23.0161C18.9303 22.7472 19.1939 22.6576 19.2577 22.7668C19.3382 22.9096 18.9664 23.9515 18.872 24.1868ZM21.5052 25.4583C21.4414 25.492 21.3804 25.5144 21.3526 25.4976C21.3332 25.4864 21.3804 25.4415 21.3804 25.4415C21.3804 25.4415 21.7106 25.083 21.841 24.9206C21.9159 24.8254 22.0047 24.7133 22.099 24.5873C22.099 24.5985 22.099 24.6125 22.099 24.6237C22.099 25.0522 21.6884 25.3407 21.5052 25.4583ZM23.5364 24.9906C23.4892 24.957 23.4975 24.845 23.6557 24.4949C23.7167 24.3576 23.861 24.128 24.108 23.9067C24.1357 23.9963 24.1551 24.0832 24.1524 24.1644C24.1496 24.7049 23.7667 24.9066 23.5364 24.9906Z" fill="#CD6799"/>
</g>
</g>
<path d="M41.6701 29.22C40.5101 29.22 39.5101 29.0333 38.6701 28.66C37.8434 28.2733 37.0834 27.6933 36.3901 26.92L38.4301 24.9C38.8834 25.42 39.3834 25.8267 39.9301 26.12C40.4901 26.4 41.1367 26.54 41.8701 26.54C42.5367 26.54 43.0501 26.42 43.4101 26.18C43.7834 25.94 43.9701 25.6067 43.9701 25.18C43.9701 24.7933 43.8501 24.48 43.6101 24.24C43.3701 24 43.0501 23.7933 42.6501 23.62C42.2634 23.4467 41.8301 23.28 41.3501 23.12C40.8834 22.96 40.4167 22.78 39.9501 22.58C39.4834 22.3667 39.0501 22.1067 38.6501 21.8C38.2634 21.48 37.9501 21.0867 37.7101 20.62C37.4701 20.14 37.3501 19.54 37.3501 18.82C37.3501 17.9533 37.5567 17.2067 37.9701 16.58C38.3967 15.9533 38.9834 15.48 39.7301 15.16C40.4767 14.8267 41.3367 14.66 42.3101 14.66C43.2967 14.66 44.1967 14.8333 45.0101 15.18C45.8367 15.5267 46.5167 16 47.0501 16.6L45.0101 18.62C44.5834 18.18 44.1501 17.8533 43.7101 17.64C43.2834 17.4267 42.7967 17.32 42.2501 17.32C41.7034 17.32 41.2701 17.4267 40.9501 17.64C40.6301 17.84 40.4701 18.1333 40.4701 18.52C40.4701 18.88 40.5901 19.1733 40.8301 19.4C41.0701 19.6133 41.3834 19.8 41.7701 19.96C42.1701 20.12 42.6034 20.28 43.0701 20.44C43.5501 20.6 44.0234 20.7867 44.4901 21C44.9567 21.2133 45.3834 21.4867 45.7701 21.82C46.1701 22.14 46.4901 22.5533 46.7301 23.06C46.9701 23.5533 47.0901 24.1667 47.0901 24.9C47.0901 26.2467 46.6101 27.3067 45.6501 28.08C44.6901 28.84 43.3634 29.22 41.6701 29.22ZM52.1594 29.2C51.2661 29.2 50.4661 28.98 49.7594 28.54C49.0661 28.1 48.5128 27.5 48.0994 26.74C47.6994 25.98 47.4994 25.1133 47.4994 24.14C47.4994 23.1667 47.6994 22.3 48.0994 21.54C48.5128 20.78 49.0661 20.18 49.7594 19.74C50.4661 19.3 51.2661 19.08 52.1594 19.08C52.8128 19.08 53.3994 19.2067 53.9194 19.46C54.4528 19.7133 54.8861 20.0667 55.2194 20.52C55.5528 20.96 55.7394 21.4667 55.7794 22.04V26.24C55.7394 26.8133 55.5528 27.3267 55.2194 27.78C54.8994 28.22 54.4728 28.5667 53.9394 28.82C53.4061 29.0733 52.8128 29.2 52.1594 29.2ZM52.7794 26.44C53.4328 26.44 53.9594 26.2267 54.3594 25.8C54.7594 25.36 54.9594 24.8067 54.9594 24.14C54.9594 23.6867 54.8661 23.2867 54.6794 22.94C54.5061 22.5933 54.2528 22.3267 53.9194 22.14C53.5994 21.94 53.2261 21.84 52.7994 21.84C52.3728 21.84 51.9928 21.94 51.6594 22.14C51.3394 22.3267 51.0794 22.5933 50.8794 22.94C50.6928 23.2867 50.5994 23.6867 50.5994 24.14C50.5994 24.58 50.6928 24.9733 50.8794 25.32C51.0661 25.6667 51.3261 25.94 51.6594 26.14C51.9928 26.34 52.3661 26.44 52.7794 26.44ZM54.8394 29V26.38L55.2994 24.02L54.8394 21.66V19.28H57.8394V29H54.8394ZM62.8818 29.24C62.3085 29.24 61.7418 29.1667 61.1818 29.02C60.6351 28.8733 60.1218 28.6667 59.6418 28.4C59.1751 28.12 58.7751 27.8 58.4418 27.44L60.1818 25.68C60.5018 26.0267 60.8818 26.3 61.3218 26.5C61.7618 26.6867 62.2418 26.78 62.7618 26.78C63.1218 26.78 63.3951 26.7267 63.5818 26.62C63.7818 26.5133 63.8818 26.3667 63.8818 26.18C63.8818 25.94 63.7618 25.76 63.5218 25.64C63.2951 25.5067 63.0018 25.3933 62.6418 25.3C62.2818 25.1933 61.9018 25.08 61.5018 24.96C61.1018 24.84 60.7218 24.6733 60.3618 24.46C60.0018 24.2467 59.7085 23.9533 59.4818 23.58C59.2551 23.1933 59.1418 22.7067 59.1418 22.12C59.1418 21.4933 59.3018 20.9533 59.6218 20.5C59.9418 20.0333 60.3951 19.6667 60.9818 19.4C61.5685 19.1333 62.2551 19 63.0418 19C63.8685 19 64.6285 19.1467 65.3218 19.44C66.0285 19.72 66.6018 20.14 67.0418 20.7L65.3018 22.46C64.9951 22.1 64.6485 21.8467 64.2618 21.7C63.8885 21.5533 63.5218 21.48 63.1618 21.48C62.8151 21.48 62.5551 21.5333 62.3818 21.64C62.2085 21.7333 62.1218 21.8733 62.1218 22.06C62.1218 22.26 62.2351 22.42 62.4618 22.54C62.6885 22.66 62.9818 22.7667 63.3418 22.86C63.7018 22.9533 64.0818 23.0667 64.4818 23.2C64.8818 23.3333 65.2618 23.5133 65.6218 23.74C65.9818 23.9667 66.2751 24.2733 66.5018 24.66C66.7285 25.0333 66.8418 25.5267 66.8418 26.14C66.8418 27.0867 66.4818 27.84 65.7618 28.4C65.0551 28.96 64.0951 29.24 62.8818 29.24ZM71.3898 29.24C70.8165 29.24 70.2498 29.1667 69.6898 29.02C69.1431 28.8733 68.6298 28.6667 68.1498 28.4C67.6831 28.12 67.2831 27.8 66.9498 27.44L68.6898 25.68C69.0098 26.0267 69.3898 26.3 69.8298 26.5C70.2698 26.6867 70.7498 26.78 71.2698 26.78C71.6298 26.78 71.9031 26.7267 72.0898 26.62C72.2898 26.5133 72.3898 26.3667 72.3898 26.18C72.3898 25.94 72.2698 25.76 72.0298 25.64C71.8031 25.5067 71.5098 25.3933 71.1498 25.3C70.7898 25.1933 70.4098 25.08 70.0098 24.96C69.6098 24.84 69.2298 24.6733 68.8698 24.46C68.5098 24.2467 68.2165 23.9533 67.9898 23.58C67.7631 23.1933 67.6498 22.7067 67.6498 22.12C67.6498 21.4933 67.8098 20.9533 68.1298 20.5C68.4498 20.0333 68.9031 19.6667 69.4898 19.4C70.0765 19.1333 70.7631 19 71.5498 19C72.3765 19 73.1365 19.1467 73.8298 19.44C74.5365 19.72 75.1098 20.14 75.5498 20.7L73.8098 22.46C73.5031 22.1 73.1565 21.8467 72.7698 21.7C72.3965 21.5533 72.0298 21.48 71.6698 21.48C71.3231 21.48 71.0631 21.5333 70.8898 21.64C70.7165 21.7333 70.6298 21.8733 70.6298 22.06C70.6298 22.26 70.7431 22.42 70.9698 22.54C71.1965 22.66 71.4898 22.7667 71.8498 22.86C72.2098 22.9533 72.5898 23.0667 72.9898 23.2C73.3898 23.3333 73.7698 23.5133 74.1298 23.74C74.4898 23.9667 74.7831 24.2733 75.0098 24.66C75.2365 25.0333 75.3498 25.5267 75.3498 26.14C75.3498 27.0867 74.9898 27.84 74.2698 28.4C73.5631 28.96 72.6031 29.24 71.3898 29.24Z" fill="white"/>
<defs>
<clipPath id="clip0_97_848">
<rect x="10" y="12" width="20" height="20" rx="4" fill="white"/>
</clipPath>
<clipPath id="clip1_97_848">
<rect width="15.2" height="11.5" fill="white" transform="translate(12.7891 16.3)"/>
</clipPath>
</defs>
</svg>
