<svg width="60" height="60" viewBox="0 0 60 60" fill="none" xmlns="http://www.w3.org/2000/svg">
<path d="M49.5 0H10.5C4.70101 0 0 4.70101 0 10.5V49.5C0 55.299 4.70101 60 10.5 60H49.5C55.299 60 60 55.299 60 49.5V10.5C60 4.70101 55.299 0 49.5 0Z" fill="#000058"/>
<path d="M26.4142 35.0704H18.1045L15.9587 41.9368C15.9327 42.1448 15.8027 42.2489 15.5686 42.2489H11.6673C11.4072 42.2489 11.3162 42.1188 11.3942 41.8587L18.9237 18.8798C19.1058 18.3856 19.2098 17.6704 19.2358 16.7341C19.2358 16.578 19.3139 16.5 19.4699 16.5H24.9317C25.0878 16.5 25.1788 16.565 25.2048 16.6951L33.6317 41.8978C33.7097 42.1318 33.6447 42.2489 33.4366 42.2489H29.0671C28.8851 42.2489 28.755 42.1708 28.677 42.0148L26.4142 35.0704ZM19.0408 31.3641H25.5169C25.3609 30.8179 25.0358 29.7516 24.5416 28.165C24.0474 26.5785 23.5923 25.096 23.1762 23.7175C22.76 22.339 22.4479 21.2466 22.2398 20.4404H22.2008C21.9147 21.7928 20.8614 25.4341 19.0408 31.3641Z" fill="#9999F9"/>
<path d="M46.5197 33.5879H39.3803C39.4063 35.2525 39.8745 36.5659 40.7848 37.5282C41.6951 38.4906 43.0605 38.9717 44.8812 38.9717C46.5457 38.9717 48.0282 38.6856 49.3286 38.1135C49.4847 38.0094 49.5627 38.0614 49.5627 38.2695V41.1175C49.5627 41.2995 49.4847 41.4556 49.3286 41.5856C47.8461 42.2619 46.0255 42.6 43.8668 42.6C40.6677 42.6 38.3139 41.6897 36.8054 39.8691C35.3229 38.0224 34.5817 35.7206 34.5817 32.9637C34.5817 30.1027 35.362 27.7099 36.9225 25.7852C38.483 23.8605 40.6157 22.8982 43.3206 22.8982C45.8955 22.8982 47.8071 23.6915 49.0556 25.278C50.33 26.8646 50.9672 28.7242 50.9672 30.8569C50.9672 31.9233 50.9152 32.6776 50.8111 33.1197C50.7851 33.3018 50.6811 33.4058 50.499 33.4318C49.8228 33.5359 48.4964 33.5879 46.5197 33.5879ZM39.3803 30.5839H44.53C45.6484 30.5839 46.2856 30.5578 46.4417 30.5058C46.4677 30.4018 46.4807 30.2197 46.4807 29.9596C46.4807 28.9713 46.2206 28.087 45.7004 27.3067C45.1803 26.5265 44.335 26.1363 43.1646 26.1363C42.0202 26.1363 41.1359 26.5525 40.5117 27.3848C39.8875 28.217 39.5103 29.2834 39.3803 30.5839Z" fill="#9999F9"/>
</svg>
