<svg width="60" height="60" viewBox="0 0 60 60" fill="none" xmlns="http://www.w3.org/2000/svg">
<path d="M10.625 -5.61991e-05H49.375C50.7707 -0.00140535 52.1529 0.279544 53.4426 0.826714C54.7322 1.37388 55.9041 2.17653 56.8909 3.18872C57.8778 4.20091 58.6604 5.40277 59.1939 6.72551C59.7274 8.04826 60.0013 9.46593 60 10.8974V49.1025C60.0013 50.5339 59.7274 51.9516 59.1939 53.2744C58.6604 54.5971 57.8778 55.799 56.8909 56.8112C55.9041 57.8233 54.7322 58.626 53.4426 59.1732C52.1529 59.7203 50.7707 60.0013 49.375 59.9999H10.625C9.22934 60.0013 7.84711 59.7203 6.55744 59.1732C5.26776 58.626 4.09595 57.8233 3.10906 56.8112C2.12218 55.799 1.3396 54.5971 0.806105 53.2744C0.272615 51.9516 -0.00131071 50.5339 4.71519e-06 49.1025V10.8974C-0.00131071 9.46593 0.272615 8.04826 0.806105 6.72551C1.3396 5.40277 2.12218 4.20091 3.10906 3.18872C4.09595 2.17653 5.26776 1.37388 6.55744 0.826714C7.84711 0.279544 9.22934 -0.00140535 10.625 -5.61991e-05V-5.61991e-05Z" fill="#000B1D"/>
<path d="M26.061 32.0722C26.2354 28.961 27.7589 26.2199 30.0575 24.2768C32.3115 22.3683 35.3455 21.2018 38.6559 21.2018C41.963 21.2018 44.9969 22.3683 47.2527 24.2768C49.5495 26.2199 51.0731 28.961 51.2491 32.069C51.4235 35.2658 50.1386 38.2355 47.8845 40.4369C45.586 42.6762 42.3167 44.0812 38.6559 44.0812C34.995 44.0812 31.7192 42.6762 29.4224 40.4369C27.1666 38.2355 25.8849 35.2657 26.061 32.0722V32.0722Z" fill="white"/>
<path d="M32.186 32.3534C32.2755 30.757 33.0572 29.3506 34.2366 28.3536C35.3932 27.3743 36.9499 26.7758 38.6485 26.7758C40.3454 26.7758 41.9021 27.3743 43.0595 28.3536C44.2381 29.3506 45.0198 30.7571 45.1101 32.3518C45.1996 33.9921 44.5403 35.5159 43.3837 36.6454C42.2043 37.7944 40.5269 38.5153 38.6485 38.5153C36.7701 38.5153 35.0892 37.7944 33.9107 36.6454C32.7533 35.5159 32.0956 33.9921 32.186 32.3534V32.3534Z" fill="#265787"/>
<path d="M21.8946 35.5867C21.9056 36.2114 22.1048 37.4254 22.4037 38.3735C23.0318 40.3802 24.0972 42.2366 25.5796 43.8726C27.1009 45.5543 28.9743 46.9051 31.138 47.8641C33.4123 48.8712 35.8766 49.3845 38.4363 49.3803C40.9917 49.3769 43.456 48.8535 45.7304 47.8387C47.8941 46.8704 49.7657 45.5138 51.2845 43.8313C52.7661 42.1885 53.8298 40.3287 54.4596 38.322C54.7762 37.3081 54.9763 36.279 55.0565 35.2465C55.135 34.2292 55.1021 33.2103 54.9577 32.1922C54.6757 30.2083 53.9894 28.3468 52.9324 26.6499C51.9658 25.0907 50.7197 23.7256 49.2381 22.5766L49.2415 22.5741L34.2895 11.0937C34.276 11.0835 34.265 11.0726 34.2506 11.0633C33.2696 10.3103 31.62 10.3128 30.5411 11.0675C29.4504 11.8307 29.3254 13.0928 30.2963 13.8889L30.2921 13.8931L36.5283 18.9643L17.5207 18.9845H17.4954C15.9243 18.9862 14.414 20.017 14.1151 21.3196C13.8078 22.6467 14.8749 23.7475 16.5085 23.7534L16.5059 23.7594L26.1402 23.7408L8.94847 36.9366C8.92652 36.9527 8.90288 36.9695 8.88262 36.9856C7.26087 38.2274 6.73662 40.2924 7.75813 41.5992C8.79483 42.928 10.9991 42.9305 12.6377 41.6068L22.0204 33.9279C22.0204 33.9279 21.8836 34.9645 21.8946 35.5867V35.5867ZM46.0047 39.0581C44.0714 41.0276 41.3649 42.1446 38.4363 42.1505C35.5035 42.1555 32.7969 41.0488 30.8636 39.0826C29.9189 38.1244 29.225 37.0219 28.797 35.8476C28.3774 34.6936 28.2144 33.4686 28.3225 32.2327C28.4247 31.0246 28.7843 29.8723 29.3584 28.8297C29.9223 27.8048 30.699 26.8787 31.658 26.0953C33.5373 24.5639 35.9298 23.7349 38.4321 23.7315C40.9369 23.7281 43.3277 24.5495 45.2086 26.0759C46.166 26.8559 46.9418 27.7786 47.5058 28.8018C48.0824 29.8436 48.4395 30.9917 48.5458 32.2031C48.6522 33.4374 48.4893 34.6606 48.0697 35.8155C47.6408 36.9932 46.9494 38.0957 46.0047 39.0581V39.0581Z" fill="#EA7600"/>
</svg>
