<svg width="60" height="60" viewBox="0 0 60 60" fill="none" xmlns="http://www.w3.org/2000/svg">
<g clip-path="url(#clip0_61_36)">
<path d="M10.625 4.83609e-06H49.375C50.7707 -0.00134432 52.1529 0.279605 53.4426 0.826775C54.7322 1.37394 55.9041 2.17659 56.8909 3.18878C57.8778 4.20097 58.6604 5.40283 59.1939 6.72558C59.7274 8.04832 60.0013 9.46599 60 10.8974V49.1026C60.0013 50.534 59.7274 51.9517 59.1939 53.2744C58.6604 54.5972 57.8778 55.799 56.8909 56.8112C55.9041 57.8234 54.7322 58.6261 53.4426 59.1732C52.1529 59.7204 50.7707 60.0013 49.375 60H10.625C9.22934 60.0013 7.84712 59.7204 6.55744 59.1732C5.26776 58.6261 4.09595 57.8234 3.10906 56.8112C2.12218 55.799 1.3396 54.5972 0.806106 53.2744C0.272615 51.9517 -0.00131071 50.534 4.71519e-06 49.1026V10.8974C-0.00131071 9.46599 0.272615 8.04832 0.806106 6.72558C1.3396 5.40283 2.12218 4.20097 3.10906 3.18878C4.09595 2.17659 5.26776 1.37394 6.55744 0.826775C7.84712 0.279605 9.22934 -0.00134432 10.625 4.83609e-06V4.83609e-06Z" fill="#659AD2"/>
<path d="M27.2848 48.6413C17.0173 48.6413 8.66406 40.2881 8.66406 30.0207C8.66406 19.7532 17.0173 11.4 27.2848 11.4C33.9101 11.4 40.089 14.9653 43.4101 20.7045L35.3515 25.3677C33.6894 22.495 30.5981 20.7103 27.2848 20.7103C22.1509 20.7103 17.9744 24.8868 17.9744 30.0207C17.9744 35.1543 22.1509 39.331 27.2848 39.331C30.5985 39.331 33.6897 37.5463 35.3521 34.6731L43.4106 39.3361C40.0896 45.0758 33.9104 48.6413 27.2848 48.6413Z" fill="white"/>
<path d="M45.9061 28.9861H43.837V26.9172H41.7683V28.9861H39.6992V31.055H41.7683V33.1241H43.837V31.055H45.9061V28.9861Z" fill="white"/>
<path d="M53.6639 28.9861H51.5948V26.9172H49.5261V28.9861H47.457V31.055H49.5261V33.1241H51.5948V31.055H53.6639V28.9861Z" fill="white"/>
</g>
<defs>
<clipPath id="clip0_61_36">
<rect width="60" height="60" fill="white"/>
</clipPath>
</defs>
</svg>
