<svg width="60" height="60" viewBox="0 0 60 60" fill="none" xmlns="http://www.w3.org/2000/svg">
<g clip-path="url(#clip0_61_45)">
<path d="M10.625 4.83609e-06H49.375C50.7707 -0.00134432 52.1529 0.279605 53.4426 0.826775C54.7322 1.37394 55.9041 2.17659 56.8909 3.18878C57.8778 4.20097 58.6604 5.40283 59.1939 6.72558C59.7274 8.04832 60.0013 9.46599 60 10.8974V49.1026C60.0013 50.534 59.7274 51.9517 59.1939 53.2744C58.6604 54.5972 57.8778 55.799 56.8909 56.8112C55.9041 57.8234 54.7322 58.6261 53.4426 59.1732C52.1529 59.7204 50.7707 60.0013 49.375 60H10.625C9.22934 60.0013 7.84712 59.7204 6.55744 59.1732C5.26776 58.6261 4.09595 57.8234 3.10906 56.8112C2.12218 55.799 1.3396 54.5972 0.806106 53.2744C0.272615 51.9517 -0.00131071 50.534 4.71519e-06 49.1026V10.8974C-0.00131071 9.46599 0.272615 8.04832 0.806106 6.72558C1.3396 5.40283 2.12218 4.20097 3.10906 3.18878C4.09595 2.17659 5.26776 1.37394 6.55744 0.826775C7.84712 0.279605 9.22934 -0.00134432 10.625 4.83609e-06V4.83609e-06Z" fill="#000B1D"/>
<path d="M25.416 48.3C28.8678 48.3 31.666 45.5018 31.666 42.05V35.8H25.416C21.9642 35.8 19.166 38.5982 19.166 42.05C19.166 45.5018 21.9642 48.3 25.416 48.3Z" fill="#0ACF83"/>
<path d="M19.166 29.55C19.166 26.0982 21.9642 23.3 25.416 23.3H31.666V35.8H25.416C21.9642 35.8 19.166 33.0018 19.166 29.55Z" fill="#A259FF"/>
<path d="M19.166 17.05C19.166 13.5982 21.9642 10.8 25.416 10.8H31.666V23.3H25.416C21.9642 23.3 19.166 20.5018 19.166 17.05Z" fill="#F24E1E"/>
<path d="M31.668 10.8H37.918C41.3698 10.8 44.168 13.5982 44.168 17.05C44.168 20.5018 41.3698 23.3 37.918 23.3H31.668V10.8Z" fill="#FF7262"/>
<path d="M44.168 29.55C44.168 33.0018 41.3698 35.8 37.918 35.8C34.4662 35.8 31.668 33.0018 31.668 29.55C31.668 26.0982 34.4662 23.3 37.918 23.3C41.3698 23.3 44.168 26.0982 44.168 29.55Z" fill="#1ABCFE"/>
</g>
<defs>
<clipPath id="clip0_61_45">
<rect width="60" height="60" fill="white"/>
</clipPath>
</defs>
</svg>
