<svg width="61" height="60" viewBox="0 0 61 60" fill="none" xmlns="http://www.w3.org/2000/svg">
<path d="M11.625 4.83609e-06H50.375C51.7707 -0.00134432 53.1529 0.279605 54.4426 0.826775C55.7322 1.37394 56.9041 2.17659 57.8909 3.18878C58.8778 4.20097 59.6604 5.40283 60.1939 6.72558C60.7274 8.04832 61.0013 9.46599 61 10.8974V49.1026C61.0013 50.534 60.7274 51.9517 60.1939 53.2744C59.6604 54.5972 58.8778 55.799 57.8909 56.8112C56.9041 57.8234 55.7322 58.6261 54.4426 59.1732C53.1529 59.7204 51.7707 60.0013 50.375 60H11.625C10.2293 60.0013 8.84711 59.7204 7.55744 59.1732C6.26776 58.6261 5.09595 57.8234 4.10906 56.8112C3.12218 55.799 2.3396 54.5972 1.80611 53.2744C1.27262 51.9517 0.998689 50.534 1 49.1026V10.8974C0.998689 9.46599 1.27262 8.04832 1.80611 6.72558C2.3396 5.40283 3.12218 4.20097 4.10906 3.18878C5.09595 2.17659 6.26776 1.37394 7.55744 0.826775C8.84711 0.279605 10.2293 -0.00134432 11.625 4.83609e-06V4.83609e-06Z" fill="#000B1D"/>
<path d="M52.8176 27.9957L33.169 8.3487C32.0384 7.2171 30.2033 7.2171 29.0714 8.3487L24.9916 12.4291L30.1667 17.6044C31.3698 17.1982 32.7487 17.4705 33.7073 18.4293C34.6708 19.3941 34.9412 20.7849 34.5248 21.9921L39.5127 26.9801C40.7195 26.5643 42.1117 26.833 43.0753 27.7983C44.4225 29.1451 44.4225 31.3274 43.0753 32.6746C41.728 34.0222 39.5457 34.0222 38.1976 32.6746C37.1847 31.6608 36.9341 30.1724 37.4472 28.9243L32.7954 24.2724L32.795 36.5139C33.1235 36.6765 33.4334 36.8935 33.7071 37.166C35.0538 38.5127 35.0538 40.6946 33.7071 42.0435C32.36 43.3901 30.1767 43.3901 28.831 42.0435C27.484 40.6948 27.484 38.5128 28.831 37.166C29.1639 36.8337 29.549 36.5822 29.96 36.4136V24.0584C29.5488 23.8905 29.1641 23.6408 28.8307 23.3059C27.8105 22.2864 27.5648 20.7889 28.088 19.536L22.9864 14.4334L9.51495 27.9049C8.38304 29.0374 8.38304 30.8726 9.51495 32.0043L29.1624 51.6513C30.2935 52.7829 32.128 52.7829 33.2608 51.6513L52.8173 32.0971C53.9489 30.9649 53.9489 29.1292 52.8173 27.9974" fill="#D43B1E"/>
</svg>
