<svg width="24" height="24" viewBox="0 0 24 24" fill="none" xmlns="http://www.w3.org/2000/svg">
<g clip-path="url(#clip0_75_6)">
<mask id="mask0_75_6" style="mask-type:luminance" maskUnits="userSpaceOnUse" x="0" y="0" width="24" height="24">
<path d="M24 0H0V24H24V0Z" fill="white"/>
</mask>
<g mask="url(#mask0_75_6)">
<mask id="mask1_75_6" style="mask-type:luminance" maskUnits="userSpaceOnUse" x="0" y="0" width="24" height="24">
<path d="M24 0H0V24H24V0Z" fill="white"/>
</mask>
<g mask="url(#mask1_75_6)">
<mask id="mask2_75_6" style="mask-type:luminance" maskUnits="userSpaceOnUse" x="0" y="0" width="24" height="24">
<path d="M24 0H0V24H24V0Z" fill="white"/>
</mask>
<g mask="url(#mask2_75_6)">
<mask id="mask3_75_6" style="mask-type:luminance" maskUnits="userSpaceOnUse" x="0" y="0" width="24" height="24">
<path d="M24 0H0V24H24V0Z" fill="white"/>
</mask>
<g mask="url(#mask3_75_6)">
<path fill-rule="evenodd" clip-rule="evenodd" d="M12.0099 0C5.36875 0 0 5.40835 0 12.0992C0 17.4475 3.43994 21.9747 8.21205 23.5771C8.8087 23.6976 9.02725 23.3168 9.02725 22.9965C9.02725 22.716 9.00755 21.7545 9.00755 20.7528C5.66671 21.474 4.97099 19.3104 4.97099 19.3104C4.43409 17.9081 3.63857 17.5478 3.63857 17.5478C2.54511 16.8067 3.71822 16.8067 3.71822 16.8067C4.93116 16.8867 5.56765 18.0485 5.56765 18.0485C6.6412 19.8913 8.3711 19.3706 9.06705 19.0501C9.1664 18.2688 9.48475 17.728 9.82275 17.4276C7.15815 17.1471 4.35468 16.1055 4.35468 11.458C4.35468 10.136 4.8316 9.05431 5.5873 8.21305C5.46805 7.91265 5.0504 6.67045 5.70675 5.00785C5.70675 5.00785 6.72085 4.6873 9.0073 6.2498C9.98625 5.98495 10.9958 5.85025 12.0099 5.84911C13.0239 5.84911 14.0577 5.98951 15.0123 6.2498C17.299 4.6873 18.3131 5.00785 18.3131 5.00785C18.9694 6.67045 18.5516 7.91265 18.4324 8.21305C19.2079 9.05431 19.6652 10.136 19.6652 11.458C19.6652 16.1055 16.8617 17.1269 14.1771 17.4276C14.6148 17.8081 14.9924 18.5292 14.9924 19.6711C14.9924 21.2936 14.9727 22.5958 14.9727 22.9963C14.9727 23.3168 15.1915 23.6976 15.7879 23.5774C20.5599 21.9745 23.9999 17.4475 23.9999 12.0992C24.0195 5.40835 18.6312 0 12.0099 0Z" fill="white"/>
</g>
</g>
</g>
</g>
</g>
<defs>
<clipPath id="clip0_75_6">
<rect width="24" height="24" fill="white"/>
</clipPath>
</defs>
</svg>
