<svg width="60" height="60" viewBox="0 0 60 60" fill="none" xmlns="http://www.w3.org/2000/svg">
<g clip-path="url(#clip0_61_29)">
<path d="M10.625 4.83609e-06H49.375C50.7707 -0.00134432 52.1529 0.279605 53.4426 0.826775C54.7322 1.37394 55.9041 2.17659 56.8909 3.18878C57.8778 4.20097 58.6604 5.40283 59.1939 6.72558C59.7274 8.04832 60.0013 9.46599 60 10.8974V49.1026C60.0013 50.534 59.7274 51.9517 59.1939 53.2744C58.6604 54.5972 57.8778 55.799 56.8909 56.8112C55.9041 57.8234 54.7322 58.6261 53.4426 59.1732C52.1529 59.7204 50.7707 60.0013 49.375 60H10.625C9.22934 60.0013 7.84711 59.7204 6.55744 59.1732C5.26776 58.6261 4.09595 57.8234 3.10906 56.8112C2.12218 55.799 1.3396 54.5972 0.806105 53.2744C0.272615 51.9517 -0.00131071 50.534 4.71519e-06 49.1026V10.8974C-0.00131071 9.46599 0.272615 8.04832 0.806105 6.72558C1.3396 5.40283 2.12218 4.20097 3.10906 3.18878C4.09595 2.17659 5.26776 1.37394 6.55744 0.826775C7.84711 0.279605 9.22934 -0.00134432 10.625 4.83609e-06V4.83609e-06Z" fill="#F7DF1E"/>
<path d="M41.575 46.9476C42.7836 48.9209 44.356 50.3714 47.1369 50.3714C49.4731 50.3714 50.9655 49.2038 50.9655 47.5904C50.9655 45.6571 49.4322 44.9723 46.8607 43.8476L45.4512 43.2428C41.3826 41.5095 38.6798 39.3381 38.6798 34.7476C38.6798 30.519 41.9017 27.3 46.9369 27.3C50.5217 27.3 53.0988 28.5476 54.956 31.8143L50.5655 34.6333C49.5988 32.9 48.556 32.2171 46.9369 32.2171C45.2855 32.2171 44.2388 33.2647 44.2388 34.6333C44.2388 36.3247 45.2864 37.0095 47.7055 38.0571L49.115 38.6609C53.9055 40.7152 56.6103 42.8095 56.6103 47.518C56.6103 52.5942 52.6226 55.3752 47.2674 55.3752C42.0312 55.3752 38.6484 52.8799 36.9931 49.6095L41.575 46.9476ZM21.6579 47.4361C22.5436 49.0076 23.3493 50.3361 25.2865 50.3361C27.1388 50.3361 28.3074 49.6114 28.3074 46.7933V27.6219H33.9455V46.8695C33.9455 52.7076 30.5226 55.3647 25.5265 55.3647C21.0122 55.3647 18.3979 53.0285 17.0684 50.2147L21.6579 47.4361Z" fill="black"/>
</g>
<defs>
<clipPath id="clip0_61_29">
<rect width="60" height="60" fill="white"/>
</clipPath>
</defs>
</svg>
