<svg width="60" height="60" viewBox="0 0 60 60" fill="none" xmlns="http://www.w3.org/2000/svg">
<path d="M10.625 4.83609e-06H49.375C50.7707 -0.00134432 52.1529 0.279605 53.4426 0.826775C54.7322 1.37394 55.9041 2.17659 56.8909 3.18878C57.8778 4.20097 58.6604 5.40283 59.1939 6.72558C59.7274 8.04832 60.0013 9.46599 60 10.8974V49.1026C60.0013 50.534 59.7274 51.9517 59.1939 53.2744C58.6604 54.5972 57.8778 55.799 56.8909 56.8112C55.9041 57.8234 54.7322 58.6261 53.4426 59.1732C52.1529 59.7204 50.7707 60.0013 49.375 60H10.625C9.22934 60.0013 7.84711 59.7204 6.55744 59.1732C5.26776 58.6261 4.09595 57.8234 3.10906 56.8112C2.12218 55.799 1.3396 54.5972 0.806105 53.2744C0.272615 51.9517 -0.00131071 50.534 4.71519e-06 49.1026V10.8974C-0.00131071 9.46599 0.272615 8.04832 0.806105 6.72558C1.3396 5.40283 2.12218 4.20097 3.10906 3.18878C4.09595 2.17659 5.26776 1.37394 6.55744 0.826775C7.84711 0.279605 9.22934 -0.00134432 10.625 4.83609e-06V4.83609e-06Z" fill="#000B1D"/>
<path d="M31.033 52.4999C30.4304 52.4999 29.8319 52.3419 29.3036 52.0377L23.7987 48.7785C22.9764 48.3187 23.3777 48.1561 23.6488 48.0624C24.7451 47.6785 24.9676 47.5919 26.1377 46.9273C26.2607 46.8572 26.4217 46.8819 26.5476 46.9562L30.7767 49.4658C30.9294 49.5483 31.1461 49.5483 31.2877 49.4658L47.7772 39.9476C47.93 39.861 48.029 39.6835 48.029 39.5019V20.4739C48.029 20.284 47.93 20.1148 47.7739 20.0198L31.291 10.51C31.1383 10.4191 30.936 10.4191 30.7833 10.51L14.3036 20.0198C14.1439 20.1106 14.0424 20.2881 14.0424 20.4697V39.4977C14.0424 39.6794 14.1414 39.8527 14.2983 39.9394L18.8138 42.548C21.2656 43.7739 22.7639 42.3292 22.7639 40.8763V22.096C22.7639 21.8277 22.9744 21.6213 23.2427 21.6213H25.3312C25.5913 21.6213 25.8059 21.8277 25.8059 22.096V40.8846C25.8059 44.1536 24.0228 46.0317 20.923 46.0317C19.9695 46.0317 19.2183 46.0317 17.1215 44.9998L12.7959 42.5067C11.7268 41.8876 11.0664 40.7319 11.0664 39.4977V20.4697C11.0664 19.2315 11.7268 18.0758 12.7959 17.4649L29.3019 7.94262C30.3462 7.35238 31.733 7.35238 32.7691 7.94262L49.2545 17.469C50.3194 18.084 50.9839 19.2356 50.9839 20.4739V39.5019C50.9839 40.736 50.3194 41.8876 49.2545 42.5067L32.7691 52.029C32.2407 52.3344 31.6422 52.4913 31.0314 52.4913" fill="#4ECF42"/>
<path d="M36.1261 39.3883C28.9112 39.3883 27.3984 36.0764 27.3984 33.2985C27.3984 33.0344 27.6114 32.8239 27.876 32.8239H30.0058C30.2411 32.8239 30.4392 32.9952 30.4764 33.2276C30.7983 35.3978 31.7559 36.4924 36.1187 36.4924C39.5941 36.4924 41.0718 35.7074 41.0718 33.8644C41.0718 32.8037 40.6508 32.0153 35.2519 31.487C30.7364 31.0412 27.9462 30.0465 27.9462 26.4349C27.9462 23.1081 30.7529 21.1268 35.4542 21.1268C40.7333 21.1268 43.3502 22.9595 43.6804 26.8971C43.6928 27.0333 43.6432 27.1654 43.5524 27.2645C43.4616 27.3594 43.3337 27.4172 43.2016 27.4172H41.0594C40.8365 27.4172 40.6425 27.2604 40.5971 27.0457C40.0812 24.7632 38.8346 24.0326 35.4459 24.0326C31.6527 24.0326 31.2111 25.3534 31.2111 26.344C31.2111 27.5452 31.7311 27.896 36.8493 28.5729C41.9179 29.2457 44.3243 30.195 44.3243 33.7571C44.3243 37.3481 41.3277 39.4077 36.1022 39.4077L36.1261 39.3883Z" fill="#4ECF42"/>
</svg>
