<svg width="60" height="60" viewBox="0 0 60 60" fill="none" xmlns="http://www.w3.org/2000/svg">
<path d="M49.5 0H10.5C4.70101 0 0 4.70101 0 10.5V49.5C0 55.299 4.70101 60 10.5 60H49.5C55.299 60 60 55.299 60 49.5V10.5C60 4.70101 55.299 0 49.5 0Z" fill="#001E36"/>
<path d="M14.666 42.538V17.1504C14.666 16.9687 14.757 16.8779 14.939 16.8779C16.9149 16.8259 19.4238 16.8 22.4656 16.8C26.0534 16.8 28.6793 17.6047 30.3432 19.2141C32.0331 20.8236 32.8781 22.8094 32.8781 25.1717C32.8781 28.105 31.8381 30.2855 29.7582 31.7133C27.6783 33.141 25.0655 33.8549 21.9196 33.8549H19.6188V42.4991C19.6188 42.7068 19.5148 42.8106 19.3068 42.8106H14.978C14.77 42.8106 14.666 42.7198 14.666 42.538ZM19.6188 20.538V30.1168C19.9827 30.1687 20.8277 30.1947 22.1536 30.1947C23.8955 30.1947 25.2995 29.8183 26.3654 29.0655C27.4573 28.2867 28.0033 27.0277 28.0033 25.2885C28.0033 23.7569 27.5223 22.5758 26.5604 21.7451C25.6244 20.9144 24.2595 20.4991 22.4656 20.4991C22.0236 20.4991 21.5817 20.5121 21.1397 20.538C20.7237 20.538 20.3727 20.538 20.0867 20.538C19.8267 20.538 19.6708 20.538 19.6188 20.538Z" fill="#31A8FE"/>
<path d="M46.4841 28.3257C45.0282 27.4171 43.5072 26.9628 41.9213 26.9628C41.0114 26.9628 40.3354 27.1316 39.8934 27.469C39.4774 27.8065 39.2695 28.2088 39.2695 28.6761C39.2695 29.1434 39.4514 29.5587 39.8154 29.9221C40.1794 30.2596 40.9464 30.6619 42.1163 31.1292C44.2742 31.9599 45.7821 32.8425 46.6401 33.777C47.524 34.6855 47.966 35.8667 47.966 37.3203C47.966 39.0855 47.29 40.5133 45.9381 41.6035C44.6122 42.6678 42.8053 43.2 40.5174 43.2C38.2295 43.2 36.3576 42.7847 34.9017 41.954C34.7457 41.9021 34.6677 41.7723 34.6677 41.5646V37.9434C34.6677 37.8395 34.6937 37.7746 34.7457 37.7487C34.8237 37.6967 34.8887 37.6967 34.9407 37.7487C36.6306 38.9947 38.4375 39.6177 40.3614 39.6177C41.2714 39.6177 41.9603 39.4619 42.4283 39.1504C42.9223 38.813 43.1693 38.3847 43.1693 37.8655C43.1693 37.3203 42.9743 36.8661 42.5843 36.5026C42.1943 36.1133 41.4273 35.6979 40.2834 35.2566C38.2035 34.4519 36.7476 33.5953 35.9156 32.6867C35.1097 31.7522 34.7067 30.5841 34.7067 29.1823C34.7067 27.5729 35.3177 26.223 36.5396 25.1327C37.7615 24.0425 39.5034 23.4973 41.7653 23.4973C43.8712 23.4973 45.4961 23.7829 46.6401 24.354C46.7701 24.4318 46.8351 24.6006 46.8351 24.8602V28.092C46.8351 28.4035 46.7181 28.4814 46.4841 28.3257Z" fill="#31A8FE"/>
</svg>
