<svg width="60" height="60" viewBox="0 0 60 60" fill="none" xmlns="http://www.w3.org/2000/svg">
<g clip-path="url(#clip0_61_21)">
<path d="M10.625 4.83609e-06H49.375C50.7707 -0.00134432 52.1529 0.279605 53.4426 0.826775C54.7322 1.37394 55.9041 2.17659 56.8909 3.18878C57.8778 4.20097 58.6604 5.40283 59.1939 6.72558C59.7274 8.04832 60.0013 9.46599 60 10.8974V49.1026C60.0013 50.534 59.7274 51.9517 59.1939 53.2744C58.6604 54.5972 57.8778 55.799 56.8909 56.8112C55.9041 57.8234 54.7322 58.6261 53.4426 59.1732C52.1529 59.7204 50.7707 60.0013 49.375 60H10.625C9.22934 60.0013 7.84711 59.7204 6.55744 59.1732C5.26776 58.6261 4.09595 57.8234 3.10906 56.8112C2.12218 55.799 1.3396 54.5972 0.806105 53.2744C0.272615 51.9517 -0.00131071 50.534 4.71519e-06 49.1026V10.8974C-0.00131071 9.46599 0.272615 8.04832 0.806105 6.72558C1.3396 5.40283 2.12218 4.20097 3.10906 3.18878C4.09595 2.17659 5.26776 1.37394 6.55744 0.826775C7.84711 0.279605 9.22934 -0.00134432 10.625 4.83609e-06V4.83609e-06Z" fill="#000B1D"/>
<g clip-path="url(#clip1_61_21)">
<path d="M31.1674 33.9673C33.4712 33.9673 35.3387 32.1239 35.3387 29.85C35.3387 27.576 33.4712 25.7326 31.1674 25.7326C28.8637 25.7326 26.9961 27.576 26.9961 29.85C26.9961 32.1239 28.8637 33.9673 31.1674 33.9673Z" fill="#61DAFB"/>
<path fill-rule="evenodd" clip-rule="evenodd" d="M11.1978 27.2809C10.1857 28.1827 9.76055 29.0525 9.76055 29.85C9.76055 30.6475 10.1857 31.5173 11.1978 32.4191C12.2098 33.3209 13.7289 34.177 15.689 34.9158C19.6026 36.3907 25.0751 37.3232 31.1682 37.3232C37.2613 37.3232 42.7337 36.3907 46.6473 34.9158C48.6074 34.177 50.1265 33.3209 51.1385 32.4191C52.1506 31.5173 52.5758 30.6475 52.5758 29.85C52.5758 29.0525 52.1506 28.1827 51.1385 27.2809C50.1265 26.3792 48.6074 25.523 46.6473 24.7843C42.7337 23.3093 37.2613 22.3769 31.1682 22.3769C25.0751 22.3769 19.6026 23.3093 15.689 24.7843C13.7289 25.523 12.2098 26.3792 11.1978 27.2809ZM14.9935 22.9861C19.1808 21.408 24.8997 20.4521 31.1682 20.4521C37.4366 20.4521 43.1555 21.408 47.3428 22.9861C49.4332 23.7739 51.1919 24.7355 52.4452 25.8522C53.6983 26.9688 54.5258 28.3181 54.5258 29.85C54.5258 31.3819 53.6983 32.7313 52.4452 33.8479C51.1919 34.9646 49.4332 35.9261 47.3428 36.7139C43.1555 38.292 37.4366 39.2479 31.1682 39.2479C24.8997 39.2479 19.1808 38.292 14.9935 36.7139C12.9032 35.9261 11.1444 34.9646 9.89116 33.8479C8.638 32.7313 7.81055 31.3819 7.81055 29.85C7.81055 28.3181 8.638 26.9688 9.89116 25.8522C11.1444 24.7355 12.9032 23.7739 14.9935 22.9861Z" fill="#61DAFB"/>
<path fill-rule="evenodd" clip-rule="evenodd" d="M23.4366 11.4944C22.1393 11.0802 21.1636 11.1516 20.4639 11.5504C19.7642 11.9491 19.2136 12.7475 18.9284 14.0635C18.6433 15.3794 18.6516 17.1061 18.9836 19.151C19.6463 23.2339 21.5644 28.3781 24.6109 33.5866C27.6575 38.7951 31.2118 43.0068 34.4627 45.6148C36.0909 46.921 37.6016 47.7915 38.8988 48.2057C40.196 48.6199 41.1718 48.5485 41.8715 48.1497C42.5712 47.7509 43.1218 46.9526 43.4069 45.6365C43.6921 44.3206 43.6837 42.594 43.3518 40.549C42.6891 36.4661 40.771 31.322 37.7244 26.1135C34.6779 20.9049 31.1236 16.6932 27.8727 14.0853C26.2445 12.7791 24.7337 11.9086 23.4366 11.4944ZM29.1026 12.5916C32.5808 15.382 36.2789 19.7927 39.4132 25.1511C42.5474 30.5095 44.5682 35.8761 45.2772 40.2445C45.6312 42.4253 45.6669 44.4095 45.3138 46.0391C44.9607 47.6687 44.1905 49.0507 42.8465 49.8166C41.5024 50.5825 39.9048 50.5499 38.2986 50.037C36.6922 49.524 34.9692 48.5014 33.2328 47.1084C29.7545 44.3181 26.0564 39.9074 22.9222 34.549C19.7879 29.1906 17.7672 23.824 17.0581 19.4555C16.7042 17.2748 16.6684 15.2906 17.0216 13.6609C17.3747 12.0314 18.1448 10.6494 19.4889 9.88346C20.8329 9.11751 22.4305 9.15016 24.0368 9.66308C25.6432 10.176 27.3662 11.1987 29.1026 12.5916Z" fill="#61DAFB"/>
<path fill-rule="evenodd" clip-rule="evenodd" d="M43.4048 14.0635C43.1196 12.7475 42.5691 11.9491 41.8693 11.5503C41.1696 11.1516 40.1939 11.0801 38.8966 11.4944C37.5995 11.9086 36.0888 12.7791 34.4605 14.0853C31.2097 16.6932 27.6553 20.9049 24.6088 26.1135C21.5622 31.322 19.6441 36.4661 18.9814 40.549C18.6495 42.594 18.6411 44.3206 18.9263 45.6365C19.2115 46.9526 19.762 47.7509 20.4617 48.1497C21.1614 48.5485 22.1372 48.6199 23.4344 48.2056C24.7316 47.7914 26.2423 46.921 27.8705 45.6148C31.1214 43.0068 34.6757 38.7951 37.7223 33.5866C40.7688 28.3781 42.6869 23.2339 43.3496 19.151C43.6816 17.1061 43.6899 15.3794 43.4048 14.0635ZM45.2751 19.4555C44.566 23.824 42.5453 29.1906 39.411 34.549C36.2768 39.9074 32.5787 44.3181 29.1004 47.1084C27.3641 48.5014 25.6411 49.524 24.0347 50.037C22.4284 50.5499 20.8308 50.5825 19.4867 49.8166C18.1427 49.0507 17.3725 47.6687 17.0194 46.0391C16.6663 44.4095 16.702 42.4253 17.056 40.2445C17.765 35.8761 19.7858 30.5095 22.92 25.1511C26.0543 19.7927 29.7524 15.382 33.2307 12.5916C34.967 11.1987 36.69 10.176 38.2964 9.66307C39.9027 9.15015 41.5003 9.1175 42.8443 9.88345C44.1884 10.6494 44.9585 12.0314 45.3117 13.6609C45.6648 15.2906 45.6291 17.2748 45.2751 19.4555Z" fill="#61DAFB"/>
</g>
</g>
<defs>
<clipPath id="clip0_61_21">
<rect width="60" height="60" fill="white"/>
</clipPath>
<clipPath id="clip1_61_21">
<rect width="46.8" height="41.1" fill="white" transform="translate(7.76758 9.29996)"/>
</clipPath>
</defs>
</svg>
