<svg width="60" height="60" viewBox="0 0 60 60" fill="none" xmlns="http://www.w3.org/2000/svg">
<g clip-path="url(#clip0_61_32)">
<path d="M10.625 4.83609e-06H49.375C50.7707 -0.00134432 52.1529 0.279605 53.4426 0.826775C54.7322 1.37394 55.9041 2.17659 56.8909 3.18878C57.8778 4.20097 58.6604 5.40283 59.1939 6.72558C59.7274 8.04832 60.0013 9.46599 60 10.8974V49.1026C60.0013 50.534 59.7274 51.9517 59.1939 53.2744C58.6604 54.5972 57.8778 55.799 56.8909 56.8112C55.9041 57.8234 54.7322 58.6261 53.4426 59.1732C52.1529 59.7204 50.7707 60.0013 49.375 60H10.625C9.22934 60.0013 7.84711 59.7204 6.55744 59.1732C5.26776 58.6261 4.09595 57.8234 3.10906 56.8112C2.12218 55.799 1.3396 54.5972 0.806105 53.2744C0.272615 51.9517 -0.00131071 50.534 4.71519e-06 49.1026V10.8974C-0.00131071 9.46599 0.272615 8.04832 0.806105 6.72558C1.3396 5.40283 2.12218 4.20097 3.10906 3.18878C4.09595 2.17659 5.26776 1.37394 6.55744 0.826775C7.84711 0.279605 9.22934 -0.00134432 10.625 4.83609e-06V4.83609e-06Z" fill="#000B1D"/>
<g clip-path="url(#clip1_61_32)">
<path d="M47.6078 32.7285C46.0179 32.7369 44.636 33.1234 43.479 33.6948C43.0544 32.8461 42.6299 32.0899 42.555 31.5354C42.4717 30.8884 42.3719 30.4935 42.4717 29.7205C42.5716 28.9475 43.0211 27.8467 43.0128 27.7627C43.0045 27.6787 42.9129 27.2838 41.9973 27.2754C41.0816 27.267 40.2908 27.4518 40.1992 27.6955C40.1077 27.9392 39.9329 28.4937 39.8163 29.0651C39.6582 29.9053 37.985 32.9049 37.0277 34.4762C36.7197 33.8628 36.4533 33.3251 36.3951 32.8965C36.3118 32.2496 36.2119 31.8547 36.3118 31.0816C36.4117 30.3086 36.8612 29.2079 36.8529 29.1239C36.8446 29.0399 36.753 28.645 35.8373 28.6366C34.9217 28.6282 34.1309 28.813 34.0393 29.0567C33.9477 29.3003 33.8479 29.8717 33.6564 30.4263C33.4649 30.9808 31.2424 35.9886 30.6597 37.2826C30.36 37.9463 30.102 38.4757 29.9188 38.837C29.9188 38.837 29.9105 38.8622 29.8855 38.9042C29.7274 39.2151 29.6358 39.3831 29.6358 39.3831C29.6358 39.3831 29.6358 39.3831 29.6358 39.3915C29.5109 39.6184 29.3777 39.8285 29.3112 39.8285C29.2612 39.8285 29.1696 39.2235 29.3278 38.4001C29.6608 36.6608 30.4516 33.9552 30.4432 33.8628C30.4432 33.8124 30.5931 33.3419 29.9271 33.0982C29.2779 32.8545 29.0448 33.2578 28.9865 33.2578C28.9282 33.2578 28.8866 33.4007 28.8866 33.4007C28.8866 33.4007 29.6108 30.359 27.5048 30.359C26.1896 30.359 24.3749 31.8126 23.4759 33.1234C22.9098 33.4343 21.7028 34.0981 20.4126 34.8123C19.9214 35.0895 19.4137 35.3668 18.9392 35.6273C18.9059 35.5937 18.8726 35.5517 18.8393 35.5181C16.2921 32.7705 11.5806 30.8296 11.7803 27.141C11.8553 25.7966 12.3131 22.2676 20.8288 17.9824C27.8378 14.4954 33.415 15.4617 34.3806 17.6043C35.7624 20.6628 31.3922 26.3427 24.1501 27.1662C21.3865 27.477 19.9381 26.4015 19.5718 25.9982C19.1889 25.5781 19.1306 25.5529 18.9891 25.6369C18.756 25.763 18.9059 26.1411 18.9891 26.3595C19.2056 26.9309 20.0962 27.9392 21.6029 28.4349C22.9348 28.8718 26.1729 29.1155 30.0936 27.5863C34.4805 25.8722 37.9101 21.1081 36.9028 17.117C35.8956 13.0671 29.2362 11.7311 22.9348 13.9913C19.1889 15.3357 15.1267 17.4531 12.2049 20.209C8.73368 23.4859 8.18428 26.3343 8.40904 27.5275C9.21649 31.7622 15.0018 34.5182 17.316 36.56C17.1994 36.6272 17.0912 36.686 16.9996 36.7364C15.8426 37.3162 11.4307 39.6436 10.3319 42.1055C9.0833 44.8951 10.5317 46.8948 11.489 47.1637C14.4607 47.9955 17.5157 46.4999 19.1556 44.0296C20.7955 41.5593 20.5957 38.3497 19.8382 36.8792C19.8299 36.8624 19.8215 36.8456 19.8049 36.8288C20.1046 36.6524 20.4126 36.4675 20.7122 36.2911C21.3033 35.9382 21.8859 35.6105 22.3854 35.3416C22.1024 36.123 21.8943 37.0557 21.7944 38.4001C21.6695 39.9797 22.3105 42.0299 23.1512 42.8365C23.5258 43.1894 23.967 43.1978 24.25 43.1978C25.2323 43.1978 25.6735 42.3744 26.1646 41.3997C26.7639 40.2066 27.305 38.8202 27.305 38.8202C27.305 38.8202 26.6308 42.5676 28.4621 42.5676C29.128 42.5676 29.8023 41.6938 30.102 41.2485C30.102 41.2569 30.102 41.2569 30.102 41.2569C30.102 41.2569 30.1186 41.2317 30.1519 41.1728C30.2185 41.0636 30.2601 40.9964 30.2601 40.9964C30.2601 40.9964 30.2601 40.988 30.2601 40.9796C30.5265 40.5091 31.1258 39.442 32.0165 37.6691C33.1653 35.3836 34.2724 32.5268 34.2724 32.5268C34.2724 32.5268 34.3723 33.2242 34.7136 34.3838C34.9134 35.0643 35.3296 35.8121 35.6625 36.5347C35.3962 36.9129 35.2297 37.1229 35.2297 37.1229C35.2297 37.1229 35.2297 37.1229 35.238 37.1313C35.0216 37.417 34.7885 37.7279 34.5304 38.0304C33.6231 39.1227 32.541 40.3746 32.3911 40.7359C32.2163 41.1644 32.2579 41.4753 32.5909 41.7274C32.8323 41.9122 33.2652 41.9374 33.7063 41.9122C34.5221 41.8534 35.0965 41.6518 35.3795 41.5257C35.8207 41.3661 36.3368 41.1224 36.8196 40.7611C37.7103 40.0973 38.2514 39.1479 38.2014 37.8959C38.1764 37.2069 37.9517 36.5179 37.677 35.871C37.7602 35.7533 37.8352 35.6357 37.9184 35.5181C39.3252 33.4427 40.4157 31.1657 40.4157 31.1657C40.4157 31.1657 40.5156 31.8631 40.8568 33.0226C41.0233 33.6107 41.3646 34.2493 41.6643 34.8711C40.3407 35.955 39.525 37.2153 39.2336 38.0388C38.7092 39.568 39.1171 40.257 39.8912 40.4166C40.2409 40.4922 40.7403 40.3242 41.1066 40.1646C41.5727 40.0133 42.1221 39.7528 42.6466 39.3663C43.5372 38.7026 44.3946 37.7783 44.3447 36.5263C44.3197 35.955 44.1699 35.392 43.9618 34.8459C45.0856 34.3754 46.534 34.1149 48.3819 34.3333C52.3443 34.8039 53.1268 37.2994 52.9769 38.3497C52.8271 39.3999 51.9947 39.9713 51.72 40.1477C51.4453 40.3242 51.3537 40.383 51.3787 40.5091C51.412 40.6939 51.5451 40.6855 51.7782 40.6519C52.1029 40.5931 53.8593 39.8033 53.9342 37.8707C54.0591 35.4004 51.7283 32.7033 47.6078 32.7285ZM17.0413 43.1306C15.726 44.5758 13.8947 45.1219 13.1039 44.6598C12.2548 44.1641 12.5878 42.0299 14.2027 40.5006C15.185 39.568 16.4502 38.7025 17.291 38.1732C17.4824 38.0556 17.7655 37.8875 18.1068 37.6775C18.165 37.6439 18.1983 37.6271 18.1983 37.6271C18.2649 37.585 18.3315 37.543 18.3981 37.501C18.9891 39.6856 18.4231 41.6098 17.0413 43.1306ZM26.6141 36.56C26.1563 37.6859 25.199 40.5679 24.6163 40.4082C24.1168 40.2738 23.8088 38.0892 24.5164 35.9298C24.8743 34.8459 25.6318 33.5519 26.073 33.0478C26.7889 32.2412 27.5797 31.9723 27.7712 32.3C28.0126 32.7285 26.8971 35.8542 26.6141 36.56ZM34.5138 40.3746C34.3223 40.4754 34.1392 40.5427 34.056 40.4922C33.9977 40.4586 34.1392 40.3242 34.1392 40.3242C34.1392 40.3242 35.1298 39.2487 35.521 38.7614C35.7458 38.4757 36.0122 38.1396 36.2952 37.7615C36.2952 37.7951 36.2952 37.8371 36.2952 37.8707C36.2952 39.1563 35.0632 40.0217 34.5138 40.3746ZM40.6071 38.9714C40.4656 38.8706 40.4906 38.5345 40.9651 37.4842C41.1482 37.0725 41.5811 36.3835 42.3219 35.7197C42.4052 35.9886 42.4634 36.2491 42.4551 36.4927C42.4468 38.1144 41.298 38.7194 40.6071 38.9714Z" fill="#CD6799"/>
</g>
</g>
<defs>
<clipPath id="clip0_61_32">
<rect width="60" height="60" fill="white"/>
</clipPath>
<clipPath id="clip1_61_32">
<rect width="45.6" height="34.5" fill="white" transform="translate(8.36719 12.9)"/>
</clipPath>
</defs>
</svg>
