<svg width="64" height="64" viewBox="0 0 64 64" fill="none" xmlns="http://www.w3.org/2000/svg">
<rect width="64" height="64" fill="#D9D9D9" fill-opacity="0.08"/>
<g clip-path="url(#clip0_199_905)">
<path d="M51.5227 32.8746C51.5227 31.2358 51.3897 30.04 51.102 28.7998H32.3887V36.1964H43.3729C43.1516 38.0346 41.9557 40.8029 39.2981 42.663L39.2609 42.9106L45.1777 47.4943L45.5876 47.5352C49.3523 44.0583 51.5227 38.9426 51.5227 32.8746Z" fill="#4285F4"/>
<path d="M32.3893 52.3624C37.7707 52.3624 42.2884 50.5906 45.5883 47.5346L39.2988 42.6624C37.6157 43.8361 35.3568 44.6555 32.3893 44.6555C27.1186 44.6555 22.6452 41.1787 21.0505 36.373L20.8168 36.3929L14.6644 41.1543L14.584 41.3779C17.8615 47.8888 24.5939 52.3624 32.3893 52.3624Z" fill="#34A853"/>
<path d="M21.0515 36.3736C20.6307 35.1335 20.3872 33.8046 20.3872 32.4317C20.3872 31.0585 20.6307 29.7298 21.0294 28.4897L21.0182 28.2256L14.7888 23.3877L14.5849 23.4846C13.2341 26.1865 12.459 29.2205 12.459 32.4317C12.459 35.6428 13.2341 38.6767 14.5849 41.3785L21.0515 36.3736Z" fill="#FBBC05"/>
<path d="M32.3893 20.2067C36.1319 20.2067 38.6565 21.8234 40.096 23.1744L45.7211 17.6821C42.2664 14.471 37.7707 12.5 32.3893 12.5C24.5939 12.5 17.8615 16.9734 14.584 23.4843L21.0284 28.4893C22.6452 23.6837 27.1186 20.2067 32.3893 20.2067Z" fill="#EB4335"/>
</g>
<defs>
<clipPath id="clip0_199_905">
<rect width="40" height="40" fill="white" transform="translate(12 12.5)"/>
</clipPath>
</defs>
</svg>
