<svg width="64" height="64" viewBox="0 0 64 64" fill="none" xmlns="http://www.w3.org/2000/svg">
<rect width="64" height="64" fill="#D9D9D9" fill-opacity="0.08"/>
<path d="M51.1673 36.467L49.3398 37.8528L47.5173 36.5837C47.5173 36.4503 47.5173 36.3087 47.509 36.167C47.509 36.0337 47.509 35.892 47.5006 35.7503C47.384 32.467 46.5506 28.9503 44.884 26.3753C43.6006 24.4003 41.959 23.4587 40.1257 23.4587C38.2007 23.4587 36.634 24.6087 34.9007 27.1087C34.8507 27.1837 34.7923 27.2587 34.7423 27.342C34.709 27.3837 34.684 27.4253 34.6507 27.4753C34.5673 27.6003 34.484 27.7253 34.4006 27.8587C33.6506 29.0253 32.8673 30.3837 32.0173 31.8837C31.9423 32.0253 31.859 32.167 31.784 32.3087C31.759 32.342 31.734 32.3837 31.7173 32.417L31.5423 32.7253L30.509 34.5503C28.084 38.842 27.4673 39.8253 26.259 41.4337C24.134 44.2587 22.3173 45.3337 19.9257 45.3337C17.0923 45.3337 15.2923 44.1087 14.184 42.2587C13.2757 40.7587 12.834 38.7837 12.834 36.5337L16.9757 36.6753C16.9757 38.142 17.2923 39.2587 17.7173 39.942C18.2673 40.8253 19.0757 41.167 19.9173 41.167C20.9923 41.167 21.9923 40.942 23.8923 38.3087C25.4173 36.2003 27.2173 33.2503 28.4256 31.392L29.5673 29.6503L29.809 29.267L30.059 28.892L30.4757 28.2503C31.109 27.2837 31.7923 26.2587 32.5256 25.2753C32.609 25.1587 32.6923 25.042 32.784 24.9253C32.8673 24.8087 32.959 24.692 33.0423 24.5837C33.7923 23.6253 34.584 22.7337 35.434 22.0003C36.9757 20.6587 38.634 19.917 40.309 19.917C43.1173 19.917 45.7923 21.542 47.8423 24.592C49.934 27.7087 51.0256 31.592 51.1506 35.6337C51.159 35.767 51.159 35.9087 51.159 36.0503C51.1673 36.192 51.1673 36.3253 51.1673 36.467Z" fill="#0081FB"/>
<path d="M16.0977 24.8803C17.9952 21.9595 20.7352 19.917 23.8768 19.917C25.6968 19.917 27.5052 20.4545 29.3943 21.9945C31.4602 23.6778 33.6627 26.4495 36.4102 31.0178L37.3952 32.657C39.7735 36.612 41.126 38.6462 41.9185 39.6062C42.9368 40.8387 43.5727 41.167 44.4993 41.167C46.8493 41.167 47.5135 39.0503 47.5135 36.5828L51.166 36.4687C51.166 39.0478 50.6568 40.9428 49.7902 42.4395C48.9535 43.887 47.3218 45.3337 44.5768 45.3337C42.8702 45.3337 41.3585 44.9637 39.6868 43.3895C38.4018 42.1812 36.8993 40.0345 35.7435 38.1053L32.3052 32.3728C30.5802 29.4962 28.9977 27.3503 28.0818 26.3795C27.0968 25.3345 25.8802 24.0845 23.8593 24.0845C22.2235 24.0845 20.7852 25.2195 19.6227 26.972L16.0977 24.8803Z" fill="url(#paint0_linear_223_1286)"/>
<path d="M23.8757 24.0837C22.2432 24.0837 20.8065 25.2187 19.6465 26.9712C18.0057 29.4478 17.0007 33.1362 17.0007 36.6787C17.0007 38.1395 16.9982 39.2387 17.4173 39.917L14.2173 42.2612C13.3123 40.7562 12.834 38.8337 12.834 36.5837C12.834 32.492 13.9632 28.1745 16.099 24.8803C17.994 21.9595 20.7565 19.917 23.8923 19.917L23.8757 24.0837Z" fill="url(#paint1_linear_223_1286)"/>
<path opacity="0.05" d="M30.0581 28.8913L29.8081 29.2663L29.5664 29.6497C30.1581 30.508 30.8331 31.5413 31.5414 32.7247L31.7164 32.4163C31.7331 32.383 31.7581 32.3413 31.7831 32.308C31.8581 32.1663 31.9414 32.0247 32.0164 31.883C31.3247 30.7497 30.6581 29.7413 30.0581 28.8913ZM32.7831 24.9247C32.6914 25.0413 32.6081 25.158 32.5247 25.2747C33.1331 26.033 33.7497 26.8913 34.3997 27.858C34.4831 27.7247 34.5664 27.5997 34.6497 27.4747C34.6831 27.4247 34.7081 27.383 34.7414 27.3413C34.7914 27.258 34.8497 27.183 34.8997 27.108C34.2664 26.1747 33.6497 25.333 33.0414 24.583C32.9581 24.6913 32.8664 24.808 32.7831 24.9247Z" fill="black"/>
<path opacity="0.07" d="M30.0586 28.8915L29.8086 29.2665C30.4003 30.1165 31.0669 31.1331 31.7836 32.3081C31.8586 32.1665 31.9419 32.0248 32.0169 31.8831C31.3253 30.7498 30.6586 29.7415 30.0586 28.8915ZM32.5253 25.2748C33.1336 26.0331 33.7503 26.8915 34.4003 27.8581C34.4836 27.7248 34.5669 27.5998 34.6503 27.4748C34.0086 26.5248 33.3836 25.6748 32.7836 24.9248C32.6919 25.0415 32.6086 25.1581 32.5253 25.2748Z" fill="black"/>
<defs>
<linearGradient id="paint0_linear_223_1286" x1="47.2527" y1="32.6253" x2="23.2768" y2="32.6253" gradientUnits="userSpaceOnUse">
<stop stop-color="#0081FB"/>
<stop offset="0.995" stop-color="#0064E1"/>
</linearGradient>
<linearGradient id="paint1_linear_223_1286" x1="18.3632" y1="39.392" x2="18.3632" y2="22.8437" gradientUnits="userSpaceOnUse">
<stop stop-color="#0081FB"/>
<stop offset="0.995" stop-color="#0064E1"/>
</linearGradient>
</defs>
</svg>
