<svg width="131" height="24" viewBox="0 0 131 24" fill="none" xmlns="http://www.w3.org/2000/svg">
<path d="M18.5 2H5.5C3.567 2 2 3.567 2 5.5V18.5C2 20.433 3.567 22 5.5 22H18.5C20.433 22 22 20.433 22 18.5V5.5C22 3.567 20.433 2 18.5 2Z" fill="#000058"/>
<path d="M10.8047 13.6901H8.03482L7.31958 15.9789C7.31091 16.0483 7.26756 16.083 7.18953 16.083H5.8891C5.8024 16.083 5.77206 16.0396 5.79807 15.9529L8.30791 8.29327C8.3686 8.12855 8.40327 7.89013 8.41194 7.57803C8.41194 7.52601 8.43795 7.5 8.48997 7.5H10.3106C10.3626 7.5 10.3929 7.52167 10.4016 7.56502L13.2106 15.9659C13.2366 16.0439 13.2149 16.083 13.1455 16.083H11.689C11.6284 16.083 11.585 16.0569 11.559 16.0049L10.8047 13.6901ZM8.34692 12.4547H10.5056C10.4536 12.2726 10.3453 11.9172 10.1805 11.3883C10.0158 10.8595 9.8641 10.3653 9.72538 9.90583C9.58667 9.44634 9.48264 9.08221 9.41328 8.81345H9.40028C9.30491 9.26427 8.95379 10.478 8.34692 12.4547Z" fill="#9999F9"/>
<path d="M17.5066 13.196H15.1268C15.1354 13.7508 15.2915 14.1886 15.5949 14.5094C15.8984 14.8302 16.3535 14.9906 16.9604 14.9906C17.5152 14.9906 18.0094 14.8952 18.4429 14.7045C18.4949 14.6698 18.5209 14.6871 18.5209 14.7565V15.7058C18.5209 15.7665 18.4949 15.8185 18.4429 15.8619C17.9487 16.0873 17.3418 16.2 16.6223 16.2C15.5559 16.2 14.7713 15.8966 14.2685 15.2897C13.7743 14.6741 13.5272 13.9069 13.5272 12.9879C13.5272 12.0342 13.7873 11.2366 14.3075 10.5951C14.8277 9.95351 15.5386 9.63273 16.4402 9.63273C17.2985 9.63273 17.9357 9.89716 18.3519 10.426C18.7767 10.9549 18.9891 11.5747 18.9891 12.2856C18.9891 12.6411 18.9717 12.8925 18.937 13.0399C18.9284 13.1006 18.8937 13.1353 18.833 13.1439C18.6076 13.1786 18.1655 13.196 17.5066 13.196ZM15.1268 12.1946H16.8433C17.2161 12.1946 17.4285 12.1859 17.4806 12.1686C17.4892 12.1339 17.4936 12.0732 17.4936 11.9865C17.4936 11.6571 17.4069 11.3623 17.2335 11.1022C17.0601 10.8422 16.7783 10.7121 16.3882 10.7121C16.0067 10.7121 15.712 10.8508 15.5039 11.1283C15.2958 11.4057 15.1701 11.7611 15.1268 12.1946Z" fill="#9999F9"/>
<path d="M26.5471 19L32.1471 4.88H34.9871L40.5271 19H37.2071L32.9671 7.28H34.1071L29.8071 19H26.5471ZM29.7271 16.44V13.88H37.4271V16.44H29.7271ZM41.7431 19V8.44C41.7431 7.65333 41.9164 6.94667 42.2631 6.32C42.6231 5.68 43.1231 5.18 43.7631 4.82C44.4031 4.44667 45.1631 4.26 46.0431 4.26C46.7097 4.26 47.2897 4.37333 47.7831 4.6C48.2897 4.81333 48.7297 5.11333 49.1031 5.5L47.1831 7.42C47.0497 7.28667 46.8964 7.18667 46.7231 7.12C46.5631 7.04 46.3697 7 46.1431 7C45.7297 7 45.4031 7.12 45.1631 7.36C44.9231 7.6 44.8031 7.92667 44.8031 8.34V19H41.7431ZM39.6031 11.88V9.28H47.6031V11.88H39.6031ZM49.3754 19V5.26H52.4354V19H49.3754ZM47.1754 11.88V9.28H54.6354V11.88H47.1754ZM59.9362 19.22C58.8829 19.22 57.9429 19.0067 57.1162 18.58C56.3029 18.14 55.6629 17.5333 55.1962 16.76C54.7295 15.9867 54.4962 15.1133 54.4962 14.14C54.4962 13.1667 54.7229 12.3 55.1762 11.54C55.6429 10.7667 56.2695 10.16 57.0562 9.72C57.8429 9.28 58.7295 9.06 59.7162 9.06C60.6762 9.06 61.5229 9.26667 62.2562 9.68C62.9895 10.0933 63.5629 10.6667 63.9762 11.4C64.4029 12.1333 64.6162 12.9733 64.6162 13.92C64.6162 14.0933 64.6029 14.28 64.5762 14.48C64.5629 14.6667 64.5295 14.8867 64.4762 15.14L56.0962 15.16V13.06L63.1762 13.04L61.8562 13.92C61.8429 13.36 61.7562 12.9 61.5962 12.54C61.4362 12.1667 61.1962 11.8867 60.8762 11.7C60.5695 11.5 60.1895 11.4 59.7362 11.4C59.2562 11.4 58.8362 11.5133 58.4762 11.74C58.1295 11.9533 57.8562 12.26 57.6562 12.66C57.4695 13.06 57.3762 13.5467 57.3762 14.12C57.3762 14.6933 57.4762 15.1867 57.6762 15.6C57.8895 16 58.1829 16.3133 58.5562 16.54C58.9429 16.7533 59.3962 16.86 59.9162 16.86C60.3962 16.86 60.8295 16.78 61.2162 16.62C61.6029 16.4467 61.9429 16.1933 62.2362 15.86L63.9162 17.54C63.4362 18.1 62.8562 18.52 62.1762 18.8C61.4962 19.08 60.7495 19.22 59.9362 19.22ZM65.4411 19V9.28H68.5011V19H65.4411ZM68.5011 13.66L67.2211 12.66C67.4744 11.5267 67.9011 10.6467 68.5011 10.02C69.1011 9.39333 69.9344 9.08 71.0011 9.08C71.4677 9.08 71.8744 9.15333 72.2211 9.3C72.5811 9.43333 72.8944 9.64667 73.1611 9.94L71.3411 12.24C71.2077 12.0933 71.0411 11.98 70.8411 11.9C70.6411 11.82 70.4144 11.78 70.1611 11.78C69.6544 11.78 69.2477 11.94 68.9411 12.26C68.6477 12.5667 68.5011 13.0333 68.5011 13.66ZM77.112 19V4.88H80.252V19H77.112ZM79.512 19V16.28H87.252V19H79.512ZM79.512 13.1V10.48H86.552V13.1H79.512ZM79.512 7.58V4.88H87.152V7.58H79.512ZM89.7246 19V8.44C89.7246 7.65333 89.8979 6.94667 90.2446 6.32C90.6046 5.68 91.1046 5.18 91.7446 4.82C92.3846 4.44667 93.1446 4.26 94.0246 4.26C94.6912 4.26 95.2712 4.37333 95.7646 4.6C96.2712 4.81333 96.7112 5.11333 97.0846 5.5L95.1646 7.42C95.0312 7.28667 94.8779 7.18667 94.7046 7.12C94.5446 7.04 94.3512 7 94.1246 7C93.7112 7 93.3846 7.12 93.1446 7.36C92.9046 7.6 92.7846 7.92667 92.7846 8.34V19H89.7246ZM87.5846 11.88V9.28H95.5846V11.88H87.5846ZM100.914 19.22C99.8603 19.22 98.9203 19.0067 98.0936 18.58C97.2803 18.14 96.6403 17.5333 96.1736 16.76C95.707 15.9867 95.4736 15.1133 95.4736 14.14C95.4736 13.1667 95.7003 12.3 96.1536 11.54C96.6203 10.7667 97.247 10.16 98.0336 9.72C98.8203 9.28 99.707 9.06 100.694 9.06C101.654 9.06 102.5 9.26667 103.234 9.68C103.967 10.0933 104.54 10.6667 104.954 11.4C105.38 12.1333 105.594 12.9733 105.594 13.92C105.594 14.0933 105.58 14.28 105.554 14.48C105.54 14.6667 105.507 14.8867 105.454 15.14L97.0736 15.16V13.06L104.154 13.04L102.834 13.92C102.82 13.36 102.734 12.9 102.574 12.54C102.414 12.1667 102.174 11.8867 101.854 11.7C101.547 11.5 101.167 11.4 100.714 11.4C100.234 11.4 99.8136 11.5133 99.4536 11.74C99.107 11.9533 98.8336 12.26 98.6336 12.66C98.447 13.06 98.3536 13.5467 98.3536 14.12C98.3536 14.6933 98.4536 15.1867 98.6536 15.6C98.867 16 99.1603 16.3133 99.5336 16.54C99.9203 16.7533 100.374 16.86 100.894 16.86C101.374 16.86 101.807 16.78 102.194 16.62C102.58 16.4467 102.92 16.1933 103.214 15.86L104.894 17.54C104.414 18.1 103.834 18.52 103.154 18.8C102.474 19.08 101.727 19.22 100.914 19.22ZM111.118 19.22C110.118 19.22 109.212 19 108.398 18.56C107.585 18.12 106.945 17.5133 106.478 16.74C106.012 15.9667 105.778 15.1 105.778 14.14C105.778 13.1667 106.012 12.3 106.478 11.54C106.958 10.7667 107.605 10.16 108.418 9.72C109.232 9.28 110.145 9.06 111.158 9.06C111.918 9.06 112.612 9.19333 113.238 9.46C113.878 9.71333 114.445 10.1 114.938 10.62L112.978 12.58C112.752 12.3267 112.485 12.14 112.178 12.02C111.885 11.9 111.545 11.84 111.158 11.84C110.718 11.84 110.325 11.94 109.978 12.14C109.645 12.3267 109.378 12.5933 109.178 12.94C108.992 13.2733 108.898 13.6667 108.898 14.12C108.898 14.5733 108.992 14.9733 109.178 15.32C109.378 15.6667 109.652 15.94 109.998 16.14C110.345 16.34 110.732 16.44 111.158 16.44C111.558 16.44 111.912 16.3733 112.218 16.24C112.538 16.0933 112.812 15.8933 113.038 15.64L114.978 17.6C114.472 18.1333 113.898 18.54 113.258 18.82C112.618 19.0867 111.905 19.22 111.118 19.22ZM116.912 19V5.26H119.972V19H116.912ZM114.712 11.88V9.28H122.172V11.88H114.712ZM126.213 19.24C125.639 19.24 125.073 19.1667 124.513 19.02C123.966 18.8733 123.453 18.6667 122.973 18.4C122.506 18.12 122.106 17.8 121.773 17.44L123.513 15.68C123.833 16.0267 124.213 16.3 124.653 16.5C125.093 16.6867 125.573 16.78 126.093 16.78C126.453 16.78 126.726 16.7267 126.913 16.62C127.113 16.5133 127.213 16.3667 127.213 16.18C127.213 15.94 127.093 15.76 126.853 15.64C126.626 15.5067 126.333 15.3933 125.973 15.3C125.613 15.1933 125.233 15.08 124.833 14.96C124.433 14.84 124.053 14.6733 123.693 14.46C123.333 14.2467 123.039 13.9533 122.813 13.58C122.586 13.1933 122.473 12.7067 122.473 12.12C122.473 11.4933 122.633 10.9533 122.953 10.5C123.273 10.0333 123.726 9.66667 124.313 9.4C124.899 9.13333 125.586 9 126.373 9C127.199 9 127.959 9.14667 128.653 9.44C129.359 9.72 129.933 10.14 130.373 10.7L128.633 12.46C128.326 12.1 127.979 11.8467 127.593 11.7C127.219 11.5533 126.853 11.48 126.493 11.48C126.146 11.48 125.886 11.5333 125.713 11.64C125.539 11.7333 125.453 11.8733 125.453 12.06C125.453 12.26 125.566 12.42 125.793 12.54C126.019 12.66 126.313 12.7667 126.673 12.86C127.033 12.9533 127.413 13.0667 127.813 13.2C128.213 13.3333 128.593 13.5133 128.953 13.74C129.313 13.9667 129.606 14.2733 129.833 14.66C130.059 15.0333 130.173 15.5267 130.173 16.14C130.173 17.0867 129.813 17.84 129.093 18.4C128.386 18.96 127.426 19.24 126.213 19.24Z" fill="white"/>
</svg>
