<svg width="95" height="24" viewBox="0 0 95 24" fill="none" xmlns="http://www.w3.org/2000/svg">
<path d="M5.54167 2H18.4583C18.9236 1.99955 19.3843 2.0932 19.8142 2.27559C20.2441 2.45798 20.6347 2.72553 20.9636 3.06293C21.2926 3.40032 21.5535 3.80094 21.7313 4.24186C21.9091 4.68277 22.0004 5.15533 22 5.63248V18.3675C22.0004 18.8447 21.9091 19.3172 21.7313 19.7581C21.5535 20.1991 21.2926 20.5997 20.9636 20.9371C20.6347 21.2745 20.2441 21.542 19.8142 21.7244C19.3843 21.9068 18.9236 22.0004 18.4583 22H5.54167C5.07645 22.0004 4.6157 21.9068 4.18581 21.7244C3.75592 21.542 3.36532 21.2745 3.03635 20.9371C2.70739 20.5997 2.44653 20.1991 2.2687 19.7581C2.09087 19.3172 1.99956 18.8447 2 18.3675V5.63248C1.99956 5.15533 2.09087 4.68277 2.2687 4.24186C2.44653 3.80094 2.70739 3.40032 3.03635 3.06293C3.36532 2.72553 3.75592 2.45798 4.18581 2.27559C4.6157 2.0932 5.07645 1.99955 5.54167 2V2Z" fill="#000B1D"/>
<path d="M10.687 12.6909C10.7451 11.6538 11.253 10.7401 12.0192 10.0924C12.7705 9.45621 13.7818 9.06738 14.8853 9.06738C15.9877 9.06738 16.999 9.45621 17.7509 10.0924C18.5165 10.7401 19.0244 11.6538 19.083 12.6898C19.1412 13.7554 18.7129 14.7453 17.9615 15.4791C17.1953 16.2255 16.1056 16.6939 14.8853 16.6939C13.665 16.6939 12.5731 16.2255 11.8075 15.4791C11.0555 14.7453 10.6283 13.7554 10.687 12.6909V12.6909Z" fill="white"/>
<path d="M12.7293 12.7845C12.7591 12.2524 13.0197 11.7836 13.4128 11.4512C13.7984 11.1248 14.3173 10.9253 14.8835 10.9253C15.4491 10.9253 15.968 11.1248 16.3538 11.4512C16.7467 11.7836 17.0073 12.2524 17.0374 12.784C17.0672 13.3307 16.8474 13.8387 16.4619 14.2152C16.0688 14.5982 15.5096 14.8385 14.8835 14.8385C14.2573 14.8385 13.6971 14.5982 13.3042 14.2152C12.9184 13.8387 12.6992 13.3307 12.7293 12.7845V12.7845Z" fill="#265787"/>
<path d="M9.29885 13.8622C9.30251 14.0705 9.36892 14.4751 9.46854 14.7912C9.67791 15.4601 10.033 16.0789 10.5272 16.6242C11.0343 17.1848 11.6587 17.635 12.38 17.9547C13.1381 18.2904 13.9595 18.4615 14.8127 18.4601C15.6646 18.459 16.486 18.2845 17.2441 17.9462C17.9653 17.6235 18.5892 17.1713 19.0955 16.6104C19.5893 16.0628 19.9439 15.4429 20.1539 14.774C20.2594 14.436 20.3261 14.093 20.3528 13.7488C20.379 13.4097 20.368 13.0701 20.3199 12.7307C20.2259 12.0694 19.9971 11.4489 19.6448 10.8833C19.3226 10.3636 18.9072 9.90853 18.4133 9.52554L18.4145 9.5247L13.4305 5.69789C13.426 5.69451 13.4223 5.69086 13.4175 5.68777C13.0905 5.43675 12.5407 5.4376 12.181 5.68917C11.8174 5.94356 11.7758 6.36426 12.0994 6.62962L12.098 6.63103L14.1768 8.32142L7.84088 8.32817H7.83244C7.30874 8.32873 6.80531 8.67232 6.70569 9.10653C6.60326 9.54889 6.95895 9.91584 7.50348 9.91781L7.50263 9.91979L10.714 9.9136L4.98347 14.3122C4.97616 14.3176 4.96828 14.3232 4.96152 14.3285C4.42094 14.7425 4.24619 15.4308 4.58669 15.8664C4.93226 16.3093 5.66702 16.3102 6.21323 15.8689L9.34078 13.3093C9.34078 13.3093 9.2952 13.6548 9.29885 13.8622V13.8622ZM17.3356 15.0194C16.6911 15.6759 15.7889 16.0482 14.8127 16.0502C13.8351 16.0518 12.9329 15.6829 12.2885 15.0275C11.9736 14.7081 11.7423 14.3406 11.5996 13.9492C11.4598 13.5645 11.4055 13.1562 11.4415 12.7442C11.4755 12.3415 11.5954 11.9574 11.7868 11.6099C11.9748 11.2683 12.2336 10.9596 12.5533 10.6984C13.1797 10.188 13.9772 9.91162 14.8113 9.9105C15.6463 9.90937 16.4432 10.1832 17.0702 10.692C17.3893 10.952 17.6479 11.2595 17.8359 11.6006C18.0281 11.9479 18.1471 12.3306 18.1826 12.7344C18.2181 13.1458 18.1637 13.5535 18.0239 13.9385C17.8809 14.3311 17.6504 14.6986 17.3356 15.0194V15.0194Z" fill="#EA7600"/>
<path d="M30.1325 19V16.56H33.4525C34.0659 16.56 34.5459 16.38 34.8925 16.02C35.2392 15.66 35.4125 15.22 35.4125 14.7C35.4125 14.34 35.3325 14.02 35.1725 13.74C35.0125 13.46 34.7859 13.24 34.4925 13.08C34.2125 12.92 33.8659 12.84 33.4525 12.84H30.1325V10.46H33.1925C33.7125 10.46 34.1325 10.3333 34.4525 10.08C34.7725 9.81333 34.9325 9.41333 34.9325 8.88C34.9325 8.36 34.7725 7.97333 34.4525 7.72C34.1325 7.45333 33.7125 7.32 33.1925 7.32H30.1325V4.88H33.7925C34.6992 4.88 35.4659 5.04667 36.0925 5.38C36.7325 5.71333 37.2192 6.16 37.5525 6.72C37.8859 7.28 38.0525 7.9 38.0525 8.58C38.0525 9.44667 37.7725 10.18 37.2125 10.78C36.6525 11.38 35.8259 11.7933 34.7325 12.02L34.8125 10.96C35.9992 11.1867 36.9125 11.6467 37.5525 12.34C38.2059 13.0333 38.5325 13.8867 38.5325 14.9C38.5325 15.6733 38.3392 16.3733 37.9525 17C37.5792 17.6133 37.0325 18.1 36.3125 18.46C35.6059 18.82 34.7525 19 33.7525 19H30.1325ZM27.7325 19V4.88H30.8325V19H27.7325ZM39.6129 19V4.48H42.6729V19H39.6129ZM48.9755 19.22C47.9222 19.22 46.9822 19.0067 46.1555 18.58C45.3422 18.14 44.7022 17.5333 44.2355 16.76C43.7689 15.9867 43.5355 15.1133 43.5355 14.14C43.5355 13.1667 43.7622 12.3 44.2155 11.54C44.6822 10.7667 45.3089 10.16 46.0955 9.72C46.8822 9.28 47.7689 9.06 48.7555 9.06C49.7155 9.06 50.5622 9.26667 51.2955 9.68C52.0289 10.0933 52.6022 10.6667 53.0155 11.4C53.4422 12.1333 53.6555 12.9733 53.6555 13.92C53.6555 14.0933 53.6422 14.28 53.6155 14.48C53.6022 14.6667 53.5689 14.8867 53.5155 15.14L45.1355 15.16V13.06L52.2155 13.04L50.8955 13.92C50.8822 13.36 50.7955 12.9 50.6355 12.54C50.4755 12.1667 50.2355 11.8867 49.9155 11.7C49.6089 11.5 49.2289 11.4 48.7755 11.4C48.2955 11.4 47.8755 11.5133 47.5155 11.74C47.1689 11.9533 46.8955 12.26 46.6955 12.66C46.5089 13.06 46.4155 13.5467 46.4155 14.12C46.4155 14.6933 46.5155 15.1867 46.7155 15.6C46.9289 16 47.2222 16.3133 47.5955 16.54C47.9822 16.7533 48.4355 16.86 48.9555 16.86C49.4355 16.86 49.8689 16.78 50.2555 16.62C50.6422 16.4467 50.9822 16.1933 51.2755 15.86L52.9555 17.54C52.4755 18.1 51.8955 18.52 51.2155 18.8C50.5355 19.08 49.7889 19.22 48.9755 19.22ZM60.9004 19V13.46C60.9004 12.9533 60.7404 12.5467 60.4204 12.24C60.1137 11.92 59.7204 11.76 59.2404 11.76C58.9071 11.76 58.6137 11.8333 58.3604 11.98C58.1071 12.1133 57.9071 12.3133 57.7604 12.58C57.6137 12.8333 57.5404 13.1267 57.5404 13.46L56.3604 12.88C56.3604 12.12 56.5271 11.4533 56.8604 10.88C57.1937 10.3067 57.6537 9.86667 58.2404 9.56C58.8404 9.24 59.5137 9.08 60.2604 9.08C60.9804 9.08 61.6137 9.25333 62.1604 9.6C62.7204 9.93333 63.1604 10.38 63.4804 10.94C63.8004 11.5 63.9604 12.1133 63.9604 12.78V19H60.9004ZM54.4804 19V9.28H57.5404V19H54.4804ZM69.4135 19.2C68.4935 19.2 67.6735 18.98 66.9535 18.54C66.2469 18.1 65.6869 17.5 65.2735 16.74C64.8735 15.98 64.6735 15.1133 64.6735 14.14C64.6735 13.1667 64.8735 12.3 65.2735 11.54C65.6869 10.78 66.2469 10.18 66.9535 9.74C67.6735 9.3 68.4935 9.08 69.4135 9.08C70.0802 9.08 70.6802 9.20667 71.2135 9.46C71.7602 9.71333 72.2069 10.0667 72.5535 10.52C72.9135 10.96 73.1135 11.4667 73.1535 12.04V16.14C73.1135 16.7133 72.9202 17.2333 72.5735 17.7C72.2269 18.1533 71.7802 18.52 71.2335 18.8C70.6869 19.0667 70.0802 19.2 69.4135 19.2ZM69.9535 16.44C70.3935 16.44 70.7735 16.3467 71.0935 16.16C71.4135 15.96 71.6669 15.6867 71.8535 15.34C72.0402 14.9933 72.1335 14.5933 72.1335 14.14C72.1335 13.6867 72.0402 13.2933 71.8535 12.96C71.6802 12.6133 71.4269 12.34 71.0935 12.14C70.7735 11.94 70.4002 11.84 69.9735 11.84C69.5469 11.84 69.1669 11.94 68.8335 12.14C68.5135 12.34 68.2535 12.6133 68.0535 12.96C67.8669 13.3067 67.7735 13.7 67.7735 14.14C67.7735 14.58 67.8669 14.9733 68.0535 15.32C68.2402 15.6667 68.5002 15.94 68.8335 16.14C69.1669 16.34 69.5402 16.44 69.9535 16.44ZM75.0135 19H72.0135V16.38L72.4735 14.02L71.9535 11.66V4.48H75.0135V19ZM81.3159 19.22C80.2626 19.22 79.3226 19.0067 78.4959 18.58C77.6826 18.14 77.0426 17.5333 76.5759 16.76C76.1092 15.9867 75.8759 15.1133 75.8759 14.14C75.8759 13.1667 76.1026 12.3 76.5559 11.54C77.0226 10.7667 77.6492 10.16 78.4359 9.72C79.2226 9.28 80.1092 9.06 81.0959 9.06C82.0559 9.06 82.9026 9.26667 83.6359 9.68C84.3692 10.0933 84.9426 10.6667 85.3559 11.4C85.7826 12.1333 85.9959 12.9733 85.9959 13.92C85.9959 14.0933 85.9826 14.28 85.9559 14.48C85.9426 14.6667 85.9092 14.8867 85.8559 15.14L77.4759 15.16V13.06L84.5559 13.04L83.2359 13.92C83.2226 13.36 83.1359 12.9 82.9759 12.54C82.8159 12.1667 82.5759 11.8867 82.2559 11.7C81.9492 11.5 81.5692 11.4 81.1159 11.4C80.6359 11.4 80.2159 11.5133 79.8559 11.74C79.5092 11.9533 79.2359 12.26 79.0359 12.66C78.8492 13.06 78.7559 13.5467 78.7559 14.12C78.7559 14.6933 78.8559 15.1867 79.0559 15.6C79.2692 16 79.5626 16.3133 79.9359 16.54C80.3226 16.7533 80.7759 16.86 81.2959 16.86C81.7759 16.86 82.2092 16.78 82.5959 16.62C82.9826 16.4467 83.3226 16.1933 83.6159 15.86L85.2959 17.54C84.8159 18.1 84.2359 18.52 83.5559 18.8C82.8759 19.08 82.1292 19.22 81.3159 19.22ZM86.8207 19V9.28H89.8807V19H86.8207ZM89.8807 13.66L88.6007 12.66C88.8541 11.5267 89.2807 10.6467 89.8807 10.02C90.4807 9.39333 91.3141 9.08 92.3807 9.08C92.8474 9.08 93.2541 9.15333 93.6007 9.3C93.9607 9.43333 94.2741 9.64667 94.5407 9.94L92.7207 12.24C92.5874 12.0933 92.4207 11.98 92.2207 11.9C92.0207 11.82 91.7941 11.78 91.5407 11.78C91.0341 11.78 90.6274 11.94 90.3207 12.26C90.0274 12.5667 89.8807 13.0333 89.8807 13.66Z" fill="white"/>
</svg>
