<svg width="62" height="24" viewBox="0 0 62 24" fill="none" xmlns="http://www.w3.org/2000/svg">
<g clip-path="url(#clip0_106_1077)">
<path d="M3.54167 2H16.4583C16.9236 1.99955 17.3843 2.0932 17.8142 2.27559C18.2441 2.45798 18.6347 2.72553 18.9636 3.06293C19.2926 3.40032 19.5535 3.80094 19.7313 4.24186C19.9091 4.68277 20.0004 5.15533 20 5.63248V18.3675C20.0004 18.8447 19.9091 19.3172 19.7313 19.7581C19.5535 20.1991 19.2926 20.5997 18.9636 20.9371C18.6347 21.2745 18.2441 21.542 17.8142 21.7244C17.3843 21.9068 16.9236 22.0004 16.4583 22H3.54167C3.07645 22.0004 2.61571 21.9068 2.18581 21.7244C1.75592 21.542 1.36532 21.2745 1.03635 20.9371C0.707392 20.5997 0.446532 20.1991 0.268702 19.7581C0.0908717 19.3172 -0.000436903 18.8447 1.57173e-06 18.3675V5.63248C-0.000436903 5.15533 0.0908717 4.68277 0.268702 4.24186C0.446532 3.80094 0.707392 3.40032 1.03635 3.06293C1.36532 2.72553 1.75592 2.45798 2.18581 2.27559C2.61571 2.0932 3.07645 1.99955 3.54167 2V2Z" fill="#659AD2"/>
<path d="M9.09362 18.2136C5.67112 18.2136 2.88672 15.4292 2.88672 12.0067C2.88672 8.58421 5.67112 5.7998 9.09362 5.7998C11.3021 5.7998 13.3617 6.98824 14.4687 8.90131L11.7825 10.4557C11.2285 9.49814 10.1981 8.90325 9.09362 8.90325C7.38234 8.90325 5.99017 10.2954 5.99017 12.0067C5.99017 13.7179 7.38234 15.1101 9.09362 15.1101C10.1982 15.1101 11.2286 14.5153 11.7827 13.5575L14.4689 15.1119C13.3619 17.0251 11.3022 18.2136 9.09362 18.2136Z" fill="white"/>
<path d="M15.3014 11.6618H14.6117V10.9722H13.9221V11.6618H13.2324V12.3514H13.9221V13.0411H14.6117V12.3514H15.3014V11.6618Z" fill="white"/>
<path d="M17.8873 11.6618H17.1976V10.9722H16.5081V11.6618H15.8184V12.3514H16.5081V13.0411H17.1976V12.3514H17.8873V11.6618Z" fill="white"/>
</g>
<path d="M34.5481 19.22C33.4948 19.22 32.5148 19.04 31.6081 18.68C30.7148 18.3067 29.9281 17.7867 29.2481 17.12C28.5814 16.4533 28.0614 15.68 27.6881 14.8C27.3148 13.9067 27.1281 12.9467 27.1281 11.92C27.1281 10.8933 27.3148 9.94 27.6881 9.06C28.0614 8.16667 28.5814 7.39333 29.2481 6.74C29.9148 6.08667 30.6948 5.58 31.5881 5.22C32.4948 4.84667 33.4748 4.66 34.5281 4.66C35.6481 4.66 36.6414 4.84 37.5081 5.2C38.3881 5.56 39.1548 6.05333 39.8081 6.68L37.7081 8.8C37.3348 8.4 36.8814 8.08667 36.3481 7.86C35.8281 7.63333 35.2214 7.52 34.5281 7.52C33.9148 7.52 33.3481 7.62667 32.8281 7.84C32.3214 8.04 31.8814 8.33333 31.5081 8.72C31.1481 9.10667 30.8614 9.57333 30.6481 10.12C30.4481 10.6667 30.3481 11.2667 30.3481 11.92C30.3481 12.5867 30.4481 13.1933 30.6481 13.74C30.8614 14.2867 31.1481 14.7533 31.5081 15.14C31.8814 15.5267 32.3214 15.8267 32.8281 16.04C33.3481 16.2533 33.9148 16.36 34.5281 16.36C35.2481 16.36 35.8748 16.2467 36.4081 16.02C36.9414 15.7933 37.4014 15.48 37.7881 15.08L39.9081 17.2C39.2281 17.8267 38.4481 18.32 37.5681 18.68C36.7014 19.04 35.6948 19.22 34.5481 19.22ZM40.605 13.58V11.04H49.905V13.58H40.605ZM43.965 7.42H46.565V17.16H43.965V7.42ZM51.2224 13.58V11.04H60.5224V13.58H51.2224ZM54.5824 7.42H57.1824V17.16H54.5824V7.42Z" fill="white"/>
<defs>
<clipPath id="clip0_106_1077">
<rect y="2" width="20" height="20" rx="4" fill="white"/>
</clipPath>
</defs>
</svg>
