<svg width="62" height="24" viewBox="0 0 62 24" fill="none" xmlns="http://www.w3.org/2000/svg">
<g clip-path="url(#clip0_106_1016)">
<path d="M3.54167 2H16.4583C16.9236 1.99955 17.3843 2.0932 17.8142 2.27559C18.2441 2.45798 18.6347 2.72553 18.9636 3.06293C19.2926 3.40032 19.5535 3.80094 19.7313 4.24186C19.9091 4.68277 20.0004 5.15533 20 5.63248V18.3675C20.0004 18.8447 19.9091 19.3172 19.7313 19.7581C19.5535 20.1991 19.2926 20.5997 18.9636 20.9371C18.6347 21.2745 18.2441 21.542 17.8142 21.7244C17.3843 21.9068 16.9236 22.0004 16.4583 22H3.54167C3.07645 22.0004 2.6157 21.9068 2.18581 21.7244C1.75592 21.542 1.36532 21.2745 1.03635 20.9371C0.707392 20.5997 0.446532 20.1991 0.268702 19.7581C0.0908717 19.3172 -0.000436903 18.8447 1.57173e-06 18.3675V5.63248C-0.000436903 5.15533 0.0908717 4.68277 0.268702 4.24186C0.446532 3.80094 0.707392 3.40032 1.03635 3.06293C1.36532 2.72553 1.75592 2.45798 2.18581 2.27559C2.6157 2.0932 3.07645 1.99955 3.54167 2V2Z" fill="#2965F1"/>
<path d="M5.28418 10.2446L5.48098 12.4406H10.3952V10.2446H5.28418ZM4.88867 5.7998L5.08828 7.99582H10.3952V5.7998H4.88867V5.7998ZM10.3952 15.9479L10.3856 15.9504L7.93994 15.29L7.78357 13.5386H5.5791L5.88674 16.9867L10.3851 18.2354L10.3952 18.2326V15.9479Z" fill="#EBEBEB"/>
<path d="M15.4914 10.2446L15.8878 5.7998H10.3868V7.99582H13.4812L13.2813 10.2446H10.3868V12.4406H13.0909L12.836 15.2887L10.3867 15.9497V18.2344L14.8887 16.9867L14.9217 16.6157L15.4378 10.8343L15.4914 10.2446V10.2446Z" fill="white"/>
</g>
<path d="M34.4505 19.22C33.3971 19.22 32.4171 19.04 31.5105 18.68C30.6171 18.3067 29.8305 17.7867 29.1505 17.12C28.4838 16.4533 27.9638 15.68 27.5905 14.8C27.2171 13.9067 27.0305 12.9467 27.0305 11.92C27.0305 10.8933 27.2171 9.94 27.5905 9.06C27.9638 8.16667 28.4838 7.39333 29.1505 6.74C29.8171 6.08667 30.5971 5.58 31.4905 5.22C32.3971 4.84667 33.3771 4.66 34.4305 4.66C35.5505 4.66 36.5438 4.84 37.4105 5.2C38.2905 5.56 39.0571 6.05333 39.7105 6.68L37.6105 8.8C37.2371 8.4 36.7838 8.08667 36.2505 7.86C35.7305 7.63333 35.1238 7.52 34.4305 7.52C33.8171 7.52 33.2505 7.62667 32.7305 7.84C32.2238 8.04 31.7838 8.33333 31.4105 8.72C31.0505 9.10667 30.7638 9.57333 30.5505 10.12C30.3505 10.6667 30.2505 11.2667 30.2505 11.92C30.2505 12.5867 30.3505 13.1933 30.5505 13.74C30.7638 14.2867 31.0505 14.7533 31.4105 15.14C31.7838 15.5267 32.2238 15.8267 32.7305 16.04C33.2505 16.2533 33.8171 16.36 34.4305 16.36C35.1505 16.36 35.7771 16.2467 36.3105 16.02C36.8438 15.7933 37.3038 15.48 37.6905 15.08L39.8105 17.2C39.1305 17.8267 38.3505 18.32 37.4705 18.68C36.6038 19.04 35.5971 19.22 34.4505 19.22ZM44.893 19.22C43.733 19.22 42.733 19.0333 41.893 18.66C41.0663 18.2733 40.3063 17.6933 39.613 16.92L41.653 14.9C42.1063 15.42 42.6063 15.8267 43.153 16.12C43.713 16.4 44.3596 16.54 45.093 16.54C45.7596 16.54 46.273 16.42 46.633 16.18C47.0063 15.94 47.193 15.6067 47.193 15.18C47.193 14.7933 47.073 14.48 46.833 14.24C46.593 14 46.273 13.7933 45.873 13.62C45.4863 13.4467 45.053 13.28 44.573 13.12C44.1063 12.96 43.6396 12.78 43.173 12.58C42.7063 12.3667 42.273 12.1067 41.873 11.8C41.4863 11.48 41.173 11.0867 40.933 10.62C40.693 10.14 40.573 9.54 40.573 8.82C40.573 7.95333 40.7796 7.20667 41.193 6.58C41.6196 5.95333 42.2063 5.48 42.953 5.16C43.6996 4.82667 44.5596 4.66 45.533 4.66C46.5196 4.66 47.4196 4.83333 48.233 5.18C49.0596 5.52667 49.7396 6 50.273 6.6L48.233 8.62C47.8063 8.18 47.373 7.85333 46.933 7.64C46.5063 7.42667 46.0196 7.32 45.473 7.32C44.9263 7.32 44.493 7.42667 44.173 7.64C43.853 7.84 43.693 8.13333 43.693 8.52C43.693 8.88 43.813 9.17333 44.053 9.4C44.293 9.61333 44.6063 9.8 44.993 9.96C45.393 10.12 45.8263 10.28 46.293 10.44C46.773 10.6 47.2463 10.7867 47.713 11C48.1796 11.2133 48.6063 11.4867 48.993 11.82C49.393 12.14 49.713 12.5533 49.953 13.06C50.193 13.5533 50.313 14.1667 50.313 14.9C50.313 16.2467 49.833 17.3067 48.873 18.08C47.913 18.84 46.5863 19.22 44.893 19.22ZM55.5494 19.22C54.3894 19.22 53.3894 19.0333 52.5494 18.66C51.7227 18.2733 50.9627 17.6933 50.2694 16.92L52.3094 14.9C52.7627 15.42 53.2627 15.8267 53.8094 16.12C54.3694 16.4 55.0161 16.54 55.7494 16.54C56.4161 16.54 56.9294 16.42 57.2894 16.18C57.6627 15.94 57.8494 15.6067 57.8494 15.18C57.8494 14.7933 57.7294 14.48 57.4894 14.24C57.2494 14 56.9294 13.7933 56.5294 13.62C56.1427 13.4467 55.7094 13.28 55.2294 13.12C54.7627 12.96 54.2961 12.78 53.8294 12.58C53.3627 12.3667 52.9294 12.1067 52.5294 11.8C52.1427 11.48 51.8294 11.0867 51.5894 10.62C51.3494 10.14 51.2294 9.54 51.2294 8.82C51.2294 7.95333 51.4361 7.20667 51.8494 6.58C52.2761 5.95333 52.8627 5.48 53.6094 5.16C54.3561 4.82667 55.2161 4.66 56.1894 4.66C57.1761 4.66 58.0761 4.83333 58.8894 5.18C59.7161 5.52667 60.3961 6 60.9294 6.6L58.8894 8.62C58.4627 8.18 58.0294 7.85333 57.5894 7.64C57.1627 7.42667 56.6761 7.32 56.1294 7.32C55.5827 7.32 55.1494 7.42667 54.8294 7.64C54.5094 7.84 54.3494 8.13333 54.3494 8.52C54.3494 8.88 54.4694 9.17333 54.7094 9.4C54.9494 9.61333 55.2627 9.8 55.6494 9.96C56.0494 10.12 56.4827 10.28 56.9494 10.44C57.4294 10.6 57.9027 10.7867 58.3694 11C58.8361 11.2133 59.2627 11.4867 59.6494 11.82C60.0494 12.14 60.3694 12.5533 60.6094 13.06C60.8494 13.5533 60.9694 14.1667 60.9694 14.9C60.9694 16.2467 60.4894 17.3067 59.5294 18.08C58.5694 18.84 57.2427 19.22 55.5494 19.22Z" fill="white"/>
<defs>
<clipPath id="clip0_106_1016">
<rect y="2" width="20" height="20" rx="4" fill="white"/>
</clipPath>
</defs>
</svg>
