<svg width="82" height="24" viewBox="0 0 82 24" fill="none" xmlns="http://www.w3.org/2000/svg">
<g clip-path="url(#clip0_106_1037)">
<path d="M5.54167 2H18.4583C18.9236 1.99955 19.3843 2.0932 19.8142 2.27559C20.2441 2.45798 20.6347 2.72553 20.9636 3.06293C21.2926 3.40032 21.5535 3.80094 21.7313 4.24186C21.9091 4.68277 22.0004 5.15533 22 5.63248V18.3675C22.0004 18.8447 21.9091 19.3172 21.7313 19.7581C21.5535 20.1991 21.2926 20.5997 20.9636 20.9371C20.6347 21.2745 20.2441 21.542 19.8142 21.7244C19.3843 21.9068 18.9236 22.0004 18.4583 22H5.54167C5.07645 22.0004 4.61571 21.9068 4.18581 21.7244C3.75592 21.542 3.36532 21.2745 3.03635 20.9371C2.70739 20.5997 2.44653 20.1991 2.2687 19.7581C2.09087 19.3172 1.99956 18.8447 2 18.3675V5.63248C1.99956 5.15533 2.09087 4.68277 2.2687 4.24186C2.44653 3.80094 2.70739 3.40032 3.03635 3.06293C3.36532 2.72553 3.75592 2.45798 4.18581 2.27559C4.61571 2.0932 5.07645 1.99955 5.54167 2V2Z" fill="#000B1D"/>
<path d="M10.472 18.1003C11.6226 18.1003 12.5553 17.1675 12.5553 16.0169V13.9336H10.472C9.32141 13.9336 8.38867 14.8663 8.38867 16.0169C8.38867 17.1675 9.32141 18.1003 10.472 18.1003Z" fill="#0ACF83"/>
<path d="M8.38867 11.8499C8.38867 10.6993 9.32141 9.7666 10.472 9.7666H12.5553V13.9333H10.472C9.32141 13.9333 8.38867 13.0005 8.38867 11.8499Z" fill="#A259FF"/>
<path d="M8.38867 7.68343C8.38867 6.53284 9.32141 5.6001 10.472 5.6001H12.5553V9.76677H10.472C9.32141 9.76677 8.38867 8.83403 8.38867 7.68343Z" fill="#F24E1E"/>
<path d="M12.5566 5.6001H14.64C15.7906 5.6001 16.7233 6.53284 16.7233 7.68343C16.7233 8.83403 15.7906 9.76677 14.64 9.76677H12.5566V5.6001Z" fill="#FF7262"/>
<path d="M16.7233 11.8499C16.7233 13.0005 15.7906 13.9333 14.64 13.9333C13.4894 13.9333 12.5566 13.0005 12.5566 11.8499C12.5566 10.6993 13.4894 9.7666 14.64 9.7666C15.7906 9.7666 16.7233 10.6993 16.7233 11.8499Z" fill="#1ABCFE"/>
</g>
<path d="M27.6409 19V4.88H30.7809V19H27.6409ZM30.0409 13.46V10.76H37.1009V13.46H30.0409ZM30.0409 7.58V4.88H37.4209V7.58H30.0409ZM38.5056 19V9.28H41.5656V19H38.5056ZM40.0456 7.94C39.5656 7.94 39.1656 7.78 38.8456 7.46C38.5389 7.12667 38.3856 6.72667 38.3856 6.26C38.3856 5.78 38.5389 5.38 38.8456 5.06C39.1656 4.74 39.5656 4.58 40.0456 4.58C40.5256 4.58 40.9189 4.74 41.2256 5.06C41.5323 5.38 41.6856 5.78 41.6856 6.26C41.6856 6.72667 41.5323 7.12667 41.2256 7.46C40.9189 7.78 40.5256 7.94 40.0456 7.94ZM47.1883 23.36C46.1216 23.36 45.1816 23.1733 44.3683 22.8C43.5683 22.44 42.9349 21.9267 42.4683 21.26L44.3483 19.38C44.6949 19.7933 45.0816 20.1067 45.5083 20.32C45.9483 20.5333 46.4749 20.64 47.0883 20.64C47.8483 20.64 48.4416 20.4533 48.8683 20.08C49.3083 19.7067 49.5283 19.18 49.5283 18.5V16.02L50.0483 13.9L49.5883 11.78V9.28H52.5883V18.42C52.5883 19.42 52.3549 20.2867 51.8883 21.02C51.4216 21.7533 50.7816 22.3267 49.9683 22.74C49.1549 23.1533 48.2283 23.36 47.1883 23.36ZM47.0483 18.7C46.1549 18.7 45.3616 18.4867 44.6683 18.06C43.9749 17.6333 43.4283 17.0533 43.0283 16.32C42.6283 15.5867 42.4283 14.7733 42.4283 13.88C42.4283 12.9733 42.6283 12.16 43.0283 11.44C43.4283 10.7067 43.9749 10.1333 44.6683 9.72C45.3616 9.29333 46.1549 9.08 47.0483 9.08C47.7149 9.08 48.3083 9.20667 48.8283 9.46C49.3616 9.7 49.7883 10.0467 50.1083 10.5C50.4416 10.94 50.6283 11.4533 50.6683 12.04V15.74C50.6283 16.3133 50.4416 16.8267 50.1083 17.28C49.7883 17.72 49.3616 18.0667 48.8283 18.32C48.2949 18.5733 47.7016 18.7 47.0483 18.7ZM47.6283 15.98C48.0549 15.98 48.4216 15.8867 48.7283 15.7C49.0483 15.5133 49.2883 15.2667 49.4483 14.96C49.6216 14.64 49.7083 14.28 49.7083 13.88C49.7083 13.48 49.6216 13.12 49.4483 12.8C49.2883 12.48 49.0483 12.2267 48.7283 12.04C48.4216 11.8533 48.0549 11.76 47.6283 11.76C47.2149 11.76 46.8483 11.8533 46.5283 12.04C46.2083 12.2267 45.9616 12.48 45.7883 12.8C45.6149 13.12 45.5283 13.48 45.5283 13.88C45.5283 14.2533 45.6149 14.6067 45.7883 14.94C45.9616 15.26 46.2016 15.5133 46.5083 15.7C46.8283 15.8867 47.2016 15.98 47.6283 15.98ZM54.0958 19V9.28H57.1558V19H54.0958ZM60.3158 19V13.32C60.3158 12.8267 60.1625 12.4467 59.8558 12.18C59.5625 11.9 59.1958 11.76 58.7558 11.76C58.4491 11.76 58.1758 11.8267 57.9358 11.96C57.6958 12.08 57.5025 12.2533 57.3558 12.48C57.2225 12.7067 57.1558 12.9867 57.1558 13.32L55.9758 12.8C55.9758 12.0267 56.1425 11.3667 56.4758 10.82C56.8091 10.26 57.2625 9.83333 57.8358 9.54C58.4091 9.23333 59.0558 9.08 59.7758 9.08C60.4558 9.08 61.0625 9.23333 61.5958 9.54C62.1425 9.84667 62.5758 10.2733 62.8958 10.82C63.2158 11.3667 63.3758 12.02 63.3758 12.78V19H60.3158ZM66.5358 19V13.32C66.5358 12.8267 66.3825 12.4467 66.0758 12.18C65.7825 11.9 65.4158 11.76 64.9758 11.76C64.6691 11.76 64.3958 11.8267 64.1558 11.96C63.9158 12.08 63.7225 12.2533 63.5758 12.48C63.4425 12.7067 63.3758 12.9867 63.3758 13.32L61.6158 13.08C61.6425 12.2533 61.8358 11.5467 62.1958 10.96C62.5691 10.36 63.0558 9.9 63.6558 9.58C64.2691 9.24667 64.9558 9.08 65.7158 9.08C66.4625 9.08 67.1225 9.24 67.6958 9.56C68.2825 9.86667 68.7425 10.3133 69.0758 10.9C69.4225 11.4733 69.5958 12.1667 69.5958 12.98V19H66.5358ZM74.9646 19.2C74.0712 19.2 73.2712 18.98 72.5646 18.54C71.8712 18.1 71.3179 17.5 70.9046 16.74C70.5046 15.98 70.3046 15.1133 70.3046 14.14C70.3046 13.1667 70.5046 12.3 70.9046 11.54C71.3179 10.78 71.8712 10.18 72.5646 9.74C73.2712 9.3 74.0712 9.08 74.9646 9.08C75.6179 9.08 76.2046 9.20667 76.7246 9.46C77.2579 9.71333 77.6912 10.0667 78.0246 10.52C78.3579 10.96 78.5446 11.4667 78.5846 12.04V16.24C78.5446 16.8133 78.3579 17.3267 78.0246 17.78C77.7046 18.22 77.2779 18.5667 76.7446 18.82C76.2112 19.0733 75.6179 19.2 74.9646 19.2ZM75.5846 16.44C76.2379 16.44 76.7646 16.2267 77.1646 15.8C77.5646 15.36 77.7646 14.8067 77.7646 14.14C77.7646 13.6867 77.6712 13.2867 77.4846 12.94C77.3112 12.5933 77.0579 12.3267 76.7246 12.14C76.4046 11.94 76.0312 11.84 75.6046 11.84C75.1779 11.84 74.7979 11.94 74.4646 12.14C74.1446 12.3267 73.8846 12.5933 73.6846 12.94C73.4979 13.2867 73.4046 13.6867 73.4046 14.14C73.4046 14.58 73.4979 14.9733 73.6846 15.32C73.8712 15.6667 74.1312 15.94 74.4646 16.14C74.7979 16.34 75.1712 16.44 75.5846 16.44ZM77.6446 19V16.38L78.1046 14.02L77.6446 11.66V9.28H80.6446V19H77.6446Z" fill="white"/>
<defs>
<clipPath id="clip0_106_1037">
<rect y="2" width="20" height="20" rx="4" fill="white"/>
</clipPath>
</defs>
</svg>
