<svg width="54" height="24" viewBox="0 0 54 24" fill="none" xmlns="http://www.w3.org/2000/svg">
<path d="M3.87565 2H16.7923C17.2575 1.99955 17.7183 2.0932 18.1482 2.27559C18.5781 2.45798 18.9687 2.72553 19.2976 3.06293C19.6266 3.40032 19.8875 3.80094 20.0653 4.24186C20.2431 4.68277 20.3344 5.15533 20.334 5.63248V18.3675C20.3344 18.8447 20.2431 19.3172 20.0653 19.7581C19.8875 20.1991 19.6266 20.5997 19.2976 20.9371C18.9687 21.2745 18.5781 21.542 18.1482 21.7244C17.7183 21.9068 17.2575 22.0004 16.7923 22H3.87565C3.41043 22.0004 2.94969 21.9068 2.5198 21.7244C2.0899 21.542 1.6993 21.2745 1.37034 20.9371C1.04138 20.5997 0.780516 20.1991 0.602686 19.7581C0.424856 19.3172 0.333547 18.8447 0.333986 18.3675V5.63248C0.333547 5.15533 0.424856 4.68277 0.602686 4.24186C0.780516 3.80094 1.04138 3.40032 1.37034 3.06293C1.6993 2.72553 2.0899 2.45798 2.5198 2.27559C2.94969 2.0932 3.41043 1.99955 3.87565 2V2Z" fill="#000B1D"/>
<path d="M17.6059 11.3319L11.0563 4.7829C10.6795 4.4057 10.0678 4.4057 9.69046 4.7829L8.33052 6.14303L10.0556 7.86813C10.4566 7.73273 10.9162 7.82352 11.2358 8.14311C11.5569 8.46469 11.6471 8.9283 11.5083 9.33068L13.1709 10.9934C13.5732 10.8548 14.0372 10.9443 14.3584 11.2661C14.8075 11.715 14.8075 12.4425 14.3584 12.8915C13.9093 13.3407 13.1819 13.3407 12.7325 12.8915C12.3949 12.5536 12.3114 12.0575 12.4824 11.6414L10.9318 10.0908L10.9317 14.1713C11.0412 14.2255 11.1445 14.2978 11.2357 14.3887C11.6846 14.8376 11.6846 15.5649 11.2357 16.0145C10.7867 16.4634 10.0589 16.4634 9.61033 16.0145C9.16135 15.5649 9.16135 14.8376 9.61033 14.3887C9.72129 14.2779 9.84968 14.1941 9.98667 14.1379V10.0195C9.84961 9.96349 9.72137 9.88028 9.61025 9.76862C9.27017 9.42879 9.18826 8.92964 9.36267 8.512L7.66212 6.81112L3.17165 11.3016C2.79435 11.6791 2.79435 12.2909 3.17165 12.6681L9.72079 19.2171C10.0978 19.5943 10.7093 19.5943 11.0869 19.2171L17.6058 12.699C17.983 12.3216 17.983 11.7097 17.6058 11.3325" fill="#D43B1E"/>
<path d="M34.219 19.22C33.1924 19.22 32.2257 19.0333 31.319 18.66C30.4257 18.2867 29.6457 17.7733 28.979 17.12C28.3124 16.4533 27.7857 15.68 27.399 14.8C27.0257 13.9067 26.839 12.9467 26.839 11.92C26.839 10.8933 27.0324 9.94 27.419 9.06C27.8057 8.18 28.339 7.41333 29.019 6.76C29.7124 6.09333 30.519 5.58 31.439 5.22C32.359 4.84667 33.3457 4.66 34.399 4.66C35.6124 4.66 36.7124 4.88 37.699 5.32C38.699 5.76 39.5257 6.36667 40.1791 7.14L38.039 9.28C37.5857 8.69333 37.0524 8.25333 36.439 7.96C35.8257 7.66667 35.1324 7.52 34.359 7.52C33.5324 7.52 32.7924 7.70667 32.139 8.08C31.4857 8.44 30.9724 8.95333 30.599 9.62C30.239 10.2733 30.059 11.04 30.059 11.92C30.059 12.8 30.239 13.5733 30.599 14.24C30.959 14.9067 31.4524 15.4267 32.079 15.8C32.7057 16.1733 33.4257 16.36 34.239 16.36C35.0657 16.36 35.7657 16.2067 36.339 15.9C36.9257 15.58 37.3724 15.1267 37.679 14.54C37.999 13.94 38.159 13.2133 38.159 12.36L40.239 13.76L33.939 13.66V11H41.359V11.46C41.359 13.1533 41.0524 14.58 40.439 15.74C39.839 16.8867 38.999 17.7533 37.919 18.34C36.8524 18.9267 35.619 19.22 34.219 19.22ZM42.33 19V9.28H45.39V19H42.33ZM43.87 7.94C43.39 7.94 42.99 7.78 42.67 7.46C42.3633 7.12667 42.21 6.72667 42.21 6.26C42.21 5.78 42.3633 5.38 42.67 5.06C42.99 4.74 43.39 4.58 43.87 4.58C44.35 4.58 44.7433 4.74 45.05 5.06C45.3567 5.38 45.51 5.78 45.51 6.26C45.51 6.72667 45.3567 7.12667 45.05 7.46C44.7433 7.78 44.35 7.94 43.87 7.94ZM48.2727 19V5.26H51.3327V19H48.2727ZM46.0727 11.88V9.28H53.5327V11.88H46.0727Z" fill="white"/>
</svg>
