<svg width="80" height="24" viewBox="0 0 80 24" fill="none" xmlns="http://www.w3.org/2000/svg">
<g clip-path="url(#clip0_106_1009)">
<path d="M3.54167 2H16.4583C16.9236 1.99955 17.3843 2.0932 17.8142 2.27559C18.2441 2.45798 18.6347 2.72553 18.9636 3.06293C19.2926 3.40032 19.5535 3.80094 19.7313 4.24186C19.9091 4.68277 20.0004 5.15533 20 5.63248V18.3675C20.0004 18.8447 19.9091 19.3172 19.7313 19.7581C19.5535 20.1991 19.2926 20.5997 18.9636 20.9371C18.6347 21.2745 18.2441 21.542 17.8142 21.7244C17.3843 21.9068 16.9236 22.0004 16.4583 22H3.54167C3.07645 22.0004 2.6157 21.9068 2.18581 21.7244C1.75592 21.542 1.36532 21.2745 1.03635 20.9371C0.707392 20.5997 0.446532 20.1991 0.268702 19.7581C0.0908717 19.3172 -0.000436903 18.8447 1.57173e-06 18.3675V5.63248C-0.000436903 5.15533 0.0908717 4.68277 0.268702 4.24186C0.446532 3.80094 0.707392 3.40032 1.03635 3.06293C1.36532 2.72553 1.75592 2.45798 2.18581 2.27559C2.6157 2.0932 3.07645 1.99955 3.54167 2V2Z" fill="#F16529"/>
<path d="M7.28863 7.99582H10.3952V5.7998H4.88867L4.94121 6.38895L5.48098 12.4406H10.3952V10.2446H7.48935L7.28863 7.99582V7.99582ZM7.78357 13.5386H5.5791L5.88674 16.9867L10.3851 18.2354L10.3952 18.2326V15.9479L10.3856 15.9504L7.93994 15.29L7.78357 13.5386V13.5386Z" fill="#EBEBEB"/>
<path d="M10.3887 12.4406H13.0929L12.8379 15.2887L10.3887 15.9497V18.2344L14.8906 16.9867L14.9236 16.6157L15.4398 10.8343L15.4933 10.2446H10.3887V12.4406ZM10.3887 7.99045V7.99582H15.6932L15.7372 7.50225L15.8373 6.38895L15.8897 5.7998H10.3887V7.99052V7.99045Z" fill="white"/>
</g>
<path d="M27.4574 19V4.88H30.5974V19H27.4574ZM36.1974 19V4.88H39.3574V19H36.1974ZM29.3374 13.1V10.38H37.2374V13.1H29.3374ZM44.8746 19V5.08H48.0146V19H44.8746ZM40.4546 7.62V4.88H52.4346V7.62H40.4546ZM53.5359 19V4.88H55.7759L61.3359 13.54H60.1959L65.7359 4.88H67.9959V19H64.8559V10.18L65.4159 10.32L61.7959 15.96H59.7159L56.1159 10.32L56.6559 10.18V19H53.5359ZM70.0517 19V4.88H73.1917V19H70.0517ZM72.4717 19V16.24H79.4517V19H72.4717Z" fill="white"/>
<defs>
<clipPath id="clip0_106_1009">
<rect y="2" width="20" height="20" rx="4" fill="white"/>
</clipPath>
</defs>
</svg>
