<svg width="108" height="24" viewBox="0 0 108 24" fill="none" xmlns="http://www.w3.org/2000/svg">
<path d="M18.5 2H5.5C3.567 2 2 3.567 2 5.5V18.5C2 20.433 3.567 22 5.5 22H18.5C20.433 22 22 20.433 22 18.5V5.5C22 3.567 20.433 2 18.5 2Z" fill="#2E0501"/>
<path d="M12.1669 14.2118H9.15754L8.40521 16.4955C8.39657 16.5651 8.34901 16.5999 8.26253 16.5999H6.90056C6.81409 16.5999 6.78382 16.5564 6.80976 16.4694L9.50776 8.71792C9.5683 8.58742 9.60721 8.34383 9.6245 7.98714C9.6245 7.93494 9.65477 7.90884 9.7153 7.90884H11.5832C11.6264 7.90884 11.661 7.93059 11.6869 7.97409L14.6962 16.4825C14.7222 16.5608 14.6962 16.5999 14.6184 16.5999H13.0878C13.0273 16.5999 12.984 16.5695 12.9581 16.5086L12.1669 14.2118ZM9.49479 12.946H11.8296C11.795 12.8242 11.6134 12.2718 11.2848 11.2887C10.9649 10.2969 10.753 9.61834 10.6492 9.25295H10.6363C10.5325 9.69664 10.152 10.9277 9.49479 12.946Z" fill="#F2A032"/>
<path d="M15.5016 16.4825V10.3491C15.5016 10.2795 15.5361 10.2447 15.6053 10.2447H17.0451C17.1143 10.2447 17.1489 10.2795 17.1489 10.3491V16.4955C17.1489 16.5651 17.1143 16.5999 17.0451 16.5999H15.6183C15.5405 16.5999 15.5016 16.5608 15.5016 16.4825ZM16.9673 8.92671C16.8116 9.08331 16.5998 9.1616 16.3317 9.1616C16.0636 9.1616 15.8518 9.08331 15.6961 8.92671C15.5405 8.77012 15.4626 8.55697 15.4626 8.28728C15.4626 8.02629 15.5448 7.81314 15.7091 7.64785C15.8734 7.48255 16.0853 7.3999 16.3447 7.3999C16.6041 7.3999 16.8116 7.48255 16.9673 7.64785C17.123 7.81314 17.2008 8.02629 17.2008 8.28728C17.2008 8.55697 17.123 8.77012 16.9673 8.92671Z" fill="#F2A032"/>
<path d="M27.6131 19V4.88H30.7531V19H27.6131ZM32.5403 19V4.48H35.6003V19H32.5403ZM41.423 19.22C40.5297 19.22 39.7363 19.04 39.043 18.68C38.363 18.3067 37.8297 17.8 37.443 17.16C37.0563 16.5067 36.863 15.76 36.863 14.92V9.28H39.923V14.88C39.923 15.2133 39.9763 15.5 40.083 15.74C40.203 15.98 40.3763 16.1667 40.603 16.3C40.8297 16.4333 41.103 16.5 41.423 16.5C41.8763 16.5 42.2363 16.36 42.503 16.08C42.7697 15.7867 42.903 15.3867 42.903 14.88V9.28H45.963V14.9C45.963 15.7533 45.7697 16.5067 45.383 17.16C44.9963 17.8 44.463 18.3067 43.783 18.68C43.103 19.04 42.3163 19.22 41.423 19.22ZM50.7721 19.24C50.1988 19.24 49.6321 19.1667 49.0721 19.02C48.5254 18.8733 48.0121 18.6667 47.5321 18.4C47.0654 18.12 46.6654 17.8 46.3321 17.44L48.0721 15.68C48.3921 16.0267 48.7721 16.3 49.2121 16.5C49.6521 16.6867 50.1321 16.78 50.6521 16.78C51.0121 16.78 51.2854 16.7267 51.4721 16.62C51.6721 16.5133 51.7721 16.3667 51.7721 16.18C51.7721 15.94 51.6521 15.76 51.4121 15.64C51.1854 15.5067 50.8921 15.3933 50.5321 15.3C50.1721 15.1933 49.7921 15.08 49.3921 14.96C48.9921 14.84 48.6121 14.6733 48.2521 14.46C47.8921 14.2467 47.5988 13.9533 47.3721 13.58C47.1454 13.1933 47.0321 12.7067 47.0321 12.12C47.0321 11.4933 47.1921 10.9533 47.5121 10.5C47.8321 10.0333 48.2854 9.66667 48.8721 9.4C49.4588 9.13333 50.1454 9 50.9321 9C51.7588 9 52.5188 9.14667 53.2121 9.44C53.9188 9.72 54.4921 10.14 54.9321 10.7L53.1921 12.46C52.8854 12.1 52.5388 11.8467 52.1521 11.7C51.7788 11.5533 51.4121 11.48 51.0521 11.48C50.7054 11.48 50.4454 11.5333 50.2721 11.64C50.0988 11.7333 50.0121 11.8733 50.0121 12.06C50.0121 12.26 50.1254 12.42 50.3521 12.54C50.5788 12.66 50.8721 12.7667 51.2321 12.86C51.5921 12.9533 51.9721 13.0667 52.3721 13.2C52.7721 13.3333 53.1521 13.5133 53.5121 13.74C53.8721 13.9667 54.1654 14.2733 54.3921 14.66C54.6188 15.0333 54.7321 15.5267 54.7321 16.14C54.7321 17.0867 54.3721 17.84 53.6521 18.4C52.9454 18.96 51.9854 19.24 50.7721 19.24ZM57.1201 19V5.26H60.1801V19H57.1201ZM54.9201 11.88V9.28H62.3801V11.88H54.9201ZM63.0762 19V9.28H66.1362V19H63.0762ZM66.1362 13.66L64.8562 12.66C65.1095 11.5267 65.5362 10.6467 66.1362 10.02C66.7362 9.39333 67.5695 9.08 68.6362 9.08C69.1028 9.08 69.5095 9.15333 69.8562 9.3C70.2162 9.43333 70.5295 9.64667 70.7962 9.94L68.9762 12.24C68.8428 12.0933 68.6762 11.98 68.4762 11.9C68.2762 11.82 68.0495 11.78 67.7962 11.78C67.2895 11.78 66.8828 11.94 66.5762 12.26C66.2828 12.5667 66.1362 13.0333 66.1362 13.66ZM74.7457 19.2C73.8524 19.2 73.0524 18.98 72.3457 18.54C71.6524 18.1 71.0991 17.5 70.6857 16.74C70.2857 15.98 70.0857 15.1133 70.0857 14.14C70.0857 13.1667 70.2857 12.3 70.6857 11.54C71.0991 10.78 71.6524 10.18 72.3457 9.74C73.0524 9.3 73.8524 9.08 74.7457 9.08C75.3991 9.08 75.9857 9.20667 76.5057 9.46C77.0391 9.71333 77.4724 10.0667 77.8057 10.52C78.1391 10.96 78.3257 11.4667 78.3657 12.04V16.24C78.3257 16.8133 78.1391 17.3267 77.8057 17.78C77.4857 18.22 77.0591 18.5667 76.5257 18.82C75.9924 19.0733 75.3991 19.2 74.7457 19.2ZM75.3657 16.44C76.0191 16.44 76.5457 16.2267 76.9457 15.8C77.3457 15.36 77.5457 14.8067 77.5457 14.14C77.5457 13.6867 77.4524 13.2867 77.2657 12.94C77.0924 12.5933 76.8391 12.3267 76.5057 12.14C76.1857 11.94 75.8124 11.84 75.3857 11.84C74.9591 11.84 74.5791 11.94 74.2457 12.14C73.9257 12.3267 73.6657 12.5933 73.4657 12.94C73.2791 13.2867 73.1857 13.6867 73.1857 14.14C73.1857 14.58 73.2791 14.9733 73.4657 15.32C73.6524 15.6667 73.9124 15.94 74.2457 16.14C74.5791 16.34 74.9524 16.44 75.3657 16.44ZM77.4257 19V16.38L77.8857 14.02L77.4257 11.66V9.28H80.4257V19H77.4257ZM83.3081 19V5.26H86.3681V19H83.3081ZM81.1081 11.88V9.28H88.5681V11.88H81.1081ZM93.7489 19.22C92.7489 19.22 91.8422 19 91.0289 18.56C90.2289 18.1067 89.5955 17.4933 89.1289 16.72C88.6622 15.9467 88.4289 15.08 88.4289 14.12C88.4289 13.16 88.6622 12.3 89.1289 11.54C89.5955 10.78 90.2289 10.18 91.0289 9.74C91.8289 9.28667 92.7355 9.06 93.7489 9.06C94.7622 9.06 95.6689 9.28 96.4689 9.72C97.2689 10.16 97.9022 10.7667 98.3689 11.54C98.8355 12.3 99.0689 13.16 99.0689 14.12C99.0689 15.08 98.8355 15.9467 98.3689 16.72C97.9022 17.4933 97.2689 18.1067 96.4689 18.56C95.6689 19 94.7622 19.22 93.7489 19.22ZM93.7489 16.44C94.1889 16.44 94.5755 16.3467 94.9089 16.16C95.2422 15.96 95.4955 15.6867 95.6689 15.34C95.8555 14.98 95.9489 14.5733 95.9489 14.12C95.9489 13.6667 95.8555 13.2733 95.6689 12.94C95.4822 12.5933 95.2222 12.3267 94.8889 12.14C94.5689 11.94 94.1889 11.84 93.7489 11.84C93.3222 11.84 92.9422 11.94 92.6089 12.14C92.2755 12.3267 92.0155 12.5933 91.8289 12.94C91.6422 13.2867 91.5489 13.6867 91.5489 14.14C91.5489 14.58 91.6422 14.98 91.8289 15.34C92.0155 15.6867 92.2755 15.96 92.6089 16.16C92.9422 16.3467 93.3222 16.44 93.7489 16.44ZM99.9401 19V9.28H103V19H99.9401ZM103 13.66L101.72 12.66C101.973 11.5267 102.4 10.6467 103 10.02C103.6 9.39333 104.433 9.08 105.5 9.08C105.967 9.08 106.373 9.15333 106.72 9.3C107.08 9.43333 107.393 9.64667 107.66 9.94L105.84 12.24C105.707 12.0933 105.54 11.98 105.34 11.9C105.14 11.82 104.913 11.78 104.66 11.78C104.153 11.78 103.747 11.94 103.44 12.26C103.147 12.5667 103 13.0333 103 13.66Z" fill="white"/>
</svg>
