<svg width="120" height="24" viewBox="0 0 120 24" fill="none" xmlns="http://www.w3.org/2000/svg">
<g clip-path="url(#clip0_106_1001)">
<path d="M-9.375 2H29.375C30.7707 1.99955 32.1529 2.0932 33.4426 2.27559C34.7322 2.45798 35.9041 2.72553 36.8909 3.06293C37.8778 3.40032 38.6604 3.80094 39.1939 4.24186C39.7274 4.68277 40.0013 5.15533 40 5.63248V18.3675C40.0013 18.8447 39.7274 19.3172 39.1939 19.7581C38.6604 20.1991 37.8778 20.5997 36.8909 20.9371C35.9041 21.2745 34.7322 21.542 33.4426 21.7244C32.1529 21.9068 30.7707 22.0004 29.375 22H-9.375C-10.7707 22.0004 -12.1529 21.9068 -13.4426 21.7244C-14.7322 21.542 -15.9041 21.2745 -16.8909 20.9371C-17.8778 20.5997 -18.6604 20.1991 -19.1939 19.7581C-19.7274 19.3172 -20.0013 18.8447 -20 18.3675V5.63248C-20.0013 5.15533 -19.7274 4.68277 -19.1939 4.24186C-18.6604 3.80094 -17.8778 3.40032 -16.8909 3.06293C-15.9041 2.72553 -14.7322 2.45798 -13.4426 2.27559C-12.1529 2.0932 -10.7707 1.99955 -9.375 2V2Z" fill="#F7DF1E"/>
<path d="M13.8583 17.6493C14.2612 18.3071 14.7853 18.7906 15.7123 18.7906C16.491 18.7906 16.9885 18.4014 16.9885 17.8636C16.9885 17.2191 16.4774 16.9909 15.6202 16.616L15.1504 16.4144C13.7942 15.8366 12.8933 15.1128 12.8933 13.5826C12.8933 12.1731 13.9672 11.1001 15.6456 11.1001C16.8406 11.1001 17.6996 11.516 18.3187 12.6049L16.8552 13.5445C16.5329 12.9668 16.1853 12.7391 15.6456 12.7391C15.0952 12.7391 14.7463 13.0883 14.7463 13.5445C14.7463 14.1083 15.0955 14.3366 15.9018 14.6858L16.3717 14.8871C17.9685 15.5718 18.8701 16.2699 18.8701 17.8395C18.8701 19.5315 17.5409 20.4585 15.7558 20.4585C14.0104 20.4585 12.8828 19.6267 12.331 18.5366L13.8583 17.6493ZM7.21929 17.8121C7.51453 18.336 7.7831 18.7788 8.42882 18.7788C9.04628 18.7788 9.4358 18.5372 9.4358 17.5979V11.2074H11.3152V17.6233C11.3152 19.5693 10.1742 20.455 8.50882 20.455C7.00406 20.455 6.13263 19.6763 5.68945 18.7383L7.21929 17.8121Z" fill="black"/>
</g>
<path d="M30.3031 19.22C29.4098 19.22 28.6298 19.06 27.9631 18.74C27.3098 18.4067 26.7498 17.9467 26.2831 17.36L28.3831 15.34C28.6231 15.6733 28.9031 15.9267 29.2231 16.1C29.5565 16.2733 29.9298 16.36 30.3431 16.36C30.7431 16.36 31.0898 16.28 31.3831 16.12C31.6765 15.9467 31.9098 15.7067 32.0831 15.4C32.2565 15.08 32.3431 14.6867 32.3431 14.22V4.88H35.5031V14.04C35.5031 15.0933 35.2898 16.0067 34.8631 16.78C34.4365 17.5533 33.8365 18.1533 33.0631 18.58C32.2898 19.0067 31.3698 19.22 30.3031 19.22ZM41.1355 19.2C40.2422 19.2 39.4422 18.98 38.7355 18.54C38.0422 18.1 37.4888 17.5 37.0755 16.74C36.6755 15.98 36.4755 15.1133 36.4755 14.14C36.4755 13.1667 36.6755 12.3 37.0755 11.54C37.4888 10.78 38.0422 10.18 38.7355 9.74C39.4422 9.3 40.2422 9.08 41.1355 9.08C41.7888 9.08 42.3755 9.20667 42.8955 9.46C43.4288 9.71333 43.8622 10.0667 44.1955 10.52C44.5288 10.96 44.7155 11.4667 44.7555 12.04V16.24C44.7155 16.8133 44.5288 17.3267 44.1955 17.78C43.8755 18.22 43.4488 18.5667 42.9155 18.82C42.3822 19.0733 41.7888 19.2 41.1355 19.2ZM41.7555 16.44C42.4088 16.44 42.9355 16.2267 43.3355 15.8C43.7355 15.36 43.9355 14.8067 43.9355 14.14C43.9355 13.6867 43.8422 13.2867 43.6555 12.94C43.4822 12.5933 43.2288 12.3267 42.8955 12.14C42.5755 11.94 42.2022 11.84 41.7755 11.84C41.3488 11.84 40.9688 11.94 40.6355 12.14C40.3155 12.3267 40.0555 12.5933 39.8555 12.94C39.6688 13.2867 39.5755 13.6867 39.5755 14.14C39.5755 14.58 39.6688 14.9733 39.8555 15.32C40.0422 15.6667 40.3022 15.94 40.6355 16.14C40.9688 16.34 41.3422 16.44 41.7555 16.44ZM43.8155 19V16.38L44.2755 14.02L43.8155 11.66V9.28H46.8155V19H43.8155ZM51.3779 19L47.2579 9.28H50.5579L53.3579 17.38H51.9179L54.7179 9.28H57.9579L53.8379 19H51.3779ZM62.1944 19.2C61.3011 19.2 60.5011 18.98 59.7944 18.54C59.1011 18.1 58.5478 17.5 58.1344 16.74C57.7344 15.98 57.5344 15.1133 57.5344 14.14C57.5344 13.1667 57.7344 12.3 58.1344 11.54C58.5478 10.78 59.1011 10.18 59.7944 9.74C60.5011 9.3 61.3011 9.08 62.1944 9.08C62.8478 9.08 63.4344 9.20667 63.9544 9.46C64.4878 9.71333 64.9211 10.0667 65.2544 10.52C65.5878 10.96 65.7744 11.4667 65.8144 12.04V16.24C65.7744 16.8133 65.5878 17.3267 65.2544 17.78C64.9344 18.22 64.5078 18.5667 63.9744 18.82C63.4411 19.0733 62.8478 19.2 62.1944 19.2ZM62.8144 16.44C63.4678 16.44 63.9944 16.2267 64.3944 15.8C64.7944 15.36 64.9944 14.8067 64.9944 14.14C64.9944 13.6867 64.9011 13.2867 64.7144 12.94C64.5411 12.5933 64.2878 12.3267 63.9544 12.14C63.6344 11.94 63.2611 11.84 62.8344 11.84C62.4078 11.84 62.0278 11.94 61.6944 12.14C61.3744 12.3267 61.1144 12.5933 60.9144 12.94C60.7278 13.2867 60.6344 13.6867 60.6344 14.14C60.6344 14.58 60.7278 14.9733 60.9144 15.32C61.1011 15.6667 61.3611 15.94 61.6944 16.14C62.0278 16.34 62.4011 16.44 62.8144 16.44ZM64.8744 19V16.38L65.3344 14.02L64.8744 11.66V9.28H67.8744V19H64.8744ZM73.8968 19.22C72.7368 19.22 71.7368 19.0333 70.8968 18.66C70.0701 18.2733 69.3101 17.6933 68.6168 16.92L70.6568 14.9C71.1101 15.42 71.6101 15.8267 72.1568 16.12C72.7168 16.4 73.3635 16.54 74.0968 16.54C74.7635 16.54 75.2768 16.42 75.6368 16.18C76.0101 15.94 76.1968 15.6067 76.1968 15.18C76.1968 14.7933 76.0768 14.48 75.8368 14.24C75.5968 14 75.2768 13.7933 74.8768 13.62C74.4901 13.4467 74.0568 13.28 73.5768 13.12C73.1101 12.96 72.6435 12.78 72.1768 12.58C71.7101 12.3667 71.2768 12.1067 70.8768 11.8C70.4901 11.48 70.1768 11.0867 69.9368 10.62C69.6968 10.14 69.5768 9.54 69.5768 8.82C69.5768 7.95333 69.7835 7.20667 70.1968 6.58C70.6235 5.95333 71.2101 5.48 71.9568 5.16C72.7035 4.82667 73.5635 4.66 74.5368 4.66C75.5235 4.66 76.4235 4.83333 77.2368 5.18C78.0635 5.52667 78.7435 6 79.2768 6.6L77.2368 8.62C76.8101 8.18 76.3768 7.85333 75.9368 7.64C75.5101 7.42667 75.0235 7.32 74.4768 7.32C73.9301 7.32 73.4968 7.42667 73.1768 7.64C72.8568 7.84 72.6968 8.13333 72.6968 8.52C72.6968 8.88 72.8168 9.17333 73.0568 9.4C73.2968 9.61333 73.6101 9.8 73.9968 9.96C74.3968 10.12 74.8301 10.28 75.2968 10.44C75.7768 10.6 76.2501 10.7867 76.7168 11C77.1835 11.2133 77.6101 11.4867 77.9968 11.82C78.3968 12.14 78.7168 12.5533 78.9568 13.06C79.1968 13.5533 79.3168 14.1667 79.3168 14.9C79.3168 16.2467 78.8368 17.3067 77.8768 18.08C76.9168 18.84 75.5901 19.22 73.8968 19.22ZM85.0262 19.22C84.0262 19.22 83.1195 19 82.3062 18.56C81.4928 18.12 80.8528 17.5133 80.3862 16.74C79.9195 15.9667 79.6862 15.1 79.6862 14.14C79.6862 13.1667 79.9195 12.3 80.3862 11.54C80.8662 10.7667 81.5128 10.16 82.3262 9.72C83.1395 9.28 84.0528 9.06 85.0662 9.06C85.8262 9.06 86.5195 9.19333 87.1462 9.46C87.7862 9.71333 88.3528 10.1 88.8462 10.62L86.8862 12.58C86.6595 12.3267 86.3928 12.14 86.0862 12.02C85.7928 11.9 85.4528 11.84 85.0662 11.84C84.6262 11.84 84.2328 11.94 83.8862 12.14C83.5528 12.3267 83.2862 12.5933 83.0862 12.94C82.8995 13.2733 82.8062 13.6667 82.8062 14.12C82.8062 14.5733 82.8995 14.9733 83.0862 15.32C83.2862 15.6667 83.5595 15.94 83.9062 16.14C84.2528 16.34 84.6395 16.44 85.0662 16.44C85.4662 16.44 85.8195 16.3733 86.1262 16.24C86.4462 16.0933 86.7195 15.8933 86.9462 15.64L88.8862 17.6C88.3795 18.1333 87.8062 18.54 87.1662 18.82C86.5262 19.0867 85.8128 19.22 85.0262 19.22ZM89.5959 19V9.28H92.6559V19H89.5959ZM92.6559 13.66L91.3759 12.66C91.6292 11.5267 92.0559 10.6467 92.6559 10.02C93.2559 9.39333 94.0892 9.08 95.1559 9.08C95.6225 9.08 96.0292 9.15333 96.3759 9.3C96.7359 9.43333 97.0492 9.64667 97.3159 9.94L95.4959 12.24C95.3625 12.0933 95.1959 11.98 94.9959 11.9C94.7959 11.82 94.5692 11.78 94.3159 11.78C93.8092 11.78 93.4025 11.94 93.0959 12.26C92.8025 12.5667 92.6559 13.0333 92.6559 13.66ZM97.4789 19V9.28H100.539V19H97.4789ZM99.0189 7.94C98.5389 7.94 98.1389 7.78 97.8189 7.46C97.5122 7.12667 97.3589 6.72667 97.3589 6.26C97.3589 5.78 97.5122 5.38 97.8189 5.06C98.1389 4.74 98.5389 4.58 99.0189 4.58C99.4989 4.58 99.8922 4.74 100.199 5.06C100.506 5.38 100.659 5.78 100.659 6.26C100.659 6.72667 100.506 7.12667 100.199 7.46C99.8922 7.78 99.4989 7.94 99.0189 7.94ZM107.642 19.2C106.988 19.2 106.388 19.0733 105.842 18.82C105.295 18.5667 104.848 18.22 104.502 17.78C104.155 17.3267 103.955 16.8133 103.902 16.24V12.14C103.955 11.5667 104.155 11.0467 104.502 10.58C104.848 10.1133 105.295 9.74667 105.842 9.48C106.388 9.21333 106.988 9.08 107.642 9.08C108.562 9.08 109.375 9.3 110.082 9.74C110.802 10.18 111.362 10.78 111.762 11.54C112.175 12.3 112.382 13.1667 112.382 14.14C112.382 15.1133 112.175 15.98 111.762 16.74C111.362 17.5 110.802 18.1 110.082 18.54C109.375 18.98 108.562 19.2 107.642 19.2ZM102.042 23.1V9.28H105.102V11.78L104.602 14.14L105.062 16.5V23.1H102.042ZM107.082 16.44C107.522 16.44 107.902 16.34 108.222 16.14C108.555 15.94 108.815 15.6667 109.002 15.32C109.188 14.9733 109.282 14.58 109.282 14.14C109.282 13.6867 109.188 13.2867 109.002 12.94C108.815 12.5933 108.555 12.3267 108.222 12.14C107.902 11.94 107.528 11.84 107.102 11.84C106.675 11.84 106.295 11.94 105.962 12.14C105.642 12.3267 105.388 12.5933 105.202 12.94C105.015 13.2867 104.922 13.6867 104.922 14.14C104.922 14.58 105.008 14.9733 105.182 15.32C105.368 15.6667 105.628 15.94 105.962 16.14C106.295 16.34 106.668 16.44 107.082 16.44ZM114.469 19V5.26H117.529V19H114.469ZM112.269 11.88V9.28H119.729V11.88H112.269Z" fill="white"/>
<defs>
<clipPath id="clip0_106_1001">
<rect y="2" width="20" height="20" rx="4" fill="white"/>
</clipPath>
</defs>
</svg>
