<svg width="69" height="24" viewBox="0 0 69 24" fill="none" xmlns="http://www.w3.org/2000/svg">
<g clip-path="url(#clip0_106_1100)">
<path d="M3.54167 2H16.4583C16.9236 1.99955 17.3843 2.0932 17.8142 2.27559C18.2441 2.45798 18.6347 2.72553 18.9636 3.06293C19.2926 3.40032 19.5535 3.80094 19.7313 4.24186C19.9091 4.68277 20.0004 5.15533 20 5.63248V18.3675C20.0004 18.8447 19.9091 19.3172 19.7313 19.7581C19.5535 20.1991 19.2926 20.5997 18.9636 20.9371C18.6347 21.2745 18.2441 21.542 17.8142 21.7244C17.3843 21.9068 16.9236 22.0004 16.4583 22H3.54167C3.07645 22.0004 2.6157 21.9068 2.18581 21.7244C1.75592 21.542 1.36532 21.2745 1.03635 20.9371C0.707392 20.5997 0.446532 20.1991 0.268702 19.7581C0.0908717 19.3172 -0.000436903 18.8447 1.57173e-06 18.3675V5.63248C-0.000436903 5.15533 0.0908717 4.68277 0.268702 4.24186C0.446532 3.80094 0.707392 3.40032 1.03635 3.06293C1.36532 2.72553 1.75592 2.45798 2.18581 2.27559C2.6157 2.0932 3.07645 1.99955 3.54167 2Z" fill="#F0F0F0"/>
<path d="M8.15423 15.7354C8.15423 15.7354 7.63103 16.0396 8.52656 16.1426C9.61147 16.2663 10.166 16.2486 11.3615 16.0223C11.3615 16.0223 11.6759 16.2194 12.1148 16.3901C9.43468 17.5388 6.0491 16.3236 8.15423 15.7354Z" fill="#5382A1"/>
<path d="M7.82671 14.2363C7.82671 14.2363 7.2399 14.6707 8.13609 14.7634C9.29503 14.883 10.2103 14.8927 11.794 14.5878C11.794 14.5878 12.013 14.8099 12.3575 14.9313C9.11698 15.8789 5.50766 15.006 7.82671 14.2363Z" fill="#5382A1"/>
<path d="M10.5881 11.6939C11.2485 12.4542 10.4146 13.1384 10.4146 13.1384C10.4146 13.1384 12.0915 12.2727 11.3214 11.1888C10.6021 10.1779 10.0506 9.67561 13.0365 7.94385C13.0365 7.94385 8.34954 9.11444 10.5881 11.6939Z" fill="#E76F00"/>
<path d="M14.1325 16.8443C14.1325 16.8443 14.5197 17.1633 13.7061 17.4101C12.1591 17.8788 7.26722 18.0203 5.90828 17.4288C5.41977 17.2163 6.33586 16.9214 6.62402 16.8595C6.92455 16.7943 7.09629 16.8065 7.09629 16.8065C6.55302 16.4237 3.58483 17.5579 5.5886 17.8827C11.0531 18.7689 15.55 17.4837 14.1325 16.8443Z" fill="#5382A1"/>
<path d="M8.40603 12.6834C8.40603 12.6834 5.91771 13.2744 7.52486 13.489C8.20344 13.5799 9.55618 13.5593 10.8162 13.4537C11.846 13.3669 12.88 13.1822 12.88 13.1822C12.88 13.1822 12.5169 13.3377 12.2542 13.5171C9.72737 14.1816 4.84598 13.8725 6.25127 13.1927C7.43972 12.6182 8.40603 12.6834 8.40603 12.6834Z" fill="#5382A1"/>
<path d="M12.87 15.1786C15.4386 13.8438 14.251 12.5611 13.422 12.7339C13.2189 12.7762 13.1283 12.8129 13.1283 12.8129C13.1283 12.8129 13.2037 12.6947 13.3478 12.6436C14.9877 12.067 16.2489 14.344 12.8184 15.2459C12.8184 15.2459 12.8581 15.2104 12.87 15.1786Z" fill="#5382A1"/>
<path d="M11.3211 5.14746C11.3211 5.14746 12.7436 6.5705 9.97182 8.75873C7.74912 10.5141 9.46498 11.5149 9.9709 12.6584C8.67347 11.4878 7.72133 10.4574 8.3601 9.49828C9.29766 8.09045 11.895 7.40787 11.3211 5.14746Z" fill="#E76F00"/>
<path d="M8.65826 18.7952C11.1238 18.9531 14.91 18.7077 14.9997 17.541C14.9997 17.541 14.8273 17.9833 12.962 18.3345C10.8576 18.7305 8.26208 18.6843 6.72266 18.4305C6.72269 18.4305 7.0378 18.6913 8.65826 18.7952Z" fill="#5382A1"/>
</g>
<path d="M30.3271 19.22C29.4338 19.22 28.6538 19.06 27.9871 18.74C27.3338 18.4067 26.7738 17.9467 26.3071 17.36L28.4071 15.34C28.6471 15.6733 28.9271 15.9267 29.2471 16.1C29.5804 16.2733 29.9538 16.36 30.3671 16.36C30.7671 16.36 31.1138 16.28 31.4071 16.12C31.7004 15.9467 31.9338 15.7067 32.1071 15.4C32.2804 15.08 32.3671 14.6867 32.3671 14.22V4.88H35.5271V14.04C35.5271 15.0933 35.3138 16.0067 34.8871 16.78C34.4604 17.5533 33.8604 18.1533 33.0871 18.58C32.3138 19.0067 31.3938 19.22 30.3271 19.22ZM41.1594 19.2C40.2661 19.2 39.4661 18.98 38.7594 18.54C38.0661 18.1 37.5128 17.5 37.0994 16.74C36.6994 15.98 36.4994 15.1133 36.4994 14.14C36.4994 13.1667 36.6994 12.3 37.0994 11.54C37.5128 10.78 38.0661 10.18 38.7594 9.74C39.4661 9.3 40.2661 9.08 41.1594 9.08C41.8128 9.08 42.3994 9.20667 42.9194 9.46C43.4528 9.71333 43.8861 10.0667 44.2194 10.52C44.5528 10.96 44.7394 11.4667 44.7794 12.04V16.24C44.7394 16.8133 44.5528 17.3267 44.2194 17.78C43.8994 18.22 43.4728 18.5667 42.9394 18.82C42.4061 19.0733 41.8128 19.2 41.1594 19.2ZM41.7794 16.44C42.4328 16.44 42.9594 16.2267 43.3594 15.8C43.7594 15.36 43.9594 14.8067 43.9594 14.14C43.9594 13.6867 43.8661 13.2867 43.6794 12.94C43.5061 12.5933 43.2528 12.3267 42.9194 12.14C42.5994 11.94 42.2261 11.84 41.7994 11.84C41.3728 11.84 40.9928 11.94 40.6594 12.14C40.3394 12.3267 40.0794 12.5933 39.8794 12.94C39.6928 13.2867 39.5994 13.6867 39.5994 14.14C39.5994 14.58 39.6928 14.9733 39.8794 15.32C40.0661 15.6667 40.3261 15.94 40.6594 16.14C40.9928 16.34 41.3661 16.44 41.7794 16.44ZM43.8394 19V16.38L44.2994 14.02L43.8394 11.66V9.28H46.8394V19H43.8394ZM51.4018 19L47.2818 9.28H50.5818L53.3818 17.38H51.9418L54.7418 9.28H57.9818L53.8618 19H51.4018ZM62.2184 19.2C61.325 19.2 60.525 18.98 59.8184 18.54C59.125 18.1 58.5717 17.5 58.1584 16.74C57.7584 15.98 57.5584 15.1133 57.5584 14.14C57.5584 13.1667 57.7584 12.3 58.1584 11.54C58.5717 10.78 59.125 10.18 59.8184 9.74C60.525 9.3 61.325 9.08 62.2184 9.08C62.8717 9.08 63.4584 9.20667 63.9784 9.46C64.5117 9.71333 64.945 10.0667 65.2784 10.52C65.6117 10.96 65.7984 11.4667 65.8384 12.04V16.24C65.7984 16.8133 65.6117 17.3267 65.2784 17.78C64.9584 18.22 64.5317 18.5667 63.9984 18.82C63.465 19.0733 62.8717 19.2 62.2184 19.2ZM62.8384 16.44C63.4917 16.44 64.0184 16.2267 64.4184 15.8C64.8184 15.36 65.0184 14.8067 65.0184 14.14C65.0184 13.6867 64.925 13.2867 64.7384 12.94C64.565 12.5933 64.3117 12.3267 63.9784 12.14C63.6584 11.94 63.285 11.84 62.8584 11.84C62.4317 11.84 62.0517 11.94 61.7184 12.14C61.3984 12.3267 61.1384 12.5933 60.9384 12.94C60.7517 13.2867 60.6584 13.6867 60.6584 14.14C60.6584 14.58 60.7517 14.9733 60.9384 15.32C61.125 15.6667 61.385 15.94 61.7184 16.14C62.0517 16.34 62.425 16.44 62.8384 16.44ZM64.8984 19V16.38L65.3584 14.02L64.8984 11.66V9.28H67.8984V19H64.8984Z" fill="white"/>
<defs>
<clipPath id="clip0_106_1100">
<rect y="2" width="20" height="20" rx="4" fill="white"/>
</clipPath>
</defs>
</svg>
