<svg width="92" height="24" viewBox="0 0 92 24" fill="none" xmlns="http://www.w3.org/2000/svg">
<path d="M3.54167 2H16.4583C16.9236 1.99955 17.3843 2.0932 17.8142 2.27559C18.2441 2.45798 18.6347 2.72553 18.9636 3.06293C19.2926 3.40032 19.5535 3.80094 19.7313 4.24186C19.9091 4.68277 20.0004 5.15533 20 5.63248V18.3675C20.0004 18.8447 19.9091 19.3172 19.7313 19.7581C19.5535 20.1991 19.2926 20.5997 18.9636 20.9371C18.6347 21.2745 18.2441 21.542 17.8142 21.7244C17.3843 21.9068 16.9236 22.0004 16.4583 22H3.54167C3.07645 22.0004 2.6157 21.9068 2.18581 21.7244C1.75592 21.542 1.36532 21.2745 1.03635 20.9371C0.707392 20.5997 0.446532 20.1991 0.268702 19.7581C0.0908717 19.3172 -0.000436903 18.8447 1.57173e-06 18.3675V5.63248C-0.000436903 5.15533 0.0908717 4.68277 0.268702 4.24186C0.446532 3.80094 0.707392 3.40032 1.03635 3.06293C1.36532 2.72553 1.75592 2.45798 2.18581 2.27559C2.6157 2.0932 3.07645 1.99955 3.54167 2V2Z" fill="#000B1D"/>
<path d="M10.343 19.5C10.1422 19.5 9.94266 19.4473 9.76656 19.3459L7.93158 18.2595C7.65751 18.1063 7.79125 18.0521 7.88164 18.0208C8.24707 17.8929 8.32123 17.864 8.71128 17.6425C8.75228 17.6191 8.80594 17.6273 8.8479 17.6521L10.2576 18.4886C10.3085 18.5161 10.3807 18.5161 10.4279 18.4886L15.9244 15.3159C15.9754 15.287 16.0084 15.2278 16.0084 15.1673V8.82464C16.0084 8.76135 15.9754 8.70494 15.9233 8.6733L10.429 5.50334C10.3781 5.47307 10.3107 5.47307 10.2598 5.50334L4.76658 8.6733C4.71333 8.70357 4.67949 8.76273 4.67949 8.82326V15.1659C4.67949 15.2265 4.71251 15.2843 4.76479 15.3131L6.26997 16.1827C7.08723 16.5913 7.58666 16.1098 7.58666 15.6255V9.36535C7.58666 9.27592 7.65683 9.20713 7.74626 9.20713H8.44244C8.52911 9.20713 8.60066 9.27592 8.60066 9.36535V15.6282C8.60066 16.7179 8.00629 17.3439 6.97303 17.3439C6.65521 17.3439 6.4048 17.3439 5.70587 16.9999L4.26398 16.1689C3.90764 15.9626 3.6875 15.5773 3.6875 15.1659V8.82326C3.6875 8.41051 3.90764 8.02527 4.26398 7.82165L9.76601 4.64756C10.1141 4.45081 10.5764 4.45081 10.9217 4.64756L16.4169 7.82302C16.7718 8.02802 16.9933 8.41189 16.9933 8.82464V15.1673C16.9933 15.5787 16.7718 15.9626 16.4169 16.1689L10.9217 19.343C10.7456 19.4448 10.5461 19.4971 10.3425 19.4971" fill="#4ECF42"/>
<path d="M12.0401 15.1292C9.63511 15.1292 9.13086 14.0252 9.13086 13.0992C9.13086 13.0112 9.20185 12.941 9.29004 12.941H9.99998C10.0784 12.941 10.1444 12.9981 10.1568 13.0756C10.2641 13.799 10.5833 14.1639 12.0376 14.1639C13.1961 14.1639 13.6886 13.9022 13.6886 13.2879C13.6886 12.9343 13.5483 12.6715 11.7487 12.4954C10.2435 12.3468 9.31344 12.0152 9.31344 10.8113C9.31344 9.7024 10.249 9.04199 11.8161 9.04199C13.5758 9.04199 14.4481 9.65287 14.5582 10.9654C14.5623 11.0108 14.5458 11.0549 14.5155 11.0879C14.4853 11.1195 14.4426 11.1388 14.3986 11.1388H13.6845C13.6102 11.1388 13.5456 11.0865 13.5304 11.015C13.3584 10.2541 12.9429 10.0106 11.8134 10.0106C10.5489 10.0106 10.4017 10.4509 10.4017 10.7811C10.4017 11.1814 10.5751 11.2984 12.2811 11.524C13.9707 11.7483 14.7728 12.0647 14.7728 13.2521C14.7728 14.4491 13.7739 15.1356 12.0321 15.1356L12.0401 15.1292Z" fill="#4ECF42"/>
<path d="M27.5178 19V4.88H29.7178L30.6578 7.7V19H27.5178ZM37.2578 19L28.9378 8.34L29.7178 4.88L38.0378 15.54L37.2578 19ZM37.2578 19L36.4178 16.18V4.88H39.5578V19H37.2578ZM46.0312 19.22C45.0312 19.22 44.1246 19 43.3112 18.56C42.5112 18.1067 41.8779 17.4933 41.4112 16.72C40.9446 15.9467 40.7112 15.08 40.7112 14.12C40.7112 13.16 40.9446 12.3 41.4112 11.54C41.8779 10.78 42.5112 10.18 43.3112 9.74C44.1112 9.28667 45.0179 9.06 46.0312 9.06C47.0446 9.06 47.9512 9.28 48.7512 9.72C49.5512 10.16 50.1846 10.7667 50.6512 11.54C51.1179 12.3 51.3512 13.16 51.3512 14.12C51.3512 15.08 51.1179 15.9467 50.6512 16.72C50.1846 17.4933 49.5512 18.1067 48.7512 18.56C47.9512 19 47.0446 19.22 46.0312 19.22ZM46.0312 16.44C46.4712 16.44 46.8579 16.3467 47.1912 16.16C47.5246 15.96 47.7779 15.6867 47.9512 15.34C48.1379 14.98 48.2312 14.5733 48.2312 14.12C48.2312 13.6667 48.1379 13.2733 47.9512 12.94C47.7646 12.5933 47.5046 12.3267 47.1712 12.14C46.8512 11.94 46.4712 11.84 46.0312 11.84C45.6046 11.84 45.2246 11.94 44.8912 12.14C44.5579 12.3267 44.2979 12.5933 44.1112 12.94C43.9246 13.2867 43.8312 13.6867 43.8312 14.14C43.8312 14.58 43.9246 14.98 44.1112 15.34C44.2979 15.6867 44.5579 15.96 44.8912 16.16C45.2246 16.3467 45.6046 16.44 46.0312 16.44ZM56.3625 19.2C55.4425 19.2 54.6225 18.98 53.9025 18.54C53.1958 18.1 52.6358 17.5 52.2225 16.74C51.8225 15.98 51.6225 15.1133 51.6225 14.14C51.6225 13.1667 51.8225 12.3 52.2225 11.54C52.6358 10.78 53.1958 10.18 53.9025 9.74C54.6225 9.3 55.4425 9.08 56.3625 9.08C57.0292 9.08 57.6292 9.20667 58.1625 9.46C58.7092 9.71333 59.1558 10.0667 59.5025 10.52C59.8625 10.96 60.0625 11.4667 60.1025 12.04V16.14C60.0625 16.7133 59.8692 17.2333 59.5225 17.7C59.1758 18.1533 58.7292 18.52 58.1825 18.8C57.6358 19.0667 57.0292 19.2 56.3625 19.2ZM56.9025 16.44C57.3425 16.44 57.7225 16.3467 58.0425 16.16C58.3625 15.96 58.6158 15.6867 58.8025 15.34C58.9892 14.9933 59.0825 14.5933 59.0825 14.14C59.0825 13.6867 58.9892 13.2933 58.8025 12.96C58.6292 12.6133 58.3758 12.34 58.0425 12.14C57.7225 11.94 57.3492 11.84 56.9225 11.84C56.4958 11.84 56.1158 11.94 55.7825 12.14C55.4625 12.34 55.2025 12.6133 55.0025 12.96C54.8158 13.3067 54.7225 13.7 54.7225 14.14C54.7225 14.58 54.8158 14.9733 55.0025 15.32C55.1892 15.6667 55.4492 15.94 55.7825 16.14C56.1158 16.34 56.4892 16.44 56.9025 16.44ZM61.9625 19H58.9625V16.38L59.4225 14.02L58.9025 11.66V4.48H61.9625V19ZM68.2649 19.22C67.2115 19.22 66.2715 19.0067 65.4449 18.58C64.6315 18.14 63.9915 17.5333 63.5249 16.76C63.0582 15.9867 62.8249 15.1133 62.8249 14.14C62.8249 13.1667 63.0515 12.3 63.5049 11.54C63.9715 10.7667 64.5982 10.16 65.3849 9.72C66.1715 9.28 67.0582 9.06 68.0449 9.06C69.0049 9.06 69.8515 9.26667 70.5849 9.68C71.3182 10.0933 71.8915 10.6667 72.3049 11.4C72.7315 12.1333 72.9449 12.9733 72.9449 13.92C72.9449 14.0933 72.9315 14.28 72.9049 14.48C72.8915 14.6667 72.8582 14.8867 72.8049 15.14L64.4249 15.16V13.06L71.5049 13.04L70.1849 13.92C70.1715 13.36 70.0849 12.9 69.9249 12.54C69.7649 12.1667 69.5249 11.8867 69.2049 11.7C68.8982 11.5 68.5182 11.4 68.0649 11.4C67.5849 11.4 67.1649 11.5133 66.8049 11.74C66.4582 11.9533 66.1849 12.26 65.9849 12.66C65.7982 13.06 65.7049 13.5467 65.7049 14.12C65.7049 14.6933 65.8049 15.1867 66.0049 15.6C66.2182 16 66.5115 16.3133 66.8849 16.54C67.2715 16.7533 67.7249 16.86 68.2449 16.86C68.7249 16.86 69.1582 16.78 69.5449 16.62C69.9315 16.4467 70.2715 16.1933 70.5649 15.86L72.2449 17.54C71.7649 18.1 71.1849 18.52 70.5049 18.8C69.8249 19.08 69.0782 19.22 68.2649 19.22ZM76.9897 19.22C76.0964 19.22 75.3164 19.06 74.6497 18.74C73.9964 18.4067 73.4364 17.9467 72.9697 17.36L75.0697 15.34C75.3097 15.6733 75.5897 15.9267 75.9097 16.1C76.243 16.2733 76.6164 16.36 77.0297 16.36C77.4297 16.36 77.7764 16.28 78.0697 16.12C78.363 15.9467 78.5964 15.7067 78.7697 15.4C78.943 15.08 79.0297 14.6867 79.0297 14.22V4.88H82.1897V14.04C82.1897 15.0933 81.9764 16.0067 81.5497 16.78C81.123 17.5533 80.523 18.1533 79.7497 18.58C78.9764 19.0067 78.0564 19.22 76.9897 19.22ZM87.3021 19.24C86.7287 19.24 86.1621 19.1667 85.6021 19.02C85.0554 18.8733 84.5421 18.6667 84.0621 18.4C83.5954 18.12 83.1954 17.8 82.8621 17.44L84.6021 15.68C84.9221 16.0267 85.3021 16.3 85.7421 16.5C86.1821 16.6867 86.6621 16.78 87.1821 16.78C87.5421 16.78 87.8154 16.7267 88.0021 16.62C88.2021 16.5133 88.3021 16.3667 88.3021 16.18C88.3021 15.94 88.1821 15.76 87.9421 15.64C87.7154 15.5067 87.4221 15.3933 87.0621 15.3C86.7021 15.1933 86.3221 15.08 85.9221 14.96C85.5221 14.84 85.1421 14.6733 84.7821 14.46C84.4221 14.2467 84.1287 13.9533 83.9021 13.58C83.6754 13.1933 83.5621 12.7067 83.5621 12.12C83.5621 11.4933 83.7221 10.9533 84.0421 10.5C84.3621 10.0333 84.8154 9.66667 85.4021 9.4C85.9887 9.13333 86.6754 9 87.4621 9C88.2887 9 89.0487 9.14667 89.7421 9.44C90.4487 9.72 91.0221 10.14 91.4621 10.7L89.7221 12.46C89.4154 12.1 89.0687 11.8467 88.6821 11.7C88.3087 11.5533 87.9421 11.48 87.5821 11.48C87.2354 11.48 86.9754 11.5333 86.8021 11.64C86.6287 11.7333 86.5421 11.8733 86.5421 12.06C86.5421 12.26 86.6554 12.42 86.8821 12.54C87.1087 12.66 87.4021 12.7667 87.7621 12.86C88.1221 12.9533 88.5021 13.0667 88.9021 13.2C89.3021 13.3333 89.6821 13.5133 90.0421 13.74C90.4021 13.9667 90.6954 14.2733 90.9221 14.66C91.1487 15.0333 91.2621 15.5267 91.2621 16.14C91.2621 17.0867 90.9021 17.84 90.1821 18.4C89.4754 18.96 88.5154 19.24 87.3021 19.24Z" fill="white"/>
</svg>
