<svg width="120" height="24" viewBox="0 0 120 24" fill="none" xmlns="http://www.w3.org/2000/svg">
<path d="M18.5 2H5.5C3.567 2 2 3.567 2 5.5V18.5C2 20.433 3.567 22 5.5 22H18.5C20.433 22 22 20.433 22 18.5V5.5C22 3.567 20.433 2 18.5 2Z" fill="#001E36"/>
<path d="M6.88867 16.1795V7.71691C6.88867 7.65634 6.919 7.62606 6.97967 7.62606C7.6383 7.60875 8.47459 7.6001 9.48854 7.6001C10.6845 7.6001 11.5598 7.86834 12.1144 8.40482C12.6777 8.9413 12.9594 9.60324 12.9594 10.3907C12.9594 11.3684 12.6127 12.0953 11.9194 12.5712C11.2261 13.0471 10.3552 13.2851 9.30654 13.2851H8.53959V16.1665C8.53959 16.2357 8.50492 16.2703 8.43559 16.2703H6.99267C6.92334 16.2703 6.88867 16.24 6.88867 16.1795ZM8.53959 8.84612V12.039C8.66091 12.0563 8.94256 12.065 9.38454 12.065C9.96518 12.065 10.4332 11.9395 10.7885 11.6886C11.1524 11.429 11.3344 11.0093 11.3344 10.4296C11.3344 9.91908 11.1741 9.52537 10.8535 9.24848C10.5415 8.97158 10.0865 8.83314 9.48854 8.83314C9.34121 8.83314 9.19388 8.83746 9.04656 8.84612C8.9079 8.84612 8.79091 8.84612 8.69558 8.84612C8.60891 8.84612 8.55692 8.84612 8.53959 8.84612Z" fill="#31A8FE"/>
<path d="M17.4947 11.442C17.0094 11.1391 16.5024 10.9877 15.9738 10.9877C15.6705 10.9877 15.4451 11.044 15.2978 11.1564C15.1591 11.2689 15.0898 11.403 15.0898 11.5588C15.0898 11.7146 15.1505 11.853 15.2718 11.9741C15.3931 12.0866 15.6488 12.2207 16.0388 12.3765C16.7581 12.6534 17.2607 12.9476 17.5467 13.2591C17.8413 13.5619 17.9887 13.9557 17.9887 14.4402C17.9887 15.0286 17.7633 15.5045 17.3127 15.8679C16.8707 16.2227 16.2684 16.4001 15.5058 16.4001C14.7432 16.4001 14.1192 16.2617 13.6339 15.9848C13.5819 15.9675 13.5559 15.9242 13.5559 15.855V14.6479C13.5559 14.6133 13.5646 14.5916 13.5819 14.583C13.6079 14.5657 13.6296 14.5657 13.6469 14.583C14.2102 14.9983 14.8125 15.206 15.4538 15.206C15.7571 15.206 15.9868 15.1541 16.1428 15.0502C16.3074 14.9378 16.3898 14.795 16.3898 14.6219C16.3898 14.4402 16.3248 14.2888 16.1948 14.1677C16.0648 14.0379 15.8091 13.8994 15.4278 13.7523C14.7345 13.4841 14.2492 13.1985 13.9719 12.8957C13.7032 12.5842 13.5689 12.1948 13.5689 11.7275C13.5689 11.1911 13.7726 10.7411 14.1799 10.3777C14.5872 10.0143 15.1678 9.83255 15.9218 9.83255C16.6237 9.83255 17.1654 9.92773 17.5467 10.1181C17.59 10.1441 17.6117 10.2003 17.6117 10.2868V11.3641C17.6117 11.4679 17.5727 11.4939 17.4947 11.442Z" fill="#31A8FE"/>
<path d="M30.0328 13.86V11.42H33.0728C33.4594 11.42 33.8128 11.34 34.1328 11.18C34.4528 11.02 34.7061 10.7867 34.8928 10.48C35.0794 10.1733 35.1728 9.8 35.1728 9.36C35.1728 8.93333 35.0794 8.56667 34.8928 8.26C34.7061 7.95333 34.4528 7.72 34.1328 7.56C33.8128 7.4 33.4594 7.32 33.0728 7.32H30.0328V4.88H33.5328C34.4261 4.88 35.2328 5.06 35.9528 5.42C36.6728 5.78 37.2394 6.3 37.6528 6.98C38.0794 7.64667 38.2928 8.44 38.2928 9.36C38.2928 10.28 38.0794 11.08 37.6528 11.76C37.2394 12.4267 36.6728 12.9467 35.9528 13.32C35.2328 13.68 34.4261 13.86 33.5328 13.86H30.0328ZM27.6328 19V4.88H30.7728V19H27.6328ZM45.6792 19V13.46C45.6792 12.9533 45.5192 12.5467 45.1992 12.24C44.8925 11.92 44.4992 11.76 44.0192 11.76C43.6858 11.76 43.3925 11.8333 43.1392 11.98C42.8858 12.1133 42.6858 12.3133 42.5392 12.58C42.3925 12.8333 42.3192 13.1267 42.3192 13.46L41.1392 12.88C41.1392 12.12 41.2992 11.4533 41.6192 10.88C41.9392 10.3067 42.3858 9.86667 42.9592 9.56C43.5325 9.24 44.1925 9.08 44.9392 9.08C45.6992 9.08 46.3658 9.24 46.9392 9.56C47.5125 9.86667 47.9525 10.3 48.2592 10.86C48.5792 11.4067 48.7392 12.0467 48.7392 12.78V19H45.6792ZM39.2592 19V4.48H42.3192V19H39.2592ZM54.7323 19.22C53.7323 19.22 52.8257 19 52.0123 18.56C51.2123 18.1067 50.579 17.4933 50.1123 16.72C49.6457 15.9467 49.4123 15.08 49.4123 14.12C49.4123 13.16 49.6457 12.3 50.1123 11.54C50.579 10.78 51.2123 10.18 52.0123 9.74C52.8123 9.28667 53.719 9.06 54.7323 9.06C55.7457 9.06 56.6523 9.28 57.4523 9.72C58.2523 10.16 58.8857 10.7667 59.3523 11.54C59.819 12.3 60.0523 13.16 60.0523 14.12C60.0523 15.08 59.819 15.9467 59.3523 16.72C58.8857 17.4933 58.2523 18.1067 57.4523 18.56C56.6523 19 55.7457 19.22 54.7323 19.22ZM54.7323 16.44C55.1723 16.44 55.559 16.3467 55.8923 16.16C56.2257 15.96 56.479 15.6867 56.6523 15.34C56.839 14.98 56.9323 14.5733 56.9323 14.12C56.9323 13.6667 56.839 13.2733 56.6523 12.94C56.4657 12.5933 56.2057 12.3267 55.8723 12.14C55.5523 11.94 55.1723 11.84 54.7323 11.84C54.3057 11.84 53.9257 11.94 53.5923 12.14C53.259 12.3267 52.999 12.5933 52.8123 12.94C52.6257 13.2867 52.5323 13.6867 52.5323 14.14C52.5323 14.58 52.6257 14.98 52.8123 15.34C52.999 15.6867 53.259 15.96 53.5923 16.16C53.9257 16.3467 54.3057 16.44 54.7323 16.44ZM62.1083 19V5.26H65.1683V19H62.1083ZM59.9083 11.88V9.28H67.3683V11.88H59.9083ZM72.5491 19.22C71.5491 19.22 70.6424 19 69.8291 18.56C69.0291 18.1067 68.3957 17.4933 67.9291 16.72C67.4624 15.9467 67.2291 15.08 67.2291 14.12C67.2291 13.16 67.4624 12.3 67.9291 11.54C68.3957 10.78 69.0291 10.18 69.8291 9.74C70.6291 9.28667 71.5357 9.06 72.5491 9.06C73.5624 9.06 74.4691 9.28 75.2691 9.72C76.0691 10.16 76.7024 10.7667 77.1691 11.54C77.6357 12.3 77.8691 13.16 77.8691 14.12C77.8691 15.08 77.6357 15.9467 77.1691 16.72C76.7024 17.4933 76.0691 18.1067 75.2691 18.56C74.4691 19 73.5624 19.22 72.5491 19.22ZM72.5491 16.44C72.9891 16.44 73.3757 16.3467 73.7091 16.16C74.0424 15.96 74.2957 15.6867 74.4691 15.34C74.6557 14.98 74.7491 14.5733 74.7491 14.12C74.7491 13.6667 74.6557 13.2733 74.4691 12.94C74.2824 12.5933 74.0224 12.3267 73.6891 12.14C73.3691 11.94 72.9891 11.84 72.5491 11.84C72.1224 11.84 71.7424 11.94 71.4091 12.14C71.0757 12.3267 70.8157 12.5933 70.6291 12.94C70.4424 13.2867 70.3491 13.6867 70.3491 14.14C70.3491 14.58 70.4424 14.98 70.6291 15.34C70.8157 15.6867 71.0757 15.96 71.4091 16.16C71.7424 16.3467 72.1224 16.44 72.5491 16.44ZM82.2803 19.24C81.707 19.24 81.1403 19.1667 80.5803 19.02C80.0337 18.8733 79.5203 18.6667 79.0403 18.4C78.5737 18.12 78.1737 17.8 77.8403 17.44L79.5803 15.68C79.9003 16.0267 80.2803 16.3 80.7203 16.5C81.1603 16.6867 81.6403 16.78 82.1603 16.78C82.5203 16.78 82.7937 16.7267 82.9803 16.62C83.1803 16.5133 83.2803 16.3667 83.2803 16.18C83.2803 15.94 83.1603 15.76 82.9203 15.64C82.6937 15.5067 82.4003 15.3933 82.0403 15.3C81.6803 15.1933 81.3003 15.08 80.9003 14.96C80.5003 14.84 80.1203 14.6733 79.7603 14.46C79.4003 14.2467 79.107 13.9533 78.8803 13.58C78.6537 13.1933 78.5403 12.7067 78.5403 12.12C78.5403 11.4933 78.7003 10.9533 79.0203 10.5C79.3403 10.0333 79.7937 9.66667 80.3803 9.4C80.967 9.13333 81.6537 9 82.4403 9C83.267 9 84.027 9.14667 84.7203 9.44C85.427 9.72 86.0003 10.14 86.4403 10.7L84.7003 12.46C84.3937 12.1 84.047 11.8467 83.6603 11.7C83.287 11.5533 82.9203 11.48 82.5603 11.48C82.2137 11.48 81.9537 11.5333 81.7803 11.64C81.607 11.7333 81.5203 11.8733 81.5203 12.06C81.5203 12.26 81.6337 12.42 81.8603 12.54C82.087 12.66 82.3803 12.7667 82.7403 12.86C83.1003 12.9533 83.4803 13.0667 83.8803 13.2C84.2803 13.3333 84.6603 13.5133 85.0203 13.74C85.3803 13.9667 85.6737 14.2733 85.9003 14.66C86.127 15.0333 86.2403 15.5267 86.2403 16.14C86.2403 17.0867 85.8803 17.84 85.1603 18.4C84.4537 18.96 83.4937 19.24 82.2803 19.24ZM93.6683 19V13.46C93.6683 12.9533 93.5083 12.5467 93.1883 12.24C92.8816 11.92 92.4883 11.76 92.0083 11.76C91.675 11.76 91.3816 11.8333 91.1283 11.98C90.875 12.1133 90.675 12.3133 90.5283 12.58C90.3816 12.8333 90.3083 13.1267 90.3083 13.46L89.1283 12.88C89.1283 12.12 89.2883 11.4533 89.6083 10.88C89.9283 10.3067 90.375 9.86667 90.9483 9.56C91.5216 9.24 92.1816 9.08 92.9283 9.08C93.6883 9.08 94.355 9.24 94.9283 9.56C95.5016 9.86667 95.9416 10.3 96.2483 10.86C96.5683 11.4067 96.7283 12.0467 96.7283 12.78V19H93.6683ZM87.2483 19V4.48H90.3083V19H87.2483ZM102.721 19.22C101.721 19.22 100.815 19 100.001 18.56C99.2014 18.1067 98.5681 17.4933 98.1014 16.72C97.6348 15.9467 97.4014 15.08 97.4014 14.12C97.4014 13.16 97.6348 12.3 98.1014 11.54C98.5681 10.78 99.2014 10.18 100.001 9.74C100.801 9.28667 101.708 9.06 102.721 9.06C103.735 9.06 104.641 9.28 105.441 9.72C106.241 10.16 106.875 10.7667 107.341 11.54C107.808 12.3 108.041 13.16 108.041 14.12C108.041 15.08 107.808 15.9467 107.341 16.72C106.875 17.4933 106.241 18.1067 105.441 18.56C104.641 19 103.735 19.22 102.721 19.22ZM102.721 16.44C103.161 16.44 103.548 16.3467 103.881 16.16C104.215 15.96 104.468 15.6867 104.641 15.34C104.828 14.98 104.921 14.5733 104.921 14.12C104.921 13.6667 104.828 13.2733 104.641 12.94C104.455 12.5933 104.195 12.3267 103.861 12.14C103.541 11.94 103.161 11.84 102.721 11.84C102.295 11.84 101.915 11.94 101.581 12.14C101.248 12.3267 100.988 12.5933 100.801 12.94C100.615 13.2867 100.521 13.6867 100.521 14.14C100.521 14.58 100.615 14.98 100.801 15.34C100.988 15.6867 101.248 15.96 101.581 16.16C101.915 16.3467 102.295 16.44 102.721 16.44ZM114.513 19.2C113.859 19.2 113.259 19.0733 112.713 18.82C112.166 18.5667 111.719 18.22 111.373 17.78C111.026 17.3267 110.826 16.8133 110.773 16.24V12.14C110.826 11.5667 111.026 11.0467 111.373 10.58C111.719 10.1133 112.166 9.74667 112.713 9.48C113.259 9.21333 113.859 9.08 114.513 9.08C115.433 9.08 116.246 9.3 116.953 9.74C117.673 10.18 118.233 10.78 118.633 11.54C119.046 12.3 119.253 13.1667 119.253 14.14C119.253 15.1133 119.046 15.98 118.633 16.74C118.233 17.5 117.673 18.1 116.953 18.54C116.246 18.98 115.433 19.2 114.513 19.2ZM108.913 23.1V9.28H111.973V11.78L111.473 14.14L111.933 16.5V23.1H108.913ZM113.953 16.44C114.393 16.44 114.773 16.34 115.093 16.14C115.426 15.94 115.686 15.6667 115.873 15.32C116.059 14.9733 116.153 14.58 116.153 14.14C116.153 13.6867 116.059 13.2867 115.873 12.94C115.686 12.5933 115.426 12.3267 115.093 12.14C114.773 11.94 114.399 11.84 113.973 11.84C113.546 11.84 113.166 11.94 112.833 12.14C112.513 12.3267 112.259 12.5933 112.073 12.94C111.886 13.2867 111.793 13.6867 111.793 14.14C111.793 14.58 111.879 14.9733 112.053 15.32C112.239 15.6667 112.499 15.94 112.833 16.14C113.166 16.34 113.539 16.44 113.953 16.44Z" fill="white"/>
</svg>
