<svg width="65" height="24" viewBox="0 0 65 24" fill="none" xmlns="http://www.w3.org/2000/svg">
<g clip-path="url(#clip0_106_1121)">
<path d="M3.54167 2H16.4583C16.9236 1.99955 17.3843 2.0932 17.8142 2.27559C18.2441 2.45798 18.6347 2.72553 18.9636 3.06293C19.2926 3.40032 19.5535 3.80094 19.7313 4.24186C19.9091 4.68277 20.0004 5.15533 20 5.63248V18.3675C20.0004 18.8447 19.9091 19.3172 19.7313 19.7581C19.5535 20.1991 19.2926 20.5997 18.9636 20.9371C18.6347 21.2745 18.2441 21.542 17.8142 21.7244C17.3843 21.9068 16.9236 22.0004 16.4583 22H3.54167C3.07645 22.0004 2.6157 21.9068 2.18581 21.7244C1.75592 21.542 1.36532 21.2745 1.03635 20.9371C0.707392 20.5997 0.446532 20.1991 0.268702 19.7581C0.0908717 19.3172 -0.000436903 18.8447 1.57173e-06 18.3675V5.63248C-0.000436903 5.15533 0.0908717 4.68277 0.268702 4.24186C0.446532 3.80094 0.707392 3.40032 1.03635 3.06293C1.36532 2.72553 1.75592 2.45798 2.18581 2.27559C2.6157 2.0932 3.07645 1.99955 3.54167 2V2Z" fill="#777BB3"/>
<path d="M4.71739 13.1687C5.20369 13.1687 5.56672 13.079 5.79643 12.9022C6.02367 12.7272 6.18063 12.4241 6.26289 12.0013C6.33959 11.606 6.31037 11.33 6.17607 11.1811C6.03875 11.029 5.74185 10.9518 5.29365 10.9518H4.51651L4.08568 13.1687H4.71739ZM2.17557 15.8994C2.1395 15.8994 2.10524 15.8833 2.0823 15.8554C2.05933 15.8275 2.05002 15.7909 2.05691 15.7554L3.1987 9.88079C3.20975 9.824 3.25952 9.78297 3.3174 9.78297H5.77825C6.55164 9.78297 7.12729 9.99296 7.48912 10.4072C7.85288 10.8236 7.96522 11.4056 7.82298 12.1372C7.7651 12.4352 7.66554 12.712 7.52709 12.9598C7.38848 13.2079 7.20529 13.4374 6.98252 13.6422C6.71585 13.8917 6.41404 14.0727 6.08627 14.1792C5.7637 14.2843 5.34943 14.3376 4.855 14.3376H3.85855L3.57399 15.8016C3.56295 15.8584 3.51321 15.8994 3.45533 15.8994H2.17557Z" fill="black"/>
<path d="M4.61602 11.0729H5.29348C5.83443 11.0729 6.02234 11.1916 6.08618 11.2624C6.19211 11.3798 6.2121 11.6275 6.14402 11.9785C6.06752 12.3715 5.92572 12.6501 5.7225 12.8066C5.51444 12.9668 5.17619 13.0479 4.71723 13.0479H4.23218L4.61602 11.0729ZM5.77808 9.66222H3.3172C3.20144 9.66222 3.10192 9.74429 3.07983 9.85791L1.93804 15.7326C1.92426 15.8035 1.94288 15.8768 1.98879 15.9325C2.03474 15.9883 2.10318 16.0205 2.1754 16.0205H3.45512C3.57092 16.0205 3.67044 15.9384 3.69253 15.8248L3.95806 14.4586H4.85483C5.36196 14.4586 5.78888 14.4033 6.12363 14.2943C6.46788 14.1825 6.78461 13.9928 7.06493 13.7307C7.29677 13.5174 7.48774 13.278 7.63244 13.019C7.77718 12.7599 7.88117 12.4711 7.94151 12.1604C8.09125 11.3904 7.9696 10.7738 7.58001 10.3278C7.1942 9.88617 6.58791 9.66222 5.77808 9.66222ZM3.9388 13.2898H4.71723C5.23318 13.2898 5.6175 13.1926 5.87002 12.9982C6.12258 12.8038 6.29291 12.4793 6.38142 12.0245C6.46611 11.5879 6.42753 11.2798 6.26571 11.1003C6.10367 10.9209 5.77965 10.8311 5.29348 10.8311H4.41666L3.9388 13.2898V13.2898ZM5.77808 9.90406C6.51838 9.90406 7.05844 10.0983 7.3979 10.4869C7.73732 10.8755 7.83954 11.4179 7.70411 12.1143C7.64836 12.4011 7.55409 12.6634 7.42136 12.901C7.28847 13.1388 7.11495 13.3562 6.90053 13.5533C6.64499 13.7925 6.36111 13.9629 6.04874 14.0644C5.73637 14.1661 5.3385 14.2168 4.85483 14.2168H3.75867L3.45512 15.7787H2.1754L3.3172 9.90406H5.77808" fill="white"/>
<path d="M10.7567 14.3379C10.7206 14.3379 10.6863 14.3218 10.6634 14.2939C10.6404 14.266 10.6311 14.2294 10.638 14.1939L11.143 11.5946C11.1911 11.3474 11.1792 11.17 11.1097 11.095C11.0672 11.0492 10.9393 10.9723 10.5613 10.9723H9.64624L9.01122 14.24C9.00018 14.2969 8.9504 14.3379 8.89252 14.3379H7.62288C7.58676 14.3379 7.55254 14.3218 7.52957 14.2939C7.5066 14.266 7.49728 14.2293 7.50418 14.1939L8.64597 8.31927C8.65701 8.26248 8.70679 8.22144 8.76467 8.22144H10.0343C10.0704 8.22144 10.1046 8.23757 10.1276 8.26542C10.1506 8.29331 10.1599 8.32995 10.153 8.36542L9.87748 9.7833H10.8618C11.6117 9.7833 12.1202 9.91551 12.4164 10.1875C12.7183 10.465 12.8125 10.9086 12.6964 11.5063L12.1652 14.24C12.1541 14.2969 12.1044 14.3379 12.0465 14.3379H10.7567Z" fill="black"/>
<path d="M10.0341 8.1007H8.7645C8.6487 8.1007 8.54919 8.18276 8.5271 8.29639L7.38531 14.171C7.37152 14.2419 7.39014 14.3153 7.43609 14.371C7.48204 14.4267 7.55048 14.459 7.62271 14.459H8.89235C9.00811 14.459 9.10767 14.3769 9.12975 14.2633L9.74575 11.0934H10.5611C10.9385 11.0934 11.0177 11.174 11.0209 11.1775C11.0438 11.2021 11.0739 11.3162 11.0242 11.5717L10.5191 14.171C10.5053 14.2419 10.5239 14.3153 10.5699 14.371C10.6158 14.4267 10.6843 14.459 10.7565 14.459H12.0463C12.1621 14.459 12.2616 14.3769 12.2837 14.2633L12.8149 11.5295C12.9396 10.8878 12.8329 10.4065 12.4981 10.0987C12.1785 9.8052 11.6432 9.66256 10.8617 9.66256H10.0239L10.2715 8.38869C10.2853 8.31779 10.2667 8.24443 10.2208 8.18873C10.1748 8.13299 10.1064 8.1007 10.0341 8.1007ZM10.0341 8.34254L9.7306 9.9044H10.8617C11.5734 9.9044 12.0642 10.0286 12.3344 10.2767C12.6046 10.525 12.6855 10.9273 12.5775 11.4834L12.0463 14.2171H10.7565L11.2616 11.6179C11.3191 11.3222 11.2979 11.1205 11.1981 11.013C11.0983 10.9054 10.8859 10.8516 10.5611 10.8516H9.54636L8.89235 14.2171H7.62271L8.7645 8.34254H10.0341Z" fill="white"/>
<path d="M14.7057 13.1687C15.192 13.1687 15.555 13.079 15.7847 12.9022C16.012 12.7273 16.1689 12.4241 16.2512 12.0013C16.3279 11.606 16.2987 11.33 16.1643 11.1811C16.027 11.029 15.7301 10.9518 15.2819 10.9518H14.5048L14.074 13.1687H14.7057ZM12.1639 15.8994C12.1278 15.8994 12.0936 15.8833 12.0706 15.8554C12.0476 15.8275 12.0383 15.7909 12.0452 15.7554L13.187 9.88079C13.1981 9.824 13.2478 9.78297 13.3057 9.78297H15.7665C16.54 9.78297 17.1156 9.99296 17.4774 10.4072C17.8412 10.8235 17.9535 11.4056 17.8113 12.1372C17.7533 12.4352 17.6538 12.712 17.5154 12.9598C17.3768 13.2079 17.1936 13.4374 16.9708 13.6422C16.7041 13.8917 16.4023 14.0727 16.0745 14.1792C15.752 14.2843 15.3377 14.3376 14.8433 14.3376H13.8468L13.5623 15.8016C13.5513 15.8584 13.5015 15.8994 13.4436 15.8994H12.1639Z" fill="black"/>
<path d="M14.6043 11.0729H15.2817C15.8227 11.0729 16.0106 11.1916 16.0744 11.2624C16.1804 11.3798 16.2004 11.6275 16.1323 11.9785C16.0558 12.3715 15.9139 12.6501 15.7107 12.8066C15.5027 12.9668 15.1644 13.0479 14.7055 13.0479H14.2205L14.6043 11.0729ZM15.7663 9.66222H13.3055C13.1897 9.66222 13.0902 9.74429 13.0681 9.85791L11.9263 15.7326C11.9125 15.8035 11.9312 15.8768 11.9771 15.9325C12.023 15.9883 12.0915 16.0205 12.1637 16.0205H13.4434C13.5592 16.0205 13.6587 15.9384 13.6808 15.8248L13.9463 14.4586H14.8431C15.3502 14.4586 15.7771 14.4033 16.1119 14.2943C16.4561 14.1825 16.7729 13.9928 17.0533 13.7306C17.2851 13.5173 17.476 13.278 17.6207 13.019C17.7654 12.7599 17.8694 12.4711 17.9298 12.1604C18.0795 11.3903 17.9578 10.7737 17.5682 10.3278C17.1824 9.88616 16.5762 9.66222 15.7663 9.66222ZM13.9271 13.2898H14.7055C15.2214 13.2898 15.6057 13.1926 15.8583 12.9982C16.1109 12.8038 16.2812 12.4793 16.3697 12.0245C16.4544 11.5879 16.4158 11.2798 16.2539 11.1003C16.0919 10.9209 15.7679 10.8311 15.2817 10.8311H14.4049L13.9271 13.2898ZM15.7663 9.90406C16.5066 9.90406 17.0467 10.0983 17.3861 10.4869C17.7256 10.8755 17.8278 11.4179 17.6923 12.1143C17.6366 12.4011 17.5423 12.6634 17.4096 12.901C17.2767 13.1388 17.1032 13.3562 16.8888 13.5533C16.6332 13.7925 16.3494 13.9629 16.037 14.0644C15.7246 14.1661 15.3267 14.2168 14.8431 14.2168H13.7469L13.4434 15.7787H12.1637L13.3055 9.90406H15.7663" fill="white"/>
</g>
<path d="M30.1173 13.86V11.42H33.1573C33.5439 11.42 33.8973 11.34 34.2173 11.18C34.5373 11.02 34.7906 10.7867 34.9773 10.48C35.1639 10.1733 35.2573 9.8 35.2573 9.36C35.2573 8.93333 35.1639 8.56667 34.9773 8.26C34.7906 7.95333 34.5373 7.72 34.2173 7.56C33.8973 7.4 33.5439 7.32 33.1573 7.32H30.1173V4.88H33.6173C34.5106 4.88 35.3173 5.06 36.0373 5.42C36.7573 5.78 37.3239 6.3 37.7373 6.98C38.1639 7.64667 38.3773 8.44 38.3773 9.36C38.3773 10.28 38.1639 11.08 37.7373 11.76C37.3239 12.4267 36.7573 12.9467 36.0373 13.32C35.3173 13.68 34.5106 13.86 33.6173 13.86H30.1173ZM27.7173 19V4.88H30.8573V19H27.7173ZM39.487 19V4.88H42.627V19H39.487ZM48.227 19V4.88H51.387V19H48.227ZM41.367 13.1V10.38H49.267V13.1H41.367ZM55.8442 13.86V11.42H58.8842C59.2708 11.42 59.6242 11.34 59.9442 11.18C60.2642 11.02 60.5175 10.7867 60.7042 10.48C60.8908 10.1733 60.9842 9.8 60.9842 9.36C60.9842 8.93333 60.8908 8.56667 60.7042 8.26C60.5175 7.95333 60.2642 7.72 59.9442 7.56C59.6242 7.4 59.2708 7.32 58.8842 7.32H55.8442V4.88H59.3442C60.2375 4.88 61.0442 5.06 61.7642 5.42C62.4842 5.78 63.0508 6.3 63.4642 6.98C63.8908 7.64667 64.1042 8.44 64.1042 9.36C64.1042 10.28 63.8908 11.08 63.4642 11.76C63.0508 12.4267 62.4842 12.9467 61.7642 13.32C61.0442 13.68 60.2375 13.86 59.3442 13.86H55.8442ZM53.4442 19V4.88H56.5842V19H53.4442Z" fill="white"/>
<defs>
<clipPath id="clip0_106_1121">
<rect y="2" width="20" height="20" rx="4" fill="white"/>
</clipPath>
</defs>
</svg>
