<svg width="89" height="24" viewBox="0 0 89 24" fill="none" xmlns="http://www.w3.org/2000/svg">
<g clip-path="url(#clip0_106_1088)">
<path d="M3.54167 2H16.4583C16.9236 1.99955 17.3843 2.0932 17.8142 2.27559C18.2441 2.45798 18.6347 2.72553 18.9636 3.06293C19.2926 3.40032 19.5535 3.80094 19.7313 4.24186C19.9091 4.68277 20.0004 5.15533 20 5.63248V18.3675C20.0004 18.8447 19.9091 19.3172 19.7313 19.7581C19.5535 20.1991 19.2926 20.5997 18.9636 20.9371C18.6347 21.2745 18.2441 21.542 17.8142 21.7244C17.3843 21.9068 16.9236 22.0004 16.4583 22H3.54167C3.07645 22.0004 2.6157 21.9068 2.18581 21.7244C1.75592 21.542 1.36532 21.2745 1.03635 20.9371C0.707392 20.5997 0.446532 20.1991 0.268702 19.7581C0.0908717 19.3172 -0.000436903 18.8447 1.57173e-06 18.3675V5.63248C-0.000436903 5.15533 0.0908717 4.68277 0.268702 4.24186C0.446532 3.80094 0.707392 3.40032 1.03635 3.06293C1.36532 2.72553 1.75592 2.45798 2.18581 2.27559C2.6157 2.0932 3.07645 1.99955 3.54167 2V2Z" fill="#000B1D"/>
<path d="M9.97199 5.2998C6.50532 5.2998 6.7218 6.80316 6.7218 6.80316L6.72567 8.36062H10.0338V8.82825H5.41168C5.41168 8.82825 3.19336 8.57667 3.19336 12.0746C3.19336 15.5725 5.12956 15.4484 5.12956 15.4484H6.2851V13.8253C6.2851 13.8253 6.22281 11.8891 8.19038 11.8891C10.1579 11.8891 11.4715 11.8891 11.4715 11.8891C11.4715 11.8891 13.3149 11.9189 13.3149 10.1075C13.3149 8.29604 13.3149 7.11234 13.3149 7.11234C13.3149 7.11234 13.5948 5.2998 9.97199 5.2998ZM8.14787 6.34713C8.47701 6.34713 8.74303 6.61315 8.74303 6.94229C8.74303 7.27143 8.47701 7.53745 8.14787 7.53745C7.81873 7.53745 7.55271 7.27143 7.55271 6.94229C7.55271 6.61315 7.81873 6.34713 8.14787 6.34713Z" fill="url(#paint0_linear_106_1088)"/>
<path d="M10.0706 18.8845C13.5373 18.8845 13.3208 17.3812 13.3208 17.3812L13.3169 15.8237H10.0088V15.3561H14.6309C14.6309 15.3561 16.8492 15.6077 16.8492 12.1098C16.8492 8.61185 14.913 8.7359 14.913 8.7359H13.7575V10.3591C13.7575 10.3591 13.8198 12.2953 11.8522 12.2953C9.88465 12.2953 8.57112 12.2953 8.57112 12.2953C8.57112 12.2953 6.72767 12.2655 6.72767 14.0769C6.72767 15.8883 6.72767 17.072 6.72767 17.072C6.72767 17.072 6.44778 18.8845 10.0706 18.8845ZM11.8947 17.8372C11.5656 17.8372 11.2996 17.5712 11.2996 17.242C11.2996 16.9129 11.5656 16.6469 11.8947 16.6469C12.2239 16.6469 12.4899 16.9129 12.4899 17.242C12.4899 17.5712 12.2239 17.8372 11.8947 17.8372Z" fill="url(#paint1_linear_106_1088)"/>
</g>
<path d="M30.1463 13.86V11.42H33.1863C33.573 11.42 33.9263 11.34 34.2463 11.18C34.5663 11.02 34.8196 10.7867 35.0063 10.48C35.193 10.1733 35.2863 9.8 35.2863 9.36C35.2863 8.93333 35.193 8.56667 35.0063 8.26C34.8196 7.95333 34.5663 7.72 34.2463 7.56C33.9263 7.4 33.573 7.32 33.1863 7.32H30.1463V4.88H33.6463C34.5396 4.88 35.3463 5.06 36.0663 5.42C36.7863 5.78 37.353 6.3 37.7663 6.98C38.193 7.64667 38.4063 8.44 38.4063 9.36C38.4063 10.28 38.193 11.08 37.7663 11.76C37.353 12.4267 36.7863 12.9467 36.0663 13.32C35.3463 13.68 34.5396 13.86 33.6463 13.86H30.1463ZM27.7463 19V4.88H30.8863V19H27.7463ZM42.3727 19.04L38.3727 9.28H41.6727L44.2127 17.02H42.9927L45.5927 9.28H48.8927L44.7327 19.04H42.3727ZM39.8727 23.1L42.7927 16.8L44.7327 19.04L43.0127 23.1H39.8727ZM50.6279 19V5.26H53.6879V19H50.6279ZM48.4279 11.88V9.28H55.8879V11.88H48.4279ZM63.004 19V13.46C63.004 12.9533 62.844 12.5467 62.524 12.24C62.2173 11.92 61.824 11.76 61.344 11.76C61.0107 11.76 60.7173 11.8333 60.464 11.98C60.2107 12.1133 60.0107 12.3133 59.864 12.58C59.7173 12.8333 59.644 13.1267 59.644 13.46L58.464 12.88C58.464 12.12 58.624 11.4533 58.944 10.88C59.264 10.3067 59.7107 9.86667 60.284 9.56C60.8573 9.24 61.5173 9.08 62.264 9.08C63.024 9.08 63.6907 9.24 64.264 9.56C64.8373 9.86667 65.2773 10.3 65.584 10.86C65.904 11.4067 66.064 12.0467 66.064 12.78V19H63.004ZM56.584 19V4.48H59.644V19H56.584ZM72.0571 19.22C71.0571 19.22 70.1505 19 69.3371 18.56C68.5371 18.1067 67.9038 17.4933 67.4371 16.72C66.9705 15.9467 66.7371 15.08 66.7371 14.12C66.7371 13.16 66.9705 12.3 67.4371 11.54C67.9038 10.78 68.5371 10.18 69.3371 9.74C70.1371 9.28667 71.0438 9.06 72.0571 9.06C73.0705 9.06 73.9771 9.28 74.7771 9.72C75.5771 10.16 76.2105 10.7667 76.6771 11.54C77.1438 12.3 77.3771 13.16 77.3771 14.12C77.3771 15.08 77.1438 15.9467 76.6771 16.72C76.2105 17.4933 75.5771 18.1067 74.7771 18.56C73.9771 19 73.0705 19.22 72.0571 19.22ZM72.0571 16.44C72.4971 16.44 72.8838 16.3467 73.2171 16.16C73.5505 15.96 73.8038 15.6867 73.9771 15.34C74.1638 14.98 74.2571 14.5733 74.2571 14.12C74.2571 13.6667 74.1638 13.2733 73.9771 12.94C73.7905 12.5933 73.5305 12.3267 73.1971 12.14C72.8771 11.94 72.4971 11.84 72.0571 11.84C71.6305 11.84 71.2505 11.94 70.9171 12.14C70.5838 12.3267 70.3238 12.5933 70.1371 12.94C69.9505 13.2867 69.8571 13.6867 69.8571 14.14C69.8571 14.58 69.9505 14.98 70.1371 15.34C70.3238 15.6867 70.5838 15.96 70.9171 16.16C71.2505 16.3467 71.6305 16.44 72.0571 16.44ZM84.6684 19V13.46C84.6684 12.9533 84.5084 12.5467 84.1884 12.24C83.8817 11.92 83.4884 11.76 83.0084 11.76C82.6751 11.76 82.3817 11.8333 82.1284 11.98C81.8751 12.1133 81.6751 12.3133 81.5284 12.58C81.3817 12.8333 81.3084 13.1267 81.3084 13.46L80.1284 12.88C80.1284 12.12 80.2951 11.4533 80.6284 10.88C80.9617 10.3067 81.4217 9.86667 82.0084 9.56C82.6084 9.24 83.2817 9.08 84.0284 9.08C84.7484 9.08 85.3817 9.25333 85.9284 9.6C86.4884 9.93333 86.9284 10.38 87.2484 10.94C87.5684 11.5 87.7284 12.1133 87.7284 12.78V19H84.6684ZM78.2484 19V9.28H81.3084V19H78.2484Z" fill="white"/>
<defs>
<linearGradient id="paint0_linear_106_1088" x1="4.5057" y1="6.48722" x2="11.2581" y2="13.2622" gradientUnits="userSpaceOnUse">
<stop stop-color="#387EB8"/>
<stop offset="1" stop-color="#366994"/>
</linearGradient>
<linearGradient id="paint1_linear_106_1088" x1="8.65962" y1="10.7972" x2="15.9117" y2="17.7451" gradientUnits="userSpaceOnUse">
<stop stop-color="#FFE052"/>
<stop offset="1" stop-color="#FFC331"/>
</linearGradient>
<clipPath id="clip0_106_1088">
<rect y="2" width="20" height="20" rx="4" fill="white"/>
</clipPath>
</defs>
</svg>
