<svg width="138" height="24" viewBox="0 0 138 24" fill="none" xmlns="http://www.w3.org/2000/svg">
<g clip-path="url(#clip0_106_1062)">
<path d="M3.54167 2H16.4583C16.9236 1.99955 17.3843 2.0932 17.8142 2.27559C18.2441 2.45798 18.6347 2.72553 18.9636 3.06293C19.2926 3.40032 19.5535 3.80094 19.7313 4.24186C19.9091 4.68277 20.0004 5.15533 20 5.63248V18.3675C20.0004 18.8447 19.9091 19.3172 19.7313 19.7581C19.5535 20.1991 19.2926 20.5997 18.9636 20.9371C18.6347 21.2745 18.2441 21.542 17.8142 21.7244C17.3843 21.9068 16.9236 22.0004 16.4583 22H3.54167C3.07645 22.0004 2.6157 21.9068 2.18581 21.7244C1.75592 21.542 1.36532 21.2745 1.03635 20.9371C0.707392 20.5997 0.446532 20.1991 0.268702 19.7581C0.0908717 19.3172 -0.000436903 18.8447 1.57173e-06 18.3675V5.63248C-0.000436903 5.15533 0.0908717 4.68277 0.268702 4.24186C0.446532 3.80094 0.707392 3.40032 1.03635 3.06293C1.36532 2.72553 1.75592 2.45798 2.18581 2.27559C2.6157 2.0932 3.07645 1.99955 3.54167 2V2Z" fill="white"/>
<g clip-path="url(#clip1_106_1062)">
<path d="M10.3904 13.3225C11.1584 13.3225 11.7809 12.7081 11.7809 11.9501C11.7809 11.1921 11.1584 10.5776 10.3904 10.5776C9.62252 10.5776 9 11.1921 9 11.9501C9 12.7081 9.62252 13.3225 10.3904 13.3225Z" fill="#61DAFB"/>
<path fill-rule="evenodd" clip-rule="evenodd" d="M3.7326 11.0941C3.39524 11.3947 3.25352 11.6847 3.25352 11.9505C3.25352 12.2163 3.39524 12.5063 3.7326 12.8069C4.06993 13.1074 4.5763 13.3928 5.22968 13.6391C6.53421 14.1307 8.35835 14.4415 10.3894 14.4415C12.4204 14.4415 14.2446 14.1307 15.5491 13.6391C16.2025 13.3928 16.7088 13.1074 17.0462 12.8069C17.3835 12.5063 17.5253 12.2163 17.5253 11.9505C17.5253 11.6847 17.3835 11.3947 17.0462 11.0941C16.7088 10.7936 16.2025 10.5082 15.5491 10.2619C14.2446 9.77028 12.4204 9.45946 10.3894 9.45946C8.35835 9.45946 6.53421 9.77028 5.22968 10.2619C4.5763 10.5082 4.06993 10.7936 3.7326 11.0941ZM4.99783 9.66254C6.3936 9.1365 8.2999 8.81787 10.3894 8.81787C12.4789 8.81787 14.3852 9.1365 15.7809 9.66254C16.4777 9.92514 17.064 10.2457 17.4817 10.6179C17.8994 10.9901 18.1753 11.4399 18.1753 11.9505C18.1753 12.4611 17.8994 12.9109 17.4817 13.2831C17.064 13.6554 16.4777 13.9759 15.7809 14.2385C14.3852 14.7645 12.4789 15.0831 10.3894 15.0831C8.2999 15.0831 6.3936 14.7645 4.99783 14.2385C4.30106 13.9759 3.71481 13.6554 3.29705 13.2831C2.87933 12.9109 2.60352 12.4611 2.60352 11.9505C2.60352 11.4399 2.87933 10.9901 3.29705 10.6179C3.71481 10.2457 4.30106 9.92514 4.99783 9.66254Z" fill="#61DAFB"/>
<path fill-rule="evenodd" clip-rule="evenodd" d="M7.81154 5.83181C7.37912 5.69373 7.05388 5.71755 6.82064 5.85047C6.5874 5.98338 6.40388 6.2495 6.30882 6.68819C6.21377 7.12683 6.21656 7.70238 6.3272 8.38402C6.54811 9.74498 7.18747 11.4597 8.20299 13.1959C9.21851 14.9321 10.4033 16.336 11.4869 17.2053C12.0297 17.6407 12.5332 17.9308 12.9656 18.0689C13.398 18.207 13.7233 18.1832 13.9565 18.0502C14.1898 17.9173 14.3733 17.6512 14.4683 17.2125C14.5634 16.7739 14.5606 16.1983 14.4499 15.5167C14.229 14.1557 13.5897 12.441 12.5742 10.7048C11.5586 8.96866 10.3739 7.56476 9.29024 6.69545C8.7475 6.26004 8.24392 5.96988 7.81154 5.83181ZM9.7002 6.19756C10.8596 7.12768 12.0923 8.5979 13.1371 10.384C14.1818 12.1702 14.8554 13.959 15.0918 15.4152C15.2098 16.1421 15.2217 16.8035 15.104 17.3467C14.9862 17.8899 14.7295 18.3506 14.2815 18.6059C13.8335 18.8612 13.301 18.8503 12.7655 18.6793C12.2301 18.5084 11.6557 18.1675 11.077 17.7032C9.91753 16.773 8.68482 15.3028 7.64008 13.5167C6.59533 11.7305 5.92174 9.94168 5.68539 8.48552C5.5674 7.75861 5.55549 7.09721 5.6732 6.55399C5.7909 6.01081 6.04763 5.55015 6.49564 5.29483C6.94365 5.03952 7.47619 5.0504 8.01162 5.22137C8.54708 5.39236 9.12142 5.73324 9.7002 6.19756Z" fill="#61DAFB"/>
<path fill-rule="evenodd" clip-rule="evenodd" d="M14.4676 6.68837C14.3726 6.24968 14.189 5.98356 13.9558 5.85065C13.7226 5.71773 13.3973 5.69391 12.9649 5.83199C12.5325 5.97006 12.0289 6.26022 11.4862 6.69563C10.4026 7.56494 9.21779 8.96884 8.20228 10.705C7.18676 12.4412 6.54739 14.1559 6.32649 15.5169C6.21585 16.1985 6.21306 16.7741 6.30811 17.2127C6.40317 17.6514 6.58668 17.9175 6.81992 18.0504C7.05316 18.1833 7.37841 18.2072 7.81083 18.0691C8.24321 17.931 8.74679 17.6408 9.28953 17.2054C10.3732 16.3361 11.5579 14.9322 12.5734 13.1961C13.589 11.4599 14.2283 9.74516 14.4492 8.3842C14.5599 7.70256 14.5627 7.12701 14.4676 6.68837ZM15.091 8.4857C14.8547 9.94186 14.1811 11.7307 13.1364 13.5169C12.0916 15.303 10.8589 16.7732 9.69949 17.7033C9.1207 18.1677 8.54637 18.5085 8.0109 18.6795C7.47548 18.8505 6.94294 18.8614 6.49492 18.6061C6.04691 18.3507 5.79019 17.8901 5.67249 17.3469C5.55477 16.8037 5.56669 16.1423 5.68467 15.4154C5.92103 13.9592 6.59462 12.1704 7.63936 10.3842C8.6841 8.59808 9.91681 7.12786 11.0762 6.19774C11.655 5.73342 12.2294 5.39254 12.7648 5.22155C13.3002 5.05058 13.8328 5.0397 14.2808 5.29501C14.7288 5.55033 14.9855 6.01099 15.1032 6.55417C15.2209 7.09739 15.209 7.75879 15.091 8.4857Z" fill="#61DAFB"/>
</g>
</g>
<path d="M30.2356 13.18V10.86H33.2156C33.8423 10.86 34.3223 10.7 34.6556 10.38C35.0023 10.06 35.1756 9.62667 35.1756 9.08C35.1756 8.57333 35.009 8.15333 34.6756 7.82C34.3423 7.48667 33.8623 7.32 33.2356 7.32H30.2356V4.88H33.5956C34.529 4.88 35.349 5.06 36.0556 5.42C36.7623 5.76667 37.3156 6.25333 37.7156 6.88C38.1156 7.50667 38.3156 8.22667 38.3156 9.04C38.3156 9.86667 38.1156 10.5933 37.7156 11.22C37.3156 11.8333 36.7556 12.3133 36.0356 12.66C35.3156 13.0067 34.469 13.18 33.4956 13.18H30.2356ZM27.8356 19V4.88H30.9756V19H27.8356ZM35.5156 19L31.1156 12.92L33.9956 12.14L39.2356 19H35.5156ZM44.223 19.22C43.1697 19.22 42.2297 19.0067 41.403 18.58C40.5897 18.14 39.9497 17.5333 39.483 16.76C39.0163 15.9867 38.783 15.1133 38.783 14.14C38.783 13.1667 39.0097 12.3 39.463 11.54C39.9297 10.7667 40.5563 10.16 41.343 9.72C42.1297 9.28 43.0163 9.06 44.003 9.06C44.963 9.06 45.8097 9.26667 46.543 9.68C47.2763 10.0933 47.8497 10.6667 48.263 11.4C48.6897 12.1333 48.903 12.9733 48.903 13.92C48.903 14.0933 48.8897 14.28 48.863 14.48C48.8497 14.6667 48.8163 14.8867 48.763 15.14L40.383 15.16V13.06L47.463 13.04L46.143 13.92C46.1297 13.36 46.043 12.9 45.883 12.54C45.723 12.1667 45.483 11.8867 45.163 11.7C44.8563 11.5 44.4763 11.4 44.023 11.4C43.543 11.4 43.123 11.5133 42.763 11.74C42.4163 11.9533 42.143 12.26 41.943 12.66C41.7563 13.06 41.663 13.5467 41.663 14.12C41.663 14.6933 41.763 15.1867 41.963 15.6C42.1763 16 42.4697 16.3133 42.843 16.54C43.2297 16.7533 43.683 16.86 44.203 16.86C44.683 16.86 45.1163 16.78 45.503 16.62C45.8897 16.4467 46.2297 16.1933 46.523 15.86L48.203 17.54C47.723 18.1 47.143 18.52 46.463 18.8C45.783 19.08 45.0363 19.22 44.223 19.22ZM53.7878 19.2C52.8945 19.2 52.0945 18.98 51.3878 18.54C50.6945 18.1 50.1412 17.5 49.7278 16.74C49.3278 15.98 49.1278 15.1133 49.1278 14.14C49.1278 13.1667 49.3278 12.3 49.7278 11.54C50.1412 10.78 50.6945 10.18 51.3878 9.74C52.0945 9.3 52.8945 9.08 53.7878 9.08C54.4412 9.08 55.0278 9.20667 55.5478 9.46C56.0812 9.71333 56.5145 10.0667 56.8478 10.52C57.1812 10.96 57.3678 11.4667 57.4078 12.04V16.24C57.3678 16.8133 57.1812 17.3267 56.8478 17.78C56.5278 18.22 56.1012 18.5667 55.5678 18.82C55.0345 19.0733 54.4412 19.2 53.7878 19.2ZM54.4078 16.44C55.0612 16.44 55.5878 16.2267 55.9878 15.8C56.3878 15.36 56.5878 14.8067 56.5878 14.14C56.5878 13.6867 56.4945 13.2867 56.3078 12.94C56.1345 12.5933 55.8812 12.3267 55.5478 12.14C55.2278 11.94 54.8545 11.84 54.4278 11.84C54.0012 11.84 53.6212 11.94 53.2878 12.14C52.9678 12.3267 52.7078 12.5933 52.5078 12.94C52.3212 13.2867 52.2278 13.6867 52.2278 14.14C52.2278 14.58 52.3212 14.9733 52.5078 15.32C52.6945 15.6667 52.9545 15.94 53.2878 16.14C53.6212 16.34 53.9945 16.44 54.4078 16.44ZM56.4678 19V16.38L56.9278 14.02L56.4678 11.66V9.28H59.4678V19H56.4678ZM65.6702 19.22C64.6702 19.22 63.7635 19 62.9502 18.56C62.1369 18.12 61.4969 17.5133 61.0302 16.74C60.5635 15.9667 60.3302 15.1 60.3302 14.14C60.3302 13.1667 60.5635 12.3 61.0302 11.54C61.5102 10.7667 62.1569 10.16 62.9702 9.72C63.7835 9.28 64.6969 9.06 65.7102 9.06C66.4702 9.06 67.1635 9.19333 67.7902 9.46C68.4302 9.71333 68.9969 10.1 69.4902 10.62L67.5302 12.58C67.3035 12.3267 67.0369 12.14 66.7302 12.02C66.4369 11.9 66.0969 11.84 65.7102 11.84C65.2702 11.84 64.8769 11.94 64.5302 12.14C64.1969 12.3267 63.9302 12.5933 63.7302 12.94C63.5435 13.2733 63.4502 13.6667 63.4502 14.12C63.4502 14.5733 63.5435 14.9733 63.7302 15.32C63.9302 15.6667 64.2035 15.94 64.5502 16.14C64.8969 16.34 65.2835 16.44 65.7102 16.44C66.1102 16.44 66.4635 16.3733 66.7702 16.24C67.0902 16.0933 67.3635 15.8933 67.5902 15.64L69.5302 17.6C69.0235 18.1333 68.4502 18.54 67.8102 18.82C67.1702 19.0867 66.4569 19.22 65.6702 19.22ZM71.4637 19V5.26H74.5237V19H71.4637ZM69.2637 11.88V9.28H76.7237V11.88H69.2637ZM80.8562 19V4.88H83.0562L83.9962 7.7V19H80.8562ZM90.5962 19L82.2762 8.34L83.0562 4.88L91.3762 15.54L90.5962 19ZM90.5962 19L89.7562 16.18V4.88H92.8962V19H90.5962ZM98.7496 19.2C97.8563 19.2 97.0563 18.98 96.3496 18.54C95.6563 18.1 95.103 17.5 94.6896 16.74C94.2896 15.98 94.0896 15.1133 94.0896 14.14C94.0896 13.1667 94.2896 12.3 94.6896 11.54C95.103 10.78 95.6563 10.18 96.3496 9.74C97.0563 9.3 97.8563 9.08 98.7496 9.08C99.403 9.08 99.9896 9.20667 100.51 9.46C101.043 9.71333 101.476 10.0667 101.81 10.52C102.143 10.96 102.33 11.4667 102.37 12.04V16.24C102.33 16.8133 102.143 17.3267 101.81 17.78C101.49 18.22 101.063 18.5667 100.53 18.82C99.9963 19.0733 99.403 19.2 98.7496 19.2ZM99.3696 16.44C100.023 16.44 100.55 16.2267 100.95 15.8C101.35 15.36 101.55 14.8067 101.55 14.14C101.55 13.6867 101.456 13.2867 101.27 12.94C101.096 12.5933 100.843 12.3267 100.51 12.14C100.19 11.94 99.8163 11.84 99.3896 11.84C98.963 11.84 98.583 11.94 98.2496 12.14C97.9296 12.3267 97.6696 12.5933 97.4696 12.94C97.283 13.2867 97.1896 13.6867 97.1896 14.14C97.1896 14.58 97.283 14.9733 97.4696 15.32C97.6563 15.6667 97.9163 15.94 98.2496 16.14C98.583 16.34 98.9563 16.44 99.3696 16.44ZM101.43 19V16.38L101.89 14.02L101.43 11.66V9.28H104.43V19H101.43ZM107.312 19V5.26H110.372V19H107.312ZM105.112 11.88V9.28H112.572V11.88H105.112ZM113.268 19V9.28H116.328V19H113.268ZM114.808 7.94C114.328 7.94 113.928 7.78 113.608 7.46C113.301 7.12667 113.148 6.72667 113.148 6.26C113.148 5.78 113.301 5.38 113.608 5.06C113.928 4.74 114.328 4.58 114.808 4.58C115.288 4.58 115.681 4.74 115.988 5.06C116.295 5.38 116.448 5.78 116.448 6.26C116.448 6.72667 116.295 7.12667 115.988 7.46C115.681 7.78 115.288 7.94 114.808 7.94ZM120.891 19L116.771 9.28H120.071L122.871 17.38H121.431L124.231 9.28H127.471L123.351 19H120.891ZM132.447 19.22C131.394 19.22 130.454 19.0067 129.627 18.58C128.814 18.14 128.174 17.5333 127.707 16.76C127.241 15.9867 127.007 15.1133 127.007 14.14C127.007 13.1667 127.234 12.3 127.687 11.54C128.154 10.7667 128.781 10.16 129.567 9.72C130.354 9.28 131.241 9.06 132.227 9.06C133.187 9.06 134.034 9.26667 134.767 9.68C135.501 10.0933 136.074 10.6667 136.487 11.4C136.914 12.1333 137.127 12.9733 137.127 13.92C137.127 14.0933 137.114 14.28 137.087 14.48C137.074 14.6667 137.041 14.8867 136.987 15.14L128.607 15.16V13.06L135.687 13.04L134.367 13.92C134.354 13.36 134.267 12.9 134.107 12.54C133.947 12.1667 133.707 11.8867 133.387 11.7C133.081 11.5 132.701 11.4 132.247 11.4C131.767 11.4 131.347 11.5133 130.987 11.74C130.641 11.9533 130.367 12.26 130.167 12.66C129.981 13.06 129.887 13.5467 129.887 14.12C129.887 14.6933 129.987 15.1867 130.187 15.6C130.401 16 130.694 16.3133 131.067 16.54C131.454 16.7533 131.907 16.86 132.427 16.86C132.907 16.86 133.341 16.78 133.727 16.62C134.114 16.4467 134.454 16.1933 134.747 15.86L136.427 17.54C135.947 18.1 135.367 18.52 134.687 18.8C134.007 19.08 133.261 19.22 132.447 19.22Z" fill="white"/>
<defs>
<clipPath id="clip0_106_1062">
<rect y="2" width="20" height="20" rx="4" fill="white"/>
</clipPath>
<clipPath id="clip1_106_1062">
<rect width="15.6" height="13.7" fill="white" transform="translate(2.58984 5.1001)"/>
</clipPath>
</defs>
</svg>
