<svg width="77" height="24" viewBox="0 0 77 24" fill="none" xmlns="http://www.w3.org/2000/svg">
<g clip-path="url(#clip0_106_1027)">
<path d="M3.54167 2H16.4583C16.9236 1.99955 17.3843 2.0932 17.8142 2.27559C18.2441 2.45798 18.6347 2.72553 18.9636 3.06293C19.2926 3.40032 19.5535 3.80094 19.7313 4.24186C19.9091 4.68277 20.0004 5.15533 20 5.63248V18.3675C20.0004 18.8447 19.9091 19.3172 19.7313 19.7581C19.5535 20.1991 19.2926 20.5997 18.9636 20.9371C18.6347 21.2745 18.2441 21.542 17.8142 21.7244C17.3843 21.9068 16.9236 22.0004 16.4583 22H3.54167C3.07645 22.0004 2.6157 21.9068 2.18581 21.7244C1.75592 21.542 1.36532 21.2745 1.03635 20.9371C0.707392 20.5997 0.446532 20.1991 0.268702 19.7581C0.0908717 19.3172 -0.000436903 18.8447 1.57173e-06 18.3675V5.63248C-0.000436903 5.15533 0.0908717 4.68277 0.268702 4.24186C0.446532 3.80094 0.707392 3.40032 1.03635 3.06293C1.36532 2.72553 1.75592 2.45798 2.18581 2.27559C2.6157 2.0932 3.07645 1.99955 3.54167 2V2Z" fill="#000B1D"/>
<g clip-path="url(#clip1_106_1027)">
<path d="M10.3904 13.3225C11.1584 13.3225 11.7809 12.7081 11.7809 11.9501C11.7809 11.1921 11.1584 10.5776 10.3904 10.5776C9.62252 10.5776 9 11.1921 9 11.9501C9 12.7081 9.62252 13.3225 10.3904 13.3225Z" fill="#61DAFB"/>
<path fill-rule="evenodd" clip-rule="evenodd" d="M3.7326 11.0941C3.39524 11.3947 3.25352 11.6847 3.25352 11.9505C3.25352 12.2163 3.39524 12.5063 3.7326 12.8069C4.06993 13.1074 4.5763 13.3928 5.22968 13.6391C6.53421 14.1307 8.35835 14.4415 10.3894 14.4415C12.4204 14.4415 14.2446 14.1307 15.5491 13.6391C16.2025 13.3928 16.7088 13.1074 17.0462 12.8069C17.3835 12.5063 17.5253 12.2163 17.5253 11.9505C17.5253 11.6847 17.3835 11.3947 17.0462 11.0941C16.7088 10.7936 16.2025 10.5082 15.5491 10.2619C14.2446 9.77028 12.4204 9.45946 10.3894 9.45946C8.35835 9.45946 6.53421 9.77028 5.22968 10.2619C4.5763 10.5082 4.06993 10.7936 3.7326 11.0941ZM4.99783 9.66254C6.3936 9.1365 8.2999 8.81787 10.3894 8.81787C12.4789 8.81787 14.3852 9.1365 15.7809 9.66254C16.4777 9.92514 17.064 10.2457 17.4817 10.6179C17.8994 10.9901 18.1753 11.4399 18.1753 11.9505C18.1753 12.4611 17.8994 12.9109 17.4817 13.2831C17.064 13.6554 16.4777 13.9759 15.7809 14.2385C14.3852 14.7645 12.4789 15.0831 10.3894 15.0831C8.2999 15.0831 6.3936 14.7645 4.99783 14.2385C4.30106 13.9759 3.71481 13.6554 3.29705 13.2831C2.87933 12.9109 2.60352 12.4611 2.60352 11.9505C2.60352 11.4399 2.87933 10.9901 3.29705 10.6179C3.71481 10.2457 4.30106 9.92514 4.99783 9.66254Z" fill="#61DAFB"/>
<path fill-rule="evenodd" clip-rule="evenodd" d="M7.81154 5.83181C7.37912 5.69373 7.05388 5.71755 6.82064 5.85047C6.5874 5.98338 6.40388 6.2495 6.30882 6.68819C6.21377 7.12683 6.21656 7.70238 6.3272 8.38402C6.54811 9.74498 7.18747 11.4597 8.20299 13.1959C9.21851 14.9321 10.4033 16.336 11.4869 17.2053C12.0297 17.6407 12.5332 17.9308 12.9656 18.0689C13.398 18.207 13.7233 18.1832 13.9565 18.0502C14.1898 17.9173 14.3733 17.6512 14.4683 17.2125C14.5634 16.7739 14.5606 16.1983 14.4499 15.5167C14.229 14.1557 13.5897 12.441 12.5742 10.7048C11.5586 8.96866 10.3739 7.56476 9.29024 6.69545C8.7475 6.26004 8.24392 5.96988 7.81154 5.83181ZM9.7002 6.19756C10.8596 7.12768 12.0923 8.5979 13.1371 10.384C14.1818 12.1702 14.8554 13.959 15.0918 15.4152C15.2098 16.1421 15.2217 16.8035 15.104 17.3467C14.9862 17.8899 14.7295 18.3506 14.2815 18.6059C13.8335 18.8612 13.301 18.8503 12.7655 18.6793C12.2301 18.5084 11.6557 18.1675 11.077 17.7032C9.91753 16.773 8.68482 15.3028 7.64008 13.5167C6.59533 11.7305 5.92174 9.94168 5.68539 8.48552C5.5674 7.75861 5.55549 7.09721 5.6732 6.55399C5.7909 6.01081 6.04763 5.55015 6.49564 5.29483C6.94365 5.03952 7.47619 5.0504 8.01162 5.22137C8.54708 5.39236 9.12142 5.73324 9.7002 6.19756Z" fill="#61DAFB"/>
<path fill-rule="evenodd" clip-rule="evenodd" d="M14.4676 6.68837C14.3726 6.24968 14.189 5.98356 13.9558 5.85065C13.7226 5.71773 13.3973 5.69391 12.9649 5.83199C12.5325 5.97006 12.0289 6.26022 11.4862 6.69563C10.4026 7.56494 9.21779 8.96884 8.20228 10.705C7.18676 12.4412 6.54739 14.1559 6.32649 15.5169C6.21585 16.1985 6.21306 16.7741 6.30811 17.2127C6.40317 17.6514 6.58668 17.9175 6.81992 18.0504C7.05316 18.1833 7.37841 18.2072 7.81083 18.0691C8.24321 17.931 8.74679 17.6408 9.28953 17.2054C10.3732 16.3361 11.5579 14.9322 12.5734 13.1961C13.589 11.4599 14.2283 9.74516 14.4492 8.3842C14.5599 7.70256 14.5627 7.12701 14.4676 6.68837ZM15.091 8.4857C14.8547 9.94186 14.1811 11.7307 13.1364 13.5169C12.0916 15.303 10.8589 16.7732 9.69949 17.7033C9.1207 18.1677 8.54637 18.5085 8.0109 18.6795C7.47548 18.8505 6.94294 18.8614 6.49492 18.6061C6.04691 18.3507 5.79019 17.8901 5.67249 17.3469C5.55477 16.8037 5.56669 16.1423 5.68467 15.4154C5.92103 13.9592 6.59462 12.1704 7.63936 10.3842C8.6841 8.59808 9.91681 7.12786 11.0762 6.19774C11.655 5.73342 12.2294 5.39254 12.7648 5.22155C13.3002 5.05058 13.8328 5.0397 14.2808 5.29501C14.7288 5.55033 14.9855 6.01099 15.1032 6.55417C15.2209 7.09739 15.209 7.75879 15.091 8.4857Z" fill="#61DAFB"/>
</g>
</g>
<path d="M30.0018 13.18V10.86H32.9818C33.6085 10.86 34.0885 10.7 34.4218 10.38C34.7685 10.06 34.9418 9.62667 34.9418 9.08C34.9418 8.57333 34.7752 8.15333 34.4418 7.82C34.1085 7.48667 33.6285 7.32 33.0018 7.32H30.0018V4.88H33.3618C34.2952 4.88 35.1152 5.06 35.8218 5.42C36.5285 5.76667 37.0818 6.25333 37.4818 6.88C37.8818 7.50667 38.0818 8.22667 38.0818 9.04C38.0818 9.86667 37.8818 10.5933 37.4818 11.22C37.0818 11.8333 36.5218 12.3133 35.8018 12.66C35.0818 13.0067 34.2352 13.18 33.2618 13.18H30.0018ZM27.6018 19V4.88H30.7418V19H27.6018ZM35.2818 19L30.8818 12.92L33.7618 12.14L39.0018 19H35.2818ZM43.9892 19.22C42.9359 19.22 41.9959 19.0067 41.1692 18.58C40.3559 18.14 39.7159 17.5333 39.2492 16.76C38.7825 15.9867 38.5492 15.1133 38.5492 14.14C38.5492 13.1667 38.7759 12.3 39.2292 11.54C39.6959 10.7667 40.3225 10.16 41.1092 9.72C41.8959 9.28 42.7825 9.06 43.7692 9.06C44.7292 9.06 45.5759 9.26667 46.3092 9.68C47.0425 10.0933 47.6159 10.6667 48.0292 11.4C48.4559 12.1333 48.6692 12.9733 48.6692 13.92C48.6692 14.0933 48.6559 14.28 48.6292 14.48C48.6159 14.6667 48.5825 14.8867 48.5292 15.14L40.1492 15.16V13.06L47.2292 13.04L45.9092 13.92C45.8959 13.36 45.8092 12.9 45.6492 12.54C45.4892 12.1667 45.2492 11.8867 44.9292 11.7C44.6225 11.5 44.2425 11.4 43.7892 11.4C43.3092 11.4 42.8892 11.5133 42.5292 11.74C42.1825 11.9533 41.9092 12.26 41.7092 12.66C41.5225 13.06 41.4292 13.5467 41.4292 14.12C41.4292 14.6933 41.5292 15.1867 41.7292 15.6C41.9425 16 42.2359 16.3133 42.6092 16.54C42.9959 16.7533 43.4492 16.86 43.9692 16.86C44.4492 16.86 44.8825 16.78 45.2692 16.62C45.6559 16.4467 45.9959 16.1933 46.2892 15.86L47.9692 17.54C47.4892 18.1 46.9092 18.52 46.2292 18.8C45.5492 19.08 44.8025 19.22 43.9892 19.22ZM53.5541 19.2C52.6607 19.2 51.8607 18.98 51.1541 18.54C50.4607 18.1 49.9074 17.5 49.4941 16.74C49.0941 15.98 48.8941 15.1133 48.8941 14.14C48.8941 13.1667 49.0941 12.3 49.4941 11.54C49.9074 10.78 50.4607 10.18 51.1541 9.74C51.8607 9.3 52.6607 9.08 53.5541 9.08C54.2074 9.08 54.7941 9.20667 55.3141 9.46C55.8474 9.71333 56.2807 10.0667 56.6141 10.52C56.9474 10.96 57.1341 11.4667 57.1741 12.04V16.24C57.1341 16.8133 56.9474 17.3267 56.6141 17.78C56.2941 18.22 55.8674 18.5667 55.3341 18.82C54.8007 19.0733 54.2074 19.2 53.5541 19.2ZM54.1741 16.44C54.8274 16.44 55.3541 16.2267 55.7541 15.8C56.1541 15.36 56.3541 14.8067 56.3541 14.14C56.3541 13.6867 56.2607 13.2867 56.0741 12.94C55.9007 12.5933 55.6474 12.3267 55.3141 12.14C54.9941 11.94 54.6207 11.84 54.1941 11.84C53.7674 11.84 53.3874 11.94 53.0541 12.14C52.7341 12.3267 52.4741 12.5933 52.2741 12.94C52.0874 13.2867 51.9941 13.6867 51.9941 14.14C51.9941 14.58 52.0874 14.9733 52.2741 15.32C52.4607 15.6667 52.7207 15.94 53.0541 16.14C53.3874 16.34 53.7607 16.44 54.1741 16.44ZM56.2341 19V16.38L56.6941 14.02L56.2341 11.66V9.28H59.2341V19H56.2341ZM65.4364 19.22C64.4364 19.22 63.5298 19 62.7164 18.56C61.9031 18.12 61.2631 17.5133 60.7964 16.74C60.3298 15.9667 60.0964 15.1 60.0964 14.14C60.0964 13.1667 60.3298 12.3 60.7964 11.54C61.2764 10.7667 61.9231 10.16 62.7364 9.72C63.5498 9.28 64.4631 9.06 65.4764 9.06C66.2364 9.06 66.9298 9.19333 67.5564 9.46C68.1964 9.71333 68.7631 10.1 69.2564 10.62L67.2964 12.58C67.0698 12.3267 66.8031 12.14 66.4964 12.02C66.2031 11.9 65.8631 11.84 65.4764 11.84C65.0364 11.84 64.6431 11.94 64.2964 12.14C63.9631 12.3267 63.6964 12.5933 63.4964 12.94C63.3098 13.2733 63.2164 13.6667 63.2164 14.12C63.2164 14.5733 63.3098 14.9733 63.4964 15.32C63.6964 15.6667 63.9698 15.94 64.3164 16.14C64.6631 16.34 65.0498 16.44 65.4764 16.44C65.8764 16.44 66.2298 16.3733 66.5364 16.24C66.8564 16.0933 67.1298 15.8933 67.3564 15.64L69.2964 17.6C68.7898 18.1333 68.2164 18.54 67.5764 18.82C66.9364 19.0867 66.2231 19.22 65.4364 19.22ZM71.2299 19V5.26H74.2899V19H71.2299ZM69.0299 11.88V9.28H76.4899V11.88H69.0299Z" fill="white"/>
<defs>
<clipPath id="clip0_106_1027">
<rect y="2" width="20" height="20" rx="4" fill="white"/>
</clipPath>
<clipPath id="clip1_106_1027">
<rect width="15.6" height="13.7" fill="white" transform="translate(2.58984 5.1001)"/>
</clipPath>
</defs>
</svg>
