<svg width="66" height="24" viewBox="0 0 66 24" fill="none" xmlns="http://www.w3.org/2000/svg">
<g clip-path="url(#clip0_106_1150)">
<path d="M3.54167 2H16.4583C16.9236 1.99955 17.3843 2.0932 17.8142 2.27559C18.2441 2.45798 18.6347 2.72553 18.9636 3.06293C19.2926 3.40032 19.5535 3.80094 19.7313 4.24186C19.9091 4.68277 20.0004 5.15533 20 5.63248V18.3675C20.0004 18.8447 19.9091 19.3172 19.7313 19.7581C19.5535 20.1991 19.2926 20.5997 18.9636 20.9371C18.6347 21.2745 18.2441 21.542 17.8142 21.7244C17.3843 21.9068 16.9236 22.0004 16.4583 22H3.54167C3.07645 22.0004 2.6157 21.9068 2.18581 21.7244C1.75592 21.542 1.36532 21.2745 1.03635 20.9371C0.707392 20.5997 0.446532 20.1991 0.268702 19.7581C0.0908717 19.3172 -0.000436903 18.8447 1.57173e-06 18.3675V5.63248C-0.000436903 5.15533 0.0908717 4.68277 0.268702 4.24186C0.446532 3.80094 0.707392 3.40032 1.03635 3.06293C1.36532 2.72553 1.75592 2.45798 2.18581 2.27559C2.6157 2.0932 3.07645 1.99955 3.54167 2V2Z" fill="#000B1D"/>
<g clip-path="url(#clip1_106_1150)">
<path d="M15.8699 12.9096C15.3399 12.9124 14.8793 13.0413 14.4936 13.2317C14.3521 12.9489 14.2106 12.6968 14.1856 12.5119C14.1579 12.2963 14.1246 12.1646 14.1579 11.907C14.1912 11.6493 14.341 11.2824 14.3383 11.2544C14.3355 11.2264 14.305 11.0947 13.9997 11.0919C13.6945 11.0891 13.4309 11.1508 13.4004 11.232C13.3699 11.3132 13.3116 11.4981 13.2728 11.6885C13.22 11.9686 12.6623 12.9685 12.3432 13.4922C12.2406 13.2877 12.1518 13.1085 12.1323 12.9657C12.1046 12.75 12.0713 12.6184 12.1046 12.3607C12.1379 12.103 12.2877 11.7361 12.285 11.7081C12.2822 11.6801 12.2517 11.5485 11.9464 11.5457C11.6412 11.5429 11.3776 11.6045 11.3471 11.6857C11.3166 11.7669 11.2833 11.9574 11.2194 12.1422C11.1556 12.3271 10.4148 13.9963 10.2205 14.4277C10.1207 14.6489 10.0346 14.8254 9.97359 14.9458C9.97359 14.9458 9.97082 14.9542 9.96249 14.9682C9.90977 15.0718 9.87925 15.1279 9.87925 15.1279C9.87925 15.1279 9.87925 15.1279 9.87925 15.1307C9.83763 15.2063 9.79323 15.2763 9.77104 15.2763C9.75439 15.2763 9.72387 15.0746 9.77659 14.8002C9.88757 14.2204 10.1512 13.3186 10.1484 13.2877C10.1484 13.2709 10.1983 13.1141 9.97637 13.0329C9.75994 12.9517 9.68224 13.0861 9.66282 13.0861C9.6434 13.0861 9.62952 13.1337 9.62952 13.1337C9.62952 13.1337 9.87093 12.1198 9.16892 12.1198C8.73051 12.1198 8.12561 12.6044 7.82594 13.0413C7.63726 13.1449 7.23492 13.3662 6.80484 13.6042C6.64113 13.6967 6.47187 13.7891 6.31371 13.8759C6.30261 13.8647 6.29151 13.8507 6.28041 13.8395C5.43134 12.9236 3.86084 12.2767 3.92743 11.0471C3.95241 10.599 4.10502 9.42268 6.94358 7.99428C9.27991 6.83196 11.139 7.15405 11.4609 7.86825C11.9215 8.88773 10.4647 10.7811 8.0507 11.0555C7.12948 11.1592 6.64668 10.8007 6.52459 10.6662C6.39695 10.5262 6.37753 10.5178 6.33036 10.5458C6.25267 10.5878 6.30261 10.7138 6.33036 10.7867C6.4025 10.9771 6.6994 11.3132 7.20163 11.4784C7.64558 11.6241 8.72496 11.7053 10.0319 11.1956C11.4941 10.6242 12.6373 9.03617 12.3016 7.7058C11.9659 6.35583 9.74606 5.9105 7.64558 6.66391C6.39695 7.11204 5.04288 7.81783 4.06895 8.73649C2.91188 9.82879 2.72875 10.7783 2.80366 11.176C3.07281 12.5876 5.00126 13.5062 5.77264 14.1868C5.73379 14.2092 5.69772 14.2288 5.6672 14.2456C5.28151 14.4389 3.81089 15.2147 3.44463 16.0353C3.02842 16.9652 3.51122 17.6317 3.83032 17.7214C4.8209 17.9986 5.83923 17.5001 6.38585 16.6767C6.93248 15.8533 6.86588 14.7834 6.61338 14.2932C6.61061 14.2876 6.60783 14.282 6.60228 14.2764C6.70217 14.2176 6.80484 14.156 6.90473 14.0972C7.10174 13.9795 7.29597 13.8703 7.46245 13.7807C7.36811 14.0412 7.29874 14.352 7.26545 14.8002C7.22382 15.3267 7.43748 16.0101 7.71773 16.279C7.84259 16.3966 7.98965 16.3994 8.08399 16.3994C8.41141 16.3994 8.55847 16.1249 8.72218 15.8C8.92197 15.4023 9.10232 14.9402 9.10232 14.9402C9.10232 14.9402 8.87757 16.1893 9.48801 16.1893C9.70999 16.1893 9.93475 15.8981 10.0346 15.7496C10.0346 15.7524 10.0346 15.7524 10.0346 15.7524C10.0346 15.7524 10.0402 15.744 10.0513 15.7244C10.0735 15.688 10.0874 15.6656 10.0874 15.6656C10.0874 15.6656 10.0874 15.6628 10.0874 15.66C10.1761 15.5032 10.3759 15.1475 10.6728 14.5565C11.0557 13.7947 11.4248 12.8424 11.4248 12.8424C11.4248 12.8424 11.4581 13.0749 11.5718 13.4614C11.6384 13.6883 11.7772 13.9375 11.8882 14.1784C11.7994 14.3044 11.7439 14.3744 11.7439 14.3744C11.7439 14.3744 11.7439 14.3744 11.7467 14.3772C11.6745 14.4725 11.5968 14.5761 11.5108 14.6769C11.2084 15.041 10.8476 15.4583 10.7977 15.5788C10.7394 15.7216 10.7533 15.8252 10.8643 15.9093C10.9448 15.9709 11.089 15.9793 11.2361 15.9709C11.508 15.9513 11.6995 15.8841 11.7938 15.8421C11.9409 15.7888 12.1129 15.7076 12.2739 15.5872C12.5707 15.3659 12.7511 15.0494 12.7345 14.6321C12.7261 14.4025 12.6512 14.1728 12.5596 13.9571C12.5874 13.9179 12.6124 13.8787 12.6401 13.8395C13.109 13.1477 13.4725 12.3887 13.4725 12.3887C13.4725 12.3887 13.5058 12.6212 13.6196 13.0077C13.6751 13.2037 13.7889 13.4166 13.8887 13.6238C13.4476 13.9851 13.1756 14.4053 13.0785 14.6797C12.9037 15.1895 13.0397 15.4191 13.2977 15.4724C13.4143 15.4976 13.5808 15.4415 13.7028 15.3883C13.8582 15.3379 14.0414 15.2511 14.2162 15.1223C14.5131 14.901 14.7989 14.5929 14.7822 14.1756C14.7739 13.9851 14.7239 13.7975 14.6546 13.6154C15.0292 13.4586 15.512 13.3718 16.128 13.4446C17.4487 13.6014 17.7096 14.4333 17.6596 14.7834C17.6097 15.1335 17.3322 15.3239 17.2406 15.3827C17.1491 15.4415 17.1185 15.4611 17.1269 15.5032C17.138 15.5648 17.1824 15.562 17.2601 15.5508C17.3683 15.5312 17.9537 15.2679 17.9787 14.6237C18.0203 13.8003 17.2434 12.9012 15.8699 12.9096ZM5.68107 16.377C5.24266 16.8587 4.63222 17.0408 4.36862 16.8867C4.08559 16.7215 4.19658 16.0101 4.73488 15.5004C5.0623 15.1895 5.48406 14.901 5.76431 14.7245C5.82813 14.6853 5.92247 14.6293 6.03624 14.5593C6.05566 14.5481 6.06676 14.5425 6.06676 14.5425C6.08896 14.5285 6.11115 14.5145 6.13335 14.5005C6.33036 15.2287 6.14168 15.8701 5.68107 16.377ZM8.87202 14.1868C8.71941 14.5621 8.40031 15.5228 8.20608 15.4695C8.0396 15.4247 7.93693 14.6965 8.17279 13.9767C8.2921 13.6154 8.5446 13.1841 8.69166 13.0161C8.93029 12.7472 9.19389 12.6576 9.25771 12.7668C9.33818 12.9096 8.96636 13.9515 8.87202 14.1868ZM11.5052 15.4583C11.4414 15.492 11.3804 15.5144 11.3526 15.4976C11.3332 15.4864 11.3804 15.4415 11.3804 15.4415C11.3804 15.4415 11.7106 15.083 11.841 14.9206C11.9159 14.8254 12.0047 14.7133 12.099 14.5873C12.099 14.5985 12.099 14.6125 12.099 14.6237C12.099 15.0522 11.6884 15.3407 11.5052 15.4583ZM13.5364 14.9906C13.4892 14.957 13.4975 14.845 13.6557 14.4949C13.7167 14.3576 13.861 14.128 14.108 13.9067C14.1357 13.9963 14.1551 14.0832 14.1524 14.1644C14.1496 14.7049 13.7667 14.9066 13.5364 14.9906Z" fill="#CD6799"/>
</g>
</g>
<path d="M31.6701 19.22C30.5101 19.22 29.5101 19.0333 28.6701 18.66C27.8434 18.2733 27.0834 17.6933 26.3901 16.92L28.4301 14.9C28.8834 15.42 29.3834 15.8267 29.9301 16.12C30.4901 16.4 31.1367 16.54 31.8701 16.54C32.5367 16.54 33.0501 16.42 33.4101 16.18C33.7834 15.94 33.9701 15.6067 33.9701 15.18C33.9701 14.7933 33.8501 14.48 33.6101 14.24C33.3701 14 33.0501 13.7933 32.6501 13.62C32.2634 13.4467 31.8301 13.28 31.3501 13.12C30.8834 12.96 30.4167 12.78 29.9501 12.58C29.4834 12.3667 29.0501 12.1067 28.6501 11.8C28.2634 11.48 27.9501 11.0867 27.7101 10.62C27.4701 10.14 27.3501 9.54 27.3501 8.82C27.3501 7.95333 27.5567 7.20667 27.9701 6.58C28.3967 5.95333 28.9834 5.48 29.7301 5.16C30.4767 4.82667 31.3367 4.66 32.3101 4.66C33.2967 4.66 34.1967 4.83333 35.0101 5.18C35.8367 5.52667 36.5167 6 37.0501 6.6L35.0101 8.62C34.5834 8.18 34.1501 7.85333 33.7101 7.64C33.2834 7.42667 32.7967 7.32 32.2501 7.32C31.7034 7.32 31.2701 7.42667 30.9501 7.64C30.6301 7.84 30.4701 8.13333 30.4701 8.52C30.4701 8.88 30.5901 9.17333 30.8301 9.4C31.0701 9.61333 31.3834 9.8 31.7701 9.96C32.1701 10.12 32.6034 10.28 33.0701 10.44C33.5501 10.6 34.0234 10.7867 34.4901 11C34.9567 11.2133 35.3834 11.4867 35.7701 11.82C36.1701 12.14 36.4901 12.5533 36.7301 13.06C36.9701 13.5533 37.0901 14.1667 37.0901 14.9C37.0901 16.2467 36.6101 17.3067 35.6501 18.08C34.6901 18.84 33.3634 19.22 31.6701 19.22ZM42.1594 19.2C41.2661 19.2 40.4661 18.98 39.7594 18.54C39.0661 18.1 38.5128 17.5 38.0994 16.74C37.6994 15.98 37.4994 15.1133 37.4994 14.14C37.4994 13.1667 37.6994 12.3 38.0994 11.54C38.5128 10.78 39.0661 10.18 39.7594 9.74C40.4661 9.3 41.2661 9.08 42.1594 9.08C42.8128 9.08 43.3994 9.20667 43.9194 9.46C44.4528 9.71333 44.8861 10.0667 45.2194 10.52C45.5528 10.96 45.7394 11.4667 45.7794 12.04V16.24C45.7394 16.8133 45.5528 17.3267 45.2194 17.78C44.8994 18.22 44.4728 18.5667 43.9394 18.82C43.4061 19.0733 42.8128 19.2 42.1594 19.2ZM42.7794 16.44C43.4328 16.44 43.9594 16.2267 44.3594 15.8C44.7594 15.36 44.9594 14.8067 44.9594 14.14C44.9594 13.6867 44.8661 13.2867 44.6794 12.94C44.5061 12.5933 44.2528 12.3267 43.9194 12.14C43.5994 11.94 43.2261 11.84 42.7994 11.84C42.3728 11.84 41.9928 11.94 41.6594 12.14C41.3394 12.3267 41.0794 12.5933 40.8794 12.94C40.6928 13.2867 40.5994 13.6867 40.5994 14.14C40.5994 14.58 40.6928 14.9733 40.8794 15.32C41.0661 15.6667 41.3261 15.94 41.6594 16.14C41.9928 16.34 42.3661 16.44 42.7794 16.44ZM44.8394 19V16.38L45.2994 14.02L44.8394 11.66V9.28H47.8394V19H44.8394ZM52.8818 19.24C52.3085 19.24 51.7418 19.1667 51.1818 19.02C50.6351 18.8733 50.1218 18.6667 49.6418 18.4C49.1751 18.12 48.7751 17.8 48.4418 17.44L50.1818 15.68C50.5018 16.0267 50.8818 16.3 51.3218 16.5C51.7618 16.6867 52.2418 16.78 52.7618 16.78C53.1218 16.78 53.3951 16.7267 53.5818 16.62C53.7818 16.5133 53.8818 16.3667 53.8818 16.18C53.8818 15.94 53.7618 15.76 53.5218 15.64C53.2951 15.5067 53.0018 15.3933 52.6418 15.3C52.2818 15.1933 51.9018 15.08 51.5018 14.96C51.1018 14.84 50.7218 14.6733 50.3618 14.46C50.0018 14.2467 49.7085 13.9533 49.4818 13.58C49.2551 13.1933 49.1418 12.7067 49.1418 12.12C49.1418 11.4933 49.3018 10.9533 49.6218 10.5C49.9418 10.0333 50.3951 9.66667 50.9818 9.4C51.5685 9.13333 52.2551 9 53.0418 9C53.8685 9 54.6285 9.14667 55.3218 9.44C56.0285 9.72 56.6018 10.14 57.0418 10.7L55.3018 12.46C54.9951 12.1 54.6485 11.8467 54.2618 11.7C53.8885 11.5533 53.5218 11.48 53.1618 11.48C52.8151 11.48 52.5551 11.5333 52.3818 11.64C52.2085 11.7333 52.1218 11.8733 52.1218 12.06C52.1218 12.26 52.2351 12.42 52.4618 12.54C52.6885 12.66 52.9818 12.7667 53.3418 12.86C53.7018 12.9533 54.0818 13.0667 54.4818 13.2C54.8818 13.3333 55.2618 13.5133 55.6218 13.74C55.9818 13.9667 56.2751 14.2733 56.5018 14.66C56.7285 15.0333 56.8418 15.5267 56.8418 16.14C56.8418 17.0867 56.4818 17.84 55.7618 18.4C55.0551 18.96 54.0951 19.24 52.8818 19.24ZM61.3898 19.24C60.8165 19.24 60.2498 19.1667 59.6898 19.02C59.1431 18.8733 58.6298 18.6667 58.1498 18.4C57.6831 18.12 57.2831 17.8 56.9498 17.44L58.6898 15.68C59.0098 16.0267 59.3898 16.3 59.8298 16.5C60.2698 16.6867 60.7498 16.78 61.2698 16.78C61.6298 16.78 61.9031 16.7267 62.0898 16.62C62.2898 16.5133 62.3898 16.3667 62.3898 16.18C62.3898 15.94 62.2698 15.76 62.0298 15.64C61.8031 15.5067 61.5098 15.3933 61.1498 15.3C60.7898 15.1933 60.4098 15.08 60.0098 14.96C59.6098 14.84 59.2298 14.6733 58.8698 14.46C58.5098 14.2467 58.2165 13.9533 57.9898 13.58C57.7631 13.1933 57.6498 12.7067 57.6498 12.12C57.6498 11.4933 57.8098 10.9533 58.1298 10.5C58.4498 10.0333 58.9031 9.66667 59.4898 9.4C60.0765 9.13333 60.7631 9 61.5498 9C62.3765 9 63.1365 9.14667 63.8298 9.44C64.5365 9.72 65.1098 10.14 65.5498 10.7L63.8098 12.46C63.5031 12.1 63.1565 11.8467 62.7698 11.7C62.3965 11.5533 62.0298 11.48 61.6698 11.48C61.3231 11.48 61.0631 11.5333 60.8898 11.64C60.7165 11.7333 60.6298 11.8733 60.6298 12.06C60.6298 12.26 60.7431 12.42 60.9698 12.54C61.1965 12.66 61.4898 12.7667 61.8498 12.86C62.2098 12.9533 62.5898 13.0667 62.9898 13.2C63.3898 13.3333 63.7698 13.5133 64.1298 13.74C64.4898 13.9667 64.7831 14.2733 65.0098 14.66C65.2365 15.0333 65.3498 15.5267 65.3498 16.14C65.3498 17.0867 64.9898 17.84 64.2698 18.4C63.5631 18.96 62.6031 19.24 61.3898 19.24Z" fill="white"/>
<defs>
<clipPath id="clip0_106_1150">
<rect y="2" width="20" height="20" rx="4" fill="white"/>
</clipPath>
<clipPath id="clip1_106_1150">
<rect width="15.2" height="11.5" fill="white" transform="translate(2.78906 6.30005)"/>
</clipPath>
</defs>
</svg>
