<svg width="99" height="24" viewBox="0 0 99 24" fill="none" xmlns="http://www.w3.org/2000/svg">
<rect y="2" width="20" height="20" rx="4" fill="white"/>
<path d="M10 8C8.13333 8 6.96667 8.88883 6.5 10.6665C7.2 9.77765 8.01667 9.44452 8.95 9.66652C9.48258 9.79321 9.86321 10.1614 10.2847 10.5687C10.9707 11.2319 11.7649 11.9999 13.5 11.9999C15.3667 11.9999 16.5333 11.111 17 9.3331C16.3 10.2219 15.4833 10.5553 14.55 10.3333C14.0177 10.2066 13.6371 9.8385 13.2156 9.43118C12.5293 8.76769 11.7348 8 10 8ZM6.5 11.9999C4.63333 11.9999 3.46667 12.8887 3 14.6666C3.7 13.7778 4.51667 13.4444 5.45 13.6667C5.98229 13.7936 6.36292 14.1615 6.78437 14.5685C7.47067 15.232 8.26517 16 10 16C11.8667 16 13.0333 15.1112 13.5 13.3332C12.8 14.2221 11.9833 14.5555 11.05 14.3332C10.5174 14.2065 10.1368 13.8384 9.71533 13.4313C9.02933 12.7678 8.23512 11.9999 6.5 11.9999Z" fill="#00ACC1"/>
<path d="M31.1651 19V5.08H34.3051V19H31.1651ZM26.7451 7.62V4.88H38.7251V7.62H26.7451ZM41.2822 19.2C40.3888 19.2 39.5888 18.98 38.8822 18.54C38.1888 18.1 37.6355 17.5 37.2222 16.74C36.8222 15.98 36.6222 15.1133 36.6222 14.14C36.6222 13.1667 36.8222 12.3 37.2222 11.54C37.6355 10.78 38.1888 10.18 38.8822 9.74C39.5888 9.3 40.3888 9.08 41.2822 9.08C41.9355 9.08 42.5222 9.20667 43.0422 9.46C43.5755 9.71333 44.0088 10.0667 44.3422 10.52C44.6755 10.96 44.8622 11.4667 44.9022 12.04V16.24C44.8622 16.8133 44.6755 17.3267 44.3422 17.78C44.0222 18.22 43.5955 18.5667 43.0622 18.82C42.5288 19.0733 41.9355 19.2 41.2822 19.2ZM41.9022 16.44C42.5555 16.44 43.0822 16.2267 43.4822 15.8C43.8822 15.36 44.0822 14.8067 44.0822 14.14C44.0822 13.6867 43.9888 13.2867 43.8022 12.94C43.6288 12.5933 43.3755 12.3267 43.0422 12.14C42.7222 11.94 42.3488 11.84 41.9222 11.84C41.4955 11.84 41.1155 11.94 40.7822 12.14C40.4622 12.3267 40.2022 12.5933 40.0022 12.94C39.8155 13.2867 39.7222 13.6867 39.7222 14.14C39.7222 14.58 39.8155 14.9733 40.0022 15.32C40.1888 15.6667 40.4488 15.94 40.7822 16.14C41.1155 16.34 41.4888 16.44 41.9022 16.44ZM43.9622 19V16.38L44.4222 14.02L43.9622 11.66V9.28H46.9622V19H43.9622ZM48.4645 19V9.28H51.5245V19H48.4645ZM50.0045 7.94C49.5245 7.94 49.1245 7.78 48.8045 7.46C48.4978 7.12667 48.3445 6.72667 48.3445 6.26C48.3445 5.78 48.4978 5.38 48.8045 5.06C49.1245 4.74 49.5245 4.58 50.0045 4.58C50.4845 4.58 50.8778 4.74 51.1845 5.06C51.4912 5.38 51.6445 5.78 51.6445 6.26C51.6445 6.72667 51.4912 7.12667 51.1845 7.46C50.8778 7.78 50.4845 7.94 50.0045 7.94ZM53.0272 19V4.48H56.0872V19H53.0272ZM59.9698 19L56.6098 9.28H59.6098L61.6898 16.34L60.8098 16.36L63.1098 9.28H65.5899L67.9099 16.36L67.0099 16.34L69.1099 9.28H72.1099L68.7499 19H66.2498L63.9898 12.28H64.7499L62.4498 19H59.9698ZM72.4846 19V9.28H75.5446V19H72.4846ZM74.0246 7.94C73.5446 7.94 73.1446 7.78 72.8246 7.46C72.5179 7.12667 72.3646 6.72667 72.3646 6.26C72.3646 5.78 72.5179 5.38 72.8246 5.06C73.1446 4.74 73.5446 4.58 74.0246 4.58C74.5046 4.58 74.8979 4.74 75.2046 5.06C75.5112 5.38 75.6646 5.78 75.6646 6.26C75.6646 6.72667 75.5112 7.12667 75.2046 7.46C74.8979 7.78 74.5046 7.94 74.0246 7.94ZM83.4672 19V13.46C83.4672 12.9533 83.3072 12.5467 82.9872 12.24C82.6806 11.92 82.2872 11.76 81.8072 11.76C81.4739 11.76 81.1806 11.8333 80.9272 11.98C80.6739 12.1133 80.4739 12.3133 80.3272 12.58C80.1806 12.8333 80.1072 13.1267 80.1072 13.46L78.9272 12.88C78.9272 12.12 79.0939 11.4533 79.4272 10.88C79.7606 10.3067 80.2206 9.86667 80.8072 9.56C81.4072 9.24 82.0806 9.08 82.8272 9.08C83.5472 9.08 84.1806 9.25333 84.7272 9.6C85.2872 9.93333 85.7272 10.38 86.0472 10.94C86.3672 11.5 86.5272 12.1133 86.5272 12.78V19H83.4672ZM77.0472 19V9.28H80.1072V19H77.0472ZM91.9804 19.2C91.0604 19.2 90.2404 18.98 89.5204 18.54C88.8137 18.1 88.2537 17.5 87.8404 16.74C87.4404 15.98 87.2404 15.1133 87.2404 14.14C87.2404 13.1667 87.4404 12.3 87.8404 11.54C88.2537 10.78 88.8137 10.18 89.5204 9.74C90.2404 9.3 91.0604 9.08 91.9804 9.08C92.647 9.08 93.247 9.20667 93.7804 9.46C94.327 9.71333 94.7737 10.0667 95.1204 10.52C95.4804 10.96 95.6804 11.4667 95.7204 12.04V16.14C95.6804 16.7133 95.487 17.2333 95.1404 17.7C94.7937 18.1533 94.347 18.52 93.8004 18.8C93.2537 19.0667 92.647 19.2 91.9804 19.2ZM92.5204 16.44C92.9604 16.44 93.3404 16.3467 93.6604 16.16C93.9804 15.96 94.2337 15.6867 94.4204 15.34C94.607 14.9933 94.7004 14.5933 94.7004 14.14C94.7004 13.6867 94.607 13.2933 94.4204 12.96C94.247 12.6133 93.9937 12.34 93.6604 12.14C93.3404 11.94 92.967 11.84 92.5404 11.84C92.1137 11.84 91.7337 11.94 91.4004 12.14C91.0804 12.34 90.8204 12.6133 90.6204 12.96C90.4337 13.3067 90.3404 13.7 90.3404 14.14C90.3404 14.58 90.4337 14.9733 90.6204 15.32C90.807 15.6667 91.067 15.94 91.4004 16.14C91.7337 16.34 92.107 16.44 92.5204 16.44ZM97.5804 19H94.5804V16.38L95.0404 14.02L94.5204 11.66V4.48H97.5804V19Z" fill="white"/>
</svg>
