<svg width="151" height="44" viewBox="0 0 151 44" fill="none" xmlns="http://www.w3.org/2000/svg">
<path d="M28.5 12H15.5C13.567 12 12 13.567 12 15.5V28.5C12 30.433 13.567 32 15.5 32H28.5C30.433 32 32 30.433 32 28.5V15.5C32 13.567 30.433 12 28.5 12Z" fill="#000058"/>
<path d="M20.8047 23.6901H18.0348L17.3196 25.9789C17.3109 26.0483 17.2676 26.083 17.1895 26.083H15.8891C15.8024 26.083 15.7721 26.0396 15.7981 25.9529L18.3079 18.2933C18.3686 18.1285 18.4033 17.8901 18.4119 17.578C18.4119 17.526 18.438 17.5 18.49 17.5H20.3106C20.3626 17.5 20.3929 17.5217 20.4016 17.565L23.2106 25.9659C23.2366 26.0439 23.2149 26.083 23.1455 26.083H21.689C21.6284 26.083 21.585 26.0569 21.559 26.0049L20.8047 23.6901ZM18.3469 22.4547H20.5056C20.4536 22.2726 20.3453 21.9172 20.1805 21.3883C20.0158 20.8595 19.8641 20.3653 19.7254 19.9058C19.5867 19.4463 19.4826 19.0822 19.4133 18.8135H19.4003C19.3049 19.2643 18.9538 20.478 18.3469 22.4547Z" fill="#9999F9"/>
<path d="M27.5066 23.196H25.1268C25.1354 23.7508 25.2915 24.1886 25.5949 24.5094C25.8984 24.8302 26.3535 24.9906 26.9604 24.9906C27.5152 24.9906 28.0094 24.8952 28.4429 24.7045C28.4949 24.6698 28.5209 24.6871 28.5209 24.7565V25.7058C28.5209 25.7665 28.4949 25.8185 28.4429 25.8619C27.9487 26.0873 27.3418 26.2 26.6223 26.2C25.5559 26.2 24.7713 25.8966 24.2685 25.2897C23.7743 24.6741 23.5272 23.9069 23.5272 22.9879C23.5272 22.0342 23.7873 21.2366 24.3075 20.5951C24.8277 19.9535 25.5386 19.6327 26.4402 19.6327C27.2985 19.6327 27.9357 19.8972 28.3519 20.426C28.7767 20.9549 28.9891 21.5747 28.9891 22.2856C28.9891 22.6411 28.9717 22.8925 28.937 23.0399C28.9284 23.1006 28.8937 23.1353 28.833 23.1439C28.6076 23.1786 28.1655 23.196 27.5066 23.196ZM25.1268 22.1946H26.8433C27.2161 22.1946 27.4285 22.1859 27.4806 22.1686C27.4892 22.1339 27.4936 22.0732 27.4936 21.9865C27.4936 21.6571 27.4069 21.3623 27.2335 21.1022C27.0601 20.8422 26.7783 20.7121 26.3882 20.7121C26.0067 20.7121 25.712 20.8508 25.5039 21.1283C25.2958 21.4057 25.1701 21.7611 25.1268 22.1946Z" fill="#9999F9"/>
<path d="M36.5471 29L42.1471 14.88H44.9871L50.5271 29H47.2071L42.9671 17.28H44.1071L39.8071 29H36.5471ZM39.7271 26.44V23.88H47.4271V26.44H39.7271ZM51.7431 29V18.44C51.7431 17.6533 51.9164 16.9467 52.2631 16.32C52.6231 15.68 53.1231 15.18 53.7631 14.82C54.4031 14.4467 55.1631 14.26 56.0431 14.26C56.7097 14.26 57.2897 14.3733 57.7831 14.6C58.2897 14.8133 58.7297 15.1133 59.1031 15.5L57.1831 17.42C57.0497 17.2867 56.8964 17.1867 56.7231 17.12C56.5631 17.04 56.3697 17 56.1431 17C55.7297 17 55.4031 17.12 55.1631 17.36C54.9231 17.6 54.8031 17.9267 54.8031 18.34V29H51.7431ZM49.6031 21.88V19.28H57.6031V21.88H49.6031ZM59.3754 29V15.26H62.4354V29H59.3754ZM57.1754 21.88V19.28H64.6354V21.88H57.1754ZM69.9362 29.22C68.8829 29.22 67.9429 29.0067 67.1162 28.58C66.3029 28.14 65.6629 27.5333 65.1962 26.76C64.7295 25.9867 64.4962 25.1133 64.4962 24.14C64.4962 23.1667 64.7229 22.3 65.1762 21.54C65.6429 20.7667 66.2695 20.16 67.0562 19.72C67.8429 19.28 68.7295 19.06 69.7162 19.06C70.6762 19.06 71.5229 19.2667 72.2562 19.68C72.9895 20.0933 73.5629 20.6667 73.9762 21.4C74.4029 22.1333 74.6162 22.9733 74.6162 23.92C74.6162 24.0933 74.6029 24.28 74.5762 24.48C74.5629 24.6667 74.5295 24.8867 74.4762 25.14L66.0962 25.16V23.06L73.1762 23.04L71.8562 23.92C71.8429 23.36 71.7562 22.9 71.5962 22.54C71.4362 22.1667 71.1962 21.8867 70.8762 21.7C70.5695 21.5 70.1895 21.4 69.7362 21.4C69.2562 21.4 68.8362 21.5133 68.4762 21.74C68.1295 21.9533 67.8562 22.26 67.6562 22.66C67.4695 23.06 67.3762 23.5467 67.3762 24.12C67.3762 24.6933 67.4762 25.1867 67.6762 25.6C67.8895 26 68.1829 26.3133 68.5562 26.54C68.9429 26.7533 69.3962 26.86 69.9162 26.86C70.3962 26.86 70.8295 26.78 71.2162 26.62C71.6029 26.4467 71.9429 26.1933 72.2362 25.86L73.9162 27.54C73.4362 28.1 72.8562 28.52 72.1762 28.8C71.4962 29.08 70.7495 29.22 69.9362 29.22ZM75.4411 29V19.28H78.5011V29H75.4411ZM78.5011 23.66L77.2211 22.66C77.4744 21.5267 77.9011 20.6467 78.5011 20.02C79.1011 19.3933 79.9344 19.08 81.0011 19.08C81.4677 19.08 81.8744 19.1533 82.2211 19.3C82.5811 19.4333 82.8944 19.6467 83.1611 19.94L81.3411 22.24C81.2077 22.0933 81.0411 21.98 80.8411 21.9C80.6411 21.82 80.4144 21.78 80.1611 21.78C79.6544 21.78 79.2477 21.94 78.9411 22.26C78.6477 22.5667 78.5011 23.0333 78.5011 23.66ZM87.112 29V14.88H90.252V29H87.112ZM89.512 29V26.28H97.252V29H89.512ZM89.512 23.1V20.48H96.552V23.1H89.512ZM89.512 17.58V14.88H97.152V17.58H89.512ZM99.7246 29V18.44C99.7246 17.6533 99.8979 16.9467 100.245 16.32C100.605 15.68 101.105 15.18 101.745 14.82C102.385 14.4467 103.145 14.26 104.025 14.26C104.691 14.26 105.271 14.3733 105.765 14.6C106.271 14.8133 106.711 15.1133 107.085 15.5L105.165 17.42C105.031 17.2867 104.878 17.1867 104.705 17.12C104.545 17.04 104.351 17 104.125 17C103.711 17 103.385 17.12 103.145 17.36C102.905 17.6 102.785 17.9267 102.785 18.34V29H99.7246ZM97.5846 21.88V19.28H105.585V21.88H97.5846ZM110.914 29.22C109.86 29.22 108.92 29.0067 108.094 28.58C107.28 28.14 106.64 27.5333 106.174 26.76C105.707 25.9867 105.474 25.1133 105.474 24.14C105.474 23.1667 105.7 22.3 106.154 21.54C106.62 20.7667 107.247 20.16 108.034 19.72C108.82 19.28 109.707 19.06 110.694 19.06C111.654 19.06 112.5 19.2667 113.234 19.68C113.967 20.0933 114.54 20.6667 114.954 21.4C115.38 22.1333 115.594 22.9733 115.594 23.92C115.594 24.0933 115.58 24.28 115.554 24.48C115.54 24.6667 115.507 24.8867 115.454 25.14L107.074 25.16V23.06L114.154 23.04L112.834 23.92C112.82 23.36 112.734 22.9 112.574 22.54C112.414 22.1667 112.174 21.8867 111.854 21.7C111.547 21.5 111.167 21.4 110.714 21.4C110.234 21.4 109.814 21.5133 109.454 21.74C109.107 21.9533 108.834 22.26 108.634 22.66C108.447 23.06 108.354 23.5467 108.354 24.12C108.354 24.6933 108.454 25.1867 108.654 25.6C108.867 26 109.16 26.3133 109.534 26.54C109.92 26.7533 110.374 26.86 110.894 26.86C111.374 26.86 111.807 26.78 112.194 26.62C112.58 26.4467 112.92 26.1933 113.214 25.86L114.894 27.54C114.414 28.1 113.834 28.52 113.154 28.8C112.474 29.08 111.727 29.22 110.914 29.22ZM121.118 29.22C120.118 29.22 119.212 29 118.398 28.56C117.585 28.12 116.945 27.5133 116.478 26.74C116.012 25.9667 115.778 25.1 115.778 24.14C115.778 23.1667 116.012 22.3 116.478 21.54C116.958 20.7667 117.605 20.16 118.418 19.72C119.232 19.28 120.145 19.06 121.158 19.06C121.918 19.06 122.612 19.1933 123.238 19.46C123.878 19.7133 124.445 20.1 124.938 20.62L122.978 22.58C122.752 22.3267 122.485 22.14 122.178 22.02C121.885 21.9 121.545 21.84 121.158 21.84C120.718 21.84 120.325 21.94 119.978 22.14C119.645 22.3267 119.378 22.5933 119.178 22.94C118.992 23.2733 118.898 23.6667 118.898 24.12C118.898 24.5733 118.992 24.9733 119.178 25.32C119.378 25.6667 119.652 25.94 119.998 26.14C120.345 26.34 120.732 26.44 121.158 26.44C121.558 26.44 121.912 26.3733 122.218 26.24C122.538 26.0933 122.812 25.8933 123.038 25.64L124.978 27.6C124.472 28.1333 123.898 28.54 123.258 28.82C122.618 29.0867 121.905 29.22 121.118 29.22ZM126.912 29V15.26H129.972V29H126.912ZM124.712 21.88V19.28H132.172V21.88H124.712ZM136.213 29.24C135.639 29.24 135.073 29.1667 134.513 29.02C133.966 28.8733 133.453 28.6667 132.973 28.4C132.506 28.12 132.106 27.8 131.773 27.44L133.513 25.68C133.833 26.0267 134.213 26.3 134.653 26.5C135.093 26.6867 135.573 26.78 136.093 26.78C136.453 26.78 136.726 26.7267 136.913 26.62C137.113 26.5133 137.213 26.3667 137.213 26.18C137.213 25.94 137.093 25.76 136.853 25.64C136.626 25.5067 136.333 25.3933 135.973 25.3C135.613 25.1933 135.233 25.08 134.833 24.96C134.433 24.84 134.053 24.6733 133.693 24.46C133.333 24.2467 133.039 23.9533 132.813 23.58C132.586 23.1933 132.473 22.7067 132.473 22.12C132.473 21.4933 132.633 20.9533 132.953 20.5C133.273 20.0333 133.726 19.6667 134.313 19.4C134.899 19.1333 135.586 19 136.373 19C137.199 19 137.959 19.1467 138.653 19.44C139.359 19.72 139.933 20.14 140.373 20.7L138.633 22.46C138.326 22.1 137.979 21.8467 137.593 21.7C137.219 21.5533 136.853 21.48 136.493 21.48C136.146 21.48 135.886 21.5333 135.713 21.64C135.539 21.7333 135.453 21.8733 135.453 22.06C135.453 22.26 135.566 22.42 135.793 22.54C136.019 22.66 136.313 22.7667 136.673 22.86C137.033 22.9533 137.413 23.0667 137.813 23.2C138.213 23.3333 138.593 23.5133 138.953 23.74C139.313 23.9667 139.606 24.2733 139.833 24.66C140.059 25.0333 140.173 25.5267 140.173 26.14C140.173 27.0867 139.813 27.84 139.093 28.4C138.386 28.96 137.426 29.24 136.213 29.24Z" fill="white"/>
</svg>
