<svg width="82" height="44" viewBox="0 0 82 44" fill="none" xmlns="http://www.w3.org/2000/svg">
<g clip-path="url(#clip0_97_885)">
<path d="M13.5417 12H26.4583C26.9236 11.9996 27.3843 12.0932 27.8142 12.2756C28.2441 12.458 28.6347 12.7255 28.9636 13.0629C29.2926 13.4003 29.5535 13.8009 29.7313 14.2419C29.9091 14.6828 30.0004 15.1553 30 15.6325V28.3675C30.0004 28.8447 29.9091 29.3172 29.7313 29.7581C29.5535 30.1991 29.2926 30.5997 28.9636 30.9371C28.6347 31.2745 28.2441 31.542 27.8142 31.7244C27.3843 31.9068 26.9236 32.0004 26.4583 32H13.5417C13.0764 32.0004 12.6157 31.9068 12.1858 31.7244C11.7559 31.542 11.3653 31.2745 11.0364 30.9371C10.7074 30.5997 10.4465 30.1991 10.2687 29.7581C10.0909 29.3172 9.99956 28.8447 10 28.3675V15.6325C9.99956 15.1553 10.0909 14.6828 10.2687 14.2419C10.4465 13.8009 10.7074 13.4003 11.0364 13.0629C11.3653 12.7255 11.7559 12.458 12.1858 12.2756C12.6157 12.0932 13.0764 11.9996 13.5417 12V12Z" fill="#659AD2"/>
<path d="M19.0936 28.2138C15.6711 28.2138 12.8867 25.4294 12.8867 22.0069C12.8867 18.5845 15.6711 15.8 19.0936 15.8C21.3021 15.8 23.3617 16.9885 24.4687 18.9015L21.7825 20.456C21.2285 19.4984 20.1981 18.9035 19.0936 18.9035C17.3823 18.9035 15.9902 20.2957 15.9902 22.0069C15.9902 23.7182 17.3823 25.1104 19.0936 25.1104C20.1982 25.1104 21.2286 24.5155 21.7827 23.5578L24.4689 25.1121C23.3619 27.0253 21.3022 28.2138 19.0936 28.2138Z" fill="white"/>
<path d="M25.3014 21.662H24.6117V20.9724H23.9221V21.662H23.2324V22.3517H23.9221V23.0414H24.6117V22.3517H25.3014V21.662Z" fill="white"/>
<path d="M27.8873 21.662H27.1976V20.9724H26.5081V21.662H25.8184V22.3517H26.5081V23.0414H27.1976V22.3517H27.8873V21.662Z" fill="white"/>
</g>
<path d="M44.5481 29.22C43.4948 29.22 42.5148 29.04 41.6081 28.68C40.7148 28.3067 39.9281 27.7867 39.2481 27.12C38.5814 26.4533 38.0614 25.68 37.6881 24.8C37.3148 23.9067 37.1281 22.9467 37.1281 21.92C37.1281 20.8933 37.3148 19.94 37.6881 19.06C38.0614 18.1667 38.5814 17.3933 39.2481 16.74C39.9148 16.0867 40.6948 15.58 41.5881 15.22C42.4948 14.8467 43.4748 14.66 44.5281 14.66C45.6481 14.66 46.6414 14.84 47.5081 15.2C48.3881 15.56 49.1548 16.0533 49.8081 16.68L47.7081 18.8C47.3348 18.4 46.8814 18.0867 46.3481 17.86C45.8281 17.6333 45.2214 17.52 44.5281 17.52C43.9148 17.52 43.3481 17.6267 42.8281 17.84C42.3214 18.04 41.8814 18.3333 41.5081 18.72C41.1481 19.1067 40.8614 19.5733 40.6481 20.12C40.4481 20.6667 40.3481 21.2667 40.3481 21.92C40.3481 22.5867 40.4481 23.1933 40.6481 23.74C40.8614 24.2867 41.1481 24.7533 41.5081 25.14C41.8814 25.5267 42.3214 25.8267 42.8281 26.04C43.3481 26.2533 43.9148 26.36 44.5281 26.36C45.2481 26.36 45.8748 26.2467 46.4081 26.02C46.9414 25.7933 47.4014 25.48 47.7881 25.08L49.9081 27.2C49.2281 27.8267 48.4481 28.32 47.5681 28.68C46.7014 29.04 45.6948 29.22 44.5481 29.22ZM50.605 23.58V21.04H59.905V23.58H50.605ZM53.965 17.42H56.565V27.16H53.965V17.42ZM61.2224 23.58V21.04H70.5224V23.58H61.2224ZM64.5824 17.42H67.1824V27.16H64.5824V17.42Z" fill="white"/>
<defs>
<clipPath id="clip0_97_885">
<rect x="10" y="12" width="20" height="20" rx="4" fill="white"/>
</clipPath>
</defs>
</svg>
