<svg width="102" height="44" viewBox="0 0 102 44" fill="none" xmlns="http://www.w3.org/2000/svg">
<g clip-path="url(#clip0_97_947)">
<path d="M15.5417 12H28.4583C28.9236 11.9996 29.3843 12.0932 29.8142 12.2756C30.2441 12.458 30.6347 12.7255 30.9636 13.0629C31.2926 13.4003 31.5535 13.8009 31.7313 14.2419C31.9091 14.6828 32.0004 15.1553 32 15.6325V28.3675C32.0004 28.8447 31.9091 29.3172 31.7313 29.7581C31.5535 30.1991 31.2926 30.5997 30.9636 30.9371C30.6347 31.2745 30.2441 31.542 29.8142 31.7244C29.3843 31.9068 28.9236 32.0004 28.4583 32H15.5417C15.0764 32.0004 14.6157 31.9068 14.1858 31.7244C13.7559 31.542 13.3653 31.2745 13.0364 30.9371C12.7074 30.5997 12.4465 30.1991 12.2687 29.7581C12.0909 29.3172 11.9996 28.8447 12 28.3675V15.6325C11.9996 15.1553 12.0909 14.6828 12.2687 14.2419C12.4465 13.8009 12.7074 13.4003 13.0364 13.0629C13.3653 12.7255 13.7559 12.458 14.1858 12.2756C14.6157 12.0932 15.0764 11.9996 15.5417 12V12Z" fill="#000B1D"/>
<path d="M20.472 28.1C21.6226 28.1 22.5553 27.1673 22.5553 26.0167V23.9333H20.472C19.3214 23.9333 18.3887 24.8661 18.3887 26.0167C18.3887 27.1673 19.3214 28.1 20.472 28.1Z" fill="#0ACF83"/>
<path d="M18.3887 21.8499C18.3887 20.6993 19.3214 19.7666 20.472 19.7666H22.5553V23.9333H20.472C19.3214 23.9333 18.3887 23.0005 18.3887 21.8499Z" fill="#A259FF"/>
<path d="M18.3887 17.6834C18.3887 16.5328 19.3214 15.6001 20.472 15.6001H22.5553V19.7668H20.472C19.3214 19.7668 18.3887 18.834 18.3887 17.6834Z" fill="#F24E1E"/>
<path d="M22.5566 15.6001H24.64C25.7906 15.6001 26.7233 16.5328 26.7233 17.6834C26.7233 18.834 25.7906 19.7668 24.64 19.7668H22.5566V15.6001Z" fill="#FF7262"/>
<path d="M26.7233 21.8499C26.7233 23.0005 25.7906 23.9333 24.64 23.9333C23.4894 23.9333 22.5566 23.0005 22.5566 21.8499C22.5566 20.6993 23.4894 19.7666 24.64 19.7666C25.7906 19.7666 26.7233 20.6993 26.7233 21.8499Z" fill="#1ABCFE"/>
</g>
<path d="M37.6409 29V14.88H40.7809V29H37.6409ZM40.0409 23.46V20.76H47.1009V23.46H40.0409ZM40.0409 17.58V14.88H47.4209V17.58H40.0409ZM48.5056 29V19.28H51.5656V29H48.5056ZM50.0456 17.94C49.5656 17.94 49.1656 17.78 48.8456 17.46C48.5389 17.1267 48.3856 16.7267 48.3856 16.26C48.3856 15.78 48.5389 15.38 48.8456 15.06C49.1656 14.74 49.5656 14.58 50.0456 14.58C50.5256 14.58 50.9189 14.74 51.2256 15.06C51.5323 15.38 51.6856 15.78 51.6856 16.26C51.6856 16.7267 51.5323 17.1267 51.2256 17.46C50.9189 17.78 50.5256 17.94 50.0456 17.94ZM57.1883 33.36C56.1216 33.36 55.1816 33.1733 54.3683 32.8C53.5683 32.44 52.9349 31.9267 52.4683 31.26L54.3483 29.38C54.6949 29.7933 55.0816 30.1067 55.5083 30.32C55.9483 30.5333 56.4749 30.64 57.0883 30.64C57.8483 30.64 58.4416 30.4533 58.8683 30.08C59.3083 29.7067 59.5283 29.18 59.5283 28.5V26.02L60.0483 23.9L59.5883 21.78V19.28H62.5883V28.42C62.5883 29.42 62.3549 30.2867 61.8883 31.02C61.4216 31.7533 60.7816 32.3267 59.9683 32.74C59.1549 33.1533 58.2283 33.36 57.1883 33.36ZM57.0483 28.7C56.1549 28.7 55.3616 28.4867 54.6683 28.06C53.9749 27.6333 53.4283 27.0533 53.0283 26.32C52.6283 25.5867 52.4283 24.7733 52.4283 23.88C52.4283 22.9733 52.6283 22.16 53.0283 21.44C53.4283 20.7067 53.9749 20.1333 54.6683 19.72C55.3616 19.2933 56.1549 19.08 57.0483 19.08C57.7149 19.08 58.3083 19.2067 58.8283 19.46C59.3616 19.7 59.7883 20.0467 60.1083 20.5C60.4416 20.94 60.6283 21.4533 60.6683 22.04V25.74C60.6283 26.3133 60.4416 26.8267 60.1083 27.28C59.7883 27.72 59.3616 28.0667 58.8283 28.32C58.2949 28.5733 57.7016 28.7 57.0483 28.7ZM57.6283 25.98C58.0549 25.98 58.4216 25.8867 58.7283 25.7C59.0483 25.5133 59.2883 25.2667 59.4483 24.96C59.6216 24.64 59.7083 24.28 59.7083 23.88C59.7083 23.48 59.6216 23.12 59.4483 22.8C59.2883 22.48 59.0483 22.2267 58.7283 22.04C58.4216 21.8533 58.0549 21.76 57.6283 21.76C57.2149 21.76 56.8483 21.8533 56.5283 22.04C56.2083 22.2267 55.9616 22.48 55.7883 22.8C55.6149 23.12 55.5283 23.48 55.5283 23.88C55.5283 24.2533 55.6149 24.6067 55.7883 24.94C55.9616 25.26 56.2016 25.5133 56.5083 25.7C56.8283 25.8867 57.2016 25.98 57.6283 25.98ZM64.0958 29V19.28H67.1558V29H64.0958ZM70.3158 29V23.32C70.3158 22.8267 70.1625 22.4467 69.8558 22.18C69.5625 21.9 69.1958 21.76 68.7558 21.76C68.4491 21.76 68.1758 21.8267 67.9358 21.96C67.6958 22.08 67.5025 22.2533 67.3558 22.48C67.2225 22.7067 67.1558 22.9867 67.1558 23.32L65.9758 22.8C65.9758 22.0267 66.1425 21.3667 66.4758 20.82C66.8091 20.26 67.2625 19.8333 67.8358 19.54C68.4091 19.2333 69.0558 19.08 69.7758 19.08C70.4558 19.08 71.0625 19.2333 71.5958 19.54C72.1425 19.8467 72.5758 20.2733 72.8958 20.82C73.2158 21.3667 73.3758 22.02 73.3758 22.78V29H70.3158ZM76.5358 29V23.32C76.5358 22.8267 76.3825 22.4467 76.0758 22.18C75.7825 21.9 75.4158 21.76 74.9758 21.76C74.6691 21.76 74.3958 21.8267 74.1558 21.96C73.9158 22.08 73.7225 22.2533 73.5758 22.48C73.4425 22.7067 73.3758 22.9867 73.3758 23.32L71.6158 23.08C71.6425 22.2533 71.8358 21.5467 72.1958 20.96C72.5691 20.36 73.0558 19.9 73.6558 19.58C74.2691 19.2467 74.9558 19.08 75.7158 19.08C76.4625 19.08 77.1225 19.24 77.6958 19.56C78.2825 19.8667 78.7425 20.3133 79.0758 20.9C79.4225 21.4733 79.5958 22.1667 79.5958 22.98V29H76.5358ZM84.9646 29.2C84.0712 29.2 83.2712 28.98 82.5646 28.54C81.8712 28.1 81.3179 27.5 80.9046 26.74C80.5046 25.98 80.3046 25.1133 80.3046 24.14C80.3046 23.1667 80.5046 22.3 80.9046 21.54C81.3179 20.78 81.8712 20.18 82.5646 19.74C83.2712 19.3 84.0712 19.08 84.9646 19.08C85.6179 19.08 86.2046 19.2067 86.7246 19.46C87.2579 19.7133 87.6912 20.0667 88.0246 20.52C88.3579 20.96 88.5446 21.4667 88.5846 22.04V26.24C88.5446 26.8133 88.3579 27.3267 88.0246 27.78C87.7046 28.22 87.2779 28.5667 86.7446 28.82C86.2112 29.0733 85.6179 29.2 84.9646 29.2ZM85.5846 26.44C86.2379 26.44 86.7646 26.2267 87.1646 25.8C87.5646 25.36 87.7646 24.8067 87.7646 24.14C87.7646 23.6867 87.6712 23.2867 87.4846 22.94C87.3112 22.5933 87.0579 22.3267 86.7246 22.14C86.4046 21.94 86.0312 21.84 85.6046 21.84C85.1779 21.84 84.7979 21.94 84.4646 22.14C84.1446 22.3267 83.8846 22.5933 83.6846 22.94C83.4979 23.2867 83.4046 23.6867 83.4046 24.14C83.4046 24.58 83.4979 24.9733 83.6846 25.32C83.8712 25.6667 84.1312 25.94 84.4646 26.14C84.7979 26.34 85.1712 26.44 85.5846 26.44ZM87.6446 29V26.38L88.1046 24.02L87.6446 21.66V19.28H90.6446V29H87.6446Z" fill="white"/>
<defs>
<clipPath id="clip0_97_947">
<rect x="10" y="12" width="20" height="20" rx="4" fill="white"/>
</clipPath>
</defs>
</svg>
