<svg width="100" height="44" viewBox="0 0 100 44" fill="none" xmlns="http://www.w3.org/2000/svg">
<g clip-path="url(#clip0_97_827)">
<path d="M13.5417 12H26.4583C26.9236 11.9996 27.3843 12.0932 27.8142 12.2756C28.2441 12.458 28.6347 12.7255 28.9636 13.0629C29.2926 13.4003 29.5535 13.8009 29.7313 14.2419C29.9091 14.6828 30.0004 15.1553 30 15.6325V28.3675C30.0004 28.8447 29.9091 29.3172 29.7313 29.7581C29.5535 30.1991 29.2926 30.5997 28.9636 30.9371C28.6347 31.2745 28.2441 31.542 27.8142 31.7244C27.3843 31.9068 26.9236 32.0004 26.4583 32H13.5417C13.0764 32.0004 12.6157 31.9068 12.1858 31.7244C11.7559 31.542 11.3653 31.2745 11.0364 30.9371C10.7074 30.5997 10.4465 30.1991 10.2687 29.7581C10.0909 29.3172 9.99956 28.8447 10 28.3675V15.6325C9.99956 15.1553 10.0909 14.6828 10.2687 14.2419C10.4465 13.8009 10.7074 13.4003 11.0364 13.0629C11.3653 12.7255 11.7559 12.458 12.1858 12.2756C12.6157 12.0932 13.0764 11.9996 13.5417 12V12Z" fill="#F16529"/>
<path d="M17.2886 17.9958H20.3952V15.7998H14.8887L14.9412 16.3889L15.481 22.4406H20.3952V20.2446H17.4893L17.2886 17.9958V17.9958ZM17.7836 23.5386H15.5791L15.8867 26.9867L20.3851 28.2354L20.3952 28.2326V25.9479L20.3856 25.9504L17.9399 25.29L17.7836 23.5386V23.5386Z" fill="#EBEBEB"/>
<path d="M20.3887 22.4406H23.0929L22.8379 25.2887L20.3887 25.9497V28.2344L24.8906 26.9867L24.9236 26.6157L25.4398 20.8343L25.4933 20.2446H20.3887V22.4406ZM20.3887 17.9905V17.9958H25.6932L25.7372 17.5023L25.8373 16.3889L25.8897 15.7998H20.3887V17.9905V17.9905Z" fill="white"/>
</g>
<path d="M37.4574 29V14.88H40.5974V29H37.4574ZM46.1974 29V14.88H49.3574V29H46.1974ZM39.3374 23.1V20.38H47.2374V23.1H39.3374ZM54.8746 29V15.08H58.0146V29H54.8746ZM50.4546 17.62V14.88H62.4346V17.62H50.4546ZM63.5359 29V14.88H65.7759L71.3359 23.54H70.1959L75.7359 14.88H77.9959V29H74.8559V20.18L75.4159 20.32L71.7959 25.96H69.7159L66.1159 20.32L66.6559 20.18V29H63.5359ZM80.0517 29V14.88H83.1917V29H80.0517ZM82.4717 29V26.24H89.4517V29H82.4717Z" fill="white"/>
<defs>
<clipPath id="clip0_97_827">
<rect x="10" y="12" width="20" height="20" rx="4" fill="white"/>
</clipPath>
</defs>
</svg>
