<svg width="89" height="44" viewBox="0 0 89 44" fill="none" xmlns="http://www.w3.org/2000/svg">
<g clip-path="url(#clip0_97_905)">
<path d="M13.5417 12H26.4583C26.9236 11.9996 27.3843 12.0932 27.8142 12.2756C28.2441 12.458 28.6347 12.7255 28.9636 13.0629C29.2926 13.4003 29.5535 13.8009 29.7313 14.2419C29.9091 14.6828 30.0004 15.1553 30 15.6325V28.3675C30.0004 28.8447 29.9091 29.3172 29.7313 29.7581C29.5535 30.1991 29.2926 30.5997 28.9636 30.9371C28.6347 31.2745 28.2441 31.542 27.8142 31.7244C27.3843 31.9068 26.9236 32.0004 26.4583 32H13.5417C13.0764 32.0004 12.6157 31.9068 12.1858 31.7244C11.7559 31.542 11.3653 31.2745 11.0364 30.9371C10.7074 30.5997 10.4465 30.1991 10.2687 29.7581C10.0909 29.3172 9.99956 28.8447 10 28.3675V15.6325C9.99956 15.1553 10.0909 14.6828 10.2687 14.2419C10.4465 13.8009 10.7074 13.4003 11.0364 13.0629C11.3653 12.7255 11.7559 12.458 12.1858 12.2756C12.6157 12.0932 13.0764 11.9996 13.5417 12Z" fill="#F0F0F0"/>
<path d="M18.1542 25.7356C18.1542 25.7356 17.631 26.0399 18.5266 26.1428C19.6115 26.2666 20.166 26.2488 21.3615 26.0225C21.3615 26.0225 21.6759 26.2196 22.1148 26.3903C19.4347 27.539 16.0491 26.3238 18.1542 25.7356Z" fill="#5382A1"/>
<path d="M17.8267 24.2366C17.8267 24.2366 17.2399 24.6709 18.1361 24.7636C19.295 24.8832 20.2103 24.893 21.794 24.588C21.794 24.588 22.013 24.8101 22.3575 24.9315C19.117 25.8791 15.5077 25.0063 17.8267 24.2366Z" fill="#5382A1"/>
<path d="M20.5881 21.6939C21.2485 22.4542 20.4146 23.1384 20.4146 23.1384C20.4146 23.1384 22.0915 22.2727 21.3214 21.1888C20.6021 20.1779 20.0506 19.6756 23.0365 17.9438C23.0365 17.9438 18.3495 19.1144 20.5881 21.6939Z" fill="#E76F00"/>
<path d="M24.1325 26.8441C24.1325 26.8441 24.5197 27.1631 23.7061 27.4099C22.1591 27.8785 17.2672 28.0201 15.9083 27.4286C15.4198 27.216 16.3359 26.9211 16.624 26.8592C16.9245 26.7941 17.0963 26.8062 17.0963 26.8062C16.553 26.4235 13.5848 27.5577 15.5886 27.8825C21.0531 28.7687 25.55 27.4834 24.1325 26.8441Z" fill="#5382A1"/>
<path d="M18.406 22.6834C18.406 22.6834 15.9177 23.2744 17.5249 23.489C18.2034 23.5799 19.5562 23.5593 20.8162 23.4537C21.846 23.3669 22.88 23.1822 22.88 23.1822C22.88 23.1822 22.5169 23.3377 22.2542 23.5171C19.7274 24.1816 14.846 23.8725 16.2513 23.1927C17.4397 22.6182 18.406 22.6834 18.406 22.6834Z" fill="#5382A1"/>
<path d="M22.87 25.1786C25.4386 23.8438 24.251 22.5611 23.422 22.7339C23.2189 22.7762 23.1283 22.8129 23.1283 22.8129C23.1283 22.8129 23.2037 22.6947 23.3478 22.6436C24.9877 22.067 26.2489 24.344 22.8184 25.2459C22.8184 25.2459 22.8581 25.2104 22.87 25.1786Z" fill="#5382A1"/>
<path d="M21.3211 15.1475C21.3211 15.1475 22.7436 16.5705 19.9718 18.7587C17.7491 20.5141 19.465 21.5149 19.9709 22.6584C18.6735 21.4878 17.7213 20.4574 18.3601 19.4983C19.2977 18.0904 21.895 17.4079 21.3211 15.1475Z" fill="#E76F00"/>
<path d="M18.6583 28.7955C21.1238 28.9533 24.91 28.7079 24.9997 27.5413C24.9997 27.5413 24.8273 27.9835 22.962 28.3348C20.8576 28.7308 18.2621 28.6845 16.7227 28.4307C16.7227 28.4307 17.0378 28.6916 18.6583 28.7955Z" fill="#5382A1"/>
</g>
<path d="M40.3271 29.22C39.4338 29.22 38.6538 29.06 37.9871 28.74C37.3338 28.4067 36.7738 27.9467 36.3071 27.36L38.4071 25.34C38.6471 25.6733 38.9271 25.9267 39.2471 26.1C39.5804 26.2733 39.9538 26.36 40.3671 26.36C40.7671 26.36 41.1138 26.28 41.4071 26.12C41.7004 25.9467 41.9338 25.7067 42.1071 25.4C42.2804 25.08 42.3671 24.6867 42.3671 24.22V14.88H45.5271V24.04C45.5271 25.0933 45.3138 26.0067 44.8871 26.78C44.4604 27.5533 43.8604 28.1533 43.0871 28.58C42.3138 29.0067 41.3938 29.22 40.3271 29.22ZM51.1594 29.2C50.2661 29.2 49.4661 28.98 48.7594 28.54C48.0661 28.1 47.5128 27.5 47.0994 26.74C46.6994 25.98 46.4994 25.1133 46.4994 24.14C46.4994 23.1667 46.6994 22.3 47.0994 21.54C47.5128 20.78 48.0661 20.18 48.7594 19.74C49.4661 19.3 50.2661 19.08 51.1594 19.08C51.8128 19.08 52.3994 19.2067 52.9194 19.46C53.4528 19.7133 53.8861 20.0667 54.2194 20.52C54.5528 20.96 54.7394 21.4667 54.7794 22.04V26.24C54.7394 26.8133 54.5528 27.3267 54.2194 27.78C53.8994 28.22 53.4728 28.5667 52.9394 28.82C52.4061 29.0733 51.8128 29.2 51.1594 29.2ZM51.7794 26.44C52.4328 26.44 52.9594 26.2267 53.3594 25.8C53.7594 25.36 53.9594 24.8067 53.9594 24.14C53.9594 23.6867 53.8661 23.2867 53.6794 22.94C53.5061 22.5933 53.2528 22.3267 52.9194 22.14C52.5994 21.94 52.2261 21.84 51.7994 21.84C51.3728 21.84 50.9928 21.94 50.6594 22.14C50.3394 22.3267 50.0794 22.5933 49.8794 22.94C49.6928 23.2867 49.5994 23.6867 49.5994 24.14C49.5994 24.58 49.6928 24.9733 49.8794 25.32C50.0661 25.6667 50.3261 25.94 50.6594 26.14C50.9928 26.34 51.3661 26.44 51.7794 26.44ZM53.8394 29V26.38L54.2994 24.02L53.8394 21.66V19.28H56.8394V29H53.8394ZM61.4018 29L57.2818 19.28H60.5818L63.3818 27.38H61.9418L64.7418 19.28H67.9818L63.8618 29H61.4018ZM72.2184 29.2C71.325 29.2 70.525 28.98 69.8184 28.54C69.125 28.1 68.5717 27.5 68.1584 26.74C67.7584 25.98 67.5584 25.1133 67.5584 24.14C67.5584 23.1667 67.7584 22.3 68.1584 21.54C68.5717 20.78 69.125 20.18 69.8184 19.74C70.525 19.3 71.325 19.08 72.2184 19.08C72.8717 19.08 73.4584 19.2067 73.9784 19.46C74.5117 19.7133 74.945 20.0667 75.2784 20.52C75.6117 20.96 75.7984 21.4667 75.8384 22.04V26.24C75.7984 26.8133 75.6117 27.3267 75.2784 27.78C74.9584 28.22 74.5317 28.5667 73.9984 28.82C73.465 29.0733 72.8717 29.2 72.2184 29.2ZM72.8384 26.44C73.4917 26.44 74.0184 26.2267 74.4184 25.8C74.8184 25.36 75.0184 24.8067 75.0184 24.14C75.0184 23.6867 74.925 23.2867 74.7384 22.94C74.565 22.5933 74.3117 22.3267 73.9784 22.14C73.6584 21.94 73.285 21.84 72.8584 21.84C72.4317 21.84 72.0517 21.94 71.7184 22.14C71.3984 22.3267 71.1384 22.5933 70.9384 22.94C70.7517 23.2867 70.6584 23.6867 70.6584 24.14C70.6584 24.58 70.7517 24.9733 70.9384 25.32C71.125 25.6667 71.385 25.94 71.7184 26.14C72.0517 26.34 72.425 26.44 72.8384 26.44ZM74.8984 29V26.38L75.3584 24.02L74.8984 21.66V19.28H77.8984V29H74.8984Z" fill="white"/>
<defs>
<clipPath id="clip0_97_905">
<rect x="10" y="12" width="20" height="20" rx="4" fill="white"/>
</clipPath>
</defs>
</svg>
