<svg width="112" height="44" viewBox="0 0 112 44" fill="none" xmlns="http://www.w3.org/2000/svg">
<path d="M13.5417 12H26.4583C26.9236 11.9996 27.3843 12.0932 27.8142 12.2756C28.2441 12.458 28.6347 12.7255 28.9636 13.0629C29.2926 13.4003 29.5535 13.8009 29.7313 14.2419C29.9091 14.6828 30.0004 15.1553 30 15.6325V28.3675C30.0004 28.8447 29.9091 29.3172 29.7313 29.7581C29.5535 30.1991 29.2926 30.5997 28.9636 30.9371C28.6347 31.2745 28.2441 31.542 27.8142 31.7244C27.3843 31.9068 26.9236 32.0004 26.4583 32H13.5417C13.0764 32.0004 12.6157 31.9068 12.1858 31.7244C11.7559 31.542 11.3653 31.2745 11.0364 30.9371C10.7074 30.5997 10.4465 30.1991 10.2687 29.7581C10.0909 29.3172 9.99956 28.8447 10 28.3675V15.6325C9.99956 15.1553 10.0909 14.6828 10.2687 14.2419C10.4465 13.8009 10.7074 13.4003 11.0364 13.0629C11.3653 12.7255 11.7559 12.458 12.1858 12.2756C12.6157 12.0932 13.0764 11.9996 13.5417 12V12Z" fill="#000B1D"/>
<path d="M20.343 29.5C20.1422 29.5 19.9427 29.4473 19.7666 29.3459L17.9316 28.2595C17.6575 28.1063 17.7912 28.0521 17.8816 28.0208C18.2471 27.8929 18.3212 27.864 18.7113 27.6425C18.7523 27.6191 18.8059 27.6273 18.8479 27.6521L20.2576 28.4886C20.3085 28.5161 20.3807 28.5161 20.4279 28.4886L25.9244 25.3159C25.9754 25.287 26.0084 25.2278 26.0084 25.1673V18.8246C26.0084 18.7614 25.9754 18.7049 25.9233 18.6733L20.429 15.5033C20.3781 15.4731 20.3107 15.4731 20.2598 15.5033L14.7666 18.6733C14.7133 18.7036 14.6795 18.7627 14.6795 18.8233V25.1659C14.6795 25.2265 14.7125 25.2843 14.7648 25.3131L16.27 26.1827C17.0872 26.5913 17.5867 26.1098 17.5867 25.6255V19.3653C17.5867 19.2759 17.6568 19.2071 17.7463 19.2071H18.4424C18.5291 19.2071 18.6007 19.2759 18.6007 19.3653V25.6282C18.6007 26.7179 18.0063 27.3439 16.973 27.3439C16.6552 27.3439 16.4048 27.3439 15.7059 26.9999L14.264 26.1689C13.9076 25.9626 13.6875 25.5773 13.6875 25.1659V18.8233C13.6875 18.4105 13.9076 18.0253 14.264 17.8216L19.766 14.6476C20.1141 14.4508 20.5764 14.4508 20.9217 14.6476L26.4169 17.823C26.7718 18.028 26.9933 18.4119 26.9933 18.8246V25.1673C26.9933 25.5787 26.7718 25.9626 26.4169 26.1689L20.9217 29.343C20.7456 29.4448 20.5461 29.4971 20.3425 29.4971" fill="#4ECF42"/>
<path d="M22.0401 25.1294C19.6351 25.1294 19.1309 24.0254 19.1309 23.0995C19.1309 23.0114 19.2019 22.9413 19.29 22.9413H20C20.0784 22.9413 20.1444 22.9984 20.1568 23.0758C20.2641 23.7992 20.5833 24.1641 22.0376 24.1641C23.1961 24.1641 23.6886 23.9024 23.6886 23.2881C23.6886 22.9345 23.5483 22.6717 21.7487 22.4956C20.2435 22.347 19.3134 22.0154 19.3134 20.8116C19.3134 19.7026 20.249 19.0422 21.8161 19.0422C23.5758 19.0422 24.4481 19.6531 24.5582 20.9657C24.5623 21.0111 24.5458 21.0551 24.5155 21.0881C24.4853 21.1198 24.4426 21.139 24.3986 21.139H23.6845C23.6102 21.139 23.5456 21.0867 23.5304 21.0152C23.3584 20.2544 22.9429 20.0108 21.8134 20.0108C20.5489 20.0108 20.4017 20.4511 20.4017 20.7813C20.4017 21.1817 20.5751 21.2986 22.2811 21.5243C23.9707 21.7485 24.7728 22.065 24.7728 23.2523C24.7728 24.4493 23.7739 25.1359 22.0321 25.1359L22.0401 25.1294Z" fill="#4ECF42"/>
<path d="M37.5178 29V14.88H39.7178L40.6578 17.7V29H37.5178ZM47.2578 29L38.9378 18.34L39.7178 14.88L48.0378 25.54L47.2578 29ZM47.2578 29L46.4178 26.18V14.88H49.5578V29H47.2578ZM56.0312 29.22C55.0312 29.22 54.1246 29 53.3112 28.56C52.5112 28.1067 51.8779 27.4933 51.4112 26.72C50.9446 25.9467 50.7112 25.08 50.7112 24.12C50.7112 23.16 50.9446 22.3 51.4112 21.54C51.8779 20.78 52.5112 20.18 53.3112 19.74C54.1112 19.2867 55.0179 19.06 56.0312 19.06C57.0446 19.06 57.9512 19.28 58.7512 19.72C59.5512 20.16 60.1846 20.7667 60.6512 21.54C61.1179 22.3 61.3512 23.16 61.3512 24.12C61.3512 25.08 61.1179 25.9467 60.6512 26.72C60.1846 27.4933 59.5512 28.1067 58.7512 28.56C57.9512 29 57.0446 29.22 56.0312 29.22ZM56.0312 26.44C56.4712 26.44 56.8579 26.3467 57.1912 26.16C57.5246 25.96 57.7779 25.6867 57.9512 25.34C58.1379 24.98 58.2312 24.5733 58.2312 24.12C58.2312 23.6667 58.1379 23.2733 57.9512 22.94C57.7646 22.5933 57.5046 22.3267 57.1712 22.14C56.8512 21.94 56.4712 21.84 56.0312 21.84C55.6046 21.84 55.2246 21.94 54.8912 22.14C54.5579 22.3267 54.2979 22.5933 54.1112 22.94C53.9246 23.2867 53.8312 23.6867 53.8312 24.14C53.8312 24.58 53.9246 24.98 54.1112 25.34C54.2979 25.6867 54.5579 25.96 54.8912 26.16C55.2246 26.3467 55.6046 26.44 56.0312 26.44ZM66.3625 29.2C65.4425 29.2 64.6225 28.98 63.9025 28.54C63.1958 28.1 62.6358 27.5 62.2225 26.74C61.8225 25.98 61.6225 25.1133 61.6225 24.14C61.6225 23.1667 61.8225 22.3 62.2225 21.54C62.6358 20.78 63.1958 20.18 63.9025 19.74C64.6225 19.3 65.4425 19.08 66.3625 19.08C67.0292 19.08 67.6292 19.2067 68.1625 19.46C68.7092 19.7133 69.1558 20.0667 69.5025 20.52C69.8625 20.96 70.0625 21.4667 70.1025 22.04V26.14C70.0625 26.7133 69.8692 27.2333 69.5225 27.7C69.1758 28.1533 68.7292 28.52 68.1825 28.8C67.6358 29.0667 67.0292 29.2 66.3625 29.2ZM66.9025 26.44C67.3425 26.44 67.7225 26.3467 68.0425 26.16C68.3625 25.96 68.6158 25.6867 68.8025 25.34C68.9892 24.9933 69.0825 24.5933 69.0825 24.14C69.0825 23.6867 68.9892 23.2933 68.8025 22.96C68.6292 22.6133 68.3758 22.34 68.0425 22.14C67.7225 21.94 67.3492 21.84 66.9225 21.84C66.4958 21.84 66.1158 21.94 65.7825 22.14C65.4625 22.34 65.2025 22.6133 65.0025 22.96C64.8158 23.3067 64.7225 23.7 64.7225 24.14C64.7225 24.58 64.8158 24.9733 65.0025 25.32C65.1892 25.6667 65.4492 25.94 65.7825 26.14C66.1158 26.34 66.4892 26.44 66.9025 26.44ZM71.9625 29H68.9625V26.38L69.4225 24.02L68.9025 21.66V14.48H71.9625V29ZM78.2649 29.22C77.2115 29.22 76.2715 29.0067 75.4449 28.58C74.6315 28.14 73.9915 27.5333 73.5249 26.76C73.0582 25.9867 72.8249 25.1133 72.8249 24.14C72.8249 23.1667 73.0515 22.3 73.5049 21.54C73.9715 20.7667 74.5982 20.16 75.3849 19.72C76.1715 19.28 77.0582 19.06 78.0449 19.06C79.0049 19.06 79.8515 19.2667 80.5849 19.68C81.3182 20.0933 81.8915 20.6667 82.3049 21.4C82.7315 22.1333 82.9449 22.9733 82.9449 23.92C82.9449 24.0933 82.9315 24.28 82.9049 24.48C82.8915 24.6667 82.8582 24.8867 82.8049 25.14L74.4249 25.16V23.06L81.5049 23.04L80.1849 23.92C80.1715 23.36 80.0849 22.9 79.9249 22.54C79.7649 22.1667 79.5249 21.8867 79.2049 21.7C78.8982 21.5 78.5182 21.4 78.0649 21.4C77.5849 21.4 77.1649 21.5133 76.8049 21.74C76.4582 21.9533 76.1849 22.26 75.9849 22.66C75.7982 23.06 75.7049 23.5467 75.7049 24.12C75.7049 24.6933 75.8049 25.1867 76.0049 25.6C76.2182 26 76.5115 26.3133 76.8849 26.54C77.2715 26.7533 77.7249 26.86 78.2449 26.86C78.7249 26.86 79.1582 26.78 79.5449 26.62C79.9315 26.4467 80.2715 26.1933 80.5649 25.86L82.2449 27.54C81.7649 28.1 81.1849 28.52 80.5049 28.8C79.8249 29.08 79.0782 29.22 78.2649 29.22ZM86.9897 29.22C86.0964 29.22 85.3164 29.06 84.6497 28.74C83.9964 28.4067 83.4364 27.9467 82.9697 27.36L85.0697 25.34C85.3097 25.6733 85.5897 25.9267 85.9097 26.1C86.243 26.2733 86.6164 26.36 87.0297 26.36C87.4297 26.36 87.7764 26.28 88.0697 26.12C88.363 25.9467 88.5964 25.7067 88.7697 25.4C88.943 25.08 89.0297 24.6867 89.0297 24.22V14.88H92.1897V24.04C92.1897 25.0933 91.9764 26.0067 91.5497 26.78C91.123 27.5533 90.523 28.1533 89.7497 28.58C88.9764 29.0067 88.0564 29.22 86.9897 29.22ZM97.3021 29.24C96.7287 29.24 96.1621 29.1667 95.6021 29.02C95.0554 28.8733 94.5421 28.6667 94.0621 28.4C93.5954 28.12 93.1954 27.8 92.8621 27.44L94.6021 25.68C94.9221 26.0267 95.3021 26.3 95.7421 26.5C96.1821 26.6867 96.6621 26.78 97.1821 26.78C97.5421 26.78 97.8154 26.7267 98.0021 26.62C98.2021 26.5133 98.3021 26.3667 98.3021 26.18C98.3021 25.94 98.1821 25.76 97.9421 25.64C97.7154 25.5067 97.4221 25.3933 97.0621 25.3C96.7021 25.1933 96.3221 25.08 95.9221 24.96C95.5221 24.84 95.1421 24.6733 94.7821 24.46C94.4221 24.2467 94.1287 23.9533 93.9021 23.58C93.6754 23.1933 93.5621 22.7067 93.5621 22.12C93.5621 21.4933 93.7221 20.9533 94.0421 20.5C94.3621 20.0333 94.8154 19.6667 95.4021 19.4C95.9887 19.1333 96.6754 19 97.4621 19C98.2887 19 99.0487 19.1467 99.7421 19.44C100.449 19.72 101.022 20.14 101.462 20.7L99.7221 22.46C99.4154 22.1 99.0687 21.8467 98.6821 21.7C98.3087 21.5533 97.9421 21.48 97.5821 21.48C97.2354 21.48 96.9754 21.5333 96.8021 21.64C96.6287 21.7333 96.5421 21.8733 96.5421 22.06C96.5421 22.26 96.6554 22.42 96.8821 22.54C97.1087 22.66 97.4021 22.7667 97.7621 22.86C98.1221 22.9533 98.5021 23.0667 98.9021 23.2C99.3021 23.3333 99.6821 23.5133 100.042 23.74C100.402 23.9667 100.695 24.2733 100.922 24.66C101.149 25.0333 101.262 25.5267 101.262 26.14C101.262 27.0867 100.902 27.84 100.182 28.4C99.4754 28.96 98.5154 29.24 97.3021 29.24Z" fill="white"/>
</svg>
