<svg width="140" height="44" viewBox="0 0 140 44" fill="none" xmlns="http://www.w3.org/2000/svg">
<path d="M28.5 12H15.5C13.567 12 12 13.567 12 15.5V28.5C12 30.433 13.567 32 15.5 32H28.5C30.433 32 32 30.433 32 28.5V15.5C32 13.567 30.433 12 28.5 12Z" fill="#001E36"/>
<path d="M16.8887 26.1795V17.7169C16.8887 17.6563 16.919 17.6261 16.9797 17.6261C17.6383 17.6088 18.4746 17.6001 19.4885 17.6001C20.6845 17.6001 21.5598 17.8683 22.1144 18.4048C22.6777 18.9413 22.9594 19.6032 22.9594 20.3907C22.9594 21.3684 22.6127 22.0953 21.9194 22.5712C21.2261 23.0471 20.3552 23.2851 19.3065 23.2851H18.5396V26.1665C18.5396 26.2357 18.5049 26.2703 18.4356 26.2703H16.9927C16.9233 26.2703 16.8887 26.24 16.8887 26.1795ZM18.5396 18.8461V22.039C18.6609 22.0563 18.9426 22.065 19.3845 22.065C19.9652 22.065 20.4332 21.9395 20.7885 21.6886C21.1524 21.429 21.3344 21.0093 21.3344 20.4296C21.3344 19.9191 21.1741 19.5254 20.8535 19.2485C20.5415 18.9716 20.0865 18.8331 19.4885 18.8331C19.3412 18.8331 19.1939 18.8375 19.0466 18.8461C18.9079 18.8461 18.7909 18.8461 18.6956 18.8461C18.6089 18.8461 18.5569 18.8461 18.5396 18.8461Z" fill="#31A8FE"/>
<path d="M27.4947 21.442C27.0094 21.1391 26.5024 20.9877 25.9738 20.9877C25.6705 20.9877 25.4451 21.044 25.2978 21.1564C25.1591 21.2689 25.0898 21.403 25.0898 21.5588C25.0898 21.7146 25.1505 21.853 25.2718 21.9741C25.3931 22.0866 25.6488 22.2207 26.0388 22.3765C26.7581 22.6534 27.2607 22.9476 27.5467 23.2591C27.8413 23.5619 27.9887 23.9557 27.9887 24.4402C27.9887 25.0286 27.7633 25.5045 27.3127 25.8679C26.8707 26.2227 26.2684 26.4001 25.5058 26.4001C24.7432 26.4001 24.1192 26.2617 23.6339 25.9848C23.5819 25.9675 23.5559 25.9242 23.5559 25.855V24.6479C23.5559 24.6133 23.5646 24.5916 23.5819 24.583C23.6079 24.5657 23.6296 24.5657 23.6469 24.583C24.2102 24.9983 24.8125 25.206 25.4538 25.206C25.7571 25.206 25.9868 25.1541 26.1428 25.0502C26.3074 24.9378 26.3898 24.795 26.3898 24.6219C26.3898 24.4402 26.3248 24.2888 26.1948 24.1677C26.0648 24.0379 25.8091 23.8994 25.4278 23.7523C24.7345 23.4841 24.2492 23.1985 23.9719 22.8957C23.7032 22.5842 23.5689 22.1948 23.5689 21.7275C23.5689 21.1911 23.7726 20.7411 24.1799 20.3777C24.5872 20.0143 25.1678 19.8325 25.9218 19.8325C26.6237 19.8325 27.1654 19.9277 27.5467 20.1181C27.59 20.1441 27.6117 20.2003 27.6117 20.2868V21.3641C27.6117 21.4679 27.5727 21.4939 27.4947 21.442Z" fill="#31A8FE"/>
<path d="M40.0328 23.86V21.42H43.0728C43.4594 21.42 43.8128 21.34 44.1328 21.18C44.4528 21.02 44.7061 20.7867 44.8928 20.48C45.0794 20.1733 45.1728 19.8 45.1728 19.36C45.1728 18.9333 45.0794 18.5667 44.8928 18.26C44.7061 17.9533 44.4528 17.72 44.1328 17.56C43.8128 17.4 43.4594 17.32 43.0728 17.32H40.0328V14.88H43.5328C44.4261 14.88 45.2328 15.06 45.9528 15.42C46.6728 15.78 47.2394 16.3 47.6528 16.98C48.0794 17.6467 48.2928 18.44 48.2928 19.36C48.2928 20.28 48.0794 21.08 47.6528 21.76C47.2394 22.4267 46.6728 22.9467 45.9528 23.32C45.2328 23.68 44.4261 23.86 43.5328 23.86H40.0328ZM37.6328 29V14.88H40.7728V29H37.6328ZM55.6792 29V23.46C55.6792 22.9533 55.5192 22.5467 55.1992 22.24C54.8925 21.92 54.4992 21.76 54.0192 21.76C53.6858 21.76 53.3925 21.8333 53.1392 21.98C52.8858 22.1133 52.6858 22.3133 52.5392 22.58C52.3925 22.8333 52.3192 23.1267 52.3192 23.46L51.1392 22.88C51.1392 22.12 51.2992 21.4533 51.6192 20.88C51.9392 20.3067 52.3858 19.8667 52.9592 19.56C53.5325 19.24 54.1925 19.08 54.9392 19.08C55.6992 19.08 56.3658 19.24 56.9392 19.56C57.5125 19.8667 57.9525 20.3 58.2592 20.86C58.5792 21.4067 58.7392 22.0467 58.7392 22.78V29H55.6792ZM49.2592 29V14.48H52.3192V29H49.2592ZM64.7323 29.22C63.7323 29.22 62.8257 29 62.0123 28.56C61.2123 28.1067 60.579 27.4933 60.1123 26.72C59.6457 25.9467 59.4123 25.08 59.4123 24.12C59.4123 23.16 59.6457 22.3 60.1123 21.54C60.579 20.78 61.2123 20.18 62.0123 19.74C62.8123 19.2867 63.719 19.06 64.7323 19.06C65.7457 19.06 66.6523 19.28 67.4523 19.72C68.2523 20.16 68.8857 20.7667 69.3523 21.54C69.819 22.3 70.0523 23.16 70.0523 24.12C70.0523 25.08 69.819 25.9467 69.3523 26.72C68.8857 27.4933 68.2523 28.1067 67.4523 28.56C66.6523 29 65.7457 29.22 64.7323 29.22ZM64.7323 26.44C65.1723 26.44 65.559 26.3467 65.8923 26.16C66.2257 25.96 66.479 25.6867 66.6523 25.34C66.839 24.98 66.9323 24.5733 66.9323 24.12C66.9323 23.6667 66.839 23.2733 66.6523 22.94C66.4657 22.5933 66.2057 22.3267 65.8723 22.14C65.5523 21.94 65.1723 21.84 64.7323 21.84C64.3057 21.84 63.9257 21.94 63.5923 22.14C63.259 22.3267 62.999 22.5933 62.8123 22.94C62.6257 23.2867 62.5323 23.6867 62.5323 24.14C62.5323 24.58 62.6257 24.98 62.8123 25.34C62.999 25.6867 63.259 25.96 63.5923 26.16C63.9257 26.3467 64.3057 26.44 64.7323 26.44ZM72.1083 29V15.26H75.1683V29H72.1083ZM69.9083 21.88V19.28H77.3683V21.88H69.9083ZM82.5491 29.22C81.5491 29.22 80.6424 29 79.8291 28.56C79.0291 28.1067 78.3957 27.4933 77.9291 26.72C77.4624 25.9467 77.2291 25.08 77.2291 24.12C77.2291 23.16 77.4624 22.3 77.9291 21.54C78.3957 20.78 79.0291 20.18 79.8291 19.74C80.6291 19.2867 81.5357 19.06 82.5491 19.06C83.5624 19.06 84.4691 19.28 85.2691 19.72C86.0691 20.16 86.7024 20.7667 87.1691 21.54C87.6357 22.3 87.8691 23.16 87.8691 24.12C87.8691 25.08 87.6357 25.9467 87.1691 26.72C86.7024 27.4933 86.0691 28.1067 85.2691 28.56C84.4691 29 83.5624 29.22 82.5491 29.22ZM82.5491 26.44C82.9891 26.44 83.3757 26.3467 83.7091 26.16C84.0424 25.96 84.2957 25.6867 84.4691 25.34C84.6557 24.98 84.7491 24.5733 84.7491 24.12C84.7491 23.6667 84.6557 23.2733 84.4691 22.94C84.2824 22.5933 84.0224 22.3267 83.6891 22.14C83.3691 21.94 82.9891 21.84 82.5491 21.84C82.1224 21.84 81.7424 21.94 81.4091 22.14C81.0757 22.3267 80.8157 22.5933 80.6291 22.94C80.4424 23.2867 80.3491 23.6867 80.3491 24.14C80.3491 24.58 80.4424 24.98 80.6291 25.34C80.8157 25.6867 81.0757 25.96 81.4091 26.16C81.7424 26.3467 82.1224 26.44 82.5491 26.44ZM92.2803 29.24C91.707 29.24 91.1403 29.1667 90.5803 29.02C90.0337 28.8733 89.5203 28.6667 89.0403 28.4C88.5737 28.12 88.1737 27.8 87.8403 27.44L89.5803 25.68C89.9003 26.0267 90.2803 26.3 90.7203 26.5C91.1603 26.6867 91.6403 26.78 92.1603 26.78C92.5203 26.78 92.7937 26.7267 92.9803 26.62C93.1803 26.5133 93.2803 26.3667 93.2803 26.18C93.2803 25.94 93.1603 25.76 92.9203 25.64C92.6937 25.5067 92.4003 25.3933 92.0403 25.3C91.6803 25.1933 91.3003 25.08 90.9003 24.96C90.5003 24.84 90.1203 24.6733 89.7603 24.46C89.4003 24.2467 89.107 23.9533 88.8803 23.58C88.6537 23.1933 88.5403 22.7067 88.5403 22.12C88.5403 21.4933 88.7003 20.9533 89.0203 20.5C89.3403 20.0333 89.7937 19.6667 90.3803 19.4C90.967 19.1333 91.6537 19 92.4403 19C93.267 19 94.027 19.1467 94.7203 19.44C95.427 19.72 96.0003 20.14 96.4403 20.7L94.7003 22.46C94.3937 22.1 94.047 21.8467 93.6603 21.7C93.287 21.5533 92.9203 21.48 92.5603 21.48C92.2137 21.48 91.9537 21.5333 91.7803 21.64C91.607 21.7333 91.5203 21.8733 91.5203 22.06C91.5203 22.26 91.6337 22.42 91.8603 22.54C92.087 22.66 92.3803 22.7667 92.7403 22.86C93.1003 22.9533 93.4803 23.0667 93.8803 23.2C94.2803 23.3333 94.6603 23.5133 95.0203 23.74C95.3803 23.9667 95.6737 24.2733 95.9003 24.66C96.127 25.0333 96.2403 25.5267 96.2403 26.14C96.2403 27.0867 95.8803 27.84 95.1603 28.4C94.4537 28.96 93.4937 29.24 92.2803 29.24ZM103.668 29V23.46C103.668 22.9533 103.508 22.5467 103.188 22.24C102.882 21.92 102.488 21.76 102.008 21.76C101.675 21.76 101.382 21.8333 101.128 21.98C100.875 22.1133 100.675 22.3133 100.528 22.58C100.382 22.8333 100.308 23.1267 100.308 23.46L99.1283 22.88C99.1283 22.12 99.2883 21.4533 99.6083 20.88C99.9283 20.3067 100.375 19.8667 100.948 19.56C101.522 19.24 102.182 19.08 102.928 19.08C103.688 19.08 104.355 19.24 104.928 19.56C105.502 19.8667 105.942 20.3 106.248 20.86C106.568 21.4067 106.728 22.0467 106.728 22.78V29H103.668ZM97.2483 29V14.48H100.308V29H97.2483ZM112.721 29.22C111.721 29.22 110.815 29 110.001 28.56C109.201 28.1067 108.568 27.4933 108.101 26.72C107.635 25.9467 107.401 25.08 107.401 24.12C107.401 23.16 107.635 22.3 108.101 21.54C108.568 20.78 109.201 20.18 110.001 19.74C110.801 19.2867 111.708 19.06 112.721 19.06C113.735 19.06 114.641 19.28 115.441 19.72C116.241 20.16 116.875 20.7667 117.341 21.54C117.808 22.3 118.041 23.16 118.041 24.12C118.041 25.08 117.808 25.9467 117.341 26.72C116.875 27.4933 116.241 28.1067 115.441 28.56C114.641 29 113.735 29.22 112.721 29.22ZM112.721 26.44C113.161 26.44 113.548 26.3467 113.881 26.16C114.215 25.96 114.468 25.6867 114.641 25.34C114.828 24.98 114.921 24.5733 114.921 24.12C114.921 23.6667 114.828 23.2733 114.641 22.94C114.455 22.5933 114.195 22.3267 113.861 22.14C113.541 21.94 113.161 21.84 112.721 21.84C112.295 21.84 111.915 21.94 111.581 22.14C111.248 22.3267 110.988 22.5933 110.801 22.94C110.615 23.2867 110.521 23.6867 110.521 24.14C110.521 24.58 110.615 24.98 110.801 25.34C110.988 25.6867 111.248 25.96 111.581 26.16C111.915 26.3467 112.295 26.44 112.721 26.44ZM124.513 29.2C123.859 29.2 123.259 29.0733 122.713 28.82C122.166 28.5667 121.719 28.22 121.373 27.78C121.026 27.3267 120.826 26.8133 120.773 26.24V22.14C120.826 21.5667 121.026 21.0467 121.373 20.58C121.719 20.1133 122.166 19.7467 122.713 19.48C123.259 19.2133 123.859 19.08 124.513 19.08C125.433 19.08 126.246 19.3 126.953 19.74C127.673 20.18 128.233 20.78 128.633 21.54C129.046 22.3 129.253 23.1667 129.253 24.14C129.253 25.1133 129.046 25.98 128.633 26.74C128.233 27.5 127.673 28.1 126.953 28.54C126.246 28.98 125.433 29.2 124.513 29.2ZM118.913 33.1V19.28H121.973V21.78L121.473 24.14L121.933 26.5V33.1H118.913ZM123.953 26.44C124.393 26.44 124.773 26.34 125.093 26.14C125.426 25.94 125.686 25.6667 125.873 25.32C126.059 24.9733 126.153 24.58 126.153 24.14C126.153 23.6867 126.059 23.2867 125.873 22.94C125.686 22.5933 125.426 22.3267 125.093 22.14C124.773 21.94 124.399 21.84 123.973 21.84C123.546 21.84 123.166 21.94 122.833 22.14C122.513 22.3267 122.259 22.5933 122.073 22.94C121.886 23.2867 121.793 23.6867 121.793 24.14C121.793 24.58 121.879 24.9733 122.053 25.32C122.239 25.6667 122.499 25.94 122.833 26.14C123.166 26.34 123.539 26.44 123.953 26.44Z" fill="white"/>
</svg>
