<svg width="85" height="44" viewBox="0 0 85 44" fill="none" xmlns="http://www.w3.org/2000/svg">
<g clip-path="url(#clip0_97_919)">
<path d="M13.5417 12H26.4583C26.9236 11.9996 27.3843 12.0932 27.8142 12.2756C28.2441 12.458 28.6347 12.7255 28.9636 13.0629C29.2926 13.4003 29.5535 13.8009 29.7313 14.2419C29.9091 14.6828 30.0004 15.1553 30 15.6325V28.3675C30.0004 28.8447 29.9091 29.3172 29.7313 29.7581C29.5535 30.1991 29.2926 30.5997 28.9636 30.9371C28.6347 31.2745 28.2441 31.542 27.8142 31.7244C27.3843 31.9068 26.9236 32.0004 26.4583 32H13.5417C13.0764 32.0004 12.6157 31.9068 12.1858 31.7244C11.7559 31.542 11.3653 31.2745 11.0364 30.9371C10.7074 30.5997 10.4465 30.1991 10.2687 29.7581C10.0909 29.3172 9.99956 28.8447 10 28.3675V15.6325C9.99956 15.1553 10.0909 14.6828 10.2687 14.2419C10.4465 13.8009 10.7074 13.4003 11.0364 13.0629C11.3653 12.7255 11.7559 12.458 12.1858 12.2756C12.6157 12.0932 13.0764 11.9996 13.5417 12V12Z" fill="#777BB3"/>
<path d="M14.7174 23.1687C15.2037 23.1687 15.5667 23.079 15.7964 22.9022C16.0237 22.7272 16.1806 22.4241 16.2629 22.0013C16.3396 21.606 16.3104 21.33 16.1761 21.1811C16.0387 21.029 15.7419 20.9518 15.2937 20.9518H14.5165L14.0857 23.1687H14.7174ZM12.1756 25.8994C12.1395 25.8994 12.1052 25.8833 12.0823 25.8554C12.0593 25.8275 12.05 25.7909 12.0569 25.7554L13.1987 19.8808C13.2097 19.824 13.2595 19.783 13.3174 19.783H15.7783C16.5516 19.783 17.1273 19.993 17.4891 20.4072C17.8529 20.8236 17.9652 21.4056 17.823 22.1372C17.7651 22.4352 17.6655 22.712 17.5271 22.9598C17.3885 23.2079 17.2053 23.4374 16.9825 23.6422C16.7159 23.8917 16.414 24.0727 16.0863 24.1792C15.7637 24.2843 15.3494 24.3376 14.855 24.3376H13.8586L13.574 25.8016C13.5629 25.8584 13.5132 25.8994 13.4553 25.8994H12.1756Z" fill="black"/>
<path d="M14.616 21.0727H15.2935C15.8344 21.0727 16.0223 21.1914 16.0862 21.2621C16.1921 21.3796 16.2121 21.6272 16.144 21.9782C16.0675 22.3712 15.9257 22.6499 15.7225 22.8063C15.5144 22.9665 15.1762 23.0477 14.7172 23.0477H14.2322L14.616 21.0727ZM15.7781 19.662H13.3172C13.2014 19.662 13.1019 19.744 13.0798 19.8577L11.938 25.7323C11.9243 25.8032 11.9429 25.8765 11.9888 25.9323C12.0347 25.988 12.1032 26.0203 12.1754 26.0203H13.4551C13.5709 26.0203 13.6704 25.9382 13.6925 25.8246L13.9581 24.4584H14.8548C15.362 24.4584 15.7889 24.4031 16.1236 24.2941C16.4679 24.1822 16.7846 23.9926 17.0649 23.7304C17.2968 23.5171 17.4877 23.2777 17.6324 23.0188C17.7772 22.7597 17.8812 22.4708 17.9415 22.1602C18.0912 21.3901 17.9696 20.7735 17.58 20.3276C17.1942 19.8859 16.5879 19.662 15.7781 19.662ZM13.9388 23.2895H14.7172C15.2332 23.2895 15.6175 23.1923 15.87 22.998C16.1226 22.8035 16.2929 22.479 16.3814 22.0243C16.4661 21.5877 16.4275 21.2796 16.2657 21.1001C16.1037 20.9206 15.7797 20.8309 15.2935 20.8309H14.4167L13.9388 23.2895V23.2895ZM15.7781 19.9038C16.5184 19.9038 17.0584 20.0981 17.3979 20.4867C17.7373 20.8753 17.8395 21.4177 17.7041 22.114C17.6484 22.4009 17.5541 22.6632 17.4214 22.9008C17.2885 23.1385 17.115 23.356 16.9005 23.5531C16.645 23.7922 16.3611 23.9626 16.0487 24.0641C15.7364 24.1659 15.3385 24.2166 14.8548 24.2166H13.7587L13.4551 25.7784H12.1754L13.3172 19.9038H15.7781" fill="white"/>
<path d="M20.7567 24.3374C20.7206 24.3374 20.6863 24.3213 20.6634 24.2934C20.6404 24.2655 20.6311 24.2289 20.638 24.1934L21.143 21.5941C21.1911 21.3469 21.1792 21.1695 21.1097 21.0945C21.0672 21.0487 20.9393 20.9718 20.5613 20.9718H19.6462L19.0112 24.2395C19.0002 24.2964 18.9504 24.3374 18.8925 24.3374H17.6229C17.5868 24.3374 17.5525 24.3213 17.5296 24.2934C17.5066 24.2655 17.4973 24.2289 17.5042 24.1934L18.646 18.3188C18.657 18.262 18.7068 18.221 18.7647 18.221H20.0343C20.0704 18.221 20.1046 18.2371 20.1276 18.2649C20.1506 18.2928 20.1599 18.3295 20.153 18.3649L19.8775 19.7828H20.8618C21.6117 19.7828 22.1202 19.915 22.4164 20.187C22.7183 20.4645 22.8125 20.9081 22.6964 21.5058L22.1652 24.2395C22.1541 24.2964 22.1044 24.3374 22.0465 24.3374H20.7567Z" fill="black"/>
<path d="M20.0341 18.1002H18.7645C18.6487 18.1002 18.5492 18.1823 18.5271 18.2959L17.3853 24.1705C17.3715 24.2414 17.3901 24.3148 17.4361 24.3705C17.482 24.4263 17.5505 24.4585 17.6227 24.4585H18.8924C19.0081 24.4585 19.1077 24.3764 19.1298 24.2628L19.7458 21.0929H20.5611C20.9385 21.0929 21.0177 21.1736 21.0209 21.177C21.0438 21.2016 21.0739 21.3157 21.0242 21.5713L20.5191 24.1705C20.5053 24.2414 20.5239 24.3148 20.5699 24.3705C20.6158 24.4263 20.6843 24.4585 20.7565 24.4585H22.0463C22.1621 24.4585 22.2616 24.3764 22.2837 24.2628L22.8149 21.5291C22.9396 20.8873 22.8329 20.406 22.4981 20.0982C22.1785 19.8047 21.6432 19.6621 20.8617 19.6621H20.0239L20.2715 18.3882C20.2853 18.3173 20.2667 18.2439 20.2208 18.1882C20.1748 18.1325 20.1064 18.1002 20.0341 18.1002ZM20.0341 18.342L19.7306 19.9039H20.8617C21.5734 19.9039 22.0642 20.0281 22.3344 20.2763C22.6046 20.5245 22.6855 20.9268 22.5775 21.4829L22.0463 24.2167H20.7565L21.2616 21.6174C21.3191 21.3217 21.2979 21.12 21.1981 21.0125C21.0983 20.905 20.8859 20.8511 20.5611 20.8511H19.5464L18.8924 24.2167H17.6227L18.7645 18.342H20.0341Z" fill="white"/>
<path d="M24.7057 23.1687C25.192 23.1687 25.555 23.079 25.7847 22.9022C26.012 22.7273 26.1689 22.4241 26.2512 22.0013C26.3279 21.606 26.2987 21.33 26.1643 21.1811C26.027 21.029 25.7301 20.9518 25.2819 20.9518H24.5048L24.074 23.1687H24.7057ZM22.1639 25.8994C22.1278 25.8994 22.0936 25.8833 22.0706 25.8554C22.0476 25.8275 22.0383 25.7909 22.0452 25.7554L23.187 19.8808C23.1981 19.824 23.2478 19.783 23.3057 19.783H25.7665C26.54 19.783 27.1156 19.993 27.4774 20.4072C27.8412 20.8235 27.9535 21.4056 27.8113 22.1372C27.7533 22.4352 27.6538 22.712 27.5154 22.9598C27.3768 23.2079 27.1936 23.4374 26.9708 23.6422C26.7041 23.8917 26.4023 24.0727 26.0745 24.1792C25.752 24.2843 25.3377 24.3376 24.8433 24.3376H23.8468L23.5623 25.8016C23.5513 25.8584 23.5015 25.8994 23.4436 25.8994H22.1639Z" fill="black"/>
<path d="M24.6043 21.0727H25.2817C25.8227 21.0727 26.0106 21.1914 26.0744 21.2621C26.1804 21.3796 26.2004 21.6272 26.1323 21.9782C26.0558 22.3712 25.9139 22.6499 25.7107 22.8063C25.5027 22.9665 25.1644 23.0477 24.7055 23.0477H24.2205L24.6043 21.0727ZM25.7663 19.662H23.3055C23.1897 19.662 23.0902 19.744 23.0681 19.8577L21.9263 25.7323C21.9125 25.8032 21.9312 25.8765 21.9771 25.9323C22.023 25.988 22.0915 26.0203 22.1637 26.0203H23.4434C23.5592 26.0203 23.6587 25.9382 23.6808 25.8246L23.9463 24.4584H24.8431C25.3502 24.4584 25.7771 24.4031 26.1119 24.2941C26.4561 24.1822 26.7729 23.9925 27.0533 23.7304C27.2851 23.5171 27.476 23.2777 27.6207 23.0188C27.7654 22.7597 27.8694 22.4708 27.9298 22.1602C28.0795 21.3901 27.9578 20.7735 27.5682 20.3276C27.1824 19.8859 26.5762 19.662 25.7663 19.662ZM23.9271 23.2895H24.7055C25.2214 23.2895 25.6057 23.1923 25.8583 22.998C26.1109 22.8035 26.2812 22.479 26.3697 22.0243C26.4544 21.5877 26.4158 21.2796 26.2539 21.1001C26.0919 20.9206 25.7679 20.8309 25.2817 20.8309H24.4049L23.9271 23.2895ZM25.7663 19.9038C26.5066 19.9038 27.0467 20.0981 27.3861 20.4867C27.7256 20.8753 27.8278 21.4177 27.6923 22.114C27.6366 22.4009 27.5423 22.6632 27.4096 22.9008C27.2767 23.1385 27.1032 23.356 26.8888 23.5531C26.6332 23.7922 26.3494 23.9626 26.037 24.0641C25.7246 24.1659 25.3267 24.2166 24.8431 24.2166H23.7469L23.4434 25.7784H22.1637L23.3055 19.9038H25.7663" fill="white"/>
</g>
<path d="M40.1173 23.86V21.42H43.1573C43.5439 21.42 43.8973 21.34 44.2173 21.18C44.5373 21.02 44.7906 20.7867 44.9773 20.48C45.1639 20.1733 45.2573 19.8 45.2573 19.36C45.2573 18.9333 45.1639 18.5667 44.9773 18.26C44.7906 17.9533 44.5373 17.72 44.2173 17.56C43.8973 17.4 43.5439 17.32 43.1573 17.32H40.1173V14.88H43.6173C44.5106 14.88 45.3173 15.06 46.0373 15.42C46.7573 15.78 47.3239 16.3 47.7373 16.98C48.1639 17.6467 48.3773 18.44 48.3773 19.36C48.3773 20.28 48.1639 21.08 47.7373 21.76C47.3239 22.4267 46.7573 22.9467 46.0373 23.32C45.3173 23.68 44.5106 23.86 43.6173 23.86H40.1173ZM37.7173 29V14.88H40.8573V29H37.7173ZM49.487 29V14.88H52.627V29H49.487ZM58.227 29V14.88H61.387V29H58.227ZM51.367 23.1V20.38H59.267V23.1H51.367ZM65.8442 23.86V21.42H68.8842C69.2708 21.42 69.6242 21.34 69.9442 21.18C70.2642 21.02 70.5175 20.7867 70.7042 20.48C70.8908 20.1733 70.9842 19.8 70.9842 19.36C70.9842 18.9333 70.8908 18.5667 70.7042 18.26C70.5175 17.9533 70.2642 17.72 69.9442 17.56C69.6242 17.4 69.2708 17.32 68.8842 17.32H65.8442V14.88H69.3442C70.2375 14.88 71.0442 15.06 71.7642 15.42C72.4842 15.78 73.0508 16.3 73.4642 16.98C73.8908 17.6467 74.1042 18.44 74.1042 19.36C74.1042 20.28 73.8908 21.08 73.4642 21.76C73.0508 22.4267 72.4842 22.9467 71.7642 23.32C71.0442 23.68 70.2375 23.86 69.3442 23.86H65.8442ZM63.4442 29V14.88H66.5842V29H63.4442Z" fill="white"/>
<defs>
<clipPath id="clip0_97_919">
<rect x="10" y="12" width="20" height="20" rx="4" fill="white"/>
</clipPath>
</defs>
</svg>
