<svg width="109" height="44" viewBox="0 0 109 44" fill="none" xmlns="http://www.w3.org/2000/svg">
<g clip-path="url(#clip0_97_897)">
<path d="M13.5417 12H26.4583C26.9236 11.9996 27.3843 12.0932 27.8142 12.2756C28.2441 12.458 28.6347 12.7255 28.9636 13.0629C29.2926 13.4003 29.5535 13.8009 29.7313 14.2419C29.9091 14.6828 30.0004 15.1553 30 15.6325V28.3675C30.0004 28.8447 29.9091 29.3172 29.7313 29.7581C29.5535 30.1991 29.2926 30.5997 28.9636 30.9371C28.6347 31.2745 28.2441 31.542 27.8142 31.7244C27.3843 31.9068 26.9236 32.0004 26.4583 32H13.5417C13.0764 32.0004 12.6157 31.9068 12.1858 31.7244C11.7559 31.542 11.3653 31.2745 11.0364 30.9371C10.7074 30.5997 10.4465 30.1991 10.2687 29.7581C10.0909 29.3172 9.99956 28.8447 10 28.3675V15.6325C9.99956 15.1553 10.0909 14.6828 10.2687 14.2419C10.4465 13.8009 10.7074 13.4003 11.0364 13.0629C11.3653 12.7255 11.7559 12.458 12.1858 12.2756C12.6157 12.0932 13.0764 11.9996 13.5417 12V12Z" fill="#000B1D"/>
<path d="M19.972 15.3C16.5053 15.3 16.7218 16.8034 16.7218 16.8034L16.7257 18.3609H20.0338V18.8285H15.4117C15.4117 18.8285 13.1934 18.5769 13.1934 22.0748C13.1934 25.5727 15.1296 25.4487 15.1296 25.4487H16.2851V23.8255C16.2851 23.8255 16.2228 21.8893 18.1904 21.8893C20.1579 21.8893 21.4715 21.8893 21.4715 21.8893C21.4715 21.8893 23.3149 21.9191 23.3149 20.1077C23.3149 18.2963 23.3149 17.1126 23.3149 17.1126C23.3149 17.1126 23.5948 15.3 19.972 15.3ZM18.1479 16.3474C18.477 16.3474 18.743 16.6134 18.743 16.9425C18.743 17.2717 18.477 17.5377 18.1479 17.5377C17.8187 17.5377 17.5527 17.2717 17.5527 16.9425C17.5527 16.6134 17.8187 16.3474 18.1479 16.3474Z" fill="url(#paint0_linear_97_897)"/>
<path d="M20.0706 28.8848C23.5373 28.8848 23.3208 27.3814 23.3208 27.3814L23.3169 25.8239H20.0088V25.3563H24.6309C24.6309 25.3563 26.8492 25.6079 26.8492 22.11C26.8492 18.6121 24.913 18.7361 24.913 18.7361H23.7575V20.3593C23.7575 20.3593 23.8198 22.2955 21.8522 22.2955C19.8847 22.2955 18.5711 22.2955 18.5711 22.2955C18.5711 22.2955 16.7277 22.2657 16.7277 24.0771C16.7277 25.8885 16.7277 27.0722 16.7277 27.0722C16.7277 27.0722 16.4478 28.8848 20.0706 28.8848ZM21.8947 27.8374C21.5656 27.8374 21.2996 27.5714 21.2996 27.2423C21.2996 26.9131 21.5656 26.6471 21.8947 26.6471C22.2239 26.6471 22.4899 26.9131 22.4899 27.2423C22.4899 27.5714 22.2239 27.8374 21.8947 27.8374Z" fill="url(#paint1_linear_97_897)"/>
</g>
<path d="M40.1463 23.86V21.42H43.1863C43.573 21.42 43.9263 21.34 44.2463 21.18C44.5663 21.02 44.8196 20.7867 45.0063 20.48C45.193 20.1733 45.2863 19.8 45.2863 19.36C45.2863 18.9333 45.193 18.5667 45.0063 18.26C44.8196 17.9533 44.5663 17.72 44.2463 17.56C43.9263 17.4 43.573 17.32 43.1863 17.32H40.1463V14.88H43.6463C44.5396 14.88 45.3463 15.06 46.0663 15.42C46.7863 15.78 47.353 16.3 47.7663 16.98C48.193 17.6467 48.4063 18.44 48.4063 19.36C48.4063 20.28 48.193 21.08 47.7663 21.76C47.353 22.4267 46.7863 22.9467 46.0663 23.32C45.3463 23.68 44.5396 23.86 43.6463 23.86H40.1463ZM37.7463 29V14.88H40.8863V29H37.7463ZM52.3727 29.04L48.3727 19.28H51.6727L54.2127 27.02H52.9927L55.5927 19.28H58.8927L54.7327 29.04H52.3727ZM49.8727 33.1L52.7927 26.8L54.7327 29.04L53.0127 33.1H49.8727ZM60.6279 29V15.26H63.6879V29H60.6279ZM58.4279 21.88V19.28H65.8879V21.88H58.4279ZM73.004 29V23.46C73.004 22.9533 72.844 22.5467 72.524 22.24C72.2173 21.92 71.824 21.76 71.344 21.76C71.0107 21.76 70.7173 21.8333 70.464 21.98C70.2107 22.1133 70.0107 22.3133 69.864 22.58C69.7173 22.8333 69.644 23.1267 69.644 23.46L68.464 22.88C68.464 22.12 68.624 21.4533 68.944 20.88C69.264 20.3067 69.7107 19.8667 70.284 19.56C70.8573 19.24 71.5173 19.08 72.264 19.08C73.024 19.08 73.6907 19.24 74.264 19.56C74.8373 19.8667 75.2773 20.3 75.584 20.86C75.904 21.4067 76.064 22.0467 76.064 22.78V29H73.004ZM66.584 29V14.48H69.644V29H66.584ZM82.0571 29.22C81.0571 29.22 80.1505 29 79.3371 28.56C78.5371 28.1067 77.9038 27.4933 77.4371 26.72C76.9705 25.9467 76.7371 25.08 76.7371 24.12C76.7371 23.16 76.9705 22.3 77.4371 21.54C77.9038 20.78 78.5371 20.18 79.3371 19.74C80.1371 19.2867 81.0438 19.06 82.0571 19.06C83.0705 19.06 83.9771 19.28 84.7771 19.72C85.5771 20.16 86.2105 20.7667 86.6771 21.54C87.1438 22.3 87.3771 23.16 87.3771 24.12C87.3771 25.08 87.1438 25.9467 86.6771 26.72C86.2105 27.4933 85.5771 28.1067 84.7771 28.56C83.9771 29 83.0705 29.22 82.0571 29.22ZM82.0571 26.44C82.4971 26.44 82.8838 26.3467 83.2171 26.16C83.5505 25.96 83.8038 25.6867 83.9771 25.34C84.1638 24.98 84.2571 24.5733 84.2571 24.12C84.2571 23.6667 84.1638 23.2733 83.9771 22.94C83.7905 22.5933 83.5305 22.3267 83.1971 22.14C82.8771 21.94 82.4971 21.84 82.0571 21.84C81.6305 21.84 81.2505 21.94 80.9171 22.14C80.5838 22.3267 80.3238 22.5933 80.1371 22.94C79.9505 23.2867 79.8571 23.6867 79.8571 24.14C79.8571 24.58 79.9505 24.98 80.1371 25.34C80.3238 25.6867 80.5838 25.96 80.9171 26.16C81.2505 26.3467 81.6305 26.44 82.0571 26.44ZM94.6684 29V23.46C94.6684 22.9533 94.5084 22.5467 94.1884 22.24C93.8817 21.92 93.4884 21.76 93.0084 21.76C92.6751 21.76 92.3817 21.8333 92.1284 21.98C91.8751 22.1133 91.6751 22.3133 91.5284 22.58C91.3817 22.8333 91.3084 23.1267 91.3084 23.46L90.1284 22.88C90.1284 22.12 90.2951 21.4533 90.6284 20.88C90.9617 20.3067 91.4217 19.8667 92.0084 19.56C92.6084 19.24 93.2817 19.08 94.0284 19.08C94.7484 19.08 95.3817 19.2533 95.9284 19.6C96.4884 19.9333 96.9284 20.38 97.2484 20.94C97.5684 21.5 97.7284 22.1133 97.7284 22.78V29H94.6684ZM88.2484 29V19.28H91.3084V29H88.2484Z" fill="white"/>
<defs>
<linearGradient id="paint0_linear_97_897" x1="14.5057" y1="16.4875" x2="21.2581" y2="23.2624" gradientUnits="userSpaceOnUse">
<stop stop-color="#387EB8"/>
<stop offset="1" stop-color="#366994"/>
</linearGradient>
<linearGradient id="paint1_linear_97_897" x1="18.6596" y1="20.7975" x2="25.9117" y2="27.7453" gradientUnits="userSpaceOnUse">
<stop stop-color="#FFE052"/>
<stop offset="1" stop-color="#FFC331"/>
</linearGradient>
<clipPath id="clip0_97_897">
<rect x="10" y="12" width="20" height="20" rx="4" fill="white"/>
</clipPath>
</defs>
</svg>
