<svg width="158" height="44" viewBox="0 0 158 44" fill="none" xmlns="http://www.w3.org/2000/svg">
<g clip-path="url(#clip0_97_874)">
<path d="M13.5417 12H26.4583C26.9236 11.9996 27.3843 12.0932 27.8142 12.2756C28.2441 12.458 28.6347 12.7255 28.9636 13.0629C29.2926 13.4003 29.5535 13.8009 29.7313 14.2419C29.9091 14.6828 30.0004 15.1553 30 15.6325V28.3675C30.0004 28.8447 29.9091 29.3172 29.7313 29.7581C29.5535 30.1991 29.2926 30.5997 28.9636 30.9371C28.6347 31.2745 28.2441 31.542 27.8142 31.7244C27.3843 31.9068 26.9236 32.0004 26.4583 32H13.5417C13.0764 32.0004 12.6157 31.9068 12.1858 31.7244C11.7559 31.542 11.3653 31.2745 11.0364 30.9371C10.7074 30.5997 10.4465 30.1991 10.2687 29.7581C10.0909 29.3172 9.99956 28.8447 10 28.3675V15.6325C9.99956 15.1553 10.0909 14.6828 10.2687 14.2419C10.4465 13.8009 10.7074 13.4003 11.0364 13.0629C11.3653 12.7255 11.7559 12.458 12.1858 12.2756C12.6157 12.0932 13.0764 11.9996 13.5417 12V12Z" fill="white"/>
<g clip-path="url(#clip1_97_874)">
<path d="M20.3904 23.3225C21.1584 23.3225 21.7809 22.7081 21.7809 21.9501C21.7809 21.1921 21.1584 20.5776 20.3904 20.5776C19.6225 20.5776 19 21.1921 19 21.9501C19 22.7081 19.6225 23.3225 20.3904 23.3225Z" fill="#61DAFB"/>
<path fill-rule="evenodd" clip-rule="evenodd" d="M13.7326 21.0936C13.3952 21.3942 13.2535 21.6842 13.2535 21.95C13.2535 22.2159 13.3952 22.5058 13.7326 22.8064C14.0699 23.107 14.5763 23.3924 15.2297 23.6386C16.5342 24.1302 18.3584 24.4411 20.3894 24.4411C22.4204 24.4411 24.2446 24.1302 25.5491 23.6386C26.2025 23.3924 26.7088 23.107 27.0462 22.8064C27.3835 22.5058 27.5253 22.2159 27.5253 21.95C27.5253 21.6842 27.3835 21.3942 27.0462 21.0936C26.7088 20.7931 26.2025 20.5077 25.5491 20.2614C24.2446 19.7698 22.4204 19.459 20.3894 19.459C18.3584 19.459 16.5342 19.7698 15.2297 20.2614C14.5763 20.5077 14.0699 20.7931 13.7326 21.0936ZM14.9978 19.6621C16.3936 19.136 18.2999 18.8174 20.3894 18.8174C22.4789 18.8174 24.3852 19.136 25.7809 19.6621C26.4777 19.9247 27.064 20.2452 27.4817 20.6174C27.8994 20.9896 28.1753 21.4394 28.1753 21.95C28.1753 22.4606 27.8994 22.9104 27.4817 23.2826C27.064 23.6549 26.4777 23.9754 25.7809 24.238C24.3852 24.764 22.4789 25.0827 20.3894 25.0827C18.2999 25.0827 16.3936 24.764 14.9978 24.238C14.3011 23.9754 13.7148 23.6549 13.2971 23.2826C12.8793 22.9104 12.6035 22.4606 12.6035 21.95C12.6035 21.4394 12.8793 20.9896 13.2971 20.6174C13.7148 20.2452 14.3011 19.9247 14.9978 19.6621Z" fill="#61DAFB"/>
<path fill-rule="evenodd" clip-rule="evenodd" d="M17.8115 15.8316C17.3791 15.6935 17.0539 15.7173 16.8206 15.8502C16.5874 15.9831 16.4039 16.2493 16.3088 16.6879C16.2138 17.1266 16.2166 17.7021 16.3272 18.3838C16.5481 19.7447 17.1875 21.4595 18.203 23.1956C19.2185 24.9318 20.4033 26.3357 21.4869 27.205C22.0297 27.6404 22.5332 27.9306 22.9656 28.0687C23.398 28.2067 23.7233 28.1829 23.9565 28.05C24.1898 27.9171 24.3733 27.651 24.4683 27.2123C24.5634 26.7736 24.5606 26.1981 24.4499 25.5164C24.229 24.1555 23.5897 22.4408 22.5742 20.7046C21.5586 18.9684 20.3739 17.5645 19.2902 16.6952C18.7475 16.2598 18.2439 15.9696 17.8115 15.8316ZM19.7002 16.1973C20.8596 17.1274 22.0923 18.5977 23.1371 20.3838C24.1818 22.1699 24.8554 23.9588 25.0918 25.415C25.2098 26.1419 25.2217 26.8033 25.104 27.3465C24.9862 27.8897 24.7295 28.3503 24.2815 28.6056C23.8335 28.861 23.301 28.8501 22.7655 28.6791C22.2301 28.5081 21.6557 28.1672 21.077 27.7029C19.9175 26.7728 18.6848 25.3026 17.6401 23.5164C16.5953 21.7303 15.9217 19.9414 15.6854 18.4853C15.5674 17.7584 15.5555 17.097 15.6732 16.5537C15.7909 16.0106 16.0476 15.5499 16.4956 15.2946C16.9437 15.0393 17.4762 15.0502 18.0116 15.2211C18.5471 15.3921 19.1214 15.733 19.7002 16.1973Z" fill="#61DAFB"/>
<path fill-rule="evenodd" clip-rule="evenodd" d="M24.4676 16.6879C24.3726 16.2492 24.189 15.9831 23.9558 15.8502C23.7226 15.7172 23.3973 15.6934 22.9649 15.8315C22.5325 15.9696 22.0289 16.2597 21.4862 16.6951C20.4026 17.5645 19.2178 18.9684 18.2023 20.7045C17.1868 22.4407 16.5474 24.1554 16.3265 25.5164C16.2158 26.198 16.2131 26.7736 16.3081 27.2122C16.4032 27.6509 16.5867 27.917 16.8199 28.0499C17.0532 28.1829 17.3784 28.2067 17.8108 28.0686C18.2432 27.9305 18.7468 27.6404 19.2895 27.205C20.3732 26.3356 21.5579 24.9317 22.5734 23.1956C23.589 21.4594 24.2283 19.7447 24.4492 18.3837C24.5599 17.7021 24.5627 17.1265 24.4676 16.6879ZM25.091 18.4852C24.8547 19.9414 24.1811 21.7302 23.1364 23.5164C22.0916 25.3025 20.8589 26.7727 19.6995 27.7028C19.1207 28.1672 18.5464 28.508 18.0109 28.679C17.4755 28.85 16.9429 28.8609 16.4949 28.6056C16.0469 28.3503 15.7902 27.8896 15.6725 27.3464C15.5548 26.8032 15.5667 26.1418 15.6847 25.4149C15.921 23.9587 16.5946 22.1699 17.6394 20.3837C18.6841 18.5976 19.9168 17.1274 21.0762 16.1972C21.655 15.7329 22.2294 15.3921 22.7648 15.2211C23.3002 15.0501 23.8328 15.0392 24.2808 15.2945C24.7288 15.5498 24.9855 16.0105 25.1032 16.5537C25.2209 17.0969 25.209 17.7583 25.091 18.4852Z" fill="#61DAFB"/>
</g>
</g>
<path d="M40.2356 23.18V20.86H43.2156C43.8423 20.86 44.3223 20.7 44.6556 20.38C45.0023 20.06 45.1756 19.6267 45.1756 19.08C45.1756 18.5733 45.009 18.1533 44.6756 17.82C44.3423 17.4867 43.8623 17.32 43.2356 17.32H40.2356V14.88H43.5956C44.529 14.88 45.349 15.06 46.0556 15.42C46.7623 15.7667 47.3156 16.2533 47.7156 16.88C48.1156 17.5067 48.3156 18.2267 48.3156 19.04C48.3156 19.8667 48.1156 20.5933 47.7156 21.22C47.3156 21.8333 46.7556 22.3133 46.0356 22.66C45.3156 23.0067 44.469 23.18 43.4956 23.18H40.2356ZM37.8356 29V14.88H40.9756V29H37.8356ZM45.5156 29L41.1156 22.92L43.9956 22.14L49.2356 29H45.5156ZM54.223 29.22C53.1697 29.22 52.2297 29.0067 51.403 28.58C50.5897 28.14 49.9497 27.5333 49.483 26.76C49.0163 25.9867 48.783 25.1133 48.783 24.14C48.783 23.1667 49.0097 22.3 49.463 21.54C49.9297 20.7667 50.5563 20.16 51.343 19.72C52.1297 19.28 53.0163 19.06 54.003 19.06C54.963 19.06 55.8097 19.2667 56.543 19.68C57.2763 20.0933 57.8497 20.6667 58.263 21.4C58.6897 22.1333 58.903 22.9733 58.903 23.92C58.903 24.0933 58.8897 24.28 58.863 24.48C58.8497 24.6667 58.8163 24.8867 58.763 25.14L50.383 25.16V23.06L57.463 23.04L56.143 23.92C56.1297 23.36 56.043 22.9 55.883 22.54C55.723 22.1667 55.483 21.8867 55.163 21.7C54.8563 21.5 54.4763 21.4 54.023 21.4C53.543 21.4 53.123 21.5133 52.763 21.74C52.4163 21.9533 52.143 22.26 51.943 22.66C51.7563 23.06 51.663 23.5467 51.663 24.12C51.663 24.6933 51.763 25.1867 51.963 25.6C52.1763 26 52.4697 26.3133 52.843 26.54C53.2297 26.7533 53.683 26.86 54.203 26.86C54.683 26.86 55.1163 26.78 55.503 26.62C55.8897 26.4467 56.2297 26.1933 56.523 25.86L58.203 27.54C57.723 28.1 57.143 28.52 56.463 28.8C55.783 29.08 55.0363 29.22 54.223 29.22ZM63.7878 29.2C62.8945 29.2 62.0945 28.98 61.3878 28.54C60.6945 28.1 60.1412 27.5 59.7278 26.74C59.3278 25.98 59.1278 25.1133 59.1278 24.14C59.1278 23.1667 59.3278 22.3 59.7278 21.54C60.1412 20.78 60.6945 20.18 61.3878 19.74C62.0945 19.3 62.8945 19.08 63.7878 19.08C64.4412 19.08 65.0278 19.2067 65.5478 19.46C66.0812 19.7133 66.5145 20.0667 66.8478 20.52C67.1812 20.96 67.3678 21.4667 67.4078 22.04V26.24C67.3678 26.8133 67.1812 27.3267 66.8478 27.78C66.5278 28.22 66.1012 28.5667 65.5678 28.82C65.0345 29.0733 64.4412 29.2 63.7878 29.2ZM64.4078 26.44C65.0612 26.44 65.5878 26.2267 65.9878 25.8C66.3878 25.36 66.5878 24.8067 66.5878 24.14C66.5878 23.6867 66.4945 23.2867 66.3078 22.94C66.1345 22.5933 65.8812 22.3267 65.5478 22.14C65.2278 21.94 64.8545 21.84 64.4278 21.84C64.0012 21.84 63.6212 21.94 63.2878 22.14C62.9678 22.3267 62.7078 22.5933 62.5078 22.94C62.3212 23.2867 62.2278 23.6867 62.2278 24.14C62.2278 24.58 62.3212 24.9733 62.5078 25.32C62.6945 25.6667 62.9545 25.94 63.2878 26.14C63.6212 26.34 63.9945 26.44 64.4078 26.44ZM66.4678 29V26.38L66.9278 24.02L66.4678 21.66V19.28H69.4678V29H66.4678ZM75.6702 29.22C74.6702 29.22 73.7635 29 72.9502 28.56C72.1369 28.12 71.4969 27.5133 71.0302 26.74C70.5635 25.9667 70.3302 25.1 70.3302 24.14C70.3302 23.1667 70.5635 22.3 71.0302 21.54C71.5102 20.7667 72.1569 20.16 72.9702 19.72C73.7835 19.28 74.6969 19.06 75.7102 19.06C76.4702 19.06 77.1635 19.1933 77.7902 19.46C78.4302 19.7133 78.9969 20.1 79.4902 20.62L77.5302 22.58C77.3035 22.3267 77.0369 22.14 76.7302 22.02C76.4369 21.9 76.0969 21.84 75.7102 21.84C75.2702 21.84 74.8769 21.94 74.5302 22.14C74.1969 22.3267 73.9302 22.5933 73.7302 22.94C73.5435 23.2733 73.4502 23.6667 73.4502 24.12C73.4502 24.5733 73.5435 24.9733 73.7302 25.32C73.9302 25.6667 74.2035 25.94 74.5502 26.14C74.8969 26.34 75.2835 26.44 75.7102 26.44C76.1102 26.44 76.4635 26.3733 76.7702 26.24C77.0902 26.0933 77.3635 25.8933 77.5902 25.64L79.5302 27.6C79.0235 28.1333 78.4502 28.54 77.8102 28.82C77.1702 29.0867 76.4569 29.22 75.6702 29.22ZM81.4637 29V15.26H84.5237V29H81.4637ZM79.2637 21.88V19.28H86.7237V21.88H79.2637ZM90.8562 29V14.88H93.0562L93.9962 17.7V29H90.8562ZM100.596 29L92.2762 18.34L93.0562 14.88L101.376 25.54L100.596 29ZM100.596 29L99.7562 26.18V14.88H102.896V29H100.596ZM108.75 29.2C107.856 29.2 107.056 28.98 106.35 28.54C105.656 28.1 105.103 27.5 104.69 26.74C104.29 25.98 104.09 25.1133 104.09 24.14C104.09 23.1667 104.29 22.3 104.69 21.54C105.103 20.78 105.656 20.18 106.35 19.74C107.056 19.3 107.856 19.08 108.75 19.08C109.403 19.08 109.99 19.2067 110.51 19.46C111.043 19.7133 111.476 20.0667 111.81 20.52C112.143 20.96 112.33 21.4667 112.37 22.04V26.24C112.33 26.8133 112.143 27.3267 111.81 27.78C111.49 28.22 111.063 28.5667 110.53 28.82C109.996 29.0733 109.403 29.2 108.75 29.2ZM109.37 26.44C110.023 26.44 110.55 26.2267 110.95 25.8C111.35 25.36 111.55 24.8067 111.55 24.14C111.55 23.6867 111.456 23.2867 111.27 22.94C111.096 22.5933 110.843 22.3267 110.51 22.14C110.19 21.94 109.816 21.84 109.39 21.84C108.963 21.84 108.583 21.94 108.25 22.14C107.93 22.3267 107.67 22.5933 107.47 22.94C107.283 23.2867 107.19 23.6867 107.19 24.14C107.19 24.58 107.283 24.9733 107.47 25.32C107.656 25.6667 107.916 25.94 108.25 26.14C108.583 26.34 108.956 26.44 109.37 26.44ZM111.43 29V26.38L111.89 24.02L111.43 21.66V19.28H114.43V29H111.43ZM117.312 29V15.26H120.372V29H117.312ZM115.112 21.88V19.28H122.572V21.88H115.112ZM123.268 29V19.28H126.328V29H123.268ZM124.808 17.94C124.328 17.94 123.928 17.78 123.608 17.46C123.301 17.1267 123.148 16.7267 123.148 16.26C123.148 15.78 123.301 15.38 123.608 15.06C123.928 14.74 124.328 14.58 124.808 14.58C125.288 14.58 125.681 14.74 125.988 15.06C126.295 15.38 126.448 15.78 126.448 16.26C126.448 16.7267 126.295 17.1267 125.988 17.46C125.681 17.78 125.288 17.94 124.808 17.94ZM130.891 29L126.771 19.28H130.071L132.871 27.38H131.431L134.231 19.28H137.471L133.351 29H130.891ZM142.447 29.22C141.394 29.22 140.454 29.0067 139.627 28.58C138.814 28.14 138.174 27.5333 137.707 26.76C137.241 25.9867 137.007 25.1133 137.007 24.14C137.007 23.1667 137.234 22.3 137.687 21.54C138.154 20.7667 138.781 20.16 139.567 19.72C140.354 19.28 141.241 19.06 142.227 19.06C143.187 19.06 144.034 19.2667 144.767 19.68C145.501 20.0933 146.074 20.6667 146.487 21.4C146.914 22.1333 147.127 22.9733 147.127 23.92C147.127 24.0933 147.114 24.28 147.087 24.48C147.074 24.6667 147.041 24.8867 146.987 25.14L138.607 25.16V23.06L145.687 23.04L144.367 23.92C144.354 23.36 144.267 22.9 144.107 22.54C143.947 22.1667 143.707 21.8867 143.387 21.7C143.081 21.5 142.701 21.4 142.247 21.4C141.767 21.4 141.347 21.5133 140.987 21.74C140.641 21.9533 140.367 22.26 140.167 22.66C139.981 23.06 139.887 23.5467 139.887 24.12C139.887 24.6933 139.987 25.1867 140.187 25.6C140.401 26 140.694 26.3133 141.067 26.54C141.454 26.7533 141.907 26.86 142.427 26.86C142.907 26.86 143.341 26.78 143.727 26.62C144.114 26.4467 144.454 26.1933 144.747 25.86L146.427 27.54C145.947 28.1 145.367 28.52 144.687 28.8C144.007 29.08 143.261 29.22 142.447 29.22Z" fill="white"/>
<defs>
<clipPath id="clip0_97_874">
<rect x="10" y="12" width="20" height="20" rx="4" fill="white"/>
</clipPath>
<clipPath id="clip1_97_874">
<rect width="15.6" height="13.7" fill="white" transform="translate(12.5898 15.1001)"/>
</clipPath>
</defs>
</svg>
