<svg width="97" height="44" viewBox="0 0 97 44" fill="none" xmlns="http://www.w3.org/2000/svg">
<g clip-path="url(#clip0_97_863)">
<path d="M13.5417 12H26.4583C26.9236 11.9996 27.3843 12.0932 27.8142 12.2756C28.2441 12.458 28.6347 12.7255 28.9636 13.0629C29.2926 13.4003 29.5535 13.8009 29.7313 14.2419C29.9091 14.6828 30.0004 15.1553 30 15.6325V28.3675C30.0004 28.8447 29.9091 29.3172 29.7313 29.7581C29.5535 30.1991 29.2926 30.5997 28.9636 30.9371C28.6347 31.2745 28.2441 31.542 27.8142 31.7244C27.3843 31.9068 26.9236 32.0004 26.4583 32H13.5417C13.0764 32.0004 12.6157 31.9068 12.1858 31.7244C11.7559 31.542 11.3653 31.2745 11.0364 30.9371C10.7074 30.5997 10.4465 30.1991 10.2687 29.7581C10.0909 29.3172 9.99956 28.8447 10 28.3675V15.6325C9.99956 15.1553 10.0909 14.6828 10.2687 14.2419C10.4465 13.8009 10.7074 13.4003 11.0364 13.0629C11.3653 12.7255 11.7559 12.458 12.1858 12.2756C12.6157 12.0932 13.0764 11.9996 13.5417 12V12Z" fill="#000B1D"/>
<g clip-path="url(#clip1_97_863)">
<path d="M20.3904 23.3225C21.1584 23.3225 21.7809 22.7081 21.7809 21.9501C21.7809 21.1921 21.1584 20.5776 20.3904 20.5776C19.6225 20.5776 19 21.1921 19 21.9501C19 22.7081 19.6225 23.3225 20.3904 23.3225Z" fill="#61DAFB"/>
<path fill-rule="evenodd" clip-rule="evenodd" d="M13.7326 21.0936C13.3952 21.3942 13.2535 21.6842 13.2535 21.95C13.2535 22.2159 13.3952 22.5058 13.7326 22.8064C14.0699 23.107 14.5763 23.3924 15.2297 23.6386C16.5342 24.1302 18.3584 24.4411 20.3894 24.4411C22.4204 24.4411 24.2446 24.1302 25.5491 23.6386C26.2025 23.3924 26.7088 23.107 27.0462 22.8064C27.3835 22.5058 27.5253 22.2159 27.5253 21.95C27.5253 21.6842 27.3835 21.3942 27.0462 21.0936C26.7088 20.7931 26.2025 20.5077 25.5491 20.2614C24.2446 19.7698 22.4204 19.459 20.3894 19.459C18.3584 19.459 16.5342 19.7698 15.2297 20.2614C14.5763 20.5077 14.0699 20.7931 13.7326 21.0936ZM14.9978 19.6621C16.3936 19.136 18.2999 18.8174 20.3894 18.8174C22.4789 18.8174 24.3852 19.136 25.7809 19.6621C26.4777 19.9247 27.064 20.2452 27.4817 20.6174C27.8994 20.9896 28.1753 21.4394 28.1753 21.95C28.1753 22.4606 27.8994 22.9104 27.4817 23.2826C27.064 23.6549 26.4777 23.9754 25.7809 24.238C24.3852 24.764 22.4789 25.0827 20.3894 25.0827C18.2999 25.0827 16.3936 24.764 14.9978 24.238C14.3011 23.9754 13.7148 23.6549 13.2971 23.2826C12.8793 22.9104 12.6035 22.4606 12.6035 21.95C12.6035 21.4394 12.8793 20.9896 13.2971 20.6174C13.7148 20.2452 14.3011 19.9247 14.9978 19.6621Z" fill="#61DAFB"/>
<path fill-rule="evenodd" clip-rule="evenodd" d="M17.8115 15.8316C17.3791 15.6935 17.0539 15.7173 16.8206 15.8502C16.5874 15.9831 16.4039 16.2493 16.3088 16.6879C16.2138 17.1266 16.2166 17.7021 16.3272 18.3838C16.5481 19.7447 17.1875 21.4595 18.203 23.1956C19.2185 24.9318 20.4033 26.3357 21.4869 27.205C22.0297 27.6404 22.5332 27.9306 22.9656 28.0687C23.398 28.2067 23.7233 28.1829 23.9565 28.05C24.1898 27.9171 24.3733 27.651 24.4683 27.2123C24.5634 26.7736 24.5606 26.1981 24.4499 25.5164C24.229 24.1555 23.5897 22.4408 22.5742 20.7046C21.5586 18.9684 20.3739 17.5645 19.2902 16.6952C18.7475 16.2598 18.2439 15.9696 17.8115 15.8316ZM19.7002 16.1973C20.8596 17.1274 22.0923 18.5977 23.1371 20.3838C24.1818 22.1699 24.8554 23.9588 25.0918 25.415C25.2098 26.1419 25.2217 26.8033 25.104 27.3465C24.9862 27.8897 24.7295 28.3503 24.2815 28.6056C23.8335 28.861 23.301 28.8501 22.7655 28.6791C22.2301 28.5081 21.6557 28.1672 21.077 27.7029C19.9175 26.7728 18.6848 25.3026 17.6401 23.5164C16.5953 21.7303 15.9217 19.9414 15.6854 18.4853C15.5674 17.7584 15.5555 17.097 15.6732 16.5537C15.7909 16.0106 16.0476 15.5499 16.4956 15.2946C16.9437 15.0393 17.4762 15.0502 18.0116 15.2211C18.5471 15.3921 19.1214 15.733 19.7002 16.1973Z" fill="#61DAFB"/>
<path fill-rule="evenodd" clip-rule="evenodd" d="M24.4676 16.6879C24.3726 16.2492 24.189 15.9831 23.9558 15.8502C23.7226 15.7172 23.3973 15.6934 22.9649 15.8315C22.5325 15.9696 22.0289 16.2597 21.4862 16.6951C20.4026 17.5645 19.2178 18.9684 18.2023 20.7045C17.1868 22.4407 16.5474 24.1554 16.3265 25.5164C16.2158 26.198 16.2131 26.7736 16.3081 27.2122C16.4032 27.6509 16.5867 27.917 16.8199 28.0499C17.0532 28.1829 17.3784 28.2067 17.8108 28.0686C18.2432 27.9305 18.7468 27.6404 19.2895 27.205C20.3732 26.3356 21.5579 24.9317 22.5734 23.1956C23.589 21.4594 24.2283 19.7447 24.4492 18.3837C24.5599 17.7021 24.5627 17.1265 24.4676 16.6879ZM25.091 18.4852C24.8547 19.9414 24.1811 21.7302 23.1364 23.5164C22.0916 25.3025 20.8589 26.7727 19.6995 27.7028C19.1207 28.1672 18.5464 28.508 18.0109 28.679C17.4755 28.85 16.9429 28.8609 16.4949 28.6056C16.0469 28.3503 15.7902 27.8896 15.6725 27.3464C15.5548 26.8032 15.5667 26.1418 15.6847 25.4149C15.921 23.9587 16.5946 22.1699 17.6394 20.3837C18.6841 18.5976 19.9168 17.1274 21.0762 16.1972C21.655 15.7329 22.2294 15.3921 22.7648 15.2211C23.3002 15.0501 23.8328 15.0392 24.2808 15.2945C24.7288 15.5498 24.9855 16.0105 25.1032 16.5537C25.2209 17.0969 25.209 17.7583 25.091 18.4852Z" fill="#61DAFB"/>
</g>
</g>
<path d="M40.0018 23.18V20.86H42.9818C43.6085 20.86 44.0885 20.7 44.4218 20.38C44.7685 20.06 44.9418 19.6267 44.9418 19.08C44.9418 18.5733 44.7752 18.1533 44.4418 17.82C44.1085 17.4867 43.6285 17.32 43.0018 17.32H40.0018V14.88H43.3618C44.2952 14.88 45.1152 15.06 45.8218 15.42C46.5285 15.7667 47.0818 16.2533 47.4818 16.88C47.8818 17.5067 48.0818 18.2267 48.0818 19.04C48.0818 19.8667 47.8818 20.5933 47.4818 21.22C47.0818 21.8333 46.5218 22.3133 45.8018 22.66C45.0818 23.0067 44.2352 23.18 43.2618 23.18H40.0018ZM37.6018 29V14.88H40.7418V29H37.6018ZM45.2818 29L40.8818 22.92L43.7618 22.14L49.0018 29H45.2818ZM53.9892 29.22C52.9359 29.22 51.9959 29.0067 51.1692 28.58C50.3559 28.14 49.7159 27.5333 49.2492 26.76C48.7825 25.9867 48.5492 25.1133 48.5492 24.14C48.5492 23.1667 48.7759 22.3 49.2292 21.54C49.6959 20.7667 50.3225 20.16 51.1092 19.72C51.8959 19.28 52.7825 19.06 53.7692 19.06C54.7292 19.06 55.5759 19.2667 56.3092 19.68C57.0425 20.0933 57.6159 20.6667 58.0292 21.4C58.4559 22.1333 58.6692 22.9733 58.6692 23.92C58.6692 24.0933 58.6559 24.28 58.6292 24.48C58.6159 24.6667 58.5825 24.8867 58.5292 25.14L50.1492 25.16V23.06L57.2292 23.04L55.9092 23.92C55.8959 23.36 55.8092 22.9 55.6492 22.54C55.4892 22.1667 55.2492 21.8867 54.9292 21.7C54.6225 21.5 54.2425 21.4 53.7892 21.4C53.3092 21.4 52.8892 21.5133 52.5292 21.74C52.1825 21.9533 51.9092 22.26 51.7092 22.66C51.5225 23.06 51.4292 23.5467 51.4292 24.12C51.4292 24.6933 51.5292 25.1867 51.7292 25.6C51.9425 26 52.2359 26.3133 52.6092 26.54C52.9959 26.7533 53.4492 26.86 53.9692 26.86C54.4492 26.86 54.8825 26.78 55.2692 26.62C55.6559 26.4467 55.9959 26.1933 56.2892 25.86L57.9692 27.54C57.4892 28.1 56.9092 28.52 56.2292 28.8C55.5492 29.08 54.8025 29.22 53.9892 29.22ZM63.5541 29.2C62.6607 29.2 61.8607 28.98 61.1541 28.54C60.4607 28.1 59.9074 27.5 59.4941 26.74C59.0941 25.98 58.8941 25.1133 58.8941 24.14C58.8941 23.1667 59.0941 22.3 59.4941 21.54C59.9074 20.78 60.4607 20.18 61.1541 19.74C61.8607 19.3 62.6607 19.08 63.5541 19.08C64.2074 19.08 64.7941 19.2067 65.3141 19.46C65.8474 19.7133 66.2807 20.0667 66.6141 20.52C66.9474 20.96 67.1341 21.4667 67.1741 22.04V26.24C67.1341 26.8133 66.9474 27.3267 66.6141 27.78C66.2941 28.22 65.8674 28.5667 65.3341 28.82C64.8007 29.0733 64.2074 29.2 63.5541 29.2ZM64.1741 26.44C64.8274 26.44 65.3541 26.2267 65.7541 25.8C66.1541 25.36 66.3541 24.8067 66.3541 24.14C66.3541 23.6867 66.2607 23.2867 66.0741 22.94C65.9007 22.5933 65.6474 22.3267 65.3141 22.14C64.9941 21.94 64.6207 21.84 64.1941 21.84C63.7674 21.84 63.3874 21.94 63.0541 22.14C62.7341 22.3267 62.4741 22.5933 62.2741 22.94C62.0874 23.2867 61.9941 23.6867 61.9941 24.14C61.9941 24.58 62.0874 24.9733 62.2741 25.32C62.4607 25.6667 62.7207 25.94 63.0541 26.14C63.3874 26.34 63.7607 26.44 64.1741 26.44ZM66.2341 29V26.38L66.6941 24.02L66.2341 21.66V19.28H69.2341V29H66.2341ZM75.4364 29.22C74.4364 29.22 73.5298 29 72.7164 28.56C71.9031 28.12 71.2631 27.5133 70.7964 26.74C70.3298 25.9667 70.0964 25.1 70.0964 24.14C70.0964 23.1667 70.3298 22.3 70.7964 21.54C71.2764 20.7667 71.9231 20.16 72.7364 19.72C73.5498 19.28 74.4631 19.06 75.4764 19.06C76.2364 19.06 76.9298 19.1933 77.5564 19.46C78.1964 19.7133 78.7631 20.1 79.2564 20.62L77.2964 22.58C77.0698 22.3267 76.8031 22.14 76.4964 22.02C76.2031 21.9 75.8631 21.84 75.4764 21.84C75.0364 21.84 74.6431 21.94 74.2964 22.14C73.9631 22.3267 73.6964 22.5933 73.4964 22.94C73.3098 23.2733 73.2164 23.6667 73.2164 24.12C73.2164 24.5733 73.3098 24.9733 73.4964 25.32C73.6964 25.6667 73.9698 25.94 74.3164 26.14C74.6631 26.34 75.0498 26.44 75.4764 26.44C75.8764 26.44 76.2298 26.3733 76.5364 26.24C76.8564 26.0933 77.1298 25.8933 77.3564 25.64L79.2964 27.6C78.7898 28.1333 78.2164 28.54 77.5764 28.82C76.9364 29.0867 76.2231 29.22 75.4364 29.22ZM81.2299 29V15.26H84.2899V29H81.2299ZM79.0299 21.88V19.28H86.4899V21.88H79.0299Z" fill="white"/>
<defs>
<clipPath id="clip0_97_863">
<rect x="10" y="12" width="20" height="20" rx="4" fill="white"/>
</clipPath>
<clipPath id="clip1_97_863">
<rect width="15.6" height="13.7" fill="white" transform="translate(12.5898 15.1001)"/>
</clipPath>
</defs>
</svg>
