<svg width="119" height="40" viewBox="0 0 119 40" fill="none" xmlns="http://www.w3.org/2000/svg">
<rect x="0.00585938" width="119" height="40" rx="20" fill="#292C34"/>
<path d="M35.9523 14.5708L28.841 10.4416C28.3925 10.1861 27.8085 10.1861 27.3565 10.4416L20.1693 14.5708C19.7064 14.837 19.3789 15.3374 19.3789 15.8727V24.1201C19.3789 24.6553 19.715 25.1559 20.1778 25.4236L22.0767 26.5021C22.9843 26.9492 23.3051 26.9492 23.7181 26.9492C25.0619 26.9492 25.8295 26.1365 25.8295 24.7192V16.5769C25.8295 16.4619 25.7697 16.2908 25.6568 16.2908H24.75C24.6352 16.2908 24.3781 16.4619 24.3781 16.5767V24.719C24.3781 25.3473 23.8098 25.9725 22.7477 25.4415L20.7856 24.3105C20.7172 24.2734 20.669 24.1988 20.669 24.1201V15.8727C20.669 15.7949 20.7585 15.7169 20.8274 15.6771L27.9914 11.555C28.0583 11.5171 28.1567 11.5171 28.2235 11.555L35.3001 15.6761C35.3678 15.7169 35.344 15.7925 35.344 15.8727V24.1201C35.344 24.1988 35.3735 24.2754 35.3066 24.3133L28.197 28.4378C28.1361 28.4744 28.0604 28.4744 27.9937 28.4378L26.1703 27.3494C26.1153 27.3175 26.05 27.306 25.9972 27.3355C25.4899 27.6231 25.3963 27.6613 24.9205 27.8263C24.8034 27.8671 24.6307 27.9379 24.9866 28.1374L27.373 29.5491C27.6008 29.6807 27.8593 29.75 28.1224 29.75C28.3872 29.75 28.6465 29.6813 28.875 29.5491L35.9521 25.4236C36.4149 25.1539 36.6343 24.6553 36.6343 24.1201V15.8727C36.6343 15.3374 36.4149 14.8383 35.9523 14.5708ZM30.3304 22.8132C28.4394 22.8132 28.0229 22.2915 27.884 21.3512C27.8679 21.2499 27.7819 21.1288 27.6789 21.1288H26.7547C26.6403 21.1288 26.5484 21.2675 26.5484 21.3813C26.5484 22.5853 27.203 24.0441 30.3306 24.0441C32.5946 24.0441 33.8926 23.1644 33.8926 21.6076C33.8926 20.0639 32.8497 19.6588 30.6541 19.3682C28.4347 19.0749 28.2093 18.9267 28.2093 18.4068C28.2093 17.9781 28.4002 17.4065 30.0435 17.4065C31.5118 17.4065 32.053 17.7216 32.2757 18.7113C32.2948 18.8043 32.3798 18.8711 32.4757 18.8711H33.4036C33.4607 18.8711 33.5152 18.848 33.5552 18.8072C33.5939 18.7633 33.6144 18.7083 33.6092 18.6493C33.4656 16.9451 32.3333 16.1508 30.0434 16.1508C28.0064 16.1508 26.7913 17.011 26.7913 18.4529C26.7913 20.0169 28.0003 20.449 29.9556 20.6424C32.2948 20.8717 32.4767 21.2136 32.4767 21.6737C32.4767 22.4728 31.8352 22.8132 30.3304 22.8132Z" fill="#82BC4F"/>
<path d="M49.7409 26V15.328H51.0529L57.7089 24.72L57.4209 25.168V15.328H58.5729V26H57.2769L50.3649 16.256L50.8929 15.76V26H49.7409ZM64.4877 26.24C63.2397 26.24 62.3117 25.872 61.7037 25.136C61.1064 24.3893 60.8077 23.3547 60.8077 22.032C60.8077 20.6453 61.1224 19.6053 61.7517 18.912C62.3917 18.2187 63.2931 17.872 64.4557 17.872C65.3197 17.872 66.0237 18.048 66.5677 18.4C67.1117 18.7413 67.5117 19.2267 67.7677 19.856C68.0237 20.4747 68.1517 21.2 68.1517 22.032C68.1517 23.344 67.8317 24.3733 67.1917 25.12C66.5624 25.8667 65.6611 26.24 64.4877 26.24ZM64.4717 25.184C65.1224 25.184 65.6291 25.0453 65.9917 24.768C66.3544 24.48 66.6104 24.1013 66.7597 23.632C66.9197 23.152 66.9997 22.6187 66.9997 22.032C66.9997 21.4027 66.9197 20.8587 66.7597 20.4C66.5997 19.9307 66.3331 19.568 65.9597 19.312C65.5971 19.056 65.1011 18.928 64.4717 18.928C63.8317 18.928 63.3304 19.0667 62.9677 19.344C62.6051 19.6213 62.3437 19.9947 62.1837 20.464C62.0344 20.9227 61.9597 21.4453 61.9597 22.032C61.9597 22.9707 62.1464 23.7333 62.5197 24.32C62.8931 24.896 63.5437 25.184 64.4717 25.184ZM73.6291 26.24C73.2451 26.24 72.8398 26.1813 72.4131 26.064C71.9864 25.9573 71.5811 25.7547 71.1971 25.456C70.8238 25.1467 70.5144 24.7093 70.2691 24.144C70.0344 23.568 69.9171 22.8213 69.9171 21.904C69.9171 20.6667 70.2158 19.6907 70.8131 18.976C71.4211 18.2507 72.3384 17.888 73.5651 17.888C73.7998 17.888 74.0771 17.92 74.3971 17.984C74.7171 18.048 75.0318 18.128 75.3411 18.224C75.6504 18.32 75.9064 18.4213 76.1091 18.528L75.7091 18.928V14.64H76.8611V24.624C76.8611 24.9227 76.7544 25.1787 76.5411 25.392C76.3384 25.5947 76.0718 25.76 75.7411 25.888C75.4104 26.0053 75.0584 26.0907 74.6851 26.144C74.3118 26.208 73.9598 26.24 73.6291 26.24ZM73.6451 25.184C74.1998 25.184 74.6798 25.12 75.0851 24.992C75.5011 24.864 75.7091 24.704 75.7091 24.512V19.504C75.3784 19.312 75.0211 19.1733 74.6371 19.088C74.2638 18.992 73.9064 18.944 73.5651 18.944C72.9891 18.944 72.5198 19.072 72.1571 19.328C71.8051 19.5733 71.5438 19.92 71.3731 20.368C71.2131 20.8053 71.1331 21.3173 71.1331 21.904C71.1331 22.48 71.1971 23.0187 71.3251 23.52C71.4531 24.0107 71.6984 24.4107 72.0611 24.72C72.4238 25.0293 72.9518 25.184 73.6451 25.184ZM82.7225 26.24C81.9652 26.24 81.3092 26.0853 80.7545 25.776C80.1998 25.456 79.7732 24.9813 79.4745 24.352C79.1758 23.7227 79.0265 22.9387 79.0265 22C79.0265 20.624 79.3358 19.5947 79.9545 18.912C80.5838 18.2187 81.4425 17.872 82.5305 17.872C83.3838 17.872 84.0665 18.064 84.5785 18.448C85.1012 18.832 85.4745 19.3493 85.6985 20C85.9225 20.6507 86.0292 21.3867 86.0185 22.208H79.6025L79.6825 21.152H85.2665L84.8185 21.312C84.7865 20.512 84.5838 19.9147 84.2105 19.52C83.8478 19.1253 83.2878 18.928 82.5305 18.928C82.0078 18.928 81.5705 19.024 81.2185 19.216C80.8772 19.408 80.6212 19.744 80.4505 20.224C80.2798 20.6933 80.1945 21.3547 80.1945 22.208C80.1945 23.1787 80.4185 23.92 80.8665 24.432C81.3252 24.9333 81.9652 25.184 82.7865 25.184C83.1812 25.184 83.5438 25.1573 83.8745 25.104C84.2052 25.04 84.5092 24.9547 84.7865 24.848C85.0638 24.7413 85.3092 24.624 85.5225 24.496V25.68C85.1385 25.8613 84.7118 26 84.2425 26.096C83.7838 26.192 83.2772 26.24 82.7225 26.24ZM88.1765 26V24.4H89.7765V26H88.1765ZM91.2127 29.088V28.016C91.6821 28.0053 92.0287 27.936 92.2527 27.808C92.4874 27.6907 92.6421 27.5093 92.7167 27.264C92.8021 27.0293 92.8447 26.7413 92.8447 26.4V18.016H93.9967V26.464C93.9967 27.0507 93.8954 27.536 93.6927 27.92C93.4901 28.3147 93.1807 28.608 92.7647 28.8C92.3594 28.992 91.8421 29.088 91.2127 29.088ZM92.7807 16.592V15.328H94.0607V16.592H92.7807ZM98.87 26.24C98.294 26.24 97.8087 26.1813 97.414 26.064C97.03 25.9467 96.63 25.7813 96.214 25.568V24.352C96.5447 24.5333 96.838 24.688 97.094 24.816C97.35 24.944 97.6113 25.04 97.878 25.104C98.1447 25.1573 98.4487 25.184 98.79 25.184C99.3233 25.184 99.7553 25.0667 100.086 24.832C100.427 24.5973 100.598 24.2933 100.598 23.92C100.598 23.6213 100.513 23.392 100.342 23.232C100.182 23.072 99.974 22.9387 99.718 22.832C99.462 22.7253 99.1953 22.6133 98.918 22.496C98.6087 22.4107 98.294 22.32 97.974 22.224C97.6647 22.1173 97.3767 21.984 97.11 21.824C96.854 21.6533 96.646 21.44 96.486 21.184C96.326 20.9173 96.246 20.576 96.246 20.16C96.246 19.7547 96.326 19.408 96.486 19.12C96.6567 18.832 96.8753 18.5973 97.142 18.416C97.4087 18.224 97.7073 18.0853 98.038 18C98.3687 17.9147 98.6993 17.872 99.03 17.872C99.51 17.872 99.9207 17.936 100.262 18.064C100.603 18.192 100.955 18.336 101.318 18.496V19.648C100.913 19.4347 100.55 19.264 100.23 19.136C99.91 18.9973 99.5313 18.928 99.094 18.928C98.6567 18.928 98.262 19.0187 97.91 19.2C97.5687 19.3707 97.398 19.6373 97.398 20C97.398 20.2987 97.4833 20.5387 97.654 20.72C97.8353 20.8907 98.07 21.0293 98.358 21.136C98.646 21.232 98.9553 21.328 99.286 21.424C99.5527 21.5093 99.83 21.6053 100.118 21.712C100.406 21.808 100.673 21.9413 100.918 22.112C101.163 22.272 101.361 22.4853 101.51 22.752C101.67 23.0187 101.75 23.36 101.75 23.776C101.75 24.3413 101.606 24.8107 101.318 25.184C101.03 25.5467 100.662 25.8133 100.214 25.984C99.7767 26.1547 99.3287 26.24 98.87 26.24Z" fill="#C0C4CE"/>
</svg>
