<svg width="138" height="40" viewBox="0 0 138 40" fill="none" xmlns="http://www.w3.org/2000/svg">
<rect x="0.00585938" width="138" height="40" rx="20" fill="#292C34"/>
<path d="M18.2559 24.3098L20.5195 22.9622C20.9561 23.7242 21.3537 24.3685 22.3066 24.3685C23.2198 24.3685 23.7958 24.0187 23.7958 22.6495V13.3509H26.5757V22.6879C26.5757 25.5202 24.8881 26.8097 22.4261 26.8097C21.5557 26.856 20.6915 26.6419 19.9472 26.1956C19.2029 25.7492 18.6128 25.0922 18.2559 24.3098ZM28.0862 24.0159L30.3498 22.7264C30.6015 23.2288 30.9922 23.6511 31.4769 23.9448C31.9616 24.2385 32.5207 24.3917 33.0899 24.3867C34.242 24.3867 34.9759 23.82 34.9759 23.0385C34.9759 22.1009 34.2214 21.7686 32.9506 21.2193L32.2579 20.9297C30.2524 20.0901 28.9218 19.035 28.9218 16.8079C28.9218 14.7565 30.5106 13.1942 32.9925 13.1942C33.7967 13.1368 34.6003 13.3137 35.3029 13.7028C36.0056 14.0919 36.5763 14.6759 36.9437 15.382L34.7789 16.7499C34.6369 16.3994 34.3899 16.0996 34.0707 15.8903C33.7516 15.681 33.3753 15.5721 32.9918 15.5779C32.8246 15.5613 32.6557 15.5791 32.4959 15.6303C32.3361 15.6815 32.1889 15.7649 32.0637 15.8751C31.9385 15.9854 31.8381 16.1201 31.7688 16.2708C31.6995 16.4214 31.6628 16.5846 31.6612 16.7499C31.6612 17.5706 32.1775 17.9022 33.368 18.4102L34.0628 18.7033C36.426 19.6997 37.7559 20.7156 37.7559 23.0007C37.7559 25.4621 35.7902 26.8104 33.1497 26.8104C30.5682 26.8104 28.9005 25.5986 28.0862 24.0159Z" fill="#EABD5F"/>
<path d="M51.1504 26.128C50.7344 26.128 50.3504 26.08 49.9984 25.984C49.6464 25.8773 49.3264 25.7387 49.0384 25.568V24.368C49.305 24.5493 49.5984 24.704 49.9184 24.832C50.249 24.9493 50.6117 25.008 51.0064 25.008C51.7317 25.008 52.2544 24.832 52.5744 24.48C52.8944 24.1173 53.0544 23.5307 53.0544 22.72V15.328H54.2064V22.816C54.2064 23.4987 54.1104 24.0587 53.9184 24.496C53.737 24.9227 53.497 25.2587 53.1984 25.504C52.8997 25.7387 52.569 25.904 52.2064 26C51.8544 26.0853 51.5024 26.128 51.1504 26.128ZM59.6004 26.24C59.2484 26.24 58.891 26.2027 58.5284 26.128C58.1764 26.0533 57.8457 25.9253 57.5364 25.744C57.2377 25.5627 56.9924 25.3173 56.8004 25.008C56.619 24.688 56.5284 24.288 56.5284 23.808C56.5284 23.1467 56.651 22.6187 56.8964 22.224C57.1524 21.8187 57.499 21.5307 57.9364 21.36C58.3844 21.1787 58.8964 21.088 59.4724 21.088C59.9097 21.088 60.2884 21.1147 60.6084 21.168C60.9284 21.2213 61.211 21.3013 61.4564 21.408C61.7124 21.504 61.9417 21.616 62.1444 21.744L62.3684 22.8C62.123 22.6187 61.7657 22.464 61.2964 22.336C60.8377 22.1973 60.331 22.128 59.7764 22.128C59.1044 22.128 58.587 22.256 58.2244 22.512C57.8617 22.768 57.6804 23.1413 57.6804 23.632C57.6804 24.0267 57.787 24.3413 58.0004 24.576C58.2244 24.8107 58.5017 24.976 58.8324 25.072C59.1737 25.168 59.5204 25.216 59.8724 25.216C60.5657 25.216 61.0884 25.168 61.4404 25.072C61.803 24.9653 61.9844 24.7307 61.9844 24.368V20.704C61.9844 20.0853 61.803 19.632 61.4404 19.344C61.0777 19.056 60.5604 18.912 59.8884 18.912C59.4617 18.912 59.0084 18.976 58.5284 19.104C58.059 19.2213 57.6537 19.4133 57.3124 19.68V18.528C57.643 18.3147 58.0857 18.1547 58.6404 18.048C59.195 17.9307 59.7337 17.872 60.2564 17.872C60.6084 17.872 60.9337 17.9093 61.2324 17.984C61.531 18.048 61.7977 18.1493 62.0324 18.288C62.267 18.416 62.4644 18.5867 62.6244 18.8C62.795 19.0027 62.923 19.2427 63.0084 19.52C63.1044 19.7867 63.1524 20.0907 63.1524 20.432V24.304C63.1524 24.8693 62.9817 25.2907 62.6404 25.568C62.3097 25.8453 61.8724 26.0267 61.3284 26.112C60.795 26.1973 60.219 26.24 59.6004 26.24ZM68.0512 26L64.6752 18.016H65.9072L68.8512 25.008L68.5952 25.072L71.4592 18.016H72.6112L69.2192 26H68.0512ZM76.8972 26.24C76.5452 26.24 76.1879 26.2027 75.8252 26.128C75.4732 26.0533 75.1426 25.9253 74.8332 25.744C74.5346 25.5627 74.2892 25.3173 74.0972 25.008C73.9159 24.688 73.8252 24.288 73.8252 23.808C73.8252 23.1467 73.9479 22.6187 74.1932 22.224C74.4492 21.8187 74.7959 21.5307 75.2332 21.36C75.6812 21.1787 76.1932 21.088 76.7692 21.088C77.2066 21.088 77.5852 21.1147 77.9052 21.168C78.2252 21.2213 78.5079 21.3013 78.7532 21.408C79.0092 21.504 79.2386 21.616 79.4412 21.744L79.6652 22.8C79.4199 22.6187 79.0626 22.464 78.5932 22.336C78.1346 22.1973 77.6279 22.128 77.0732 22.128C76.4012 22.128 75.8839 22.256 75.5212 22.512C75.1586 22.768 74.9772 23.1413 74.9772 23.632C74.9772 24.0267 75.0839 24.3413 75.2972 24.576C75.5212 24.8107 75.7986 24.976 76.1292 25.072C76.4706 25.168 76.8172 25.216 77.1692 25.216C77.8626 25.216 78.3852 25.168 78.7372 25.072C79.0999 24.9653 79.2812 24.7307 79.2812 24.368V20.704C79.2812 20.0853 79.0999 19.632 78.7372 19.344C78.3746 19.056 77.8572 18.912 77.1852 18.912C76.7586 18.912 76.3052 18.976 75.8252 19.104C75.3559 19.2213 74.9506 19.4133 74.6092 19.68V18.528C74.9399 18.3147 75.3826 18.1547 75.9372 18.048C76.4919 17.9307 77.0306 17.872 77.5532 17.872C77.9052 17.872 78.2306 17.9093 78.5292 17.984C78.8279 18.048 79.0946 18.1493 79.3292 18.288C79.5639 18.416 79.7612 18.5867 79.9212 18.8C80.0919 19.0027 80.2199 19.2427 80.3052 19.52C80.4012 19.7867 80.4492 20.0907 80.4492 20.432V24.304C80.4492 24.8693 80.2786 25.2907 79.9372 25.568C79.6066 25.8453 79.1692 26.0267 78.6252 26.112C78.0919 26.1973 77.5159 26.24 76.8972 26.24ZM85.2606 26.24C84.6846 26.24 84.1993 26.1813 83.8046 26.064C83.4206 25.9467 83.0206 25.7813 82.6046 25.568V24.352C82.9353 24.5333 83.2286 24.688 83.4846 24.816C83.7406 24.944 84.0019 25.04 84.2686 25.104C84.5353 25.1573 84.8393 25.184 85.1806 25.184C85.7139 25.184 86.1459 25.0667 86.4766 24.832C86.8179 24.5973 86.9886 24.2933 86.9886 23.92C86.9886 23.6213 86.9033 23.392 86.7326 23.232C86.5726 23.072 86.3646 22.9387 86.1086 22.832C85.8526 22.7253 85.5859 22.6133 85.3086 22.496C84.9993 22.4107 84.6846 22.32 84.3646 22.224C84.0553 22.1173 83.7673 21.984 83.5006 21.824C83.2446 21.6533 83.0366 21.44 82.8766 21.184C82.7166 20.9173 82.6366 20.576 82.6366 20.16C82.6366 19.7547 82.7166 19.408 82.8766 19.12C83.0473 18.832 83.2659 18.5973 83.5326 18.416C83.7993 18.224 84.0979 18.0853 84.4286 18C84.7593 17.9147 85.0899 17.872 85.4206 17.872C85.9006 17.872 86.3113 17.936 86.6526 18.064C86.9939 18.192 87.3459 18.336 87.7086 18.496V19.648C87.3033 19.4347 86.9406 19.264 86.6206 19.136C86.3006 18.9973 85.9219 18.928 85.4846 18.928C85.0473 18.928 84.6526 19.0187 84.3006 19.2C83.9593 19.3707 83.7886 19.6373 83.7886 20C83.7886 20.2987 83.8739 20.5387 84.0446 20.72C84.2259 20.8907 84.4606 21.0293 84.7486 21.136C85.0366 21.232 85.3459 21.328 85.6766 21.424C85.9433 21.5093 86.2206 21.6053 86.5086 21.712C86.7966 21.808 87.0633 21.9413 87.3086 22.112C87.5539 22.272 87.7513 22.4853 87.9006 22.752C88.0606 23.0187 88.1406 23.36 88.1406 23.776C88.1406 24.3413 87.9966 24.8107 87.7086 25.184C87.4206 25.5467 87.0526 25.8133 86.6046 25.984C86.1673 26.1547 85.7193 26.24 85.2606 26.24ZM93.6455 26.128C93.2188 26.128 92.7815 26.0747 92.3335 25.968C91.8962 25.8507 91.4908 25.648 91.1175 25.36C90.7548 25.0613 90.4615 24.64 90.2375 24.096C90.0135 23.552 89.9015 22.8533 89.9015 22C89.9015 21.1467 90.0135 20.4533 90.2375 19.92C90.4615 19.376 90.7548 18.9547 91.1175 18.656C91.4908 18.3573 91.8962 18.1547 92.3335 18.048C92.7815 17.9307 93.2188 17.872 93.6455 17.872C94.0508 17.872 94.4508 17.9093 94.8455 17.984C95.2508 18.0587 95.6402 18.1707 96.0135 18.32V19.424C95.6615 19.2747 95.2988 19.1627 94.9255 19.088C94.5522 19.0133 94.1682 18.976 93.7735 18.976C92.8242 18.976 92.1308 19.216 91.6935 19.696C91.2668 20.176 91.0535 20.944 91.0535 22C91.0535 23.0667 91.2668 23.84 91.6935 24.32C92.1308 24.7893 92.8242 25.024 93.7735 25.024C94.1682 25.024 94.5522 24.9867 94.9255 24.912C95.2988 24.8373 95.6615 24.7253 96.0135 24.576V25.696C95.6402 25.8347 95.2508 25.9413 94.8455 26.016C94.4508 26.0907 94.0508 26.128 93.6455 26.128ZM98.1765 26V18.656C98.3045 18.6027 98.5498 18.512 98.9125 18.384C99.2858 18.256 99.7285 18.1387 100.24 18.032C100.763 17.9253 101.302 17.872 101.856 17.872C101.942 17.872 102.027 17.8827 102.112 17.904C102.198 17.9253 102.283 17.9467 102.368 17.968V18.992C102.091 18.96 101.819 18.944 101.552 18.944C101.296 18.944 101.046 18.96 100.8 18.992C100.555 19.0133 100.31 19.0453 100.064 19.088C99.8192 19.1307 99.5738 19.1733 99.3285 19.216V26H98.1765ZM104.272 26V18.016H105.424V26H104.272ZM104.208 16.592V15.328H105.488V16.592H104.208ZM111.187 26.224C110.953 26.224 110.686 26.192 110.387 26.128C110.099 26.064 109.817 25.984 109.539 25.888C109.262 25.792 109.017 25.6907 108.803 25.584L109.203 25.184V29.472H108.051V19.456C108.051 19.1253 108.153 18.8587 108.355 18.656C108.569 18.4533 108.841 18.2987 109.171 18.192C109.502 18.0747 109.854 17.9947 110.227 17.952C110.601 17.8987 110.953 17.872 111.283 17.872C111.923 17.872 112.526 18.0053 113.091 18.272C113.657 18.5387 114.115 18.992 114.467 19.632C114.819 20.2613 114.995 21.12 114.995 22.208C114.995 23.0293 114.846 23.744 114.547 24.352C114.259 24.9493 113.833 25.4133 113.267 25.744C112.702 26.064 112.009 26.224 111.187 26.224ZM111.187 25.168C111.774 25.168 112.254 25.0453 112.627 24.8C113.011 24.544 113.299 24.192 113.491 23.744C113.683 23.296 113.779 22.784 113.779 22.208C113.779 21.632 113.715 21.0933 113.587 20.592C113.459 20.0907 113.214 19.6907 112.851 19.392C112.489 19.0827 111.961 18.928 111.267 18.928C110.713 18.928 110.227 18.992 109.811 19.12C109.406 19.248 109.203 19.4293 109.203 19.664V24.608C109.534 24.8 109.865 24.944 110.195 25.04C110.526 25.1253 110.857 25.168 111.187 25.168ZM119.673 26.128C119.108 26.128 118.633 25.9573 118.249 25.616C117.865 25.264 117.673 24.7467 117.673 24.064V19.072H116.281V18.016H117.673V15.76H118.825V18.016H120.889V19.072H118.825V23.696C118.825 24.144 118.894 24.48 119.033 24.704C119.172 24.928 119.454 25.04 119.881 25.04C120.073 25.04 120.26 25.024 120.441 24.992C120.622 24.9493 120.772 24.9013 120.889 24.848V25.936C120.74 25.9893 120.548 26.032 120.313 26.064C120.089 26.1067 119.876 26.128 119.673 26.128Z" fill="#C0C4CE"/>
</svg>
