<svg width="105" height="40" viewBox="0 0 105 40" fill="none" xmlns="http://www.w3.org/2000/svg">
<rect x="0.00585938" width="105" height="40" rx="20" fill="#292C34"/>
<path d="M28.0052 25.56L32.1048 24.43L32.6588 18.33H25.3662L25.1849 16.3H32.8401L33.0415 14.31H22.9689L23.5329 20.32H30.473L30.2413 22.9L28.0052 23.5L25.7691 22.9L25.628 21.24H23.6135L23.9056 24.43L28.0052 25.56ZM20.0176 11H35.9928L34.5524 27.2L28.0052 29L21.458 27.2L20.0176 11Z" fill="#E3646E"/>
<path d="M49.3815 26V15.328H50.5335V20.128H56.2135V15.328H57.3655V26H56.2135V21.216H50.5335V26H49.3815ZM62.8206 26V16.416H59.0446V15.328H67.7326V16.416H63.9726V26H62.8206ZM69.4127 26V15.328H70.6607L74.6127 21.392L73.8287 21.568L78.0047 15.328H79.2527V26H78.1007V16.48H78.6127L74.2127 22.656L70.1487 16.608L70.5647 16.016V26H69.4127ZM81.9752 26V15.328H83.1272V24.88H88.5832V26H81.9752Z" fill="#C0C4CE"/>
</svg>
