<svg width="106" height="40" viewBox="0 0 106 40" fill="none" xmlns="http://www.w3.org/2000/svg">
<rect x="0.00585938" width="106" height="40" rx="20" fill="#292C34"/>
<path d="M28.5668 26.9438C28.3935 26.7905 28.2126 26.6368 28.0399 26.4664C27.9018 26.594 27.7724 26.7137 27.6354 26.8327C25.9258 28.3065 24.1636 28.92 23.119 28.3236C22.1084 27.7528 21.7901 26.0665 22.1945 23.945C22.2377 23.715 22.2895 23.4851 22.35 23.2551C22.1685 23.2017 21.9958 23.1526 21.823 23.0949C19.672 22.3607 18.2559 21.1683 18.2559 19.9754C18.2559 18.8258 19.5772 17.7097 21.641 16.9942C21.8721 16.9173 22.116 16.841 22.3667 16.7726C22.3089 16.551 22.2633 16.338 22.22 16.1318C21.7878 13.9783 22.09 12.2579 23.1092 11.6785C24.1711 11.0649 25.9333 11.7212 27.703 13.2628C27.8064 13.3562 27.9104 13.4588 28.0225 13.5608C28.1866 13.4075 28.342 13.2543 28.5061 13.1181C30.1817 11.6764 31.848 11.0735 32.8672 11.6529C33.9291 12.2488 34.2405 14.0889 33.7656 16.3636C33.7396 16.5088 33.7078 16.645 33.6708 16.7908C33.8869 16.8506 34.1024 16.9184 34.3012 16.9867C36.4083 17.7023 37.773 18.8183 37.7557 19.9936C37.7557 21.1945 36.2962 22.3788 34.0579 23.1115C33.9372 23.1456 33.8164 23.1883 33.6951 23.222C33.7471 23.3923 33.7812 23.5627 33.8159 23.733C34.2648 25.9394 33.9193 27.7453 32.8747 28.3417C32.6003 28.4944 32.2848 28.5721 31.9647 28.566C31.0073 28.5644 29.7917 27.9818 28.5668 26.9438ZM30.2597 23.8174C29.7636 24.5305 29.2184 25.2135 28.6275 25.862C28.7915 26.0222 28.9556 26.169 29.1197 26.3052C30.5445 27.5146 31.8572 27.9664 32.4708 27.6171C32.6582 27.468 32.8113 27.2856 32.9211 27.0808C33.0308 26.876 33.095 26.6529 33.1098 26.4248C33.2345 25.5794 33.1993 24.7205 33.0058 23.8863C32.9798 23.733 32.948 23.5797 32.9024 23.418C32.0323 23.6062 31.1493 23.7396 30.2597 23.8174ZM23.0225 24.0902C22.6689 25.9057 22.9277 27.2588 23.5425 27.6086C23.7603 27.6927 23.9954 27.7315 24.2313 27.7223C24.4671 27.7131 24.6979 27.656 24.9072 27.5552C25.7215 27.2389 26.4631 26.782 27.0923 26.209C27.2217 26.1065 27.3425 25.9874 27.4725 25.8684C26.8685 25.2197 26.3089 24.5368 25.797 23.8238C24.9107 23.7554 24.0306 23.6305 23.1629 23.45C23.1092 23.6727 23.0658 23.8852 23.0225 24.0902ZM28.0491 25.2826C28.4293 24.865 28.8089 24.4053 29.1891 23.8943C28.8089 23.9113 28.412 23.9199 28.0144 23.9199C27.6169 23.9199 27.246 23.9113 26.8745 23.8943C27.2628 24.3962 27.6522 24.865 28.0491 25.2826ZM26.2349 16.9686C25.9067 17.4369 25.5872 17.9297 25.285 18.4509C24.9829 18.9619 24.7073 19.4815 24.4559 19.9994C24.7154 20.5105 24.9915 21.03 25.2937 21.5586C25.5959 22.0697 25.9154 22.5732 26.2436 23.049C26.8133 23.0831 27.4095 23.1024 28.0139 23.1024C28.6182 23.1024 29.2226 23.0853 29.8015 23.0431C30.1123 22.5748 30.4318 22.0718 30.7346 21.5522C31.0374 21.0327 31.3216 20.5046 31.5724 19.9936C31.3216 19.4911 31.0368 18.9715 30.7346 18.4514C30.4324 17.9313 30.1129 17.4369 29.7934 16.9691C29.2156 16.9264 28.6188 16.9008 28.0144 16.9008C27.4101 16.9008 26.8138 16.9259 26.2349 16.9686ZM23.3853 22.6672C23.9779 22.7923 24.5776 22.8862 25.1816 22.9486C24.9742 22.625 24.7674 22.3009 24.5686 21.9602C24.3785 21.6281 24.1884 21.2959 24.0157 20.9638C23.7655 21.5426 23.5581 22.1145 23.3853 22.6672ZM31.4597 21.9517C31.2609 22.2923 31.0622 22.6159 30.864 22.9315C31.4771 22.8605 32.0855 22.7582 32.6863 22.625C32.4987 22.05 32.2796 21.4841 32.03 20.9296C31.8485 21.2703 31.6585 21.611 31.4597 21.9517ZM21.9085 17.7776C20.1469 18.3911 19.085 19.2844 19.085 19.984C19.1185 20.209 19.1999 20.4257 19.3243 20.6216C19.4488 20.8175 19.6138 20.9888 19.8101 21.1256C20.4841 21.6494 21.257 22.0537 22.09 22.318C22.2454 22.3714 22.4095 22.4119 22.5736 22.4632C22.8388 21.6253 23.1589 20.8031 23.5321 20.001C23.1582 19.2127 22.8409 18.4025 22.5822 17.5757C22.3492 17.6334 22.1246 17.7007 21.9085 17.7776ZM32.5049 19.984C32.8881 20.7758 33.2162 21.5894 33.4871 22.42C33.5998 22.3858 33.7119 22.3516 33.8153 22.3174C35.741 21.6873 36.9353 20.7246 36.9416 19.9749C36.9416 19.2764 35.8363 18.3729 34.0314 17.7599C33.85 17.7007 33.6518 17.6409 33.4536 17.5811C33.192 18.3995 32.8751 19.2021 32.5049 19.984ZM31.4516 18.0248C31.6504 18.3655 31.8405 18.6981 32.0126 19.0303C32.2526 18.4875 32.4601 17.9329 32.6343 17.3691C32.0477 17.2374 31.4539 17.135 30.8554 17.0626C31.0628 17.3771 31.2615 17.6927 31.4516 18.0248ZM23.394 17.3621C23.5673 17.9073 23.7742 18.4611 24.0157 19.0313C24.189 18.6992 24.3785 18.3671 24.5686 18.0349C24.7587 17.7028 24.9569 17.3792 25.1643 17.0636C24.5426 17.1389 23.9556 17.2409 23.394 17.3621ZM29.0504 13.7418C28.9036 13.8694 28.7569 14.0056 28.6096 14.1423C29.2092 14.7827 29.7604 15.4607 30.2591 16.1714C31.1379 16.2498 32.0095 16.3865 32.8672 16.5804C32.9018 16.4528 32.9249 16.3246 32.9538 16.197C33.3583 14.2378 33.1092 12.7384 32.4529 12.3641C32.3088 12.2894 32.1454 12.2524 31.9803 12.2573C31.2748 12.2541 30.1921 12.7619 29.0504 13.7402V13.7418ZM23.5234 12.3855C22.9104 12.7347 22.6683 14.1316 23.0312 15.9717C23.0745 16.1676 23.1178 16.3631 23.1692 16.5676C24.028 16.3808 24.8993 16.247 25.7773 16.1671C26.2778 15.4556 26.8319 14.7775 27.4355 14.138C27.3408 14.044 27.2368 13.9591 27.142 13.8737C25.9402 12.8233 24.7847 12.2691 24.0301 12.2691C23.8528 12.2635 23.6773 12.3038 23.5234 12.3855ZM29.1711 16.0993C28.815 15.623 28.4308 15.1653 28.0202 14.728C27.632 15.1451 27.2431 15.6053 26.8647 16.0993C27.2449 16.0822 27.6244 16.0736 28.0133 16.0736C28.4021 16.0736 28.791 16.0806 29.1711 16.0993ZM26.2869 20.0181C26.2788 19.7992 26.3175 19.5809 26.4009 19.3759C26.4842 19.1708 26.6105 18.9829 26.7726 18.823C26.9346 18.6632 27.1292 18.5344 27.3452 18.4442C27.5612 18.3539 27.7943 18.3039 28.0312 18.2971C28.5092 18.3122 28.9613 18.5018 29.2883 18.8244C29.6152 19.147 29.7905 19.5763 29.7755 20.0181C29.7909 20.4603 29.6158 20.8901 29.2887 21.2131C28.9615 21.536 28.5091 21.7258 28.0306 21.7407C27.7936 21.7339 27.5603 21.6839 27.3443 21.5935C27.1282 21.5032 26.9336 21.3743 26.7716 21.2142C26.6095 21.0542 26.4833 20.8661 26.4002 20.6608C26.317 20.4556 26.2785 20.2372 26.2869 20.0181Z" fill="#3996DB"/>
<path d="M49.6705 26V15.328H54.0545C55.0999 15.328 55.8839 15.5893 56.4065 16.112C56.9399 16.6347 57.2065 17.408 57.2065 18.432C57.2065 19.0507 57.0785 19.6 56.8225 20.08C56.5665 20.56 56.2092 20.9387 55.7505 21.216C55.2919 21.4933 54.7532 21.632 54.1345 21.632L54.6145 21.312L57.6865 26H56.3265L53.1585 21.104L53.7345 21.696H50.8225V26H49.6705ZM50.8225 20.608H53.5265C54.4119 20.608 55.0519 20.432 55.4465 20.08C55.8519 19.7173 56.0545 19.1947 56.0545 18.512C56.0545 17.872 55.9052 17.3653 55.6065 16.992C55.3079 16.608 54.7479 16.416 53.9265 16.416H50.8225V20.608ZM62.9803 26.24C62.223 26.24 61.567 26.0853 61.0123 25.776C60.4576 25.456 60.031 24.9813 59.7323 24.352C59.4336 23.7227 59.2843 22.9387 59.2843 22C59.2843 20.624 59.5936 19.5947 60.2123 18.912C60.8416 18.2187 61.7003 17.872 62.7883 17.872C63.6416 17.872 64.3243 18.064 64.8363 18.448C65.359 18.832 65.7323 19.3493 65.9563 20C66.1803 20.6507 66.287 21.3867 66.2763 22.208H59.8603L59.9403 21.152H65.5243L65.0763 21.312C65.0443 20.512 64.8416 19.9147 64.4683 19.52C64.1056 19.1253 63.5456 18.928 62.7883 18.928C62.2656 18.928 61.8283 19.024 61.4763 19.216C61.135 19.408 60.879 19.744 60.7083 20.224C60.5376 20.6933 60.4523 21.3547 60.4523 22.208C60.4523 23.1787 60.6763 23.92 61.1243 24.432C61.583 24.9333 62.223 25.184 63.0443 25.184C63.439 25.184 63.8016 25.1573 64.1323 25.104C64.463 25.04 64.767 24.9547 65.0443 24.848C65.3216 24.7413 65.567 24.624 65.7803 24.496V25.68C65.3963 25.8613 64.9696 26 64.5003 26.096C64.0416 26.192 63.535 26.24 62.9803 26.24ZM71.1863 26.24C70.8343 26.24 70.477 26.2027 70.1143 26.128C69.7623 26.0533 69.4316 25.9253 69.1223 25.744C68.8236 25.5627 68.5783 25.3173 68.3863 25.008C68.205 24.688 68.1143 24.288 68.1143 23.808C68.1143 23.1467 68.237 22.6187 68.4823 22.224C68.7383 21.8187 69.085 21.5307 69.5223 21.36C69.9703 21.1787 70.4823 21.088 71.0583 21.088C71.4956 21.088 71.8743 21.1147 72.1943 21.168C72.5143 21.2213 72.797 21.3013 73.0423 21.408C73.2983 21.504 73.5276 21.616 73.7303 21.744L73.9543 22.8C73.709 22.6187 73.3516 22.464 72.8823 22.336C72.4236 22.1973 71.917 22.128 71.3623 22.128C70.6903 22.128 70.173 22.256 69.8103 22.512C69.4476 22.768 69.2663 23.1413 69.2663 23.632C69.2663 24.0267 69.373 24.3413 69.5863 24.576C69.8103 24.8107 70.0876 24.976 70.4183 25.072C70.7596 25.168 71.1063 25.216 71.4583 25.216C72.1516 25.216 72.6743 25.168 73.0263 25.072C73.389 24.9653 73.5703 24.7307 73.5703 24.368V20.704C73.5703 20.0853 73.389 19.632 73.0263 19.344C72.6636 19.056 72.1463 18.912 71.4743 18.912C71.0476 18.912 70.5943 18.976 70.1143 19.104C69.645 19.2213 69.2396 19.4133 68.8983 19.68V18.528C69.229 18.3147 69.6716 18.1547 70.2263 18.048C70.781 17.9307 71.3196 17.872 71.8423 17.872C72.1943 17.872 72.5196 17.9093 72.8183 17.984C73.117 18.048 73.3836 18.1493 73.6183 18.288C73.853 18.416 74.0503 18.5867 74.2103 18.8C74.381 19.0027 74.509 19.2427 74.5943 19.52C74.6903 19.7867 74.7383 20.0907 74.7383 20.432V24.304C74.7383 24.8693 74.5676 25.2907 74.2263 25.568C73.8956 25.8453 73.4583 26.0267 72.9143 26.112C72.381 26.1973 71.805 26.24 71.1863 26.24ZM80.6377 26.128C80.211 26.128 79.7737 26.0747 79.3257 25.968C78.8883 25.8507 78.483 25.648 78.1097 25.36C77.747 25.0613 77.4537 24.64 77.2297 24.096C77.0057 23.552 76.8937 22.8533 76.8937 22C76.8937 21.1467 77.0057 20.4533 77.2297 19.92C77.4537 19.376 77.747 18.9547 78.1097 18.656C78.483 18.3573 78.8883 18.1547 79.3257 18.048C79.7737 17.9307 80.211 17.872 80.6377 17.872C81.043 17.872 81.443 17.9093 81.8377 17.984C82.243 18.0587 82.6323 18.1707 83.0057 18.32V19.424C82.6537 19.2747 82.291 19.1627 81.9177 19.088C81.5443 19.0133 81.1603 18.976 80.7657 18.976C79.8163 18.976 79.123 19.216 78.6857 19.696C78.259 20.176 78.0457 20.944 78.0457 22C78.0457 23.0667 78.259 23.84 78.6857 24.32C79.123 24.7893 79.8163 25.024 80.7657 25.024C81.1603 25.024 81.5443 24.9867 81.9177 24.912C82.291 24.8373 82.6537 24.7253 83.0057 24.576V25.696C82.6323 25.8347 82.243 25.9413 81.8377 26.016C81.443 26.0907 81.043 26.128 80.6377 26.128ZM87.6807 26.128C87.1153 26.128 86.6407 25.9573 86.2567 25.616C85.8727 25.264 85.6807 24.7467 85.6807 24.064V19.072H84.2887V18.016H85.6807V15.76H86.8327V18.016H88.8967V19.072H86.8327V23.696C86.8327 24.144 86.902 24.48 87.0407 24.704C87.1793 24.928 87.462 25.04 87.8887 25.04C88.0807 25.04 88.2673 25.024 88.4487 24.992C88.63 24.9493 88.7793 24.9013 88.8967 24.848V25.936C88.7473 25.9893 88.5553 26.032 88.3207 26.064C88.0967 26.1067 87.8833 26.128 87.6807 26.128Z" fill="#C0C4CE"/>
</svg>
