<svg width="92" height="40" viewBox="0 0 92 40" fill="none" xmlns="http://www.w3.org/2000/svg">
<rect x="0.00585938" width="92" height="40" rx="20" fill="#292C34"/>
<path d="M20.0801 11L21.5227 27.1952L27.9957 29L34.4868 27.1886L35.9305 11H20.0801ZM32.9336 14.7104L32.4534 20.1055L32.4548 20.1346L32.4528 20.2016V20.2011L32.1116 23.9734L32.0741 24.3086L28.0053 25.4339L28.0021 25.4368L23.9404 24.3051L23.6654 21.1863H25.6571L25.7984 22.7722L28.0059 23.3704L28.0053 23.3716V23.3713L30.2209 22.7646L30.455 20.182H25.8234L25.7837 19.7454L25.6931 18.7226L25.6457 18.1734H30.631L30.8124 16.1649H23.2192L23.1794 15.7286L23.089 14.7055L23.0414 14.1563H32.9811L32.9336 14.7104Z" fill="#3996DB"/>
<path d="M53.9783 26.128C52.3356 26.128 51.0983 25.6693 50.2663 24.752C49.445 23.8347 49.0343 22.4693 49.0343 20.656C49.0343 18.8427 49.445 17.4773 50.2663 16.56C51.0983 15.6427 52.3356 15.184 53.9783 15.184C54.5436 15.184 55.0983 15.2533 55.6423 15.392C56.1863 15.5307 56.7143 15.7227 57.2263 15.968V17.072C56.7356 16.8053 56.229 16.608 55.7063 16.48C55.1836 16.3413 54.6503 16.272 54.1063 16.272C53.2103 16.272 52.4743 16.4267 51.8983 16.736C51.333 17.0453 50.9116 17.5253 50.6343 18.176C50.3676 18.816 50.2343 19.6427 50.2343 20.656C50.2343 21.6693 50.3676 22.5013 50.6343 23.152C50.9116 23.792 51.333 24.2667 51.8983 24.576C52.4743 24.8853 53.2103 25.04 54.1063 25.04C54.6503 25.04 55.1836 24.976 55.7063 24.848C56.229 24.72 56.7356 24.5227 57.2263 24.256V25.36C56.885 25.52 56.533 25.6587 56.1703 25.776C55.8183 25.8933 55.4556 25.9787 55.0823 26.032C54.7196 26.096 54.3516 26.128 53.9783 26.128ZM62.4914 26.16C61.9581 26.16 61.5048 26.1227 61.1314 26.048C60.7581 25.9733 60.4221 25.8667 60.1234 25.728C59.8248 25.5893 59.4994 25.4293 59.1474 25.248V24C59.4888 24.288 59.9474 24.544 60.5234 24.768C61.0994 24.992 61.7714 25.104 62.5394 25.104C63.3501 25.104 63.9368 24.9333 64.2994 24.592C64.6728 24.24 64.8594 23.7973 64.8594 23.264C64.8594 22.816 64.7368 22.4587 64.4914 22.192C64.2461 21.9147 63.9314 21.6907 63.5474 21.52C63.1634 21.3387 62.7581 21.168 62.3314 21.008C61.9688 20.88 61.6061 20.7467 61.2434 20.608C60.8914 20.4587 60.5714 20.2773 60.2834 20.064C59.9954 19.84 59.7661 19.5573 59.5954 19.216C59.4248 18.864 59.3394 18.4267 59.3394 17.904C59.3394 17.616 59.3928 17.312 59.4994 16.992C59.6168 16.672 59.7981 16.3733 60.0434 16.096C60.2994 15.8187 60.6354 15.5947 61.0514 15.424C61.4781 15.2533 61.9954 15.168 62.6034 15.168C63.0194 15.168 63.3714 15.2 63.6594 15.264C63.9581 15.3173 64.2408 15.4027 64.5074 15.52C64.7741 15.6267 65.0728 15.76 65.4034 15.92V17.104C65.1261 16.944 64.8594 16.8 64.6034 16.672C64.3581 16.5333 64.0808 16.4267 63.7714 16.352C63.4728 16.2667 63.1048 16.224 62.6674 16.224C62.1448 16.224 61.7234 16.2987 61.4034 16.448C61.0941 16.5973 60.8648 16.7947 60.7154 17.04C60.5768 17.2853 60.5074 17.5467 60.5074 17.824C60.5074 18.2613 60.6034 18.608 60.7954 18.864C60.9981 19.12 61.2754 19.3333 61.6274 19.504C61.9901 19.664 62.4061 19.824 62.8754 19.984C63.2488 20.112 63.6221 20.256 63.9954 20.416C64.3688 20.5653 64.7048 20.7573 65.0034 20.992C65.3128 21.216 65.5581 21.504 65.7394 21.856C65.9314 22.1973 66.0274 22.624 66.0274 23.136C66.0274 23.616 65.9208 24.0907 65.7074 24.56C65.4941 25.0187 65.1314 25.4027 64.6194 25.712C64.1074 26.0107 63.3981 26.16 62.4914 26.16ZM71.3664 26.16C70.8331 26.16 70.3798 26.1227 70.0064 26.048C69.6331 25.9733 69.2971 25.8667 68.9984 25.728C68.6998 25.5893 68.3744 25.4293 68.0224 25.248V24C68.3638 24.288 68.8224 24.544 69.3984 24.768C69.9744 24.992 70.6464 25.104 71.4144 25.104C72.2251 25.104 72.8118 24.9333 73.1744 24.592C73.5478 24.24 73.7344 23.7973 73.7344 23.264C73.7344 22.816 73.6118 22.4587 73.3664 22.192C73.1211 21.9147 72.8064 21.6907 72.4224 21.52C72.0384 21.3387 71.6331 21.168 71.2064 21.008C70.8438 20.88 70.4811 20.7467 70.1184 20.608C69.7664 20.4587 69.4464 20.2773 69.1584 20.064C68.8704 19.84 68.6411 19.5573 68.4704 19.216C68.2998 18.864 68.2144 18.4267 68.2144 17.904C68.2144 17.616 68.2678 17.312 68.3744 16.992C68.4918 16.672 68.6731 16.3733 68.9184 16.096C69.1744 15.8187 69.5104 15.5947 69.9264 15.424C70.3531 15.2533 70.8704 15.168 71.4784 15.168C71.8944 15.168 72.2464 15.2 72.5344 15.264C72.8331 15.3173 73.1158 15.4027 73.3824 15.52C73.6491 15.6267 73.9478 15.76 74.2784 15.92V17.104C74.0011 16.944 73.7344 16.8 73.4784 16.672C73.2331 16.5333 72.9558 16.4267 72.6464 16.352C72.3478 16.2667 71.9798 16.224 71.5424 16.224C71.0198 16.224 70.5984 16.2987 70.2784 16.448C69.9691 16.5973 69.7398 16.7947 69.5904 17.04C69.4518 17.2853 69.3824 17.5467 69.3824 17.824C69.3824 18.2613 69.4784 18.608 69.6704 18.864C69.8731 19.12 70.1504 19.3333 70.5024 19.504C70.8651 19.664 71.2811 19.824 71.7504 19.984C72.1238 20.112 72.4971 20.256 72.8704 20.416C73.2438 20.5653 73.5798 20.7573 73.8784 20.992C74.1878 21.216 74.4331 21.504 74.6144 21.856C74.8064 22.1973 74.9024 22.624 74.9024 23.136C74.9024 23.616 74.7958 24.0907 74.5824 24.56C74.3691 25.0187 74.0064 25.4027 73.4944 25.712C72.9824 26.0107 72.2731 26.16 71.3664 26.16Z" fill="#C0C4CE"/>
</svg>
