<svg width="158" height="40" viewBox="0 0 158 40" fill="none" xmlns="http://www.w3.org/2000/svg">
<rect width="158" height="40" rx="20" fill="#292C34"/>
<path d="M28.5609 26.9438C28.3876 26.7905 28.2068 26.6368 28.034 26.4664C27.8959 26.594 27.7665 26.7137 27.6296 26.8327C25.9199 28.3065 24.1577 28.92 23.1131 28.3236C22.1026 27.7528 21.7842 26.0665 22.1887 23.945C22.2318 23.715 22.2836 23.4851 22.3441 23.2551C22.1627 23.2017 21.9899 23.1526 21.8172 23.0949C19.6661 22.3607 18.25 21.1683 18.25 19.9754C18.25 18.8258 19.5714 17.7097 21.6352 16.9942C21.8663 16.9173 22.1101 16.841 22.3609 16.7726C22.3031 16.551 22.2574 16.338 22.2141 16.1318C21.7819 13.9783 22.0841 12.2579 23.1033 11.6785C24.1652 11.0649 25.9274 11.7212 27.6972 13.2628C27.8006 13.3562 27.9046 13.4588 28.0167 13.5608C28.1808 13.4075 28.3362 13.2543 28.5003 13.1181C30.1758 11.6764 31.8421 11.0735 32.8613 11.6529C33.9232 12.2488 34.2347 14.0889 33.7597 16.3636C33.7337 16.5088 33.702 16.645 33.665 16.7908C33.8811 16.8506 34.0966 16.9184 34.2953 16.9867C36.4025 17.7023 37.7672 18.8183 37.7498 19.9936C37.7498 21.1945 36.2904 22.3788 34.0521 23.1115C33.9313 23.1456 33.8106 23.1883 33.6892 23.222C33.7412 23.3923 33.7753 23.5627 33.81 23.733C34.2589 25.9394 33.9134 27.7453 32.8688 28.3417C32.5945 28.4944 32.279 28.5721 31.9588 28.566C31.0014 28.5644 29.7858 27.9818 28.5609 26.9438ZM30.2538 23.8174C29.7577 24.5305 29.2126 25.2135 28.6216 25.862C28.7857 26.0222 28.9498 26.169 29.1139 26.3052C30.5387 27.5146 31.8514 27.9664 32.4649 27.6171C32.6523 27.468 32.8054 27.2856 32.9152 27.0808C33.025 26.876 33.0891 26.6529 33.104 26.4248C33.2286 25.5794 33.1934 24.7205 33 23.8863C32.974 23.733 32.9422 23.5797 32.8965 23.418C32.0264 23.6062 31.1435 23.7396 30.2538 23.8174ZM23.0166 24.0902C22.663 25.9057 22.9219 27.2588 23.5366 27.6086C23.7544 27.6927 23.9896 27.7315 24.2254 27.7223C24.4612 27.7131 24.692 27.656 24.9013 27.5552C25.7157 27.2389 26.4573 26.782 27.0865 26.209C27.2159 26.1065 27.3366 25.9874 27.4666 25.8684C26.8627 25.2197 26.3031 24.5368 25.7911 23.8238C24.9048 23.7554 24.0247 23.6305 23.157 23.45C23.1033 23.6727 23.06 23.8852 23.0166 24.0902ZM28.0433 25.2826C28.4234 24.865 28.803 24.4053 29.1832 23.8943C28.803 23.9113 28.4061 23.9199 28.0086 23.9199C27.6111 23.9199 27.2401 23.9113 26.8686 23.8943C27.2569 24.3962 27.6463 24.865 28.0433 25.2826ZM26.229 16.9686C25.9009 17.4369 25.5814 17.9297 25.2792 18.4509C24.977 18.9619 24.7014 19.4815 24.4501 19.9994C24.7095 20.5105 24.9857 21.03 25.2879 21.5586C25.59 22.0697 25.9095 22.5732 26.2377 23.049C26.8074 23.0831 27.4037 23.1024 28.008 23.1024C28.6124 23.1024 29.2167 23.0853 29.7956 23.0431C30.1065 22.5748 30.426 22.0718 30.7287 21.5522C31.0315 21.0327 31.3158 20.5046 31.5665 19.9936C31.3158 19.4911 31.0309 18.9715 30.7287 18.4514C30.4266 17.9313 30.1071 17.4369 29.7875 16.9691C29.2098 16.9264 28.6129 16.9008 28.0086 16.9008C27.4042 16.9008 26.808 16.9259 26.229 16.9686ZM23.3795 22.6672C23.972 22.7923 24.5717 22.8862 25.1758 22.9486C24.9683 22.625 24.7615 22.3009 24.5627 21.9602C24.3727 21.6281 24.1826 21.2959 24.0098 20.9638C23.7596 21.5426 23.5522 22.1145 23.3795 22.6672ZM31.4538 21.9517C31.2551 22.2923 31.0563 22.6159 30.8582 22.9315C31.4713 22.8605 32.0796 22.7582 32.6805 22.625C32.4929 22.05 32.2738 21.4841 32.0241 20.9296C31.8427 21.2703 31.6526 21.611 31.4538 21.9517ZM21.9027 17.7776C20.1411 18.3911 19.0791 19.2844 19.0791 19.984C19.1127 20.209 19.194 20.4257 19.3185 20.6216C19.4429 20.8175 19.608 20.9888 19.8042 21.1256C20.4782 21.6494 21.2512 22.0537 22.0841 22.318C22.2395 22.3714 22.4036 22.4119 22.5677 22.4632C22.833 21.6253 23.1531 20.8031 23.5262 20.001C23.1524 19.2127 22.835 18.4025 22.5764 17.5757C22.3433 17.6334 22.1188 17.7007 21.9027 17.7776ZM32.499 19.984C32.8823 20.7758 33.2103 21.5894 33.4813 22.42C33.5939 22.3858 33.706 22.3516 33.8094 22.3174C35.7351 21.6873 36.9294 20.7246 36.9358 19.9749C36.9358 19.2764 35.8305 18.3729 34.0255 17.7599C33.8441 17.7007 33.6459 17.6409 33.4477 17.5811C33.1861 18.3995 32.8692 19.2021 32.499 19.984ZM31.4458 18.0248C31.6445 18.3655 31.8346 18.6981 32.0068 19.0303C32.2467 18.4875 32.4542 17.9329 32.6285 17.3691C32.0419 17.2374 31.448 17.135 30.8495 17.0626C31.0569 17.3771 31.2557 17.6927 31.4458 18.0248ZM23.3881 17.3621C23.5615 17.9073 23.7683 18.4611 24.0098 19.0313C24.1832 18.6992 24.3727 18.3671 24.5627 18.0349C24.7528 17.7028 24.951 17.3792 25.1584 17.0636C24.5367 17.1389 23.9497 17.2409 23.3881 17.3621ZM29.0445 13.7418C28.8978 13.8694 28.751 14.0056 28.6037 14.1423C29.2034 14.7827 29.7545 15.4607 30.2532 16.1714C31.1321 16.2498 32.0037 16.3865 32.8613 16.5804C32.896 16.4528 32.9191 16.3246 32.948 16.197C33.3524 14.2378 33.1034 12.7384 32.447 12.3641C32.303 12.2894 32.1395 12.2524 31.9744 12.2573C31.269 12.2541 30.1862 12.7619 29.0445 13.7402V13.7418ZM23.5176 12.3855C22.9045 12.7347 22.6625 14.1316 23.0253 15.9717C23.0686 16.1676 23.112 16.3631 23.1634 16.5676C24.0222 16.3808 24.8934 16.247 25.7714 16.1671C26.2719 15.4556 26.826 14.7775 27.4297 14.138C27.3349 14.044 27.2309 13.9591 27.1361 13.8737C25.9344 12.8233 24.7788 12.2691 24.0243 12.2691C23.8469 12.2635 23.6714 12.3038 23.5176 12.3855ZM29.1653 16.0993C28.8091 15.623 28.4249 15.1653 28.0144 14.728C27.6261 15.1451 27.2373 15.6053 26.8588 16.0993C27.239 16.0822 27.6186 16.0736 28.0074 16.0736C28.3963 16.0736 28.7851 16.0806 29.1653 16.0993ZM26.281 20.0181C26.2729 19.7992 26.3117 19.5809 26.395 19.3759C26.4784 19.1708 26.6047 18.9829 26.7667 18.823C26.9287 18.6632 27.1233 18.5344 27.3393 18.4442C27.5553 18.3539 27.7884 18.3039 28.0253 18.2971C28.5034 18.3122 28.9554 18.5018 29.2824 18.8244C29.6094 19.147 29.7846 19.5763 29.7696 20.0181C29.7851 20.4603 29.61 20.8901 29.2828 21.2131C28.9557 21.536 28.5032 21.7258 28.0248 21.7407C27.7877 21.7339 27.5545 21.6839 27.3384 21.5935C27.1223 21.5032 26.9277 21.3743 26.7657 21.2142C26.6037 21.0542 26.4775 20.8661 26.3943 20.6608C26.3111 20.4556 26.2726 20.2372 26.281 20.0181Z" fill="#3996DB"/>
<path d="M49.6881 26V15.328H54.0721C55.1175 15.328 55.9015 15.5893 56.4241 16.112C56.9575 16.6347 57.2241 17.408 57.2241 18.432C57.2241 19.0507 57.0961 19.6 56.8401 20.08C56.5841 20.56 56.2268 20.9387 55.7681 21.216C55.3095 21.4933 54.7708 21.632 54.1521 21.632L54.6321 21.312L57.7041 26H56.3441L53.1761 21.104L53.7521 21.696H50.8401V26H49.6881ZM50.8401 20.608H53.5441C54.4295 20.608 55.0695 20.432 55.4641 20.08C55.8695 19.7173 56.0721 19.1947 56.0721 18.512C56.0721 17.872 55.9228 17.3653 55.6241 16.992C55.3255 16.608 54.7655 16.416 53.9441 16.416H50.8401V20.608ZM62.9979 26.24C62.2405 26.24 61.5845 26.0853 61.0299 25.776C60.4752 25.456 60.0485 24.9813 59.7499 24.352C59.4512 23.7227 59.3019 22.9387 59.3019 22C59.3019 20.624 59.6112 19.5947 60.2299 18.912C60.8592 18.2187 61.7179 17.872 62.8059 17.872C63.6592 17.872 64.3419 18.064 64.8539 18.448C65.3765 18.832 65.7499 19.3493 65.9739 20C66.1979 20.6507 66.3045 21.3867 66.2939 22.208H59.8779L59.9579 21.152H65.5419L65.0939 21.312C65.0619 20.512 64.8592 19.9147 64.4859 19.52C64.1232 19.1253 63.5632 18.928 62.8059 18.928C62.2832 18.928 61.8459 19.024 61.4939 19.216C61.1525 19.408 60.8965 19.744 60.7259 20.224C60.5552 20.6933 60.4699 21.3547 60.4699 22.208C60.4699 23.1787 60.6939 23.92 61.1419 24.432C61.6005 24.9333 62.2405 25.184 63.0619 25.184C63.4565 25.184 63.8192 25.1573 64.1499 25.104C64.4805 25.04 64.7845 24.9547 65.0619 24.848C65.3392 24.7413 65.5845 24.624 65.7979 24.496V25.68C65.4139 25.8613 64.9872 26 64.5179 26.096C64.0592 26.192 63.5525 26.24 62.9979 26.24ZM71.2039 26.24C70.8519 26.24 70.4945 26.2027 70.1319 26.128C69.7799 26.0533 69.4492 25.9253 69.1399 25.744C68.8412 25.5627 68.5959 25.3173 68.4039 25.008C68.2225 24.688 68.1319 24.288 68.1319 23.808C68.1319 23.1467 68.2545 22.6187 68.4999 22.224C68.7559 21.8187 69.1025 21.5307 69.5399 21.36C69.9879 21.1787 70.4999 21.088 71.0759 21.088C71.5132 21.088 71.8919 21.1147 72.2119 21.168C72.5319 21.2213 72.8145 21.3013 73.0599 21.408C73.3159 21.504 73.5452 21.616 73.7479 21.744L73.9719 22.8C73.7265 22.6187 73.3692 22.464 72.8999 22.336C72.4412 22.1973 71.9345 22.128 71.3799 22.128C70.7079 22.128 70.1905 22.256 69.8279 22.512C69.4652 22.768 69.2839 23.1413 69.2839 23.632C69.2839 24.0267 69.3905 24.3413 69.6039 24.576C69.8279 24.8107 70.1052 24.976 70.4359 25.072C70.7772 25.168 71.1239 25.216 71.4759 25.216C72.1692 25.216 72.6919 25.168 73.0439 25.072C73.4065 24.9653 73.5879 24.7307 73.5879 24.368V20.704C73.5879 20.0853 73.4065 19.632 73.0439 19.344C72.6812 19.056 72.1639 18.912 71.4919 18.912C71.0652 18.912 70.6119 18.976 70.1319 19.104C69.6625 19.2213 69.2572 19.4133 68.9159 19.68V18.528C69.2465 18.3147 69.6892 18.1547 70.2439 18.048C70.7985 17.9307 71.3372 17.872 71.8599 17.872C72.2119 17.872 72.5372 17.9093 72.8359 17.984C73.1345 18.048 73.4012 18.1493 73.6359 18.288C73.8705 18.416 74.0679 18.5867 74.2279 18.8C74.3985 19.0027 74.5265 19.2427 74.6119 19.52C74.7079 19.7867 74.7559 20.0907 74.7559 20.432V24.304C74.7559 24.8693 74.5852 25.2907 74.2439 25.568C73.9132 25.8453 73.4759 26.0267 72.9319 26.112C72.3985 26.1973 71.8225 26.24 71.2039 26.24ZM80.6553 26.128C80.2286 26.128 79.7913 26.0747 79.3433 25.968C78.9059 25.8507 78.5006 25.648 78.1273 25.36C77.7646 25.0613 77.4713 24.64 77.2473 24.096C77.0233 23.552 76.9113 22.8533 76.9113 22C76.9113 21.1467 77.0233 20.4533 77.2473 19.92C77.4713 19.376 77.7646 18.9547 78.1273 18.656C78.5006 18.3573 78.9059 18.1547 79.3433 18.048C79.7913 17.9307 80.2286 17.872 80.6553 17.872C81.0606 17.872 81.4606 17.9093 81.8553 17.984C82.2606 18.0587 82.6499 18.1707 83.0233 18.32V19.424C82.6713 19.2747 82.3086 19.1627 81.9353 19.088C81.5619 19.0133 81.1779 18.976 80.7833 18.976C79.8339 18.976 79.1406 19.216 78.7033 19.696C78.2766 20.176 78.0633 20.944 78.0633 22C78.0633 23.0667 78.2766 23.84 78.7033 24.32C79.1406 24.7893 79.8339 25.024 80.7833 25.024C81.1779 25.024 81.5619 24.9867 81.9353 24.912C82.3086 24.8373 82.6713 24.7253 83.0233 24.576V25.696C82.6499 25.8347 82.2606 25.9413 81.8553 26.016C81.4606 26.0907 81.0606 26.128 80.6553 26.128ZM87.6983 26.128C87.1329 26.128 86.6583 25.9573 86.2743 25.616C85.8903 25.264 85.6983 24.7467 85.6983 24.064V19.072H84.3063V18.016H85.6983V15.76H86.8503V18.016H88.9143V19.072H86.8503V23.696C86.8503 24.144 86.9196 24.48 87.0583 24.704C87.1969 24.928 87.4796 25.04 87.9062 25.04C88.0983 25.04 88.2849 25.024 88.4663 24.992C88.6476 24.9493 88.7969 24.9013 88.9143 24.848V25.936C88.7649 25.9893 88.5729 26.032 88.3383 26.064C88.1143 26.1067 87.9009 26.128 87.6983 26.128ZM95.7194 26V15.328H97.0314L103.687 24.72L103.399 25.168V15.328H104.551V26H103.255L96.3434 16.256L96.8714 15.76V26H95.7194ZM109.938 26.24C109.586 26.24 109.229 26.2027 108.866 26.128C108.514 26.0533 108.184 25.9253 107.874 25.744C107.576 25.5627 107.33 25.3173 107.138 25.008C106.957 24.688 106.866 24.288 106.866 23.808C106.866 23.1467 106.989 22.6187 107.234 22.224C107.49 21.8187 107.837 21.5307 108.274 21.36C108.722 21.1787 109.234 21.088 109.81 21.088C110.248 21.088 110.626 21.1147 110.946 21.168C111.266 21.2213 111.549 21.3013 111.794 21.408C112.05 21.504 112.28 21.616 112.482 21.744L112.706 22.8C112.461 22.6187 112.104 22.464 111.634 22.336C111.176 22.1973 110.669 22.128 110.114 22.128C109.442 22.128 108.925 22.256 108.562 22.512C108.2 22.768 108.018 23.1413 108.018 23.632C108.018 24.0267 108.125 24.3413 108.338 24.576C108.562 24.8107 108.84 24.976 109.17 25.072C109.512 25.168 109.858 25.216 110.21 25.216C110.904 25.216 111.426 25.168 111.778 25.072C112.141 24.9653 112.322 24.7307 112.322 24.368V20.704C112.322 20.0853 112.141 19.632 111.778 19.344C111.416 19.056 110.898 18.912 110.226 18.912C109.8 18.912 109.346 18.976 108.866 19.104C108.397 19.2213 107.992 19.4133 107.65 19.68V18.528C107.981 18.3147 108.424 18.1547 108.978 18.048C109.533 17.9307 110.072 17.872 110.594 17.872C110.946 17.872 111.272 17.9093 111.57 17.984C111.869 18.048 112.136 18.1493 112.37 18.288C112.605 18.416 112.802 18.5867 112.962 18.8C113.133 19.0027 113.261 19.2427 113.346 19.52C113.442 19.7867 113.49 20.0907 113.49 20.432V24.304C113.49 24.8693 113.32 25.2907 112.978 25.568C112.648 25.8453 112.21 26.0267 111.666 26.112C111.133 26.1973 110.557 26.24 109.938 26.24ZM118.558 26.128C117.992 26.128 117.518 25.9573 117.134 25.616C116.75 25.264 116.558 24.7467 116.558 24.064V19.072H115.166V18.016H116.558V15.76H117.71V18.016H119.774V19.072H117.71V23.696C117.71 24.144 117.779 24.48 117.918 24.704C118.056 24.928 118.339 25.04 118.766 25.04C118.958 25.04 119.144 25.024 119.326 24.992C119.507 24.9493 119.656 24.9013 119.774 24.848V25.936C119.624 25.9893 119.432 26.032 119.198 26.064C118.974 26.1067 118.76 26.128 118.558 26.128ZM121.922 26V18.016H123.074V26H121.922ZM121.858 16.592V15.328H123.138V16.592H121.858ZM128.358 26L124.982 18.016H126.214L129.158 25.008L128.902 25.072L131.766 18.016H132.918L129.526 26H128.358ZM137.498 26.24C136.741 26.24 136.085 26.0853 135.53 25.776C134.975 25.456 134.549 24.9813 134.25 24.352C133.951 23.7227 133.802 22.9387 133.802 22C133.802 20.624 134.111 19.5947 134.73 18.912C135.359 18.2187 136.218 17.872 137.306 17.872C138.159 17.872 138.842 18.064 139.354 18.448C139.877 18.832 140.25 19.3493 140.474 20C140.698 20.6507 140.805 21.3867 140.794 22.208H134.378L134.458 21.152H140.042L139.594 21.312C139.562 20.512 139.359 19.9147 138.986 19.52C138.623 19.1253 138.063 18.928 137.306 18.928C136.783 18.928 136.346 19.024 135.994 19.216C135.653 19.408 135.397 19.744 135.226 20.224C135.055 20.6933 134.97 21.3547 134.97 22.208C134.97 23.1787 135.194 23.92 135.642 24.432C136.101 24.9333 136.741 25.184 137.562 25.184C137.957 25.184 138.319 25.1573 138.65 25.104C138.981 25.04 139.285 24.9547 139.562 24.848C139.839 24.7413 140.085 24.624 140.298 24.496V25.68C139.914 25.8613 139.487 26 139.018 26.096C138.559 26.192 138.053 26.24 137.498 26.24Z" fill="#C0C4CE"/>
</svg>
