<svg width="114" height="40" viewBox="0 0 114 40" fill="none" xmlns="http://www.w3.org/2000/svg">
<rect x="0.00585938" width="114" height="40" rx="20" fill="#292C34"/>
<path fill-rule="evenodd" clip-rule="evenodd" d="M28.0058 10.4912C22.6218 10.4912 18.2559 14.8561 18.2559 20.2411C18.2559 24.5491 21.0495 28.2036 24.9234 29.493C25.4106 29.5834 25.5895 29.2815 25.5895 29.0239C25.5895 28.7914 25.5804 28.0234 25.5762 27.2087C22.8638 27.7985 22.2914 26.0583 22.2914 26.0583C21.8479 24.9314 21.2089 24.6317 21.2089 24.6317C20.3241 24.0266 21.2755 24.0392 21.2755 24.0392C22.2544 24.1078 22.7701 25.0439 22.7701 25.0439C23.6397 26.5341 25.051 26.1034 25.6074 25.8544C25.6949 25.2243 25.9476 24.794 26.2264 24.5505C24.0608 24.3043 21.7841 23.4681 21.7841 19.7322C21.7841 18.6678 22.1652 17.798 22.7889 17.115C22.6875 16.8696 22.3537 15.878 22.8831 14.535C22.8831 14.535 23.7017 14.273 25.5649 15.5344C26.3428 15.3182 27.177 15.2096 28.0058 15.2058C28.834 15.2096 29.6688 15.3179 30.4481 15.5341C32.309 14.2726 33.1266 14.5347 33.1266 14.5347C33.6573 15.8775 33.3236 16.8693 33.2224 17.1147C33.8475 17.7977 34.2258 18.6674 34.2258 19.7319C34.2258 23.4767 31.9449 24.3011 29.7739 24.5426C30.1237 24.8452 30.4353 25.4387 30.4353 26.3482C30.4353 27.6527 30.424 28.7026 30.424 29.0238C30.424 29.2832 30.5997 29.5873 31.0938 29.4915C34.9654 28.2008 37.7559 24.5474 37.7559 20.2411C37.7557 14.8565 33.3903 10.4912 28.0058 10.4912Z" fill="#C0C4CE"/>
<path d="M21.9486 24.4898C21.9272 24.5382 21.851 24.5528 21.7815 24.5197C21.7105 24.488 21.6709 24.422 21.6939 24.3734C21.7149 24.3233 21.7912 24.3096 21.8618 24.343C21.9328 24.3749 21.9734 24.4414 21.9486 24.4898ZM22.3436 24.9304C22.2972 24.9735 22.2063 24.9535 22.1447 24.8852C22.0807 24.8174 22.0688 24.7265 22.1161 24.6827C22.1642 24.6398 22.2523 24.6601 22.3163 24.728C22.3799 24.7967 22.3923 24.8867 22.3436 24.9304ZM22.7282 25.4918C22.6684 25.5335 22.5706 25.4945 22.5102 25.4078C22.4504 25.321 22.4504 25.2168 22.5118 25.1753C22.572 25.1337 22.6684 25.1713 22.7298 25.2572C22.7892 25.3452 22.7892 25.4495 22.7282 25.4918ZM23.2547 26.0344C23.2014 26.0934 23.0874 26.0776 23.0041 25.9973C22.919 25.9187 22.8953 25.8068 22.9487 25.748C23.0029 25.6889 23.1174 25.7054 23.2012 25.7852C23.2863 25.8636 23.3116 25.9758 23.2547 26.0344ZM23.9812 26.3494C23.9575 26.4258 23.848 26.4605 23.7374 26.4279C23.6271 26.3945 23.555 26.3052 23.5776 26.228C23.6002 26.151 23.7104 26.115 23.8217 26.1497C23.932 26.183 24.0041 26.2718 23.9812 26.3494ZM24.7793 26.4077C24.782 26.4881 24.6884 26.5547 24.5726 26.5563C24.4559 26.559 24.3614 26.4938 24.3603 26.4147C24.3603 26.3335 24.452 26.2677 24.5686 26.2655C24.6843 26.2634 24.7793 26.3281 24.7793 26.4077ZM25.5216 26.2815C25.5355 26.3598 25.455 26.4403 25.3398 26.4618C25.2268 26.4828 25.1219 26.434 25.1073 26.3564C25.0935 26.276 25.1755 26.1954 25.2885 26.1746C25.4038 26.1547 25.5071 26.2019 25.5216 26.2815Z" fill="#C0C4CE"/>
<path d="M54.0583 26.16C52.9703 26.16 52.0583 25.9573 51.3223 25.552C50.5863 25.136 50.0316 24.5227 49.6583 23.712C49.2956 22.8907 49.1143 21.872 49.1143 20.656C49.1143 19.44 49.2956 18.4267 49.6583 17.616C50.0316 16.8053 50.5863 16.1973 51.3223 15.792C52.0583 15.3867 52.9703 15.184 54.0583 15.184C54.645 15.184 55.221 15.2427 55.7863 15.36C56.3516 15.4773 56.8956 15.6587 57.4183 15.904V17.104C56.917 16.88 56.3943 16.688 55.8503 16.528C55.3063 16.3573 54.7516 16.272 54.1863 16.272C53.2903 16.272 52.549 16.432 51.9623 16.752C51.3863 17.0613 50.9596 17.5413 50.6823 18.192C50.405 18.832 50.2663 19.6533 50.2663 20.656C50.2663 21.6587 50.405 22.4853 50.6823 23.136C50.9596 23.7867 51.3863 24.272 51.9623 24.592C52.549 24.9013 53.2903 25.056 54.1863 25.056C54.613 25.056 55.029 25.024 55.4343 24.96C55.8396 24.896 56.2396 24.8 56.6343 24.672V21.632H54.0583V20.512H57.7863V25.328C57.1996 25.6053 56.597 25.8133 55.9783 25.952C55.3596 26.0907 54.7196 26.16 54.0583 26.16ZM60.4827 26V18.016H61.6347V26H60.4827ZM60.4187 16.592V15.328H61.6987V16.592H60.4187ZM66.7744 26.128C66.2091 26.128 65.7344 25.9573 65.3504 25.616C64.9664 25.264 64.7744 24.7467 64.7744 24.064V19.072H63.3824V18.016H64.7744V15.76H65.9264V18.016H67.9904V19.072H65.9264V23.696C65.9264 24.144 65.9958 24.48 66.1344 24.704C66.2731 24.928 66.5558 25.04 66.9824 25.04C67.1744 25.04 67.3611 25.024 67.5424 24.992C67.7238 24.9493 67.8731 24.9013 67.9904 24.848V25.936C67.8411 25.9893 67.6491 26.032 67.4144 26.064C67.1904 26.1067 66.9771 26.128 66.7744 26.128ZM70.1549 26V15.328H71.3069V20.128H76.9869V15.328H78.1389V26H76.9869V21.216H71.3069V26H70.1549ZM84.122 26.24C83.418 26.24 82.8154 26.1173 82.314 25.872C81.8127 25.6267 81.4287 25.2693 81.162 24.8C80.906 24.3307 80.778 23.7547 80.778 23.072V18.016H81.93V22.816C81.93 23.6267 82.106 24.224 82.458 24.608C82.8207 24.9813 83.3754 25.168 84.122 25.168C84.8687 25.168 85.418 24.9813 85.77 24.608C86.1327 24.224 86.314 23.6267 86.314 22.816V18.016H87.466V23.072C87.466 24.0853 87.1727 24.8693 86.586 25.424C86.01 25.968 85.1887 26.24 84.122 26.24ZM93.18 26.24C92.764 26.24 92.364 26.2133 91.98 26.16C91.6067 26.1173 91.2707 26.0373 90.972 25.92C90.684 25.792 90.4547 25.6267 90.284 25.424C90.1134 25.2213 90.028 24.96 90.028 24.64V14.64H91.18V18.928L90.78 18.528C90.9934 18.4213 91.2494 18.32 91.548 18.224C91.8574 18.128 92.172 18.048 92.492 17.984C92.812 17.92 93.0894 17.888 93.324 17.888C94.5614 17.888 95.4787 18.2507 96.076 18.976C96.6734 19.6907 96.972 20.6667 96.972 21.904C96.972 22.8213 96.8494 23.568 96.604 24.144C96.3587 24.7093 96.044 25.1467 95.66 25.456C95.2867 25.7547 94.8814 25.9573 94.444 26.064C94.0067 26.1813 93.5854 26.24 93.18 26.24ZM93.068 25.184C93.8254 25.184 94.396 25.0293 94.78 24.72C95.164 24.4107 95.42 24.0107 95.548 23.52C95.6867 23.0187 95.756 22.48 95.756 21.904C95.756 21.3173 95.6707 20.8053 95.5 20.368C95.34 19.92 95.084 19.5733 94.732 19.328C94.38 19.072 93.9107 18.944 93.324 18.944C92.9934 18.944 92.636 18.992 92.252 19.088C91.868 19.1733 91.5107 19.312 91.18 19.504V24.368C91.18 24.6027 91.2814 24.7787 91.484 24.896C91.6974 25.0133 91.948 25.0933 92.236 25.136C92.5347 25.168 92.812 25.184 93.068 25.184Z" fill="#C0C4CE"/>
</svg>
