<svg width="24" height="24" viewBox="0 0 24 24" fill="none" xmlns="http://www.w3.org/2000/svg">
<g clip-path="url(#clip0_194_241)">
<path d="M23.657 9.54375C23.4977 8.775 23.2633 8.025 22.9539 7.29375C22.6539 6.58125 22.2789 5.90625 21.8477 5.26875C21.4164 4.63125 20.9289 4.05 20.3945 3.50625C19.8508 2.9625 19.2508 2.46562 18.632 2.05312C17.9945 1.62187 17.3008 1.24688 16.607 0.946876C15.8852 0.637501 15.1352 0.403126 14.357 0.243751C13.5695 0.0843756 12.7633 0 11.9477 0C11.132 0 10.3258 0.0843756 9.53828 0.243751C8.76953 0.403126 8.01953 0.637501 7.29766 0.946876C6.58516 1.24688 5.91016 1.62187 5.27266 2.05312C4.63516 2.48437 4.04453 2.97187 3.51016 3.50625C2.97578 4.04062 2.47891 4.65 2.05703 5.26875C1.62578 5.90625 1.25078 6.58125 0.950782 7.29375C0.641407 8.01562 0.407032 8.76562 0.247657 9.54375C0.0882818 10.3312 0.00390625 11.1375 0.00390625 11.9531C0.00390625 12.7687 0.0882818 13.575 0.247657 14.3625C0.407032 15.1313 0.641407 15.8813 0.950782 16.6031C1.25078 17.3156 1.62578 17.9906 2.05703 18.6375C2.48828 19.275 2.97578 19.8563 3.51016 20.4C4.05391 20.9438 4.65391 21.4313 5.27266 21.8531C5.91016 22.2844 6.60391 22.6594 7.29766 22.9594C8.01953 23.2688 8.76953 23.5031 9.53828 23.6625C10.3258 23.8219 11.132 23.9062 11.9477 23.9062C12.7633 23.9062 13.5602 23.8219 14.357 23.6625C15.1258 23.5031 15.8758 23.2688 16.607 22.9594C17.3195 22.6594 17.9945 22.2844 18.632 21.8531C19.2695 21.4219 19.8602 20.9344 20.3945 20.4C20.9383 19.8563 21.4258 19.2562 21.8477 18.6375C22.2789 18 22.6539 17.3156 22.9539 16.6031C23.2633 15.8813 23.4977 15.1313 23.657 14.3625C23.8164 13.575 23.9008 12.7687 23.9008 11.9531C23.9008 11.1375 23.8164 10.3312 23.657 9.54375ZM11.9477 1.74375C14.5352 1.74375 16.8883 2.70937 18.6883 4.29375C18.6602 4.33125 17.2164 6.54375 13.3539 7.9875C11.6102 4.78125 9.68828 2.23125 9.52891 2.025C10.307 1.84688 11.1133 1.74375 11.9477 1.74375ZM9.48203 2.04375C9.49141 2.03437 9.48203 2.03437 9.48203 2.04375ZM7.58828 2.71875C7.72891 2.89687 9.61328 5.46562 11.3852 8.60625C6.48203 9.9 2.22578 9.85313 1.96328 9.84375C2.61016 6.68437 4.73828 4.05938 7.58828 2.71875ZM4.34453 18.7688C2.72266 16.9688 1.72891 14.5781 1.72891 11.9531C1.72891 11.8406 1.73828 11.7375 1.73828 11.6344C1.91641 11.6344 6.96016 11.7563 12.2195 10.1813C12.5102 10.7531 12.7914 11.3438 13.0539 11.9156C12.9227 11.9531 12.782 11.9906 12.6508 12.0375C7.13828 13.8187 4.34453 18.7688 4.34453 18.7688ZM11.9477 22.1625C9.56641 22.1625 7.40078 21.3469 5.66641 19.9969C5.70391 19.9219 7.68203 15.7125 13.682 13.6219C13.7008 13.6125 13.7289 13.6031 13.7477 13.6031C15.182 17.3344 15.7727 20.4562 15.9227 21.3562C14.7039 21.8719 13.3539 22.1625 11.9477 22.1625ZM17.6477 20.4187C17.5445 19.8 17.0008 16.8094 15.6602 13.125C18.9602 12.6 21.8195 13.5 22.0258 13.575C21.5758 16.4156 19.9352 18.8719 17.6477 20.4187ZM15.0414 11.5125C14.9664 11.3344 14.8914 11.1656 14.8164 10.9875C14.6008 10.4813 14.3758 9.99375 14.132 9.50625C18.1633 7.86562 19.8039 5.49375 19.8227 5.46562C21.2477 7.20937 22.1195 9.43125 22.1477 11.85C22.007 11.8219 18.5477 11.0719 15.0414 11.5125Z" fill="white"/>
</g>
<defs>
<clipPath id="clip0_194_241">
<rect width="24" height="24" fill="white"/>
</clipPath>
</defs>
</svg>
