<svg width="24" height="24" viewBox="0 0 24 24" fill="none" xmlns="http://www.w3.org/2000/svg">
<g clip-path="url(#clip0_75_24)">
<mask id="mask0_75_24" style="mask-type:luminance" maskUnits="userSpaceOnUse" x="0" y="0" width="24" height="24">
<path d="M23.3745 0H0.417969V24H23.3745V0Z" fill="white"/>
</mask>
<g mask="url(#mask0_75_24)">
<mask id="mask1_75_24" style="mask-type:luminance" maskUnits="userSpaceOnUse" x="0" y="0" width="24" height="24">
<path d="M23.3745 0H0.417969V24H23.3745V0Z" fill="white"/>
</mask>
<g mask="url(#mask1_75_24)">
<mask id="mask2_75_24" style="mask-type:luminance" maskUnits="userSpaceOnUse" x="0" y="0" width="24" height="24">
<path d="M23.3745 0H0.417969V24H23.3745V0Z" fill="white"/>
</mask>
<g mask="url(#mask2_75_24)">
<mask id="mask3_75_24" style="mask-type:luminance" maskUnits="userSpaceOnUse" x="0" y="0" width="24" height="24">
<path d="M23.3745 0H0.417969V24H23.3745V0Z" fill="white"/>
</mask>
<g mask="url(#mask3_75_24)">
<path d="M11.8963 2.16094C14.963 2.16094 15.3263 2.175 16.5324 2.23125C17.6533 2.28281 18.2585 2.47969 18.6622 2.64375C19.1957 2.85937 19.5813 3.12188 19.9803 3.53906C20.3839 3.96094 20.6305 4.35937 20.8368 4.91719C20.9937 5.33905 21.182 5.97655 21.2313 7.14375C21.2852 8.40935 21.2985 8.78905 21.2985 11.9906C21.2985 15.1969 21.2852 15.5765 21.2313 16.8375C21.182 18.0094 20.9937 18.6422 20.8368 19.0641C20.6305 19.6219 20.3794 20.0249 19.9803 20.4422C19.5768 20.8641 19.1957 21.1219 18.6622 21.3375C18.2585 21.5016 17.6488 21.6984 16.5324 21.75C15.3218 21.8063 14.9585 21.8203 11.8963 21.8203C8.82938 21.8203 8.46619 21.8063 7.26011 21.75C6.13916 21.6984 5.53388 21.5016 5.13034 21.3375C4.59678 21.1219 4.21118 20.8594 3.81213 20.4422C3.4086 20.0203 3.16199 19.6219 2.95574 19.0641C2.79881 18.6422 2.61049 18.0047 2.56118 16.8375C2.50737 15.5719 2.49393 15.1922 2.49393 11.9906C2.49393 8.7844 2.50737 8.4047 2.56118 7.14375C2.61049 5.97185 2.79881 5.33905 2.95574 4.91719C3.16199 4.35937 3.41307 3.95625 3.81213 3.53906C4.21567 3.11719 4.59678 2.85937 5.13034 2.64375C5.53388 2.47969 6.14366 2.28281 7.26011 2.23125C8.46619 2.175 8.82938 2.16094 11.8963 2.16094ZM11.8963 0C8.78007 0 8.39001 0.0140625 7.16594 0.0703125C5.94638 0.126563 5.10791 0.332812 4.38156 0.628125C3.6238 0.9375 2.98264 1.34531 2.34596 2.01563C1.7048 2.68125 1.31471 3.35157 1.01878 4.13906C0.736311 4.90312 0.539029 5.775 0.485224 7.05C0.43142 8.33435 0.417969 8.7422 0.417969 12C0.417969 15.2578 0.43142 15.6656 0.485224 16.9453C0.539029 18.2203 0.736311 19.0969 1.01878 19.8563C1.31471 20.6484 1.7048 21.3188 2.34596 21.9844C2.98264 22.65 3.62382 23.0625 4.37707 23.3672C5.10791 23.6625 5.94188 23.8688 7.16145 23.9249C8.38551 23.9812 8.77558 23.9953 11.8918 23.9953C15.0079 23.9953 15.3981 23.9812 16.6221 23.9249C17.8417 23.8688 18.6801 23.6625 19.4064 23.3672C20.1597 23.0625 20.8009 22.65 21.4375 21.9844C22.0742 21.3188 22.4688 20.6484 22.7602 19.861C23.0427 19.0969 23.24 18.2249 23.2939 16.95C23.3476 15.6703 23.361 15.2625 23.361 12.0047C23.361 8.7469 23.3476 8.33905 23.2939 7.0594C23.24 5.7844 23.0427 4.90781 22.7602 4.14844C22.4777 3.35156 22.0877 2.68125 21.4465 2.01563C20.8098 1.35 20.1686 0.9375 19.4154 0.63281C18.6846 0.3375 17.8505 0.131249 16.631 0.075C15.4025 0.0140625 15.0124 0 11.8963 0Z" fill="white"/>
<path d="M11.8961 5.83594C8.64091 5.83594 6 8.59689 6 12C6 15.4031 8.64091 18.1641 11.8961 18.1641C15.1512 18.1641 17.792 15.4031 17.792 12C17.792 8.59689 15.1512 5.83594 11.8961 5.83594ZM11.8961 15.9984C9.78424 15.9984 8.07144 14.2078 8.07144 12C8.07144 9.79219 9.78424 8.00153 11.8961 8.00153C14.0079 8.00153 15.7206 9.79219 15.7206 12C15.7206 14.2078 14.0079 15.9984 11.8961 15.9984Z" fill="white"/>
<path d="M19.4013 5.59229C19.4013 6.38919 18.7827 7.03134 18.0249 7.03134C17.2627 7.03134 16.6484 6.3845 16.6484 5.59229C16.6484 4.79541 17.2672 4.15323 18.0249 4.15323C18.7827 4.15323 19.4013 4.8001 19.4013 5.59229Z" fill="white"/>
</g>
</g>
</g>
</g>
</g>
<defs>
<clipPath id="clip0_75_24">
<rect width="24" height="24" fill="white"/>
</clipPath>
</defs>
</svg>
