<svg width="24" height="24" viewBox="0 0 24 24" fill="none" xmlns="http://www.w3.org/2000/svg">
<g clip-path="url(#clip0_75_44)">
<mask id="mask0_75_44" style="mask-type:luminance" maskUnits="userSpaceOnUse" x="0" y="0" width="24" height="24">
<path d="M23.3745 0H0.417969V24H23.3745V0Z" fill="white"/>
</mask>
<g mask="url(#mask0_75_44)">
<mask id="mask1_75_44" style="mask-type:luminance" maskUnits="userSpaceOnUse" x="0" y="0" width="24" height="24">
<path d="M23.3745 0H0.417969V24H23.3745V0Z" fill="white"/>
</mask>
<g mask="url(#mask1_75_44)">
<mask id="mask2_75_44" style="mask-type:luminance" maskUnits="userSpaceOnUse" x="0" y="0" width="24" height="24">
<path d="M23.3745 0H0.417969V24H23.3745V0Z" fill="white"/>
</mask>
<g mask="url(#mask2_75_44)">
<mask id="mask3_75_44" style="mask-type:luminance" maskUnits="userSpaceOnUse" x="0" y="0" width="24" height="24">
<path d="M23.3745 0H0.417969V24H23.3745V0Z" fill="white"/>
</mask>
<g mask="url(#mask3_75_44)">
<path d="M21.6799 0H2.11261C1.66316 0 1.23212 0.186658 0.914318 0.518911C0.596511 0.85116 0.417969 1.30179 0.417969 1.77167V22.2284C0.417969 22.6982 0.596511 23.1489 0.914318 23.4811C1.23212 23.8133 1.66316 24 2.11261 24H21.6799C22.1293 24 22.5604 23.8133 22.8781 23.4811C23.196 23.1489 23.3745 22.6982 23.3745 22.2284V1.77167C23.3745 1.30179 23.196 0.85116 22.8781 0.518911C22.5604 0.186658 22.1293 0 21.6799 0ZM7.26031 20.4451H3.80883V8.98335H7.26031V20.4451ZM5.53216 7.395C5.14067 7.3927 4.75859 7.2692 4.43415 7.04011C4.10972 6.811 3.85747 6.48655 3.70925 6.10769C3.56102 5.72885 3.52346 5.3126 3.6013 4.91146C3.67915 4.51032 3.86891 4.14228 4.14664 3.85378C4.42437 3.56529 4.77762 3.36926 5.16181 3.29047C5.54598 3.21166 5.9439 3.25359 6.30532 3.41099C6.66673 3.56837 6.97545 3.83416 7.19249 4.17481C7.40957 4.51546 7.52521 4.91569 7.52492 5.325C7.52861 5.59905 7.47949 5.87105 7.38049 6.1248C7.28149 6.37855 7.13466 6.6089 6.94867 6.80205C6.76272 6.99525 6.54148 7.1473 6.29809 7.24915C6.05476 7.351 5.79424 7.4006 5.53216 7.395ZM19.9821 20.455H16.5321V14.1934C16.5321 12.3467 15.7813 11.7767 14.812 11.7767C13.7886 11.7767 12.7843 12.5833 12.7843 14.24V20.455H9.33275V8.99165H12.6518V10.58H12.6965C13.0297 9.875 14.1967 8.67 15.9774 8.67C17.9031 8.67 19.9836 9.865 19.9836 13.3651L19.9821 20.455Z" fill="white"/>
</g>
</g>
</g>
</g>
</g>
<defs>
<clipPath id="clip0_75_44">
<rect width="24" height="24" fill="white"/>
</clipPath>
</defs>
</svg>
